%TF.GenerationSoftware,KiCad,Pcbnew,10.0.1*%
%TF.CreationDate,2026-06-08T18:33:36-06:00*%
%TF.ProjectId,MMS_SSTC,4d4d535f-5353-4544-932e-6b696361645f,1.0.0*%
%TF.SameCoordinates,Original*%
%TF.FileFunction,Copper,L1,Top*%
%TF.FilePolarity,Positive*%
%FSLAX46Y46*%
G04 Gerber Fmt 4.6, Leading zero omitted, Abs format (unit mm)*
G04 Created by KiCad (PCBNEW 10.0.1) date 2026-06-08 18:33:36*
%MOMM*%
%LPD*%
G01*
G04 APERTURE LIST*
G04 Aperture macros list*
%AMRoundRect*
0 Rectangle with rounded corners*
0 $1 Rounding radius*
0 $2 $3 $4 $5 $6 $7 $8 $9 X,Y pos of 4 corners*
0 Add a 4 corners polygon primitive as box body*
4,1,4,$2,$3,$4,$5,$6,$7,$8,$9,$2,$3,0*
0 Add four circle primitives for the rounded corners*
1,1,$1+$1,$2,$3*
1,1,$1+$1,$4,$5*
1,1,$1+$1,$6,$7*
1,1,$1+$1,$8,$9*
0 Add four rect primitives between the rounded corners*
20,1,$1+$1,$2,$3,$4,$5,0*
20,1,$1+$1,$4,$5,$6,$7,0*
20,1,$1+$1,$6,$7,$8,$9,0*
20,1,$1+$1,$8,$9,$2,$3,0*%
G04 Aperture macros list end*
%TA.AperFunction,ComponentPad*%
%ADD10R,4.500000X2.500000*%
%TD*%
%TA.AperFunction,ComponentPad*%
%ADD11O,4.500000X2.500000*%
%TD*%
%TA.AperFunction,ComponentPad*%
%ADD12C,1.600000*%
%TD*%
%TA.AperFunction,ComponentPad*%
%ADD13C,1.400000*%
%TD*%
%TA.AperFunction,ComponentPad*%
%ADD14C,1.950000*%
%TD*%
%TA.AperFunction,ComponentPad*%
%ADD15R,1.800000X1.800000*%
%TD*%
%TA.AperFunction,ComponentPad*%
%ADD16C,1.800000*%
%TD*%
%TA.AperFunction,ComponentPad*%
%ADD17C,2.400000*%
%TD*%
%TA.AperFunction,ComponentPad*%
%ADD18R,2.200000X2.200000*%
%TD*%
%TA.AperFunction,ComponentPad*%
%ADD19C,2.200000*%
%TD*%
%TA.AperFunction,ComponentPad*%
%ADD20RoundRect,0.250000X-0.550000X-0.550000X0.550000X-0.550000X0.550000X0.550000X-0.550000X0.550000X0*%
%TD*%
%TA.AperFunction,ComponentPad*%
%ADD21R,1.905000X2.000000*%
%TD*%
%TA.AperFunction,ComponentPad*%
%ADD22O,1.905000X2.000000*%
%TD*%
%TA.AperFunction,ComponentPad*%
%ADD23R,1.600000X1.600000*%
%TD*%
%TA.AperFunction,ComponentPad*%
%ADD24O,1.600000X1.600000*%
%TD*%
%TA.AperFunction,ComponentPad*%
%ADD25RoundRect,0.250000X1.050000X1.050000X-1.050000X1.050000X-1.050000X-1.050000X1.050000X-1.050000X0*%
%TD*%
%TA.AperFunction,ComponentPad*%
%ADD26C,2.600000*%
%TD*%
%TA.AperFunction,ComponentPad*%
%ADD27C,2.000000*%
%TD*%
%TA.AperFunction,ComponentPad*%
%ADD28RoundRect,0.250001X0.949999X-0.949999X0.949999X0.949999X-0.949999X0.949999X-0.949999X-0.949999X0*%
%TD*%
%TA.AperFunction,ComponentPad*%
%ADD29RoundRect,0.250000X1.750000X-1.750000X1.750000X1.750000X-1.750000X1.750000X-1.750000X-1.750000X0*%
%TD*%
%TA.AperFunction,ComponentPad*%
%ADD30C,4.000000*%
%TD*%
%TA.AperFunction,ComponentPad*%
%ADD31RoundRect,0.250000X-0.550000X0.550000X-0.550000X-0.550000X0.550000X-0.550000X0.550000X0.550000X0*%
%TD*%
%TA.AperFunction,ComponentPad*%
%ADD32RoundRect,0.250000X0.550000X-0.550000X0.550000X0.550000X-0.550000X0.550000X-0.550000X-0.550000X0*%
%TD*%
%TA.AperFunction,Conductor*%
%ADD33C,2.000000*%
%TD*%
%TA.AperFunction,Conductor*%
%ADD34C,0.500000*%
%TD*%
G04 APERTURE END LIST*
D10*
%TO.P,Q1,1,G_1*%
%TO.N,/GATE*%
X168200000Y-99550000D03*
D11*
%TO.P,Q1,2,D_2*%
%TO.N,/DRAIN*%
X168200000Y-105000000D03*
%TO.P,Q1,3,S_3*%
%TO.N,GND*%
X168200000Y-110450000D03*
%TD*%
D12*
%TO.P,C1,1*%
%TO.N,Net-(U1-CV)*%
X128020000Y-103750000D03*
%TO.P,C1,2*%
%TO.N,GND*%
X130520000Y-103750000D03*
%TD*%
%TO.P,C3,1*%
%TO.N,GND*%
X165040000Y-83820000D03*
%TO.P,C3,2*%
%TO.N,+12V*%
X165040000Y-86320000D03*
%TD*%
%TO.P,C8,1*%
%TO.N,+5V*%
X139800000Y-74540000D03*
%TO.P,C8,2*%
%TO.N,GND*%
X142300000Y-74540000D03*
%TD*%
D13*
%TO.P,R2,1*%
%TO.N,Net-(U1-DIS)*%
X142785000Y-101630000D03*
%TO.P,R2,2*%
%TO.N,Net-(U1-THR)*%
X142785000Y-96550000D03*
%TD*%
D14*
%TO.P,J2,1,Pin_1_1*%
%TO.N,Earth*%
X148000000Y-132600000D03*
%TO.P,J2,2,Pin_2_2*%
%TO.N,+170V*%
X153000000Y-132600000D03*
%TO.P,J2,3,Pin_3_3*%
%TO.N,/DRAIN*%
X158000000Y-132600000D03*
%TD*%
D13*
%TO.P,R3,1*%
%TO.N,/GATE*%
X165300000Y-94110000D03*
%TO.P,R3,2*%
%TO.N,Net-(U2-OUT)*%
X165300000Y-89030000D03*
%TD*%
D12*
%TO.P,C5,1*%
%TO.N,Net-(D2-+)*%
X134300000Y-85290000D03*
%TO.P,C5,2*%
%TO.N,GND*%
X136800000Y-85290000D03*
%TD*%
D15*
%TO.P,LED1,1,K_1*%
%TO.N,GND*%
X122910000Y-137450000D03*
D16*
%TO.P,LED1,2,A_2*%
%TO.N,Net-(LED1-A)*%
X125450000Y-137450000D03*
%TD*%
D12*
%TO.P,C6,1*%
%TO.N,+12V*%
X139600000Y-85300000D03*
%TO.P,C6,2*%
%TO.N,GND*%
X142100000Y-85300000D03*
%TD*%
D13*
%TO.P,R1,1*%
%TO.N,Net-(D1-K)*%
X139390000Y-101630000D03*
%TO.P,R1,2*%
%TO.N,Net-(U1-THR)*%
X139390000Y-96550000D03*
%TD*%
D17*
%TO.P,F1,1*%
%TO.N,HT_SW*%
X97500000Y-135350000D03*
%TO.P,F1,2*%
%TO.N,AC_PROT*%
X97500000Y-122650000D03*
%TD*%
D18*
%TO.P,TR1,1*%
%TO.N,AC_PROT*%
X97000000Y-89250000D03*
D19*
%TO.P,TR1,2*%
%TO.N,GND*%
X97000000Y-109250000D03*
%TO.P,TR1,3*%
%TO.N,Net-(D2-Pad4)*%
X117000000Y-94250000D03*
%TO.P,TR1,4*%
%TO.N,Net-(D2-Pad3)*%
X117000000Y-104250000D03*
%TD*%
D20*
%TO.P,U2,1,VDD__1_1*%
%TO.N,+12V*%
X154180000Y-86260000D03*
D12*
%TO.P,U2,2,IN_2*%
%TO.N,OSC_OUT*%
X154180000Y-88800000D03*
%TO.P,U2,3,ENBL_3*%
%TO.N,INTERRUPT_OUT*%
X154180000Y-91340000D03*
%TO.P,U2,4,AGND_4*%
%TO.N,GND*%
X154180000Y-93880000D03*
%TO.P,U2,5,PGND_5*%
X161800000Y-93880000D03*
%TO.P,U2,6,OUT_6*%
%TO.N,Net-(U2-OUT)*%
X161800000Y-91340000D03*
%TO.P,U2,7,OUT__1_7*%
X161800000Y-88800000D03*
%TO.P,U2,8,VDD_8*%
%TO.N,+12V*%
X161800000Y-86260000D03*
%TD*%
D21*
%TO.P,U3,1,VI_1*%
%TO.N,Net-(D2-+)*%
X134510000Y-82190000D03*
D22*
%TO.P,U3,2,GND_2*%
%TO.N,GND*%
X137050000Y-82190000D03*
%TO.P,U3,3,VO_3*%
%TO.N,+12V*%
X139590000Y-82190000D03*
%TD*%
D21*
%TO.P,U4,1,VI_1*%
%TO.N,+12V*%
X134480000Y-71490000D03*
D22*
%TO.P,U4,2,GND_2*%
%TO.N,GND*%
X137020000Y-71490000D03*
%TO.P,U4,3,VO_3*%
%TO.N,+5V*%
X139560000Y-71490000D03*
%TD*%
D23*
%TO.P,D2,1,+_1*%
%TO.N,Net-(D2-+)*%
X107000000Y-70190000D03*
D24*
%TO.P,D2,2,-_2*%
%TO.N,GND*%
X101920000Y-70190000D03*
%TO.P,D2,3*%
%TO.N,Net-(D2-Pad3)*%
X101920000Y-77810000D03*
%TO.P,D2,4*%
%TO.N,Net-(D2-Pad4)*%
X107000000Y-77810000D03*
%TD*%
D25*
%TO.P,D3,1,K_1*%
%TO.N,+170V*%
X115950000Y-122500000D03*
D26*
%TO.P,D3,2,A_2*%
%TO.N,AC_PROT*%
X103250000Y-122500000D03*
%TD*%
D14*
%TO.P,J1,1,Pin_1_1*%
%TO.N,HT_SW*%
X104000000Y-132600000D03*
%TO.P,J1,2,Pin_2_2*%
%TO.N,GND*%
X109000000Y-132600000D03*
%TO.P,J1,3,Pin_3_3*%
%TO.N,Earth*%
X114000000Y-132600000D03*
%TD*%
D27*
%TO.P,C10,1*%
%TO.N,/DRAIN*%
X161750000Y-100500000D03*
%TO.P,C10,2*%
%TO.N,GND*%
X161750000Y-110500000D03*
%TD*%
D17*
%TO.P,TVS1,1,A1_1*%
%TO.N,GND*%
X154500000Y-109480000D03*
%TO.P,TVS1,2,A2_2*%
%TO.N,/GATE*%
X154500000Y-99320000D03*
%TD*%
%TO.P,R5,1*%
%TO.N,unconnected-(R5-Pad1)*%
X136050000Y-137500000D03*
%TO.P,R5,2*%
%TO.N,Net-(LED1-A)*%
X130970000Y-137500000D03*
%TD*%
D12*
%TO.P,C7,1*%
%TO.N,+12V*%
X134500000Y-74540000D03*
%TO.P,C7,2*%
%TO.N,GND*%
X137000000Y-74540000D03*
%TD*%
D28*
%TO.P,C11,1*%
%TO.N,Net-(D2-+)*%
X119800000Y-76123959D03*
D17*
%TO.P,C11,2*%
%TO.N,GND*%
X119800000Y-71123959D03*
%TD*%
D12*
%TO.P,C4,1*%
%TO.N,+5V*%
X147500000Y-71450000D03*
%TO.P,C4,2*%
%TO.N,GND*%
X147500000Y-73950000D03*
%TD*%
D17*
%TO.P,C12,1*%
%TO.N,+170V*%
X152900000Y-123100000D03*
%TO.P,C12,2*%
%TO.N,GND*%
X167900000Y-123100000D03*
%TD*%
D29*
%TO.P,C13,1*%
%TO.N,+170V*%
X136000000Y-123057832D03*
D30*
%TO.P,C13,2*%
%TO.N,GND*%
X136000000Y-113057832D03*
%TD*%
D12*
%TO.P,C2,1*%
%TO.N,+12V*%
X128285000Y-90050000D03*
%TO.P,C2,2*%
%TO.N,GND*%
X130785000Y-90050000D03*
%TD*%
D23*
%TO.P,Y1,1,EN_1*%
%TO.N,+5V*%
X151940000Y-71500000D03*
D12*
%TO.P,Y1,4,GND_4*%
%TO.N,GND*%
X151940000Y-79120000D03*
%TO.P,Y1,5,OUT_5*%
%TO.N,OSC_OUT*%
X159560000Y-79120000D03*
%TO.P,Y1,8,Vcc_8*%
%TO.N,+5V*%
X159560000Y-71500000D03*
%TD*%
D31*
%TO.P,U1,1,GND_1*%
%TO.N,GND*%
X135890000Y-93050000D03*
D12*
%TO.P,U1,2,TR_2*%
%TO.N,Net-(U1-THR)*%
X133350000Y-93050000D03*
%TO.P,U1,3,Q_3*%
%TO.N,INTERRUPT_OUT*%
X130810000Y-93050000D03*
%TO.P,U1,4,R_4*%
%TO.N,+12V*%
X128270000Y-93050000D03*
%TO.P,U1,5,CV_5*%
%TO.N,Net-(U1-CV)*%
X128270000Y-100670000D03*
%TO.P,U1,6,THR_6*%
%TO.N,Net-(U1-THR)*%
X130810000Y-100670000D03*
%TO.P,U1,7,DIS_7*%
%TO.N,Net-(U1-DIS)*%
X133350000Y-100670000D03*
%TO.P,U1,8,VCC_8*%
%TO.N,+12V*%
X135890000Y-100670000D03*
%TD*%
%TO.P,C9,1*%
%TO.N,Net-(U1-THR)*%
X139600000Y-92800000D03*
%TO.P,C9,2*%
%TO.N,GND*%
X144600000Y-92800000D03*
%TD*%
D32*
%TO.P,D1,1,K_1*%
%TO.N,Net-(D1-K)*%
X146285000Y-104110000D03*
D12*
%TO.P,D1,2,A_2*%
%TO.N,INTERRUPT_OUT*%
X146285000Y-96490000D03*
%TD*%
D13*
%TO.P,R4,1*%
%TO.N,Net-(LED1-A)*%
X126525000Y-130450000D03*
%TO.P,R4,2*%
%TO.N,GND*%
X121445000Y-130450000D03*
%TD*%
%TO.N,GND*%
D33*
X168150000Y-110500000D02*
X168200000Y-110450000D01*
X168200000Y-110450000D02*
X165600000Y-110450000D01*
X161750000Y-110500000D02*
X163400000Y-110500000D01*
%TO.N,+12V*%
D34*
X135890000Y-100670000D02*
X128270000Y-93050000D01*
X154180000Y-86260000D02*
X161800000Y-86260000D01*
%TD*%
%TA.AperFunction,Conductor*%
%TO.N,GND*%
G36*
X165483629Y-65520185D02*
G01*
X165529384Y-65572989D01*
X165539328Y-65642147D01*
X165510303Y-65705703D01*
X165464042Y-65739061D01*
X165458735Y-65741259D01*
X165458723Y-65741264D01*
X165146752Y-65908017D01*
X165146734Y-65908028D01*
X164852606Y-66104558D01*
X164852592Y-66104568D01*
X164579130Y-66328992D01*
X164328992Y-66579130D01*
X164104568Y-66852592D01*
X164104558Y-66852606D01*
X163908028Y-67146734D01*
X163908017Y-67146752D01*
X163741264Y-67458723D01*
X163741262Y-67458728D01*
X163605882Y-67785563D01*
X163503188Y-68124104D01*
X163503185Y-68124115D01*
X163434176Y-68471053D01*
X163434173Y-68471070D01*
X163407317Y-68743748D01*
X163399500Y-68823119D01*
X163399500Y-69176881D01*
X163403475Y-69217235D01*
X163434173Y-69528929D01*
X163434176Y-69528946D01*
X163503185Y-69875884D01*
X163503188Y-69875895D01*
X163605882Y-70214436D01*
X163695225Y-70430128D01*
X163741259Y-70541265D01*
X163741262Y-70541271D01*
X163741264Y-70541276D01*
X163908017Y-70853247D01*
X163908028Y-70853265D01*
X164104558Y-71147393D01*
X164104568Y-71147407D01*
X164328992Y-71420869D01*
X164579130Y-71671007D01*
X164579135Y-71671011D01*
X164579136Y-71671012D01*
X164852598Y-71895436D01*
X165146741Y-72091976D01*
X165146750Y-72091981D01*
X165146752Y-72091982D01*
X165458723Y-72258735D01*
X165458725Y-72258735D01*
X165458731Y-72258739D01*
X165785565Y-72394118D01*
X166124095Y-72496809D01*
X166124101Y-72496810D01*
X166124104Y-72496811D01*
X166124115Y-72496814D01*
X166341674Y-72540088D01*
X166471060Y-72565825D01*
X166823119Y-72600500D01*
X166823122Y-72600500D01*
X167176878Y-72600500D01*
X167176881Y-72600500D01*
X167528940Y-72565825D01*
X167700679Y-72531663D01*
X167875884Y-72496814D01*
X167875895Y-72496811D01*
X167875895Y-72496810D01*
X167875905Y-72496809D01*
X168214435Y-72394118D01*
X168541269Y-72258739D01*
X168853259Y-72091976D01*
X169147402Y-71895436D01*
X169420864Y-71671012D01*
X169671012Y-71420864D01*
X169895436Y-71147402D01*
X170091976Y-70853259D01*
X170258739Y-70541269D01*
X170260939Y-70535958D01*
X170304779Y-70481554D01*
X170371073Y-70459489D01*
X170438773Y-70476768D01*
X170486384Y-70527905D01*
X170499500Y-70583410D01*
X170499500Y-97875500D01*
X170479815Y-97942539D01*
X170427011Y-97988294D01*
X170375500Y-97999500D01*
X165905143Y-97999500D01*
X165905117Y-97999502D01*
X165880012Y-98002413D01*
X165880008Y-98002415D01*
X165777235Y-98047793D01*
X165697794Y-98127234D01*
X165652415Y-98230006D01*
X165652415Y-98230008D01*
X165649500Y-98255131D01*
X165649500Y-100844856D01*
X165649502Y-100844882D01*
X165652413Y-100869987D01*
X165652415Y-100869991D01*
X165697793Y-100972764D01*
X165697794Y-100972765D01*
X165777235Y-101052206D01*
X165880009Y-101097585D01*
X165905135Y-101100500D01*
X170375500Y-101100499D01*
X170442539Y-101120184D01*
X170488294Y-101172988D01*
X170499500Y-101224499D01*
X170499500Y-103167778D01*
X170479815Y-103234817D01*
X170427011Y-103280572D01*
X170357853Y-103290516D01*
X170313500Y-103275165D01*
X170108866Y-103157019D01*
X170108850Y-103157011D01*
X169860524Y-103054152D01*
X169730708Y-103019368D01*
X169600891Y-102984584D01*
X169600885Y-102984583D01*
X169600880Y-102984582D01*
X169334398Y-102949500D01*
X169334397Y-102949500D01*
X167065603Y-102949500D01*
X167065602Y-102949500D01*
X166799119Y-102984582D01*
X166799112Y-102984583D01*
X166799109Y-102984584D01*
X166744239Y-102999286D01*
X166539475Y-103054152D01*
X166291149Y-103157011D01*
X166291133Y-103157019D01*
X166058354Y-103291416D01*
X165845111Y-103455042D01*
X165845104Y-103455048D01*
X165655048Y-103645104D01*
X165655042Y-103645111D01*
X165491416Y-103858354D01*
X165357019Y-104091133D01*
X165357011Y-104091149D01*
X165254152Y-104339475D01*
X165184585Y-104599106D01*
X165184582Y-104599119D01*
X165149500Y-104865602D01*
X165149500Y-105134397D01*
X165184582Y-105400880D01*
X165184583Y-105400885D01*
X165184584Y-105400891D01*
X165219368Y-105530708D01*
X165254152Y-105660524D01*
X165357011Y-105908850D01*
X165357019Y-105908866D01*
X165437830Y-106048832D01*
X165491413Y-106141641D01*
X165491415Y-106141644D01*
X165491416Y-106141645D01*
X165655042Y-106354888D01*
X165655048Y-106354895D01*
X165845104Y-106544951D01*
X165845110Y-106544956D01*
X166058359Y-106708587D01*
X166192674Y-106786134D01*
X166291133Y-106842980D01*
X166291149Y-106842988D01*
X166446008Y-106907132D01*
X166539474Y-106945847D01*
X166799109Y-107015416D01*
X166987319Y-107040193D01*
X167065602Y-107050500D01*
X167065603Y-107050500D01*
X169334398Y-107050500D01*
X169394905Y-107042534D01*
X169600891Y-107015416D01*
X169860526Y-106945847D01*
X170047457Y-106868417D01*
X170108850Y-106842988D01*
X170108853Y-106842986D01*
X170108859Y-106842984D01*
X170313500Y-106724833D01*
X170381400Y-106708361D01*
X170447427Y-106731213D01*
X170490617Y-106786134D01*
X170499500Y-106832221D01*
X170499500Y-108989867D01*
X170479815Y-109056906D01*
X170427011Y-109102661D01*
X170357853Y-109112605D01*
X170300014Y-109088243D01*
X170174338Y-108991809D01*
X169975668Y-108877106D01*
X169975659Y-108877102D01*
X169763730Y-108789318D01*
X169542137Y-108729942D01*
X169314710Y-108700001D01*
X169314694Y-108700000D01*
X168700000Y-108700000D01*
X168700000Y-109889340D01*
X168678097Y-109867437D01*
X168555258Y-109785359D01*
X168418767Y-109728822D01*
X168273869Y-109700000D01*
X168126131Y-109700000D01*
X167981233Y-109728822D01*
X167844742Y-109785359D01*
X167721903Y-109867437D01*
X167700000Y-109889340D01*
X167700000Y-108700000D01*
X167085306Y-108700000D01*
X167085289Y-108700001D01*
X166857862Y-108729942D01*
X166636269Y-108789318D01*
X166424340Y-108877102D01*
X166424331Y-108877106D01*
X166225661Y-108991809D01*
X166043670Y-109131455D01*
X166043663Y-109131461D01*
X165881461Y-109293663D01*
X165881455Y-109293670D01*
X165741809Y-109475661D01*
X165627106Y-109674331D01*
X165627102Y-109674340D01*
X165539320Y-109886264D01*
X165539317Y-109886274D01*
X165522242Y-109950000D01*
X167639340Y-109950000D01*
X167617437Y-109971903D01*
X167535359Y-110094742D01*
X167478822Y-110231233D01*
X167450000Y-110376131D01*
X167450000Y-110523869D01*
X167478822Y-110668767D01*
X167535359Y-110805258D01*
X167617437Y-110928097D01*
X167639340Y-110950000D01*
X165522242Y-110950000D01*
X165539317Y-111013725D01*
X165539320Y-111013735D01*
X165627102Y-111225659D01*
X165627106Y-111225668D01*
X165741809Y-111424338D01*
X165881455Y-111606329D01*
X165881461Y-111606336D01*
X166043663Y-111768538D01*
X166043670Y-111768544D01*
X166225661Y-111908190D01*
X166424331Y-112022893D01*
X166424340Y-112022897D01*
X166636269Y-112110681D01*
X166857862Y-112170057D01*
X167085289Y-112199998D01*
X167085306Y-112200000D01*
X167700000Y-112200000D01*
X167700000Y-111010660D01*
X167721903Y-111032563D01*
X167844742Y-111114641D01*
X167981233Y-111171178D01*
X168126131Y-111200000D01*
X168273869Y-111200000D01*
X168418767Y-111171178D01*
X168555258Y-111114641D01*
X168678097Y-111032563D01*
X168700000Y-111010660D01*
X168700000Y-112200000D01*
X169314694Y-112200000D01*
X169314710Y-112199998D01*
X169542137Y-112170057D01*
X169763730Y-112110681D01*
X169975659Y-112022897D01*
X169975668Y-112022893D01*
X170174334Y-111908193D01*
X170300013Y-111811756D01*
X170365182Y-111786562D01*
X170433627Y-111800600D01*
X170483617Y-111849414D01*
X170499500Y-111910132D01*
X170499500Y-139416589D01*
X170479815Y-139483628D01*
X170427011Y-139529383D01*
X170357853Y-139539327D01*
X170294297Y-139510302D01*
X170260941Y-139464046D01*
X170258741Y-139458736D01*
X170258735Y-139458723D01*
X170091982Y-139146752D01*
X170091981Y-139146750D01*
X170091976Y-139146741D01*
X169895436Y-138852598D01*
X169671012Y-138579136D01*
X169671011Y-138579135D01*
X169671007Y-138579130D01*
X169420869Y-138328992D01*
X169147407Y-138104568D01*
X169147406Y-138104567D01*
X169147402Y-138104564D01*
X168853259Y-137908024D01*
X168853254Y-137908021D01*
X168853247Y-137908017D01*
X168541276Y-137741264D01*
X168541271Y-137741262D01*
X168516781Y-137731118D01*
X168445543Y-137701610D01*
X168214436Y-137605882D01*
X167875895Y-137503188D01*
X167875884Y-137503185D01*
X167528946Y-137434176D01*
X167528929Y-137434173D01*
X167262700Y-137407952D01*
X167176881Y-137399500D01*
X166823119Y-137399500D01*
X166743748Y-137407317D01*
X166471070Y-137434173D01*
X166471053Y-137434176D01*
X166124115Y-137503185D01*
X166124104Y-137503188D01*
X165785563Y-137605882D01*
X165458728Y-137741262D01*
X165458723Y-137741264D01*
X165146752Y-137908017D01*
X165146734Y-137908028D01*
X164852606Y-138104558D01*
X164852592Y-138104568D01*
X164579130Y-138328992D01*
X164328992Y-138579130D01*
X164104568Y-138852592D01*
X164104558Y-138852606D01*
X163908028Y-139146734D01*
X163908017Y-139146752D01*
X163741264Y-139458723D01*
X163741262Y-139458728D01*
X163605882Y-139785563D01*
X163503188Y-140124104D01*
X163503185Y-140124115D01*
X163434176Y-140471053D01*
X163434173Y-140471070D01*
X163399500Y-140823122D01*
X163399500Y-141176877D01*
X163434173Y-141528929D01*
X163434176Y-141528946D01*
X163503185Y-141875884D01*
X163503188Y-141875895D01*
X163503190Y-141875904D01*
X163503191Y-141875905D01*
X163605882Y-142214435D01*
X163735725Y-142527905D01*
X163741262Y-142541271D01*
X163741264Y-142541276D01*
X163908017Y-142853247D01*
X163908028Y-142853265D01*
X164104558Y-143147393D01*
X164104568Y-143147407D01*
X164328992Y-143420869D01*
X164579130Y-143671007D01*
X164579135Y-143671011D01*
X164579136Y-143671012D01*
X164852598Y-143895436D01*
X165146741Y-144091976D01*
X165146750Y-144091981D01*
X165146752Y-144091982D01*
X165458723Y-144258735D01*
X165458725Y-144258735D01*
X165458731Y-144258739D01*
X165463263Y-144260616D01*
X165464042Y-144260939D01*
X165518446Y-144304779D01*
X165540511Y-144371073D01*
X165523232Y-144438773D01*
X165472095Y-144486384D01*
X165416590Y-144499500D01*
X96583410Y-144499500D01*
X96516371Y-144479815D01*
X96470616Y-144427011D01*
X96460672Y-144357853D01*
X96489697Y-144294297D01*
X96535958Y-144260939D01*
X96536464Y-144260729D01*
X96541269Y-144258739D01*
X96853259Y-144091976D01*
X97147402Y-143895436D01*
X97420864Y-143671012D01*
X97671012Y-143420864D01*
X97895436Y-143147402D01*
X98091976Y-142853259D01*
X98258739Y-142541269D01*
X98394118Y-142214435D01*
X98496809Y-141875905D01*
X98496811Y-141875895D01*
X98496814Y-141875884D01*
X98531663Y-141700679D01*
X98565825Y-141528940D01*
X98600500Y-141176881D01*
X98600500Y-140823119D01*
X98565825Y-140471060D01*
X98540088Y-140341674D01*
X98496814Y-140124115D01*
X98496811Y-140124104D01*
X98496810Y-140124101D01*
X98496809Y-140124095D01*
X98394118Y-139785565D01*
X98258739Y-139458731D01*
X98091976Y-139146741D01*
X97895436Y-138852598D01*
X97671012Y-138579136D01*
X97671011Y-138579135D01*
X97671007Y-138579130D01*
X97489721Y-138397844D01*
X121510000Y-138397844D01*
X121516401Y-138457372D01*
X121516403Y-138457379D01*
X121566645Y-138592086D01*
X121566649Y-138592093D01*
X121652809Y-138707187D01*
X121652812Y-138707190D01*
X121767906Y-138793350D01*
X121767913Y-138793354D01*
X121902620Y-138843596D01*
X121902627Y-138843598D01*
X121962155Y-138849999D01*
X121962172Y-138850000D01*
X122510000Y-138850000D01*
X122510000Y-137850000D01*
X121510000Y-137850000D01*
X121510000Y-138397844D01*
X97489721Y-138397844D01*
X97420869Y-138328992D01*
X97147407Y-138104568D01*
X97147406Y-138104567D01*
X97147402Y-138104564D01*
X96853259Y-137908024D01*
X96853203Y-137907994D01*
X96853202Y-137907993D01*
X96541276Y-137741264D01*
X96541271Y-137741262D01*
X96516781Y-137731118D01*
X96445543Y-137701610D01*
X96214436Y-137605882D01*
X95875895Y-137503188D01*
X95875884Y-137503185D01*
X95528946Y-137434176D01*
X95528929Y-137434173D01*
X95262700Y-137407952D01*
X95176881Y-137399500D01*
X94823119Y-137399500D01*
X94743748Y-137407317D01*
X94471070Y-137434173D01*
X94471053Y-137434176D01*
X94124115Y-137503185D01*
X94124104Y-137503188D01*
X93785563Y-137605882D01*
X93458728Y-137741262D01*
X93458723Y-137741264D01*
X93146752Y-137908017D01*
X93146734Y-137908028D01*
X92852606Y-138104558D01*
X92852592Y-138104568D01*
X92579130Y-138328992D01*
X92328992Y-138579130D01*
X92104568Y-138852592D01*
X92104558Y-138852606D01*
X91908028Y-139146734D01*
X91908017Y-139146752D01*
X91741264Y-139458723D01*
X91741258Y-139458736D01*
X91739059Y-139464046D01*
X91695216Y-139518448D01*
X91628921Y-139540510D01*
X91561223Y-139523228D01*
X91513614Y-139472090D01*
X91500500Y-139416589D01*
X91500500Y-137390756D01*
X122460000Y-137390756D01*
X122460000Y-137509244D01*
X122490667Y-137623694D01*
X122549910Y-137726306D01*
X122633694Y-137810090D01*
X122736306Y-137869333D01*
X122850756Y-137900000D01*
X122969244Y-137900000D01*
X123083694Y-137869333D01*
X123186306Y-137810090D01*
X123270090Y-137726306D01*
X123310000Y-137657179D01*
X123310000Y-138850000D01*
X123857828Y-138850000D01*
X123857844Y-138849999D01*
X123917372Y-138843598D01*
X123917379Y-138843596D01*
X124052086Y-138793354D01*
X124052093Y-138793350D01*
X124167187Y-138707190D01*
X124167190Y-138707187D01*
X124253350Y-138592093D01*
X124253354Y-138592086D01*
X124303596Y-138457379D01*
X124303598Y-138457372D01*
X124309999Y-138397844D01*
X124310000Y-138397827D01*
X124310000Y-138304969D01*
X124329685Y-138237930D01*
X124382489Y-138192175D01*
X124451647Y-138182231D01*
X124515203Y-138211256D01*
X124531012Y-138228481D01*
X124531146Y-138228368D01*
X124534308Y-138232070D01*
X124534310Y-138232073D01*
X124667927Y-138365690D01*
X124820801Y-138476760D01*
X124900347Y-138517290D01*
X124989163Y-138562545D01*
X124989165Y-138562545D01*
X124989168Y-138562547D01*
X125080079Y-138592086D01*
X125168881Y-138620940D01*
X125355514Y-138650500D01*
X125355519Y-138650500D01*
X125544486Y-138650500D01*
X125731118Y-138620940D01*
X125910832Y-138562547D01*
X126079199Y-138476760D01*
X126232073Y-138365690D01*
X126365690Y-138232073D01*
X126476760Y-138079199D01*
X126562547Y-137910832D01*
X126620940Y-137731118D01*
X126621702Y-137726306D01*
X126650500Y-137544486D01*
X126650500Y-137381902D01*
X129469500Y-137381902D01*
X129469500Y-137618097D01*
X129506446Y-137851368D01*
X129579433Y-138075996D01*
X129658960Y-138232075D01*
X129686657Y-138286433D01*
X129825483Y-138477510D01*
X129992490Y-138644517D01*
X130183567Y-138783343D01*
X130203215Y-138793354D01*
X130394003Y-138890566D01*
X130394005Y-138890566D01*
X130394008Y-138890568D01*
X130514412Y-138929689D01*
X130618631Y-138963553D01*
X130851903Y-139000500D01*
X130851908Y-139000500D01*
X131088097Y-139000500D01*
X131321368Y-138963553D01*
X131545992Y-138890568D01*
X131756433Y-138783343D01*
X131947510Y-138644517D01*
X132114517Y-138477510D01*
X132253343Y-138286433D01*
X132360568Y-138075992D01*
X132433553Y-137851368D01*
X132453361Y-137726306D01*
X132470500Y-137618097D01*
X132470500Y-137381902D01*
X134549500Y-137381902D01*
X134549500Y-137618097D01*
X134586446Y-137851368D01*
X134659433Y-138075996D01*
X134738960Y-138232075D01*
X134766657Y-138286433D01*
X134905483Y-138477510D01*
X135072490Y-138644517D01*
X135263567Y-138783343D01*
X135283215Y-138793354D01*
X135474003Y-138890566D01*
X135474005Y-138890566D01*
X135474008Y-138890568D01*
X135594412Y-138929689D01*
X135698631Y-138963553D01*
X135931903Y-139000500D01*
X135931908Y-139000500D01*
X136168097Y-139000500D01*
X136401368Y-138963553D01*
X136625992Y-138890568D01*
X136836433Y-138783343D01*
X137027510Y-138644517D01*
X137194517Y-138477510D01*
X137333343Y-138286433D01*
X137440568Y-138075992D01*
X137513553Y-137851368D01*
X137533361Y-137726306D01*
X137550500Y-137618097D01*
X137550500Y-137381902D01*
X137513553Y-137148631D01*
X137440566Y-136924003D01*
X137333342Y-136713566D01*
X137331177Y-136710586D01*
X137194517Y-136522490D01*
X137027510Y-136355483D01*
X136836433Y-136216657D01*
X136789629Y-136192809D01*
X136625996Y-136109433D01*
X136401368Y-136036446D01*
X136168097Y-135999500D01*
X136168092Y-135999500D01*
X135931908Y-135999500D01*
X135931903Y-135999500D01*
X135698631Y-136036446D01*
X135474003Y-136109433D01*
X135263566Y-136216657D01*
X135177678Y-136279059D01*
X135072490Y-136355483D01*
X135072488Y-136355485D01*
X135072487Y-136355485D01*
X134905485Y-136522487D01*
X134905485Y-136522488D01*
X134905483Y-136522490D01*
X134845862Y-136604550D01*
X134766657Y-136713566D01*
X134659433Y-136924003D01*
X134586446Y-137148631D01*
X134549500Y-137381902D01*
X132470500Y-137381902D01*
X132433553Y-137148631D01*
X132360566Y-136924003D01*
X132253342Y-136713566D01*
X132251177Y-136710586D01*
X132114517Y-136522490D01*
X131947510Y-136355483D01*
X131756433Y-136216657D01*
X131709629Y-136192809D01*
X131545996Y-136109433D01*
X131321368Y-136036446D01*
X131088097Y-135999500D01*
X131088092Y-135999500D01*
X130851908Y-135999500D01*
X130851903Y-135999500D01*
X130618631Y-136036446D01*
X130394003Y-136109433D01*
X130183566Y-136216657D01*
X130097678Y-136279059D01*
X129992490Y-136355483D01*
X129992488Y-136355485D01*
X129992487Y-136355485D01*
X129825485Y-136522487D01*
X129825485Y-136522488D01*
X129825483Y-136522490D01*
X129765862Y-136604550D01*
X129686657Y-136713566D01*
X129579433Y-136924003D01*
X129506446Y-137148631D01*
X129469500Y-137381902D01*
X126650500Y-137381902D01*
X126650500Y-137355513D01*
X126620940Y-137168881D01*
X126576031Y-137030667D01*
X126562547Y-136989168D01*
X126562545Y-136989165D01*
X126562545Y-136989163D01*
X126476759Y-136820800D01*
X126365690Y-136667927D01*
X126232073Y-136534310D01*
X126079199Y-136423240D01*
X125910836Y-136337454D01*
X125731118Y-136279059D01*
X125544486Y-136249500D01*
X125544481Y-136249500D01*
X125355519Y-136249500D01*
X125355514Y-136249500D01*
X125168881Y-136279059D01*
X124989163Y-136337454D01*
X124820800Y-136423240D01*
X124794117Y-136442627D01*
X124667927Y-136534310D01*
X124667925Y-136534312D01*
X124667924Y-136534312D01*
X124534312Y-136667924D01*
X124531146Y-136671632D01*
X124530367Y-136670966D01*
X124478975Y-136710586D01*
X124409361Y-136716557D01*
X124347570Y-136683944D01*
X124313219Y-136623102D01*
X124310000Y-136595030D01*
X124310000Y-136502172D01*
X124309999Y-136502155D01*
X124303598Y-136442627D01*
X124303596Y-136442620D01*
X124253354Y-136307913D01*
X124253350Y-136307906D01*
X124167190Y-136192812D01*
X124167187Y-136192809D01*
X124052093Y-136106649D01*
X124052086Y-136106645D01*
X123917379Y-136056403D01*
X123917372Y-136056401D01*
X123857844Y-136050000D01*
X123310000Y-136050000D01*
X123310000Y-137242820D01*
X123270090Y-137173694D01*
X123186306Y-137089910D01*
X123083694Y-137030667D01*
X122969244Y-137000000D01*
X122850756Y-137000000D01*
X122736306Y-137030667D01*
X122633694Y-137089910D01*
X122549910Y-137173694D01*
X122490667Y-137276306D01*
X122460000Y-137390756D01*
X91500500Y-137390756D01*
X91500500Y-135218872D01*
X95499500Y-135218872D01*
X95499500Y-135481127D01*
X95526123Y-135683339D01*
X95533730Y-135741116D01*
X95601602Y-135994418D01*
X95601605Y-135994428D01*
X95701953Y-136236690D01*
X95701958Y-136236700D01*
X95833075Y-136463803D01*
X95992718Y-136671851D01*
X95992726Y-136671860D01*
X96178140Y-136857274D01*
X96178148Y-136857281D01*
X96386196Y-137016924D01*
X96613299Y-137148041D01*
X96613309Y-137148046D01*
X96855571Y-137248394D01*
X96855581Y-137248398D01*
X97108884Y-137316270D01*
X97368880Y-137350500D01*
X97368887Y-137350500D01*
X97631113Y-137350500D01*
X97631120Y-137350500D01*
X97891116Y-137316270D01*
X98144419Y-137248398D01*
X98385275Y-137148632D01*
X98386690Y-137148046D01*
X98386691Y-137148045D01*
X98386697Y-137148043D01*
X98613803Y-137016924D01*
X98821851Y-136857282D01*
X98821855Y-136857277D01*
X98821860Y-136857274D01*
X99007274Y-136671860D01*
X99007277Y-136671855D01*
X99007282Y-136671851D01*
X99137495Y-136502155D01*
X121510000Y-136502155D01*
X121510000Y-137050000D01*
X122510000Y-137050000D01*
X122510000Y-136050000D01*
X121962155Y-136050000D01*
X121902627Y-136056401D01*
X121902620Y-136056403D01*
X121767913Y-136106645D01*
X121767906Y-136106649D01*
X121652812Y-136192809D01*
X121652809Y-136192812D01*
X121566649Y-136307906D01*
X121566645Y-136307913D01*
X121516403Y-136442620D01*
X121516401Y-136442627D01*
X121510000Y-136502155D01*
X99137495Y-136502155D01*
X99166924Y-136463803D01*
X99298043Y-136236697D01*
X99398398Y-135994419D01*
X99466270Y-135741116D01*
X99500500Y-135481120D01*
X99500500Y-135218880D01*
X99466270Y-134958884D01*
X99398398Y-134705581D01*
X99398394Y-134705571D01*
X99298046Y-134463309D01*
X99298041Y-134463299D01*
X99166924Y-134236196D01*
X99043232Y-134075000D01*
X99007282Y-134028149D01*
X99007281Y-134028148D01*
X99007274Y-134028140D01*
X98821860Y-133842726D01*
X98821851Y-133842718D01*
X98613803Y-133683075D01*
X98386700Y-133551958D01*
X98386690Y-133551953D01*
X98144428Y-133451605D01*
X98144421Y-133451603D01*
X98144419Y-133451602D01*
X97891116Y-133383730D01*
X97833339Y-133376123D01*
X97631127Y-133349500D01*
X97631120Y-133349500D01*
X97368880Y-133349500D01*
X97368872Y-133349500D01*
X97137772Y-133379926D01*
X97108884Y-133383730D01*
X96855581Y-133451602D01*
X96855571Y-133451605D01*
X96613309Y-133551953D01*
X96613299Y-133551958D01*
X96386196Y-133683075D01*
X96178148Y-133842718D01*
X95992718Y-134028148D01*
X95833075Y-134236196D01*
X95701958Y-134463299D01*
X95701953Y-134463309D01*
X95601605Y-134705571D01*
X95601602Y-134705581D01*
X95533730Y-134958885D01*
X95499500Y-135218872D01*
X91500500Y-135218872D01*
X91500500Y-132483634D01*
X102224500Y-132483634D01*
X102224500Y-132716365D01*
X102224501Y-132716382D01*
X102254878Y-132947122D01*
X102315120Y-133171947D01*
X102404180Y-133386960D01*
X102404188Y-133386976D01*
X102520553Y-133588524D01*
X102520564Y-133588540D01*
X102662242Y-133773179D01*
X102662248Y-133773186D01*
X102826813Y-133937751D01*
X102826819Y-133937756D01*
X103011468Y-134079442D01*
X103011475Y-134079446D01*
X103213023Y-134195811D01*
X103213039Y-134195819D01*
X103428052Y-134284879D01*
X103428054Y-134284879D01*
X103428060Y-134284882D01*
X103652874Y-134345121D01*
X103883628Y-134375500D01*
X103883635Y-134375500D01*
X104116365Y-134375500D01*
X104116372Y-134375500D01*
X104347126Y-134345121D01*
X104571940Y-134284882D01*
X104689480Y-134236196D01*
X104786960Y-134195819D01*
X104786963Y-134195817D01*
X104786969Y-134195815D01*
X104988532Y-134079442D01*
X105173181Y-133937756D01*
X105337756Y-133773181D01*
X105479442Y-133588532D01*
X105595815Y-133386969D01*
X105684882Y-133171940D01*
X105745121Y-132947126D01*
X105775500Y-132716372D01*
X105775500Y-132483909D01*
X107525000Y-132483909D01*
X107525000Y-132716090D01*
X107561318Y-132945393D01*
X107633065Y-133166205D01*
X107712402Y-133321911D01*
X108353367Y-132680946D01*
X108374979Y-132789598D01*
X108423978Y-132907890D01*
X108495112Y-133014351D01*
X108585649Y-133104888D01*
X108692110Y-133176022D01*
X108810402Y-133225021D01*
X108919052Y-133246632D01*
X108278086Y-133887596D01*
X108433799Y-133966936D01*
X108654606Y-134038681D01*
X108883910Y-134075000D01*
X109116090Y-134075000D01*
X109345393Y-134038681D01*
X109566201Y-133966936D01*
X109566204Y-133966935D01*
X109721912Y-133887596D01*
X109080947Y-133246632D01*
X109189598Y-133225021D01*
X109307890Y-133176022D01*
X109414351Y-133104888D01*
X109504888Y-133014351D01*
X109576022Y-132907890D01*
X109625021Y-132789598D01*
X109646632Y-132680948D01*
X110287596Y-133321912D01*
X110366935Y-133166204D01*
X110366936Y-133166201D01*
X110438681Y-132945393D01*
X110475000Y-132716090D01*
X110475000Y-132483909D01*
X110474956Y-132483634D01*
X112224500Y-132483634D01*
X112224500Y-132716365D01*
X112224501Y-132716382D01*
X112254878Y-132947122D01*
X112315120Y-133171947D01*
X112404180Y-133386960D01*
X112404188Y-133386976D01*
X112520553Y-133588524D01*
X112520564Y-133588540D01*
X112662242Y-133773179D01*
X112662248Y-133773186D01*
X112826813Y-133937751D01*
X112826819Y-133937756D01*
X113011468Y-134079442D01*
X113011475Y-134079446D01*
X113213023Y-134195811D01*
X113213039Y-134195819D01*
X113428052Y-134284879D01*
X113428054Y-134284879D01*
X113428060Y-134284882D01*
X113652874Y-134345121D01*
X113883628Y-134375500D01*
X113883635Y-134375500D01*
X114116365Y-134375500D01*
X114116372Y-134375500D01*
X114347126Y-134345121D01*
X114571940Y-134284882D01*
X114689480Y-134236196D01*
X114786960Y-134195819D01*
X114786963Y-134195817D01*
X114786969Y-134195815D01*
X114988532Y-134079442D01*
X115173181Y-133937756D01*
X115337756Y-133773181D01*
X115479442Y-133588532D01*
X115595815Y-133386969D01*
X115684882Y-133171940D01*
X115745121Y-132947126D01*
X115775500Y-132716372D01*
X115775500Y-132483634D01*
X146224500Y-132483634D01*
X146224500Y-132716365D01*
X146224501Y-132716382D01*
X146254878Y-132947122D01*
X146315120Y-133171947D01*
X146404180Y-133386960D01*
X146404188Y-133386976D01*
X146520553Y-133588524D01*
X146520564Y-133588540D01*
X146662242Y-133773179D01*
X146662248Y-133773186D01*
X146826813Y-133937751D01*
X146826819Y-133937756D01*
X147011468Y-134079442D01*
X147011475Y-134079446D01*
X147213023Y-134195811D01*
X147213039Y-134195819D01*
X147428052Y-134284879D01*
X147428054Y-134284879D01*
X147428060Y-134284882D01*
X147652874Y-134345121D01*
X147883628Y-134375500D01*
X147883635Y-134375500D01*
X148116365Y-134375500D01*
X148116372Y-134375500D01*
X148347126Y-134345121D01*
X148571940Y-134284882D01*
X148689480Y-134236196D01*
X148786960Y-134195819D01*
X148786963Y-134195817D01*
X148786969Y-134195815D01*
X148988532Y-134079442D01*
X149173181Y-133937756D01*
X149337756Y-133773181D01*
X149479442Y-133588532D01*
X149595815Y-133386969D01*
X149684882Y-133171940D01*
X149745121Y-132947126D01*
X149775500Y-132716372D01*
X149775500Y-132483634D01*
X151224500Y-132483634D01*
X151224500Y-132716365D01*
X151224501Y-132716382D01*
X151254878Y-132947122D01*
X151315120Y-133171947D01*
X151404180Y-133386960D01*
X151404188Y-133386976D01*
X151520553Y-133588524D01*
X151520564Y-133588540D01*
X151662242Y-133773179D01*
X151662248Y-133773186D01*
X151826813Y-133937751D01*
X151826819Y-133937756D01*
X152011468Y-134079442D01*
X152011475Y-134079446D01*
X152213023Y-134195811D01*
X152213039Y-134195819D01*
X152428052Y-134284879D01*
X152428054Y-134284879D01*
X152428060Y-134284882D01*
X152652874Y-134345121D01*
X152883628Y-134375500D01*
X152883635Y-134375500D01*
X153116365Y-134375500D01*
X153116372Y-134375500D01*
X153347126Y-134345121D01*
X153571940Y-134284882D01*
X153689480Y-134236196D01*
X153786960Y-134195819D01*
X153786963Y-134195817D01*
X153786969Y-134195815D01*
X153988532Y-134079442D01*
X154173181Y-133937756D01*
X154337756Y-133773181D01*
X154479442Y-133588532D01*
X154595815Y-133386969D01*
X154684882Y-133171940D01*
X154745121Y-132947126D01*
X154775500Y-132716372D01*
X154775500Y-132483634D01*
X156224500Y-132483634D01*
X156224500Y-132716365D01*
X156224501Y-132716382D01*
X156254878Y-132947122D01*
X156315120Y-133171947D01*
X156404180Y-133386960D01*
X156404188Y-133386976D01*
X156520553Y-133588524D01*
X156520564Y-133588540D01*
X156662242Y-133773179D01*
X156662248Y-133773186D01*
X156826813Y-133937751D01*
X156826819Y-133937756D01*
X157011468Y-134079442D01*
X157011475Y-134079446D01*
X157213023Y-134195811D01*
X157213039Y-134195819D01*
X157428052Y-134284879D01*
X157428054Y-134284879D01*
X157428060Y-134284882D01*
X157652874Y-134345121D01*
X157883628Y-134375500D01*
X157883635Y-134375500D01*
X158116365Y-134375500D01*
X158116372Y-134375500D01*
X158347126Y-134345121D01*
X158571940Y-134284882D01*
X158689480Y-134236196D01*
X158786960Y-134195819D01*
X158786963Y-134195817D01*
X158786969Y-134195815D01*
X158988532Y-134079442D01*
X159173181Y-133937756D01*
X159337756Y-133773181D01*
X159479442Y-133588532D01*
X159595815Y-133386969D01*
X159684882Y-133171940D01*
X159745121Y-132947126D01*
X159775500Y-132716372D01*
X159775500Y-132483628D01*
X159745121Y-132252874D01*
X159684882Y-132028060D01*
X159684879Y-132028052D01*
X159595819Y-131813039D01*
X159595811Y-131813023D01*
X159479446Y-131611475D01*
X159479442Y-131611468D01*
X159337756Y-131426819D01*
X159337751Y-131426813D01*
X159173186Y-131262248D01*
X159173179Y-131262242D01*
X158988540Y-131120564D01*
X158988538Y-131120562D01*
X158988532Y-131120558D01*
X158988527Y-131120555D01*
X158988524Y-131120553D01*
X158786976Y-131004188D01*
X158786960Y-131004180D01*
X158571947Y-130915120D01*
X158555216Y-130910637D01*
X158347126Y-130854879D01*
X158347125Y-130854878D01*
X158347122Y-130854878D01*
X158116382Y-130824501D01*
X158116377Y-130824500D01*
X158116372Y-130824500D01*
X157883628Y-130824500D01*
X157883622Y-130824500D01*
X157883617Y-130824501D01*
X157652877Y-130854878D01*
X157428052Y-130915120D01*
X157213039Y-131004180D01*
X157213023Y-131004188D01*
X157011475Y-131120553D01*
X157011459Y-131120564D01*
X156826820Y-131262242D01*
X156826813Y-131262248D01*
X156662248Y-131426813D01*
X156662242Y-131426820D01*
X156520564Y-131611459D01*
X156520553Y-131611475D01*
X156404188Y-131813023D01*
X156404180Y-131813039D01*
X156315120Y-132028052D01*
X156254878Y-132252877D01*
X156224501Y-132483617D01*
X156224500Y-132483634D01*
X154775500Y-132483634D01*
X154775500Y-132483628D01*
X154745121Y-132252874D01*
X154684882Y-132028060D01*
X154684879Y-132028052D01*
X154595819Y-131813039D01*
X154595811Y-131813023D01*
X154479446Y-131611475D01*
X154479442Y-131611468D01*
X154337756Y-131426819D01*
X154337751Y-131426813D01*
X154173186Y-131262248D01*
X154173179Y-131262242D01*
X153988540Y-131120564D01*
X153988538Y-131120562D01*
X153988532Y-131120558D01*
X153988527Y-131120555D01*
X153988524Y-131120553D01*
X153786976Y-131004188D01*
X153786960Y-131004180D01*
X153571947Y-130915120D01*
X153555216Y-130910637D01*
X153347126Y-130854879D01*
X153347125Y-130854878D01*
X153347122Y-130854878D01*
X153116382Y-130824501D01*
X153116377Y-130824500D01*
X153116372Y-130824500D01*
X152883628Y-130824500D01*
X152883622Y-130824500D01*
X152883617Y-130824501D01*
X152652877Y-130854878D01*
X152428052Y-130915120D01*
X152213039Y-131004180D01*
X152213023Y-131004188D01*
X152011475Y-131120553D01*
X152011459Y-131120564D01*
X151826820Y-131262242D01*
X151826813Y-131262248D01*
X151662248Y-131426813D01*
X151662242Y-131426820D01*
X151520564Y-131611459D01*
X151520553Y-131611475D01*
X151404188Y-131813023D01*
X151404180Y-131813039D01*
X151315120Y-132028052D01*
X151254878Y-132252877D01*
X151224501Y-132483617D01*
X151224500Y-132483634D01*
X149775500Y-132483634D01*
X149775500Y-132483628D01*
X149745121Y-132252874D01*
X149684882Y-132028060D01*
X149684879Y-132028052D01*
X149595819Y-131813039D01*
X149595811Y-131813023D01*
X149479446Y-131611475D01*
X149479442Y-131611468D01*
X149337756Y-131426819D01*
X149337751Y-131426813D01*
X149173186Y-131262248D01*
X149173179Y-131262242D01*
X148988540Y-131120564D01*
X148988538Y-131120562D01*
X148988532Y-131120558D01*
X148988527Y-131120555D01*
X148988524Y-131120553D01*
X148786976Y-131004188D01*
X148786960Y-131004180D01*
X148571947Y-130915120D01*
X148555216Y-130910637D01*
X148347126Y-130854879D01*
X148347125Y-130854878D01*
X148347122Y-130854878D01*
X148116382Y-130824501D01*
X148116377Y-130824500D01*
X148116372Y-130824500D01*
X147883628Y-130824500D01*
X147883622Y-130824500D01*
X147883617Y-130824501D01*
X147652877Y-130854878D01*
X147428052Y-130915120D01*
X147213039Y-131004180D01*
X147213023Y-131004188D01*
X147011475Y-131120553D01*
X147011459Y-131120564D01*
X146826820Y-131262242D01*
X146826813Y-131262248D01*
X146662248Y-131426813D01*
X146662242Y-131426820D01*
X146520564Y-131611459D01*
X146520553Y-131611475D01*
X146404188Y-131813023D01*
X146404180Y-131813039D01*
X146315120Y-132028052D01*
X146254878Y-132252877D01*
X146224501Y-132483617D01*
X146224500Y-132483634D01*
X115775500Y-132483634D01*
X115775500Y-132483628D01*
X115745121Y-132252874D01*
X115684882Y-132028060D01*
X115684879Y-132028052D01*
X115595819Y-131813039D01*
X115595811Y-131813023D01*
X115479446Y-131611475D01*
X115479442Y-131611468D01*
X115441549Y-131562085D01*
X115419336Y-131533136D01*
X120927548Y-131533136D01*
X120984359Y-131562084D01*
X120984362Y-131562085D01*
X121163997Y-131620452D01*
X121350553Y-131650000D01*
X121539447Y-131650000D01*
X121726001Y-131620452D01*
X121905637Y-131562084D01*
X121962451Y-131533136D01*
X121445001Y-131015686D01*
X121445000Y-131015686D01*
X120927548Y-131533136D01*
X115419336Y-131533136D01*
X115337757Y-131426820D01*
X115337751Y-131426813D01*
X115173186Y-131262248D01*
X115173179Y-131262242D01*
X114988540Y-131120564D01*
X114988538Y-131120562D01*
X114988532Y-131120558D01*
X114988527Y-131120555D01*
X114988524Y-131120553D01*
X114786976Y-131004188D01*
X114786960Y-131004180D01*
X114571947Y-130915120D01*
X114555216Y-130910637D01*
X114347126Y-130854879D01*
X114347125Y-130854878D01*
X114347122Y-130854878D01*
X114116382Y-130824501D01*
X114116377Y-130824500D01*
X114116372Y-130824500D01*
X113883628Y-130824500D01*
X113883622Y-130824500D01*
X113883617Y-130824501D01*
X113652877Y-130854878D01*
X113428052Y-130915120D01*
X113213039Y-131004180D01*
X113213023Y-131004188D01*
X113011475Y-131120553D01*
X113011459Y-131120564D01*
X112826820Y-131262242D01*
X112826813Y-131262248D01*
X112662248Y-131426813D01*
X112662242Y-131426820D01*
X112520564Y-131611459D01*
X112520553Y-131611475D01*
X112404188Y-131813023D01*
X112404180Y-131813039D01*
X112315120Y-132028052D01*
X112254878Y-132252877D01*
X112224501Y-132483617D01*
X112224500Y-132483634D01*
X110474956Y-132483634D01*
X110438681Y-132254606D01*
X110366936Y-132033799D01*
X110287596Y-131878086D01*
X109646632Y-132519051D01*
X109625021Y-132410402D01*
X109576022Y-132292110D01*
X109504888Y-132185649D01*
X109414351Y-132095112D01*
X109307890Y-132023978D01*
X109189598Y-131974979D01*
X109080946Y-131953366D01*
X109721911Y-131312402D01*
X109566205Y-131233065D01*
X109345393Y-131161318D01*
X109116090Y-131125000D01*
X108883910Y-131125000D01*
X108654606Y-131161318D01*
X108433794Y-131233065D01*
X108278087Y-131312402D01*
X108919052Y-131953367D01*
X108810402Y-131974979D01*
X108692110Y-132023978D01*
X108585649Y-132095112D01*
X108495112Y-132185649D01*
X108423978Y-132292110D01*
X108374979Y-132410402D01*
X108353367Y-132519052D01*
X107712402Y-131878087D01*
X107633065Y-132033794D01*
X107561318Y-132254606D01*
X107525000Y-132483909D01*
X105775500Y-132483909D01*
X105775500Y-132483628D01*
X105745121Y-132252874D01*
X105684882Y-132028060D01*
X105684879Y-132028052D01*
X105595819Y-131813039D01*
X105595811Y-131813023D01*
X105479446Y-131611475D01*
X105479442Y-131611468D01*
X105441549Y-131562085D01*
X105340883Y-131430893D01*
X105337756Y-131426819D01*
X105337751Y-131426813D01*
X105173186Y-131262248D01*
X105173179Y-131262242D01*
X104988540Y-131120564D01*
X104988538Y-131120562D01*
X104988532Y-131120558D01*
X104988527Y-131120555D01*
X104988524Y-131120553D01*
X104786976Y-131004188D01*
X104786960Y-131004180D01*
X104571947Y-130915120D01*
X104555216Y-130910637D01*
X104347126Y-130854879D01*
X104347125Y-130854878D01*
X104347122Y-130854878D01*
X104116382Y-130824501D01*
X104116377Y-130824500D01*
X104116372Y-130824500D01*
X103883628Y-130824500D01*
X103883622Y-130824500D01*
X103883617Y-130824501D01*
X103652877Y-130854878D01*
X103428052Y-130915120D01*
X103213039Y-131004180D01*
X103213023Y-131004188D01*
X103011475Y-131120553D01*
X103011459Y-131120564D01*
X102826820Y-131262242D01*
X102826813Y-131262248D01*
X102662248Y-131426813D01*
X102662242Y-131426820D01*
X102520564Y-131611459D01*
X102520553Y-131611475D01*
X102404188Y-131813023D01*
X102404180Y-131813039D01*
X102315120Y-132028052D01*
X102254878Y-132252877D01*
X102224501Y-132483617D01*
X102224500Y-132483634D01*
X91500500Y-132483634D01*
X91500500Y-130355552D01*
X120245000Y-130355552D01*
X120245000Y-130544447D01*
X120274547Y-130731002D01*
X120332915Y-130910639D01*
X120361861Y-130967451D01*
X120361862Y-130967451D01*
X120879314Y-130450000D01*
X120879314Y-130449999D01*
X120833237Y-130403922D01*
X121095000Y-130403922D01*
X121095000Y-130496078D01*
X121118852Y-130585095D01*
X121164930Y-130664905D01*
X121230095Y-130730070D01*
X121309905Y-130776148D01*
X121398922Y-130800000D01*
X121491078Y-130800000D01*
X121580095Y-130776148D01*
X121659905Y-130730070D01*
X121725070Y-130664905D01*
X121771148Y-130585095D01*
X121795000Y-130496078D01*
X121795000Y-130449999D01*
X122010686Y-130449999D01*
X122010686Y-130450001D01*
X122528136Y-130967451D01*
X122557084Y-130910637D01*
X122615452Y-130731001D01*
X122644351Y-130548543D01*
X125524499Y-130548543D01*
X125562947Y-130741829D01*
X125562950Y-130741839D01*
X125638364Y-130923907D01*
X125638371Y-130923920D01*
X125747860Y-131087781D01*
X125747863Y-131087785D01*
X125887214Y-131227136D01*
X125887218Y-131227139D01*
X126051079Y-131336628D01*
X126051092Y-131336635D01*
X126233160Y-131412049D01*
X126233165Y-131412051D01*
X126233169Y-131412051D01*
X126233170Y-131412052D01*
X126426456Y-131450500D01*
X126426459Y-131450500D01*
X126623543Y-131450500D01*
X126753582Y-131424632D01*
X126816835Y-131412051D01*
X126998914Y-131336632D01*
X127162782Y-131227139D01*
X127302139Y-131087782D01*
X127411632Y-130923914D01*
X127417132Y-130910637D01*
X127487049Y-130741839D01*
X127487051Y-130741835D01*
X127525500Y-130548541D01*
X127525500Y-130351459D01*
X127525500Y-130351456D01*
X127487052Y-130158170D01*
X127487051Y-130158169D01*
X127487051Y-130158165D01*
X127472838Y-130123852D01*
X127411635Y-129976092D01*
X127411628Y-129976079D01*
X127302139Y-129812218D01*
X127302136Y-129812214D01*
X127162785Y-129672863D01*
X127162781Y-129672860D01*
X126998920Y-129563371D01*
X126998907Y-129563364D01*
X126816839Y-129487950D01*
X126816829Y-129487947D01*
X126623543Y-129449500D01*
X126623541Y-129449500D01*
X126426459Y-129449500D01*
X126426457Y-129449500D01*
X126233170Y-129487947D01*
X126233160Y-129487950D01*
X126051092Y-129563364D01*
X126051079Y-129563371D01*
X125887218Y-129672860D01*
X125887214Y-129672863D01*
X125747863Y-129812214D01*
X125747860Y-129812218D01*
X125638371Y-129976079D01*
X125638364Y-129976092D01*
X125562950Y-130158160D01*
X125562947Y-130158170D01*
X125524500Y-130351456D01*
X125524500Y-130351459D01*
X125524500Y-130548541D01*
X125524500Y-130548543D01*
X125524499Y-130548543D01*
X122644351Y-130548543D01*
X122645000Y-130544447D01*
X122645000Y-130355552D01*
X122615452Y-130168997D01*
X122557085Y-129989362D01*
X122557084Y-129989359D01*
X122528136Y-129932548D01*
X122010686Y-130449999D01*
X121795000Y-130449999D01*
X121795000Y-130403922D01*
X121771148Y-130314905D01*
X121725070Y-130235095D01*
X121659905Y-130169930D01*
X121580095Y-130123852D01*
X121491078Y-130100000D01*
X121398922Y-130100000D01*
X121309905Y-130123852D01*
X121230095Y-130169930D01*
X121164930Y-130235095D01*
X121118852Y-130314905D01*
X121095000Y-130403922D01*
X120833237Y-130403922D01*
X120361862Y-129932547D01*
X120332915Y-129989362D01*
X120332914Y-129989364D01*
X120274547Y-130168997D01*
X120245000Y-130355552D01*
X91500500Y-130355552D01*
X91500500Y-129366862D01*
X120927547Y-129366862D01*
X121445000Y-129884314D01*
X121445001Y-129884314D01*
X121962451Y-129366862D01*
X121962451Y-129366861D01*
X121905639Y-129337915D01*
X121726002Y-129279547D01*
X121539447Y-129250000D01*
X121350553Y-129250000D01*
X121163997Y-129279547D01*
X120984364Y-129337914D01*
X120984362Y-129337915D01*
X120927547Y-129366862D01*
X91500500Y-129366862D01*
X91500500Y-122518872D01*
X95499500Y-122518872D01*
X95499500Y-122781127D01*
X95524219Y-122968872D01*
X95533730Y-123041116D01*
X95584643Y-123231127D01*
X95601602Y-123294418D01*
X95601605Y-123294428D01*
X95701953Y-123536690D01*
X95701958Y-123536700D01*
X95833075Y-123763803D01*
X95992718Y-123971851D01*
X95992726Y-123971860D01*
X96178140Y-124157274D01*
X96178148Y-124157281D01*
X96386196Y-124316924D01*
X96613299Y-124448041D01*
X96613309Y-124448046D01*
X96799653Y-124525232D01*
X96855581Y-124548398D01*
X97108884Y-124616270D01*
X97368880Y-124650500D01*
X97368887Y-124650500D01*
X97631113Y-124650500D01*
X97631120Y-124650500D01*
X97891116Y-124616270D01*
X98144419Y-124548398D01*
X98386697Y-124448043D01*
X98613803Y-124316924D01*
X98821851Y-124157282D01*
X98821855Y-124157277D01*
X98821860Y-124157274D01*
X99007274Y-123971860D01*
X99007277Y-123971855D01*
X99007282Y-123971851D01*
X99166924Y-123763803D01*
X99298043Y-123536697D01*
X99398398Y-123294419D01*
X99466270Y-123041116D01*
X99500500Y-122781120D01*
X99500500Y-122518880D01*
X99479890Y-122362332D01*
X101149500Y-122362332D01*
X101149500Y-122637667D01*
X101149501Y-122637684D01*
X101185438Y-122910655D01*
X101185439Y-122910660D01*
X101185440Y-122910666D01*
X101201040Y-122968886D01*
X101256704Y-123176630D01*
X101362075Y-123431017D01*
X101362080Y-123431028D01*
X101423085Y-123536690D01*
X101499751Y-123669479D01*
X101499753Y-123669482D01*
X101499754Y-123669483D01*
X101667370Y-123887926D01*
X101667376Y-123887933D01*
X101862066Y-124082623D01*
X101862073Y-124082629D01*
X101932217Y-124136452D01*
X102080521Y-124250249D01*
X102233778Y-124338732D01*
X102318971Y-124387919D01*
X102318976Y-124387921D01*
X102318979Y-124387923D01*
X102573368Y-124493295D01*
X102839334Y-124564560D01*
X103112326Y-124600500D01*
X103112333Y-124600500D01*
X103387667Y-124600500D01*
X103387674Y-124600500D01*
X103660666Y-124564560D01*
X103926632Y-124493295D01*
X104181021Y-124387923D01*
X104419479Y-124250249D01*
X104637928Y-124082628D01*
X104832628Y-123887928D01*
X105000249Y-123669479D01*
X105137923Y-123431021D01*
X105243295Y-123176632D01*
X105314560Y-122910666D01*
X105350500Y-122637674D01*
X105350500Y-122362326D01*
X105314560Y-122089334D01*
X105243295Y-121823368D01*
X105137923Y-121568979D01*
X105137921Y-121568976D01*
X105137919Y-121568971D01*
X105073474Y-121457350D01*
X105073473Y-121457349D01*
X105059459Y-121433076D01*
X105039436Y-121398395D01*
X113849500Y-121398395D01*
X113849500Y-123601604D01*
X113864699Y-123755932D01*
X113864700Y-123755934D01*
X113924768Y-123953954D01*
X114022315Y-124136450D01*
X114039411Y-124157282D01*
X114153589Y-124296410D01*
X114250209Y-124375702D01*
X114313550Y-124427685D01*
X114496046Y-124525232D01*
X114694066Y-124585300D01*
X114694065Y-124585300D01*
X114732647Y-124589100D01*
X114848392Y-124600500D01*
X114848395Y-124600500D01*
X117051605Y-124600500D01*
X117051608Y-124600500D01*
X117205934Y-124585300D01*
X117403954Y-124525232D01*
X117586450Y-124427685D01*
X117746410Y-124296410D01*
X117877685Y-124136450D01*
X117975232Y-123953954D01*
X118035300Y-123755934D01*
X118050500Y-123601608D01*
X118050500Y-121398392D01*
X118041002Y-121301957D01*
X118037395Y-121265334D01*
X118036498Y-121256224D01*
X133199500Y-121256224D01*
X133199500Y-124859440D01*
X133204502Y-124910230D01*
X133214699Y-125013764D01*
X133214700Y-125013766D01*
X133274768Y-125211786D01*
X133372315Y-125394282D01*
X133372317Y-125394284D01*
X133503589Y-125554242D01*
X133600209Y-125633534D01*
X133663550Y-125685517D01*
X133846046Y-125783064D01*
X134044066Y-125843132D01*
X134044065Y-125843132D01*
X134082647Y-125846932D01*
X134198392Y-125858332D01*
X134198395Y-125858332D01*
X137801605Y-125858332D01*
X137801608Y-125858332D01*
X137955934Y-125843132D01*
X138153954Y-125783064D01*
X138336450Y-125685517D01*
X138496410Y-125554242D01*
X138627685Y-125394282D01*
X138725232Y-125211786D01*
X138785300Y-125013766D01*
X138800500Y-124859440D01*
X138800500Y-122968872D01*
X150899500Y-122968872D01*
X150899500Y-123231127D01*
X150925818Y-123431017D01*
X150933730Y-123491116D01*
X150981522Y-123669479D01*
X151001602Y-123744418D01*
X151001605Y-123744428D01*
X151101953Y-123986690D01*
X151101958Y-123986700D01*
X151233075Y-124213803D01*
X151392718Y-124421851D01*
X151392726Y-124421860D01*
X151578140Y-124607274D01*
X151578148Y-124607281D01*
X151578149Y-124607282D01*
X151605083Y-124627949D01*
X151786196Y-124766924D01*
X152013299Y-124898041D01*
X152013309Y-124898046D01*
X152255571Y-124998394D01*
X152255581Y-124998398D01*
X152508884Y-125066270D01*
X152768880Y-125100500D01*
X152768887Y-125100500D01*
X153031113Y-125100500D01*
X153031120Y-125100500D01*
X153291116Y-125066270D01*
X153544419Y-124998398D01*
X153786697Y-124898043D01*
X154013803Y-124766924D01*
X154221851Y-124607282D01*
X154221855Y-124607277D01*
X154221860Y-124607274D01*
X154407274Y-124421860D01*
X154407277Y-124421855D01*
X154407282Y-124421851D01*
X154566924Y-124213803D01*
X154698043Y-123986697D01*
X154704193Y-123971851D01*
X154738952Y-123887933D01*
X154798398Y-123744419D01*
X154866270Y-123491116D01*
X154900500Y-123231120D01*
X154900500Y-122988575D01*
X166200000Y-122988575D01*
X166200000Y-123211424D01*
X166229085Y-123432354D01*
X166229088Y-123432367D01*
X166286763Y-123647618D01*
X166372045Y-123853502D01*
X166372050Y-123853513D01*
X166448458Y-123985855D01*
X166448459Y-123985856D01*
X167300000Y-123134315D01*
X167300000Y-123178991D01*
X167340889Y-123331591D01*
X167419881Y-123468408D01*
X167531592Y-123580119D01*
X167668409Y-123659111D01*
X167821009Y-123700000D01*
X167865685Y-123700000D01*
X167014143Y-124551540D01*
X167014143Y-124551541D01*
X167146487Y-124627950D01*
X167146488Y-124627951D01*
X167352381Y-124713236D01*
X167567632Y-124770911D01*
X167567645Y-124770914D01*
X167788575Y-124800000D01*
X168011425Y-124800000D01*
X168232354Y-124770914D01*
X168232367Y-124770911D01*
X168447618Y-124713236D01*
X168653503Y-124627954D01*
X168653514Y-124627949D01*
X168785856Y-124551541D01*
X168785856Y-124551540D01*
X167934315Y-123700000D01*
X167978991Y-123700000D01*
X168131591Y-123659111D01*
X168268408Y-123580119D01*
X168380119Y-123468408D01*
X168459111Y-123331591D01*
X168500000Y-123178991D01*
X168500000Y-123134315D01*
X169351540Y-123985856D01*
X169351541Y-123985856D01*
X169427949Y-123853514D01*
X169427954Y-123853503D01*
X169513236Y-123647618D01*
X169570911Y-123432367D01*
X169570914Y-123432354D01*
X169600000Y-123211424D01*
X169600000Y-122988575D01*
X169570914Y-122767645D01*
X169570911Y-122767632D01*
X169513236Y-122552381D01*
X169427951Y-122346488D01*
X169427950Y-122346487D01*
X169351541Y-122214143D01*
X169351540Y-122214143D01*
X168500000Y-123065683D01*
X168500000Y-123021009D01*
X168459111Y-122868409D01*
X168380119Y-122731592D01*
X168268408Y-122619881D01*
X168131591Y-122540889D01*
X167978991Y-122500000D01*
X167934313Y-122500000D01*
X168785855Y-121648458D01*
X168653513Y-121572050D01*
X168653502Y-121572045D01*
X168447618Y-121486763D01*
X168232367Y-121429088D01*
X168232354Y-121429085D01*
X168011425Y-121400000D01*
X167788575Y-121400000D01*
X167567645Y-121429085D01*
X167567632Y-121429088D01*
X167352381Y-121486763D01*
X167146502Y-121572041D01*
X167146497Y-121572044D01*
X167014143Y-121648458D01*
X167014142Y-121648458D01*
X167865685Y-122500000D01*
X167821009Y-122500000D01*
X167668409Y-122540889D01*
X167531592Y-122619881D01*
X167419881Y-122731592D01*
X167340889Y-122868409D01*
X167300000Y-123021009D01*
X167300000Y-123065684D01*
X166448458Y-122214142D01*
X166448458Y-122214143D01*
X166372044Y-122346497D01*
X166372041Y-122346502D01*
X166286763Y-122552381D01*
X166229088Y-122767632D01*
X166229085Y-122767645D01*
X166200000Y-122988575D01*
X154900500Y-122988575D01*
X154900500Y-122968880D01*
X154866270Y-122708884D01*
X154798398Y-122455581D01*
X154759773Y-122362332D01*
X154698046Y-122213309D01*
X154698041Y-122213299D01*
X154566924Y-121986196D01*
X154407281Y-121778148D01*
X154407274Y-121778140D01*
X154221860Y-121592726D01*
X154221851Y-121592718D01*
X154013803Y-121433075D01*
X153786700Y-121301958D01*
X153786690Y-121301953D01*
X153544428Y-121201605D01*
X153544421Y-121201603D01*
X153544419Y-121201602D01*
X153291116Y-121133730D01*
X153233339Y-121126123D01*
X153031127Y-121099500D01*
X153031120Y-121099500D01*
X152768880Y-121099500D01*
X152768872Y-121099500D01*
X152537772Y-121129926D01*
X152508884Y-121133730D01*
X152255581Y-121201602D01*
X152255571Y-121201605D01*
X152013309Y-121301953D01*
X152013299Y-121301958D01*
X151786196Y-121433075D01*
X151578148Y-121592718D01*
X151392718Y-121778148D01*
X151233075Y-121986196D01*
X151101958Y-122213299D01*
X151101953Y-122213309D01*
X151001605Y-122455571D01*
X151001602Y-122455581D01*
X150952813Y-122637667D01*
X150933730Y-122708885D01*
X150899500Y-122968872D01*
X138800500Y-122968872D01*
X138800500Y-121256224D01*
X138785300Y-121101898D01*
X138725232Y-120903878D01*
X138627685Y-120721382D01*
X138537984Y-120612080D01*
X138496410Y-120561421D01*
X138378677Y-120464801D01*
X138336450Y-120430147D01*
X138153954Y-120332600D01*
X137955934Y-120272532D01*
X137955932Y-120272531D01*
X137955934Y-120272531D01*
X137836805Y-120260798D01*
X137801608Y-120257332D01*
X134198392Y-120257332D01*
X134160298Y-120261083D01*
X134044067Y-120272531D01*
X133846043Y-120332601D01*
X133735898Y-120391475D01*
X133663550Y-120430147D01*
X133663548Y-120430148D01*
X133663547Y-120430149D01*
X133503589Y-120561421D01*
X133386917Y-120703589D01*
X133372315Y-120721382D01*
X133333643Y-120793730D01*
X133274769Y-120903875D01*
X133274768Y-120903877D01*
X133274768Y-120903878D01*
X133267898Y-120926524D01*
X133214699Y-121101899D01*
X133203251Y-121218130D01*
X133199500Y-121256224D01*
X118036498Y-121256224D01*
X118035300Y-121244067D01*
X118035300Y-121244066D01*
X117975232Y-121046046D01*
X117877685Y-120863550D01*
X117785815Y-120751605D01*
X117746410Y-120703589D01*
X117586452Y-120572317D01*
X117586453Y-120572317D01*
X117586450Y-120572315D01*
X117403954Y-120474768D01*
X117205934Y-120414700D01*
X117205932Y-120414699D01*
X117205934Y-120414699D01*
X117086805Y-120402966D01*
X117051608Y-120399500D01*
X114848392Y-120399500D01*
X114810298Y-120403251D01*
X114694067Y-120414699D01*
X114496043Y-120474769D01*
X114385898Y-120533643D01*
X114313550Y-120572315D01*
X114313548Y-120572316D01*
X114313547Y-120572317D01*
X114153589Y-120703589D01*
X114022317Y-120863547D01*
X113924769Y-121046043D01*
X113864699Y-121244067D01*
X113849500Y-121398395D01*
X105039436Y-121398395D01*
X105000249Y-121330521D01*
X104978328Y-121301953D01*
X104832629Y-121112073D01*
X104832623Y-121112066D01*
X104637933Y-120917376D01*
X104637926Y-120917370D01*
X104419483Y-120749754D01*
X104419482Y-120749753D01*
X104419479Y-120749751D01*
X104324407Y-120694861D01*
X104181028Y-120612080D01*
X104181017Y-120612075D01*
X103926630Y-120506704D01*
X103793649Y-120471072D01*
X103660666Y-120435440D01*
X103660660Y-120435439D01*
X103660655Y-120435438D01*
X103387684Y-120399501D01*
X103387679Y-120399500D01*
X103387674Y-120399500D01*
X103112326Y-120399500D01*
X103112320Y-120399500D01*
X103112315Y-120399501D01*
X102839344Y-120435438D01*
X102839337Y-120435439D01*
X102839334Y-120435440D01*
X102783125Y-120450500D01*
X102573369Y-120506704D01*
X102318982Y-120612075D01*
X102318971Y-120612080D01*
X102080516Y-120749754D01*
X101862073Y-120917370D01*
X101862066Y-120917376D01*
X101667376Y-121112066D01*
X101667370Y-121112073D01*
X101499754Y-121330516D01*
X101362080Y-121568971D01*
X101362075Y-121568982D01*
X101256704Y-121823369D01*
X101185441Y-122089331D01*
X101185438Y-122089344D01*
X101149501Y-122362315D01*
X101149500Y-122362332D01*
X99479890Y-122362332D01*
X99466270Y-122258884D01*
X99398398Y-122005581D01*
X99390369Y-121986197D01*
X99298046Y-121763309D01*
X99298041Y-121763299D01*
X99166924Y-121536196D01*
X99007281Y-121328148D01*
X99007274Y-121328140D01*
X98821860Y-121142726D01*
X98821851Y-121142718D01*
X98613803Y-120983075D01*
X98386700Y-120851958D01*
X98386690Y-120851953D01*
X98144428Y-120751605D01*
X98144421Y-120751603D01*
X98144419Y-120751602D01*
X97891116Y-120683730D01*
X97833339Y-120676123D01*
X97631127Y-120649500D01*
X97631120Y-120649500D01*
X97368880Y-120649500D01*
X97368872Y-120649500D01*
X97137772Y-120679926D01*
X97108884Y-120683730D01*
X96862489Y-120749751D01*
X96855581Y-120751602D01*
X96855571Y-120751605D01*
X96613309Y-120851953D01*
X96613299Y-120851958D01*
X96386196Y-120983075D01*
X96178148Y-121142718D01*
X95992718Y-121328148D01*
X95833075Y-121536196D01*
X95701958Y-121763299D01*
X95701953Y-121763309D01*
X95601605Y-122005571D01*
X95601602Y-122005581D01*
X95545944Y-122213303D01*
X95533730Y-122258885D01*
X95499500Y-122518872D01*
X91500500Y-122518872D01*
X91500500Y-112917430D01*
X133500000Y-112917430D01*
X133500000Y-113198233D01*
X133531437Y-113477244D01*
X133531439Y-113477256D01*
X133593921Y-113751010D01*
X133593922Y-113751012D01*
X133686662Y-114016049D01*
X133808492Y-114269032D01*
X133957886Y-114506792D01*
X133970072Y-114522073D01*
X135068947Y-113423198D01*
X135113811Y-113531510D01*
X135223249Y-113695295D01*
X135362537Y-113834583D01*
X135526322Y-113944021D01*
X135634632Y-113988884D01*
X134535758Y-115087758D01*
X134535758Y-115087759D01*
X134551033Y-115099940D01*
X134788799Y-115249339D01*
X135041782Y-115371169D01*
X135306819Y-115463909D01*
X135306821Y-115463910D01*
X135580575Y-115526392D01*
X135580587Y-115526394D01*
X135859598Y-115557831D01*
X135859600Y-115557832D01*
X136140400Y-115557832D01*
X136140401Y-115557831D01*
X136419412Y-115526394D01*
X136419424Y-115526392D01*
X136693178Y-115463910D01*
X136693180Y-115463909D01*
X136958217Y-115371169D01*
X137211200Y-115249339D01*
X137448957Y-115099947D01*
X137464240Y-115087759D01*
X137464241Y-115087758D01*
X136365366Y-113988884D01*
X136473678Y-113944021D01*
X136637463Y-113834583D01*
X136776751Y-113695295D01*
X136886189Y-113531510D01*
X136931052Y-113423198D01*
X138029926Y-114522073D01*
X138029927Y-114522072D01*
X138042115Y-114506789D01*
X138191507Y-114269032D01*
X138313337Y-114016049D01*
X138406077Y-113751012D01*
X138406078Y-113751010D01*
X138468560Y-113477256D01*
X138468562Y-113477244D01*
X138499999Y-113198233D01*
X138500000Y-113198231D01*
X138500000Y-112917432D01*
X138499999Y-112917430D01*
X138468562Y-112638419D01*
X138468560Y-112638407D01*
X138406078Y-112364653D01*
X138406077Y-112364651D01*
X138313337Y-112099614D01*
X138191505Y-111846627D01*
X138191504Y-111846625D01*
X138180525Y-111829152D01*
X138180524Y-111829151D01*
X138166093Y-111806184D01*
X161009499Y-111806184D01*
X161174197Y-111890102D01*
X161398752Y-111963065D01*
X161398751Y-111963065D01*
X161631948Y-112000000D01*
X161868052Y-112000000D01*
X162101247Y-111963065D01*
X162325797Y-111890104D01*
X162490499Y-111806184D01*
X161750000Y-111065686D01*
X161009499Y-111806184D01*
X138166093Y-111806184D01*
X138042108Y-111608865D01*
X138029927Y-111593590D01*
X138029926Y-111593590D01*
X136931052Y-112692464D01*
X136886189Y-112584154D01*
X136776751Y-112420369D01*
X136637463Y-112281081D01*
X136473678Y-112171643D01*
X136365367Y-112126779D01*
X137464241Y-111027904D01*
X137448960Y-111015718D01*
X137411360Y-110992093D01*
X137211200Y-110866324D01*
X136958217Y-110744494D01*
X136693180Y-110651754D01*
X136693178Y-110651753D01*
X136419424Y-110589271D01*
X136419412Y-110589269D01*
X136140401Y-110557832D01*
X135859598Y-110557832D01*
X135580587Y-110589269D01*
X135580575Y-110589271D01*
X135306821Y-110651753D01*
X135306819Y-110651754D01*
X135041782Y-110744494D01*
X134788799Y-110866324D01*
X134551041Y-111015717D01*
X134535758Y-111027904D01*
X134535757Y-111027904D01*
X135634633Y-112126779D01*
X135526322Y-112171643D01*
X135362537Y-112281081D01*
X135223249Y-112420369D01*
X135113811Y-112584154D01*
X135068947Y-112692464D01*
X133970072Y-111593589D01*
X133970072Y-111593590D01*
X133957885Y-111608873D01*
X133808492Y-111846631D01*
X133686662Y-112099614D01*
X133593922Y-112364651D01*
X133593921Y-112364653D01*
X133531439Y-112638407D01*
X133531437Y-112638419D01*
X133500000Y-112917430D01*
X91500500Y-112917430D01*
X91500500Y-109124071D01*
X95400000Y-109124071D01*
X95400000Y-109375928D01*
X95439397Y-109624669D01*
X95517219Y-109864184D01*
X95517220Y-109864187D01*
X95619464Y-110064849D01*
X96400000Y-109284313D01*
X96400000Y-109328991D01*
X96440889Y-109481591D01*
X96519881Y-109618408D01*
X96631592Y-109730119D01*
X96768409Y-109809111D01*
X96921009Y-109850000D01*
X96965685Y-109850000D01*
X96185148Y-110630534D01*
X96385815Y-110732780D01*
X96625330Y-110810602D01*
X96874072Y-110850000D01*
X97125928Y-110850000D01*
X97374668Y-110810602D01*
X97614184Y-110732779D01*
X97814850Y-110630534D01*
X97034315Y-109850000D01*
X97078991Y-109850000D01*
X97231591Y-109809111D01*
X97368408Y-109730119D01*
X97480119Y-109618408D01*
X97559111Y-109481591D01*
X97600000Y-109328991D01*
X97600000Y-109284316D01*
X98380534Y-110064850D01*
X98482779Y-109864184D01*
X98560602Y-109624668D01*
X98600000Y-109375928D01*
X98600000Y-109368575D01*
X152800000Y-109368575D01*
X152800000Y-109591424D01*
X152829085Y-109812354D01*
X152829088Y-109812367D01*
X152886763Y-110027618D01*
X152972045Y-110233502D01*
X152972050Y-110233513D01*
X153048458Y-110365855D01*
X153048459Y-110365856D01*
X153900000Y-109514315D01*
X153900000Y-109558991D01*
X153940889Y-109711591D01*
X154019881Y-109848408D01*
X154131592Y-109960119D01*
X154268409Y-110039111D01*
X154421009Y-110080000D01*
X154465685Y-110080000D01*
X153614143Y-110931540D01*
X153614143Y-110931541D01*
X153746487Y-111007950D01*
X153746488Y-111007951D01*
X153952381Y-111093236D01*
X154167632Y-111150911D01*
X154167645Y-111150914D01*
X154388575Y-111180000D01*
X154611425Y-111180000D01*
X154832354Y-111150914D01*
X154832367Y-111150911D01*
X155047618Y-111093236D01*
X155253503Y-111007954D01*
X155253514Y-111007949D01*
X155385856Y-110931541D01*
X155385856Y-110931540D01*
X154836262Y-110381947D01*
X160250000Y-110381947D01*
X160250000Y-110618052D01*
X160286934Y-110851247D01*
X160359897Y-111075802D01*
X160443814Y-111240498D01*
X161184314Y-110500000D01*
X161118488Y-110434174D01*
X161250000Y-110434174D01*
X161250000Y-110565826D01*
X161284075Y-110692993D01*
X161349901Y-110807007D01*
X161442993Y-110900099D01*
X161557007Y-110965925D01*
X161684174Y-111000000D01*
X161815826Y-111000000D01*
X161942993Y-110965925D01*
X162057007Y-110900099D01*
X162150099Y-110807007D01*
X162215925Y-110692993D01*
X162250000Y-110565826D01*
X162250000Y-110499999D01*
X162315686Y-110499999D01*
X162315686Y-110500000D01*
X163056184Y-111240499D01*
X163140104Y-111075797D01*
X163202193Y-110884709D01*
X163202193Y-110884708D01*
X163213065Y-110851245D01*
X163250000Y-110618052D01*
X163250000Y-110381947D01*
X163213065Y-110148754D01*
X163169701Y-110015292D01*
X163169700Y-110015290D01*
X163140102Y-109924197D01*
X163056184Y-109759499D01*
X162315686Y-110499999D01*
X162250000Y-110499999D01*
X162250000Y-110434174D01*
X162215925Y-110307007D01*
X162150099Y-110192993D01*
X162057007Y-110099901D01*
X161942993Y-110034075D01*
X161815826Y-110000000D01*
X161684174Y-110000000D01*
X161557007Y-110034075D01*
X161442993Y-110099901D01*
X161349901Y-110192993D01*
X161284075Y-110307007D01*
X161250000Y-110434174D01*
X161118488Y-110434174D01*
X160443813Y-109759499D01*
X160443813Y-109759500D01*
X160359898Y-109924194D01*
X160286934Y-110148752D01*
X160250000Y-110381947D01*
X154836262Y-110381947D01*
X154534315Y-110080000D01*
X154578991Y-110080000D01*
X154731591Y-110039111D01*
X154868408Y-109960119D01*
X154980119Y-109848408D01*
X155059111Y-109711591D01*
X155100000Y-109558991D01*
X155100000Y-109514316D01*
X155951540Y-110365856D01*
X155951541Y-110365856D01*
X155980860Y-110315075D01*
X155980860Y-110315074D01*
X156027952Y-110233507D01*
X156027954Y-110233503D01*
X156113236Y-110027618D01*
X156170911Y-109812367D01*
X156170914Y-109812354D01*
X156200000Y-109591424D01*
X156200000Y-109368575D01*
X156184785Y-109253004D01*
X156176992Y-109193813D01*
X161009499Y-109193813D01*
X161750000Y-109934314D01*
X161750001Y-109934314D01*
X162490498Y-109193814D01*
X162325802Y-109109897D01*
X162101247Y-109036934D01*
X162101248Y-109036934D01*
X161868052Y-109000000D01*
X161631948Y-109000000D01*
X161398752Y-109036934D01*
X161174194Y-109109898D01*
X161009500Y-109193813D01*
X161009499Y-109193813D01*
X156176992Y-109193813D01*
X156170914Y-109147645D01*
X156170911Y-109147632D01*
X156113236Y-108932381D01*
X156027951Y-108726488D01*
X156027950Y-108726487D01*
X155951541Y-108594143D01*
X155951540Y-108594143D01*
X155100000Y-109445683D01*
X155100000Y-109401009D01*
X155059111Y-109248409D01*
X154980119Y-109111592D01*
X154868408Y-108999881D01*
X154731591Y-108920889D01*
X154578991Y-108880000D01*
X154534313Y-108880000D01*
X155385855Y-108028458D01*
X155253513Y-107952050D01*
X155253502Y-107952045D01*
X155047618Y-107866763D01*
X154832367Y-107809088D01*
X154832354Y-107809085D01*
X154611425Y-107780000D01*
X154388575Y-107780000D01*
X154167645Y-107809085D01*
X154167632Y-107809088D01*
X153952381Y-107866763D01*
X153746502Y-107952041D01*
X153746497Y-107952044D01*
X153614143Y-108028458D01*
X153614142Y-108028458D01*
X154465685Y-108880000D01*
X154421009Y-108880000D01*
X154268409Y-108920889D01*
X154131592Y-108999881D01*
X154019881Y-109111592D01*
X153940889Y-109248409D01*
X153900000Y-109401009D01*
X153900000Y-109445684D01*
X153048458Y-108594142D01*
X153048458Y-108594143D01*
X152972044Y-108726497D01*
X152972041Y-108726502D01*
X152886763Y-108932381D01*
X152829088Y-109147632D01*
X152829085Y-109147645D01*
X152800000Y-109368575D01*
X98600000Y-109368575D01*
X98600000Y-109124071D01*
X98560602Y-108875330D01*
X98482780Y-108635815D01*
X98380534Y-108435148D01*
X97600000Y-109215683D01*
X97600000Y-109171009D01*
X97559111Y-109018409D01*
X97480119Y-108881592D01*
X97368408Y-108769881D01*
X97231591Y-108690889D01*
X97078991Y-108650000D01*
X97034313Y-108650000D01*
X97699095Y-107985219D01*
X97814849Y-107869464D01*
X97614187Y-107767220D01*
X97614184Y-107767219D01*
X97374669Y-107689397D01*
X97125928Y-107650000D01*
X96874072Y-107650000D01*
X96625330Y-107689397D01*
X96385815Y-107767219D01*
X96385812Y-107767221D01*
X96185149Y-107869464D01*
X96965685Y-108650000D01*
X96921009Y-108650000D01*
X96768409Y-108690889D01*
X96631592Y-108769881D01*
X96519881Y-108881592D01*
X96440889Y-109018409D01*
X96400000Y-109171009D01*
X96400000Y-109215685D01*
X95619464Y-108435149D01*
X95517221Y-108635812D01*
X95517219Y-108635815D01*
X95439397Y-108875330D01*
X95400000Y-109124071D01*
X91500500Y-109124071D01*
X91500500Y-104139778D01*
X115599500Y-104139778D01*
X115599500Y-104360221D01*
X115633985Y-104577952D01*
X115702103Y-104787603D01*
X115702104Y-104787606D01*
X115763187Y-104907485D01*
X115775852Y-104932342D01*
X115802187Y-104984025D01*
X115931752Y-105162358D01*
X115931756Y-105162363D01*
X116087636Y-105318243D01*
X116087641Y-105318247D01*
X116201377Y-105400880D01*
X116265978Y-105447815D01*
X116394375Y-105513237D01*
X116462393Y-105547895D01*
X116462396Y-105547896D01*
X116567221Y-105581955D01*
X116672049Y-105616015D01*
X116889778Y-105650500D01*
X116889779Y-105650500D01*
X117110221Y-105650500D01*
X117110222Y-105650500D01*
X117327951Y-105616015D01*
X117537606Y-105547895D01*
X117734022Y-105447815D01*
X117912365Y-105318242D01*
X118068242Y-105162365D01*
X118197815Y-104984022D01*
X118236813Y-104907485D01*
X129928198Y-104907485D01*
X130020968Y-104954755D01*
X130215582Y-105017990D01*
X130417683Y-105050000D01*
X130622317Y-105050000D01*
X130824417Y-105017990D01*
X131019031Y-104954755D01*
X131111801Y-104907485D01*
X130520001Y-104315685D01*
X130520000Y-104315685D01*
X129928198Y-104907485D01*
X118236813Y-104907485D01*
X118297895Y-104787606D01*
X118366015Y-104577951D01*
X118400500Y-104360222D01*
X118400500Y-104139778D01*
X118366015Y-103922049D01*
X118310114Y-103750000D01*
X118297896Y-103712396D01*
X118297895Y-103712395D01*
X118297895Y-103712394D01*
X118272925Y-103663389D01*
X126919500Y-103663389D01*
X126919500Y-103836611D01*
X126946598Y-104007701D01*
X127000127Y-104172445D01*
X127078768Y-104326788D01*
X127180586Y-104466928D01*
X127303072Y-104589414D01*
X127443212Y-104691232D01*
X127597555Y-104769873D01*
X127762299Y-104823402D01*
X127933389Y-104850500D01*
X127933390Y-104850500D01*
X128106610Y-104850500D01*
X128106611Y-104850500D01*
X128277701Y-104823402D01*
X128442445Y-104769873D01*
X128596788Y-104691232D01*
X128736928Y-104589414D01*
X128859414Y-104466928D01*
X128961232Y-104326788D01*
X129039873Y-104172445D01*
X129047185Y-104149938D01*
X129086621Y-104092264D01*
X129150980Y-104065065D01*
X129219826Y-104076979D01*
X129271303Y-104124223D01*
X129283047Y-104149938D01*
X129315243Y-104249027D01*
X129315246Y-104249034D01*
X129362512Y-104341801D01*
X129954314Y-103750000D01*
X129954314Y-103749999D01*
X129901654Y-103697339D01*
X130120000Y-103697339D01*
X130120000Y-103802661D01*
X130147259Y-103904394D01*
X130199920Y-103995606D01*
X130274394Y-104070080D01*
X130365606Y-104122741D01*
X130467339Y-104150000D01*
X130572661Y-104150000D01*
X130674394Y-104122741D01*
X130765606Y-104070080D01*
X130840080Y-103995606D01*
X130892741Y-103904394D01*
X130920000Y-103802661D01*
X130920000Y-103749999D01*
X131085685Y-103749999D01*
X131085685Y-103750000D01*
X131677485Y-104341800D01*
X131724755Y-104249031D01*
X131787990Y-104054417D01*
X131820000Y-103852317D01*
X131820000Y-103647682D01*
X131801771Y-103532590D01*
X131799286Y-103516898D01*
X145184500Y-103516898D01*
X145184500Y-104703102D01*
X145190126Y-104749954D01*
X145195122Y-104791561D01*
X145250639Y-104932343D01*
X145342077Y-105052922D01*
X145462656Y-105144360D01*
X145462657Y-105144360D01*
X145462658Y-105144361D01*
X145603436Y-105199877D01*
X145691898Y-105210500D01*
X145691903Y-105210500D01*
X146878097Y-105210500D01*
X146878102Y-105210500D01*
X146966564Y-105199877D01*
X147107342Y-105144361D01*
X147227922Y-105052922D01*
X147319361Y-104932342D01*
X147374877Y-104791564D01*
X147385500Y-104703102D01*
X147385500Y-103516898D01*
X147374877Y-103428436D01*
X147319361Y-103287658D01*
X147319360Y-103287657D01*
X147319360Y-103287656D01*
X147227922Y-103167077D01*
X147107343Y-103075639D01*
X146999395Y-103033070D01*
X146966564Y-103020123D01*
X146966563Y-103020122D01*
X146966561Y-103020122D01*
X146920926Y-103014642D01*
X146878102Y-103009500D01*
X145691898Y-103009500D01*
X145652853Y-103014188D01*
X145603438Y-103020122D01*
X145462656Y-103075639D01*
X145342077Y-103167077D01*
X145250639Y-103287656D01*
X145195122Y-103428438D01*
X145191927Y-103455048D01*
X145184500Y-103516898D01*
X131799286Y-103516898D01*
X131787990Y-103445582D01*
X131724755Y-103250968D01*
X131677485Y-103158198D01*
X131085685Y-103749999D01*
X130920000Y-103749999D01*
X130920000Y-103697339D01*
X130892741Y-103595606D01*
X130840080Y-103504394D01*
X130765606Y-103429920D01*
X130674394Y-103377259D01*
X130572661Y-103350000D01*
X130467339Y-103350000D01*
X130365606Y-103377259D01*
X130274394Y-103429920D01*
X130199920Y-103504394D01*
X130147259Y-103595606D01*
X130120000Y-103697339D01*
X129901654Y-103697339D01*
X129362512Y-103158197D01*
X129315243Y-103250972D01*
X129283047Y-103350060D01*
X129243609Y-103407735D01*
X129179250Y-103434933D01*
X129110404Y-103423018D01*
X129058928Y-103375774D01*
X129047185Y-103350060D01*
X129043148Y-103337636D01*
X129039873Y-103327555D01*
X129039871Y-103327552D01*
X129039871Y-103327550D01*
X128992621Y-103234817D01*
X128961232Y-103173212D01*
X128859414Y-103033072D01*
X128736928Y-102910586D01*
X128596788Y-102808768D01*
X128473604Y-102746003D01*
X128473602Y-102746001D01*
X128442450Y-102730129D01*
X128442447Y-102730128D01*
X128442445Y-102730127D01*
X128277701Y-102676598D01*
X128277699Y-102676597D01*
X128277698Y-102676597D01*
X128146271Y-102655781D01*
X128106611Y-102649500D01*
X127933389Y-102649500D01*
X127893728Y-102655781D01*
X127762302Y-102676597D01*
X127597552Y-102730128D01*
X127443211Y-102808768D01*
X127387149Y-102849500D01*
X127303072Y-102910586D01*
X127303070Y-102910588D01*
X127303069Y-102910588D01*
X127180588Y-103033069D01*
X127180588Y-103033070D01*
X127180586Y-103033072D01*
X127165270Y-103054153D01*
X127078768Y-103173211D01*
X127000128Y-103327552D01*
X126946597Y-103492302D01*
X126930236Y-103595606D01*
X126919500Y-103663389D01*
X118272925Y-103663389D01*
X118197815Y-103515978D01*
X118134214Y-103428438D01*
X118068247Y-103337641D01*
X118068243Y-103337636D01*
X117912363Y-103181756D01*
X117912358Y-103181752D01*
X117734025Y-103052187D01*
X117734024Y-103052186D01*
X117734022Y-103052185D01*
X117650249Y-103009500D01*
X117537606Y-102952104D01*
X117537603Y-102952103D01*
X117327952Y-102883985D01*
X117219086Y-102866742D01*
X117110222Y-102849500D01*
X116889778Y-102849500D01*
X116817201Y-102860995D01*
X116672047Y-102883985D01*
X116462396Y-102952103D01*
X116462393Y-102952104D01*
X116265974Y-103052187D01*
X116087641Y-103181752D01*
X116087636Y-103181756D01*
X115931756Y-103337636D01*
X115931752Y-103337641D01*
X115802187Y-103515974D01*
X115702104Y-103712393D01*
X115702103Y-103712396D01*
X115633985Y-103922047D01*
X115599500Y-104139778D01*
X91500500Y-104139778D01*
X91500500Y-102592512D01*
X129928197Y-102592512D01*
X130520000Y-103184314D01*
X130520001Y-103184314D01*
X131111801Y-102592512D01*
X131019034Y-102545246D01*
X131019027Y-102545243D01*
X130824417Y-102482009D01*
X130622317Y-102450000D01*
X130417683Y-102450000D01*
X130215581Y-102482010D01*
X130215578Y-102482010D01*
X130020974Y-102545242D01*
X130020973Y-102545242D01*
X129928197Y-102592512D01*
X91500500Y-102592512D01*
X91500500Y-100583389D01*
X127169500Y-100583389D01*
X127169500Y-100756610D01*
X127187457Y-100869991D01*
X127196598Y-100927701D01*
X127250127Y-101092445D01*
X127328768Y-101246788D01*
X127430586Y-101386928D01*
X127553072Y-101509414D01*
X127693212Y-101611232D01*
X127847555Y-101689873D01*
X128012299Y-101743402D01*
X128183389Y-101770500D01*
X128183390Y-101770500D01*
X128356610Y-101770500D01*
X128356611Y-101770500D01*
X128527701Y-101743402D01*
X128692445Y-101689873D01*
X128846788Y-101611232D01*
X128986928Y-101509414D01*
X129109414Y-101386928D01*
X129211232Y-101246788D01*
X129289873Y-101092445D01*
X129343402Y-100927701D01*
X129370500Y-100756611D01*
X129370500Y-100583389D01*
X129709500Y-100583389D01*
X129709500Y-100756610D01*
X129727457Y-100869991D01*
X129736598Y-100927701D01*
X129790127Y-101092445D01*
X129868768Y-101246788D01*
X129970586Y-101386928D01*
X130093072Y-101509414D01*
X130233212Y-101611232D01*
X130387555Y-101689873D01*
X130552299Y-101743402D01*
X130723389Y-101770500D01*
X130723390Y-101770500D01*
X130896610Y-101770500D01*
X130896611Y-101770500D01*
X131067701Y-101743402D01*
X131232445Y-101689873D01*
X131386788Y-101611232D01*
X131526928Y-101509414D01*
X131649414Y-101386928D01*
X131751232Y-101246788D01*
X131829873Y-101092445D01*
X131883402Y-100927701D01*
X131910500Y-100756611D01*
X131910500Y-100583389D01*
X131883402Y-100412299D01*
X131829873Y-100247555D01*
X131751232Y-100093212D01*
X131649414Y-99953072D01*
X131526928Y-99830586D01*
X131386788Y-99728768D01*
X131232445Y-99650127D01*
X131067701Y-99596598D01*
X131067699Y-99596597D01*
X131067698Y-99596597D01*
X130936271Y-99575781D01*
X130896611Y-99569500D01*
X130723389Y-99569500D01*
X130683728Y-99575781D01*
X130552302Y-99596597D01*
X130552299Y-99596598D01*
X130406003Y-99644133D01*
X130387552Y-99650128D01*
X130233211Y-99728768D01*
X130153256Y-99786859D01*
X130093072Y-99830586D01*
X130093070Y-99830588D01*
X130093069Y-99830588D01*
X129970588Y-99953069D01*
X129970588Y-99953070D01*
X129970586Y-99953072D01*
X129926859Y-100013256D01*
X129868768Y-100093211D01*
X129790128Y-100247552D01*
X129736597Y-100412302D01*
X129709500Y-100583389D01*
X129370500Y-100583389D01*
X129343402Y-100412299D01*
X129289873Y-100247555D01*
X129211232Y-100093212D01*
X129109414Y-99953072D01*
X128986928Y-99830586D01*
X128846788Y-99728768D01*
X128692445Y-99650127D01*
X128527701Y-99596598D01*
X128527699Y-99596597D01*
X128527698Y-99596597D01*
X128396271Y-99575781D01*
X128356611Y-99569500D01*
X128183389Y-99569500D01*
X128143728Y-99575781D01*
X128012302Y-99596597D01*
X128012299Y-99596598D01*
X127866003Y-99644133D01*
X127847552Y-99650128D01*
X127693211Y-99728768D01*
X127613256Y-99786859D01*
X127553072Y-99830586D01*
X127553070Y-99830588D01*
X127553069Y-99830588D01*
X127430588Y-99953069D01*
X127430588Y-99953070D01*
X127430586Y-99953072D01*
X127386859Y-100013256D01*
X127328768Y-100093211D01*
X127250128Y-100247552D01*
X127196597Y-100412302D01*
X127169500Y-100583389D01*
X91500500Y-100583389D01*
X91500500Y-94139778D01*
X115599500Y-94139778D01*
X115599500Y-94360222D01*
X115602479Y-94379031D01*
X115633985Y-94577952D01*
X115702103Y-94787603D01*
X115702104Y-94787606D01*
X115802187Y-94984025D01*
X115931752Y-95162358D01*
X115931756Y-95162363D01*
X116087636Y-95318243D01*
X116087641Y-95318247D01*
X116223010Y-95416597D01*
X116265978Y-95447815D01*
X116394375Y-95513237D01*
X116462393Y-95547895D01*
X116462396Y-95547896D01*
X116567221Y-95581955D01*
X116672049Y-95616015D01*
X116889778Y-95650500D01*
X116889779Y-95650500D01*
X117110221Y-95650500D01*
X117110222Y-95650500D01*
X117327951Y-95616015D01*
X117537606Y-95547895D01*
X117734022Y-95447815D01*
X117912365Y-95318242D01*
X118068242Y-95162365D01*
X118197815Y-94984022D01*
X118297895Y-94787606D01*
X118366015Y-94577951D01*
X118400500Y-94360222D01*
X118400500Y-94139778D01*
X118366015Y-93922049D01*
X118297895Y-93712394D01*
X118297895Y-93712393D01*
X118243956Y-93606534D01*
X118197815Y-93515978D01*
X118153925Y-93455568D01*
X118068247Y-93337641D01*
X118068243Y-93337636D01*
X117912363Y-93181756D01*
X117912358Y-93181752D01*
X117743176Y-93058835D01*
X117734025Y-93052187D01*
X117734024Y-93052186D01*
X117734022Y-93052185D01*
X117626382Y-92997339D01*
X117559753Y-92963389D01*
X127169500Y-92963389D01*
X127169500Y-93136611D01*
X127171296Y-93147949D01*
X127196597Y-93307697D01*
X127196597Y-93307699D01*
X127196598Y-93307701D01*
X127250127Y-93472445D01*
X127328768Y-93626788D01*
X127430586Y-93766928D01*
X127553072Y-93889414D01*
X127693212Y-93991232D01*
X127847555Y-94069873D01*
X128012299Y-94123402D01*
X128183389Y-94150500D01*
X128183390Y-94150500D01*
X128356610Y-94150500D01*
X128356611Y-94150500D01*
X128497392Y-94128202D01*
X128566683Y-94137156D01*
X128604469Y-94162994D01*
X133879996Y-99438521D01*
X133913481Y-99499844D01*
X133908497Y-99569536D01*
X133866625Y-99625469D01*
X133801161Y-99649886D01*
X133753997Y-99644133D01*
X133607701Y-99596598D01*
X133607699Y-99596597D01*
X133607698Y-99596597D01*
X133476271Y-99575781D01*
X133436611Y-99569500D01*
X133263389Y-99569500D01*
X133223728Y-99575781D01*
X133092302Y-99596597D01*
X133092299Y-99596598D01*
X132946003Y-99644133D01*
X132927552Y-99650128D01*
X132773211Y-99728768D01*
X132693256Y-99786859D01*
X132633072Y-99830586D01*
X132633070Y-99830588D01*
X132633069Y-99830588D01*
X132510588Y-99953069D01*
X132510588Y-99953070D01*
X132510586Y-99953072D01*
X132466859Y-100013256D01*
X132408768Y-100093211D01*
X132330128Y-100247552D01*
X132276597Y-100412302D01*
X132249500Y-100583389D01*
X132249500Y-100756610D01*
X132267457Y-100869991D01*
X132276598Y-100927701D01*
X132330127Y-101092445D01*
X132408768Y-101246788D01*
X132510586Y-101386928D01*
X132633072Y-101509414D01*
X132773212Y-101611232D01*
X132927555Y-101689873D01*
X133092299Y-101743402D01*
X133263389Y-101770500D01*
X133263390Y-101770500D01*
X133436610Y-101770500D01*
X133436611Y-101770500D01*
X133607701Y-101743402D01*
X133772445Y-101689873D01*
X133926788Y-101611232D01*
X134066928Y-101509414D01*
X134189414Y-101386928D01*
X134291232Y-101246788D01*
X134369873Y-101092445D01*
X134423402Y-100927701D01*
X134450500Y-100756611D01*
X134450500Y-100583389D01*
X134423402Y-100412299D01*
X134375865Y-100265999D01*
X134373871Y-100196162D01*
X134409951Y-100136329D01*
X134472652Y-100105500D01*
X134542066Y-100113464D01*
X134581478Y-100140003D01*
X134777005Y-100335530D01*
X134810490Y-100396853D01*
X134811797Y-100442608D01*
X134789500Y-100583388D01*
X134789500Y-100756610D01*
X134807457Y-100869991D01*
X134816598Y-100927701D01*
X134870127Y-101092445D01*
X134948768Y-101246788D01*
X135050586Y-101386928D01*
X135173072Y-101509414D01*
X135313212Y-101611232D01*
X135467555Y-101689873D01*
X135632299Y-101743402D01*
X135803389Y-101770500D01*
X135803390Y-101770500D01*
X135976610Y-101770500D01*
X135976611Y-101770500D01*
X136147701Y-101743402D01*
X136193432Y-101728543D01*
X138389499Y-101728543D01*
X138427947Y-101921829D01*
X138427950Y-101921839D01*
X138503364Y-102103907D01*
X138503371Y-102103920D01*
X138612860Y-102267781D01*
X138612863Y-102267785D01*
X138752214Y-102407136D01*
X138752218Y-102407139D01*
X138916079Y-102516628D01*
X138916092Y-102516635D01*
X139098160Y-102592049D01*
X139098165Y-102592051D01*
X139098169Y-102592051D01*
X139098170Y-102592052D01*
X139291456Y-102630500D01*
X139291459Y-102630500D01*
X139488543Y-102630500D01*
X139618582Y-102604632D01*
X139681835Y-102592051D01*
X139863914Y-102516632D01*
X140027782Y-102407139D01*
X140167139Y-102267782D01*
X140276632Y-102103914D01*
X140352051Y-101921835D01*
X140390500Y-101728543D01*
X141784499Y-101728543D01*
X141822947Y-101921829D01*
X141822950Y-101921839D01*
X141898364Y-102103907D01*
X141898371Y-102103920D01*
X142007860Y-102267781D01*
X142007863Y-102267785D01*
X142147214Y-102407136D01*
X142147218Y-102407139D01*
X142311079Y-102516628D01*
X142311092Y-102516635D01*
X142493160Y-102592049D01*
X142493165Y-102592051D01*
X142493169Y-102592051D01*
X142493170Y-102592052D01*
X142686456Y-102630500D01*
X142686459Y-102630500D01*
X142883543Y-102630500D01*
X143013582Y-102604632D01*
X143076835Y-102592051D01*
X143258914Y-102516632D01*
X143422782Y-102407139D01*
X143562139Y-102267782D01*
X143671632Y-102103914D01*
X143747051Y-101921835D01*
X143785500Y-101728541D01*
X143785500Y-101531459D01*
X143785500Y-101531456D01*
X143747052Y-101338170D01*
X143747051Y-101338169D01*
X143747051Y-101338165D01*
X143747049Y-101338160D01*
X143671635Y-101156092D01*
X143671628Y-101156079D01*
X143562139Y-100992218D01*
X143562136Y-100992214D01*
X143422785Y-100852863D01*
X143422781Y-100852860D01*
X143258920Y-100743371D01*
X143258907Y-100743364D01*
X143076839Y-100667950D01*
X143076829Y-100667947D01*
X142883543Y-100629500D01*
X142883541Y-100629500D01*
X142686459Y-100629500D01*
X142686457Y-100629500D01*
X142493170Y-100667947D01*
X142493160Y-100667950D01*
X142311092Y-100743364D01*
X142311079Y-100743371D01*
X142147218Y-100852860D01*
X142147214Y-100852863D01*
X142007863Y-100992214D01*
X142007860Y-100992218D01*
X141898371Y-101156079D01*
X141898364Y-101156092D01*
X141822950Y-101338160D01*
X141822947Y-101338170D01*
X141784500Y-101531456D01*
X141784500Y-101531459D01*
X141784500Y-101728541D01*
X141784500Y-101728543D01*
X141784499Y-101728543D01*
X140390500Y-101728543D01*
X140390500Y-101728541D01*
X140390500Y-101531459D01*
X140390500Y-101531456D01*
X140352052Y-101338170D01*
X140352051Y-101338169D01*
X140352051Y-101338165D01*
X140352049Y-101338160D01*
X140276635Y-101156092D01*
X140276628Y-101156079D01*
X140167139Y-100992218D01*
X140167136Y-100992214D01*
X140027785Y-100852863D01*
X140027781Y-100852860D01*
X139863920Y-100743371D01*
X139863907Y-100743364D01*
X139681839Y-100667950D01*
X139681829Y-100667947D01*
X139488543Y-100629500D01*
X139488541Y-100629500D01*
X139291459Y-100629500D01*
X139291457Y-100629500D01*
X139098170Y-100667947D01*
X139098160Y-100667950D01*
X138916092Y-100743364D01*
X138916079Y-100743371D01*
X138752218Y-100852860D01*
X138752214Y-100852863D01*
X138612863Y-100992214D01*
X138612860Y-100992218D01*
X138503371Y-101156079D01*
X138503364Y-101156092D01*
X138427950Y-101338160D01*
X138427947Y-101338170D01*
X138389500Y-101531456D01*
X138389500Y-101531459D01*
X138389500Y-101728541D01*
X138389500Y-101728543D01*
X138389499Y-101728543D01*
X136193432Y-101728543D01*
X136312445Y-101689873D01*
X136466788Y-101611232D01*
X136606928Y-101509414D01*
X136729414Y-101386928D01*
X136831232Y-101246788D01*
X136909873Y-101092445D01*
X136963402Y-100927701D01*
X136990500Y-100756611D01*
X136990500Y-100583389D01*
X136963402Y-100412299D01*
X136909873Y-100247555D01*
X136831232Y-100093212D01*
X136729414Y-99953072D01*
X136606928Y-99830586D01*
X136466788Y-99728768D01*
X136312445Y-99650127D01*
X136147701Y-99596598D01*
X136147699Y-99596597D01*
X136147698Y-99596597D01*
X136016271Y-99575781D01*
X135976611Y-99569500D01*
X135803389Y-99569500D01*
X135662608Y-99591797D01*
X135593315Y-99582842D01*
X135555530Y-99557005D01*
X135200427Y-99201902D01*
X152999500Y-99201902D01*
X152999500Y-99438097D01*
X153036446Y-99671368D01*
X153109433Y-99895996D01*
X153209920Y-100093211D01*
X153216657Y-100106433D01*
X153355483Y-100297510D01*
X153522490Y-100464517D01*
X153713567Y-100603343D01*
X153764903Y-100629500D01*
X153924003Y-100710566D01*
X153924005Y-100710566D01*
X153924008Y-100710568D01*
X154024956Y-100743368D01*
X154148631Y-100783553D01*
X154381903Y-100820500D01*
X154381908Y-100820500D01*
X154618097Y-100820500D01*
X154851368Y-100783553D01*
X155075992Y-100710568D01*
X155286433Y-100603343D01*
X155477510Y-100464517D01*
X155560032Y-100381995D01*
X159949500Y-100381995D01*
X159949500Y-100618004D01*
X159949501Y-100618020D01*
X159979365Y-100844864D01*
X159980307Y-100852014D01*
X159985123Y-100869987D01*
X160041394Y-101079993D01*
X160131714Y-101298045D01*
X160131719Y-101298056D01*
X160183030Y-101386928D01*
X160249727Y-101502450D01*
X160249729Y-101502453D01*
X160249730Y-101502454D01*
X160393406Y-101689697D01*
X160393412Y-101689704D01*
X160560295Y-101856587D01*
X160560301Y-101856592D01*
X160747550Y-102000273D01*
X160878918Y-102076118D01*
X160951943Y-102118280D01*
X160951948Y-102118282D01*
X160951951Y-102118284D01*
X161170007Y-102208606D01*
X161397986Y-102269693D01*
X161631989Y-102300500D01*
X161631996Y-102300500D01*
X161868004Y-102300500D01*
X161868011Y-102300500D01*
X162102014Y-102269693D01*
X162329993Y-102208606D01*
X162548049Y-102118284D01*
X162752450Y-102000273D01*
X162939699Y-101856592D01*
X163106592Y-101689699D01*
X163250273Y-101502450D01*
X163368284Y-101298049D01*
X163458606Y-101079993D01*
X163519693Y-100852014D01*
X163550500Y-100618011D01*
X163550500Y-100381989D01*
X163519693Y-100147986D01*
X163458606Y-99920007D01*
X163368284Y-99701951D01*
X163368282Y-99701948D01*
X163368280Y-99701943D01*
X163324127Y-99625469D01*
X163250273Y-99497550D01*
X163106592Y-99310301D01*
X163106587Y-99310295D01*
X162939704Y-99143412D01*
X162939697Y-99143406D01*
X162752454Y-98999730D01*
X162752453Y-98999729D01*
X162752450Y-98999727D01*
X162670957Y-98952677D01*
X162548056Y-98881719D01*
X162548045Y-98881714D01*
X162329993Y-98791394D01*
X162102014Y-98730307D01*
X162102013Y-98730306D01*
X162102010Y-98730306D01*
X161868020Y-98699501D01*
X161868017Y-98699500D01*
X161868011Y-98699500D01*
X161631989Y-98699500D01*
X161631983Y-98699500D01*
X161631979Y-98699501D01*
X161397989Y-98730306D01*
X161170006Y-98791394D01*
X160951954Y-98881714D01*
X160951943Y-98881719D01*
X160747545Y-98999730D01*
X160560302Y-99143406D01*
X160560295Y-99143412D01*
X160393412Y-99310295D01*
X160393406Y-99310302D01*
X160249730Y-99497545D01*
X160131719Y-99701943D01*
X160131714Y-99701954D01*
X160041394Y-99920006D01*
X159980306Y-100147989D01*
X159949501Y-100381979D01*
X159949500Y-100381995D01*
X155560032Y-100381995D01*
X155644517Y-100297510D01*
X155783343Y-100106433D01*
X155890568Y-99895992D01*
X155963553Y-99671368D01*
X155970823Y-99625469D01*
X156000500Y-99438097D01*
X156000500Y-99201902D01*
X155963553Y-98968631D01*
X155929689Y-98864412D01*
X155890568Y-98744008D01*
X155890566Y-98744005D01*
X155890566Y-98744003D01*
X155783342Y-98533566D01*
X155644517Y-98342490D01*
X155477510Y-98175483D01*
X155286433Y-98036657D01*
X155075996Y-97929433D01*
X154851368Y-97856446D01*
X154618097Y-97819500D01*
X154618092Y-97819500D01*
X154381908Y-97819500D01*
X154381903Y-97819500D01*
X154148631Y-97856446D01*
X153924003Y-97929433D01*
X153713566Y-98036657D01*
X153604550Y-98115862D01*
X153522490Y-98175483D01*
X153522488Y-98175485D01*
X153522487Y-98175485D01*
X153355485Y-98342487D01*
X153355485Y-98342488D01*
X153355483Y-98342490D01*
X153295862Y-98424550D01*
X153216657Y-98533566D01*
X153109433Y-98744003D01*
X153036446Y-98968631D01*
X152999500Y-99201902D01*
X135200427Y-99201902D01*
X132647068Y-96648543D01*
X138389499Y-96648543D01*
X138427947Y-96841829D01*
X138427950Y-96841839D01*
X138503364Y-97023907D01*
X138503371Y-97023920D01*
X138612860Y-97187781D01*
X138612863Y-97187785D01*
X138752214Y-97327136D01*
X138752218Y-97327139D01*
X138916079Y-97436628D01*
X138916092Y-97436635D01*
X139092902Y-97509871D01*
X139098165Y-97512051D01*
X139098169Y-97512051D01*
X139098170Y-97512052D01*
X139291456Y-97550500D01*
X139291459Y-97550500D01*
X139488543Y-97550500D01*
X139618582Y-97524632D01*
X139681835Y-97512051D01*
X139863914Y-97436632D01*
X140027782Y-97327139D01*
X140167139Y-97187782D01*
X140276632Y-97023914D01*
X140352051Y-96841835D01*
X140370776Y-96747701D01*
X140390500Y-96648543D01*
X141784499Y-96648543D01*
X141822947Y-96841829D01*
X141822950Y-96841839D01*
X141898364Y-97023907D01*
X141898371Y-97023920D01*
X142007860Y-97187781D01*
X142007863Y-97187785D01*
X142147214Y-97327136D01*
X142147218Y-97327139D01*
X142311079Y-97436628D01*
X142311092Y-97436635D01*
X142487902Y-97509871D01*
X142493165Y-97512051D01*
X142493169Y-97512051D01*
X142493170Y-97512052D01*
X142686456Y-97550500D01*
X142686459Y-97550500D01*
X142883543Y-97550500D01*
X143013582Y-97524632D01*
X143076835Y-97512051D01*
X143258914Y-97436632D01*
X143422782Y-97327139D01*
X143562139Y-97187782D01*
X143671632Y-97023914D01*
X143747051Y-96841835D01*
X143765776Y-96747701D01*
X143785500Y-96648543D01*
X143785500Y-96451459D01*
X143779781Y-96422707D01*
X143779781Y-96422704D01*
X143775939Y-96403389D01*
X145184500Y-96403389D01*
X145184500Y-96576611D01*
X145211598Y-96747701D01*
X145265127Y-96912445D01*
X145343768Y-97066788D01*
X145445586Y-97206928D01*
X145568072Y-97329414D01*
X145708212Y-97431232D01*
X145862555Y-97509873D01*
X146027299Y-97563402D01*
X146198389Y-97590500D01*
X146198390Y-97590500D01*
X146371610Y-97590500D01*
X146371611Y-97590500D01*
X146542701Y-97563402D01*
X146707445Y-97509873D01*
X146861788Y-97431232D01*
X147001928Y-97329414D01*
X147124414Y-97206928D01*
X147226232Y-97066788D01*
X147304873Y-96912445D01*
X147358402Y-96747701D01*
X147385500Y-96576611D01*
X147385500Y-96403389D01*
X147358402Y-96232299D01*
X147304873Y-96067555D01*
X147226232Y-95913212D01*
X147124414Y-95773072D01*
X147001928Y-95650586D01*
X146861788Y-95548768D01*
X146707445Y-95470127D01*
X146542701Y-95416598D01*
X146542699Y-95416597D01*
X146542698Y-95416597D01*
X146411271Y-95395781D01*
X146371611Y-95389500D01*
X146198389Y-95389500D01*
X146158728Y-95395781D01*
X146027302Y-95416597D01*
X145862552Y-95470128D01*
X145708211Y-95548768D01*
X145628256Y-95606859D01*
X145568072Y-95650586D01*
X145568070Y-95650588D01*
X145568069Y-95650588D01*
X145445588Y-95773069D01*
X145445588Y-95773070D01*
X145445586Y-95773072D01*
X145401859Y-95833256D01*
X145343768Y-95913211D01*
X145265128Y-96067552D01*
X145211597Y-96232302D01*
X145207502Y-96258160D01*
X145184500Y-96403389D01*
X143775939Y-96403389D01*
X143747052Y-96258170D01*
X143747051Y-96258169D01*
X143747051Y-96258165D01*
X143736337Y-96232299D01*
X143671635Y-96076092D01*
X143671628Y-96076079D01*
X143562139Y-95912218D01*
X143562136Y-95912214D01*
X143422785Y-95772863D01*
X143422781Y-95772860D01*
X143258920Y-95663371D01*
X143258907Y-95663364D01*
X143076839Y-95587950D01*
X143076829Y-95587947D01*
X142883543Y-95549500D01*
X142883541Y-95549500D01*
X142686459Y-95549500D01*
X142686457Y-95549500D01*
X142493170Y-95587947D01*
X142493160Y-95587950D01*
X142311092Y-95663364D01*
X142311079Y-95663371D01*
X142147218Y-95772860D01*
X142147214Y-95772863D01*
X142007863Y-95912214D01*
X142007860Y-95912218D01*
X141898371Y-96076079D01*
X141898364Y-96076092D01*
X141822950Y-96258160D01*
X141822947Y-96258170D01*
X141784500Y-96451456D01*
X141784500Y-96451459D01*
X141784500Y-96648541D01*
X141784500Y-96648543D01*
X141784499Y-96648543D01*
X140390500Y-96648543D01*
X140390500Y-96451456D01*
X140352052Y-96258170D01*
X140352051Y-96258169D01*
X140352051Y-96258165D01*
X140341337Y-96232299D01*
X140276635Y-96076092D01*
X140276628Y-96076079D01*
X140167139Y-95912218D01*
X140167136Y-95912214D01*
X140027785Y-95772863D01*
X140027781Y-95772860D01*
X139863920Y-95663371D01*
X139863907Y-95663364D01*
X139681839Y-95587950D01*
X139681829Y-95587947D01*
X139488543Y-95549500D01*
X139488541Y-95549500D01*
X139291459Y-95549500D01*
X139291457Y-95549500D01*
X139098170Y-95587947D01*
X139098160Y-95587950D01*
X138916092Y-95663364D01*
X138916079Y-95663371D01*
X138752218Y-95772860D01*
X138752214Y-95772863D01*
X138612863Y-95912214D01*
X138612860Y-95912218D01*
X138503371Y-96076079D01*
X138503364Y-96076092D01*
X138427950Y-96258160D01*
X138427947Y-96258170D01*
X138389500Y-96451456D01*
X138389500Y-96451459D01*
X138389500Y-96648541D01*
X138389500Y-96648543D01*
X138389499Y-96648543D01*
X132647068Y-96648543D01*
X131036010Y-95037485D01*
X153588198Y-95037485D01*
X153680968Y-95084755D01*
X153875582Y-95147990D01*
X154077683Y-95180000D01*
X154282317Y-95180000D01*
X154484417Y-95147990D01*
X154679031Y-95084755D01*
X154771801Y-95037485D01*
X161208198Y-95037485D01*
X161300968Y-95084755D01*
X161495582Y-95147990D01*
X161697683Y-95180000D01*
X161902317Y-95180000D01*
X162104417Y-95147990D01*
X162299031Y-95084755D01*
X162391801Y-95037485D01*
X161800001Y-94445685D01*
X161800000Y-94445685D01*
X161208198Y-95037485D01*
X154771801Y-95037485D01*
X154180001Y-94445685D01*
X154180000Y-94445685D01*
X153588198Y-95037485D01*
X131036010Y-95037485D01*
X130280003Y-94281478D01*
X130246518Y-94220155D01*
X130251502Y-94150463D01*
X130293374Y-94094530D01*
X130358838Y-94070113D01*
X130405997Y-94075865D01*
X130552299Y-94123402D01*
X130723389Y-94150500D01*
X130723390Y-94150500D01*
X130896610Y-94150500D01*
X130896611Y-94150500D01*
X131067701Y-94123402D01*
X131232445Y-94069873D01*
X131386788Y-93991232D01*
X131526928Y-93889414D01*
X131649414Y-93766928D01*
X131751232Y-93626788D01*
X131829873Y-93472445D01*
X131883402Y-93307701D01*
X131910500Y-93136611D01*
X131910500Y-92963389D01*
X132249500Y-92963389D01*
X132249500Y-93136611D01*
X132251296Y-93147949D01*
X132276597Y-93307697D01*
X132276597Y-93307699D01*
X132276598Y-93307701D01*
X132330127Y-93472445D01*
X132408768Y-93626788D01*
X132510586Y-93766928D01*
X132633072Y-93889414D01*
X132773212Y-93991232D01*
X132927555Y-94069873D01*
X133092299Y-94123402D01*
X133263389Y-94150500D01*
X133263390Y-94150500D01*
X133436610Y-94150500D01*
X133436611Y-94150500D01*
X133607701Y-94123402D01*
X133772445Y-94069873D01*
X133926788Y-93991232D01*
X134066928Y-93889414D01*
X134189414Y-93766928D01*
X134291232Y-93626788D01*
X134355516Y-93500621D01*
X134403488Y-93449827D01*
X134471309Y-93433031D01*
X134537444Y-93455568D01*
X134580896Y-93510282D01*
X134590000Y-93556916D01*
X134590000Y-93649970D01*
X134590001Y-93649987D01*
X134600494Y-93752697D01*
X134655641Y-93919119D01*
X134655643Y-93919124D01*
X134747684Y-94068345D01*
X134871654Y-94192315D01*
X135020875Y-94284356D01*
X135020880Y-94284358D01*
X135187302Y-94339505D01*
X135187309Y-94339506D01*
X135290019Y-94349999D01*
X135489999Y-94349999D01*
X136290000Y-94349999D01*
X136489972Y-94349999D01*
X136489986Y-94349998D01*
X136592697Y-94339505D01*
X136759119Y-94284358D01*
X136759124Y-94284356D01*
X136908345Y-94192315D01*
X137032315Y-94068345D01*
X137100695Y-93957485D01*
X144008198Y-93957485D01*
X144100968Y-94004755D01*
X144295582Y-94067990D01*
X144497683Y-94100000D01*
X144702317Y-94100000D01*
X144904417Y-94067990D01*
X145099031Y-94004755D01*
X145191800Y-93957485D01*
X145094812Y-93860497D01*
X145011997Y-93777682D01*
X152880000Y-93777682D01*
X152880000Y-93982317D01*
X152912009Y-94184417D01*
X152975243Y-94379027D01*
X152975246Y-94379034D01*
X153022512Y-94471801D01*
X153614314Y-93880000D01*
X153614314Y-93879999D01*
X153561654Y-93827339D01*
X153780000Y-93827339D01*
X153780000Y-93932661D01*
X153807259Y-94034394D01*
X153859920Y-94125606D01*
X153934394Y-94200080D01*
X154025606Y-94252741D01*
X154127339Y-94280000D01*
X154232661Y-94280000D01*
X154334394Y-94252741D01*
X154425606Y-94200080D01*
X154500080Y-94125606D01*
X154552741Y-94034394D01*
X154580000Y-93932661D01*
X154580000Y-93879999D01*
X154745685Y-93879999D01*
X154745685Y-93880000D01*
X155337485Y-94471800D01*
X155384755Y-94379031D01*
X155447990Y-94184417D01*
X155480000Y-93982317D01*
X155480000Y-93777682D01*
X160500000Y-93777682D01*
X160500000Y-93982317D01*
X160532009Y-94184417D01*
X160595243Y-94379027D01*
X160595246Y-94379034D01*
X160642512Y-94471801D01*
X161234314Y-93880000D01*
X161234314Y-93879999D01*
X161181654Y-93827339D01*
X161400000Y-93827339D01*
X161400000Y-93932661D01*
X161427259Y-94034394D01*
X161479920Y-94125606D01*
X161554394Y-94200080D01*
X161645606Y-94252741D01*
X161747339Y-94280000D01*
X161852661Y-94280000D01*
X161954394Y-94252741D01*
X162045606Y-94200080D01*
X162120080Y-94125606D01*
X162172741Y-94034394D01*
X162200000Y-93932661D01*
X162200000Y-93879999D01*
X162365685Y-93879999D01*
X162365685Y-93880000D01*
X162957485Y-94471800D01*
X163004755Y-94379031D01*
X163060151Y-94208543D01*
X164299499Y-94208543D01*
X164337947Y-94401829D01*
X164337950Y-94401839D01*
X164413364Y-94583907D01*
X164413371Y-94583920D01*
X164522860Y-94747781D01*
X164522863Y-94747785D01*
X164662214Y-94887136D01*
X164662218Y-94887139D01*
X164826079Y-94996628D01*
X164826092Y-94996635D01*
X165008160Y-95072049D01*
X165008165Y-95072051D01*
X165008169Y-95072051D01*
X165008170Y-95072052D01*
X165201456Y-95110500D01*
X165201459Y-95110500D01*
X165398543Y-95110500D01*
X165528582Y-95084632D01*
X165591835Y-95072051D01*
X165773914Y-94996632D01*
X165937782Y-94887139D01*
X166077139Y-94747782D01*
X166186632Y-94583914D01*
X166262051Y-94401835D01*
X166300500Y-94208541D01*
X166300500Y-94011459D01*
X166300500Y-94011456D01*
X166262052Y-93818170D01*
X166262051Y-93818169D01*
X166262051Y-93818165D01*
X166262049Y-93818160D01*
X166186635Y-93636092D01*
X166186628Y-93636079D01*
X166077139Y-93472218D01*
X166077136Y-93472214D01*
X165937785Y-93332863D01*
X165937781Y-93332860D01*
X165773920Y-93223371D01*
X165773907Y-93223364D01*
X165591839Y-93147950D01*
X165591829Y-93147947D01*
X165398543Y-93109500D01*
X165398541Y-93109500D01*
X165201459Y-93109500D01*
X165201457Y-93109500D01*
X165008170Y-93147947D01*
X165008160Y-93147950D01*
X164826092Y-93223364D01*
X164826079Y-93223371D01*
X164662218Y-93332860D01*
X164662214Y-93332863D01*
X164522863Y-93472214D01*
X164522860Y-93472218D01*
X164413371Y-93636079D01*
X164413364Y-93636092D01*
X164337950Y-93818160D01*
X164337947Y-93818170D01*
X164299500Y-94011456D01*
X164299500Y-94011459D01*
X164299500Y-94208541D01*
X164299500Y-94208543D01*
X164299499Y-94208543D01*
X163060151Y-94208543D01*
X163067990Y-94184417D01*
X163099422Y-93985969D01*
X163100000Y-93982317D01*
X163100000Y-93777682D01*
X163067990Y-93575582D01*
X163004755Y-93380968D01*
X162957485Y-93288198D01*
X162365685Y-93879999D01*
X162200000Y-93879999D01*
X162200000Y-93827339D01*
X162172741Y-93725606D01*
X162120080Y-93634394D01*
X162045606Y-93559920D01*
X161954394Y-93507259D01*
X161852661Y-93480000D01*
X161747339Y-93480000D01*
X161645606Y-93507259D01*
X161554394Y-93559920D01*
X161479920Y-93634394D01*
X161427259Y-93725606D01*
X161400000Y-93827339D01*
X161181654Y-93827339D01*
X160642512Y-93288197D01*
X160595242Y-93380973D01*
X160595242Y-93380974D01*
X160532010Y-93575578D01*
X160532010Y-93575581D01*
X160500000Y-93777682D01*
X155480000Y-93777682D01*
X155447990Y-93575582D01*
X155384755Y-93380968D01*
X155337485Y-93288198D01*
X154745685Y-93879999D01*
X154580000Y-93879999D01*
X154580000Y-93827339D01*
X154552741Y-93725606D01*
X154500080Y-93634394D01*
X154425606Y-93559920D01*
X154334394Y-93507259D01*
X154232661Y-93480000D01*
X154127339Y-93480000D01*
X154025606Y-93507259D01*
X153934394Y-93559920D01*
X153859920Y-93634394D01*
X153807259Y-93725606D01*
X153780000Y-93827339D01*
X153561654Y-93827339D01*
X153022512Y-93288197D01*
X152975242Y-93380973D01*
X152975242Y-93380974D01*
X152912010Y-93575578D01*
X152912010Y-93575581D01*
X152880000Y-93777682D01*
X145011997Y-93777682D01*
X144600001Y-93365685D01*
X144600000Y-93365685D01*
X144008198Y-93957485D01*
X137100695Y-93957485D01*
X137124356Y-93919124D01*
X137124358Y-93919119D01*
X137179505Y-93752697D01*
X137179506Y-93752690D01*
X137189999Y-93649986D01*
X137190000Y-93649973D01*
X137190000Y-93450000D01*
X136290000Y-93450000D01*
X136290000Y-94349999D01*
X135489999Y-94349999D01*
X135490000Y-94349998D01*
X135490000Y-93102661D01*
X135517259Y-93204394D01*
X135569920Y-93295606D01*
X135644394Y-93370080D01*
X135735606Y-93422741D01*
X135837339Y-93450000D01*
X135942661Y-93450000D01*
X136044394Y-93422741D01*
X136135606Y-93370080D01*
X136210080Y-93295606D01*
X136262741Y-93204394D01*
X136290000Y-93102661D01*
X136290000Y-92997339D01*
X136262741Y-92895606D01*
X136210080Y-92804394D01*
X136135606Y-92729920D01*
X136106973Y-92713389D01*
X138499500Y-92713389D01*
X138499500Y-92886610D01*
X138525724Y-93052187D01*
X138526598Y-93057701D01*
X138580127Y-93222445D01*
X138658768Y-93376788D01*
X138760586Y-93516928D01*
X138883072Y-93639414D01*
X139023212Y-93741232D01*
X139177555Y-93819873D01*
X139342299Y-93873402D01*
X139513389Y-93900500D01*
X139513390Y-93900500D01*
X139686610Y-93900500D01*
X139686611Y-93900500D01*
X139857701Y-93873402D01*
X140022445Y-93819873D01*
X140176788Y-93741232D01*
X140316928Y-93639414D01*
X140439414Y-93516928D01*
X140541232Y-93376788D01*
X140619873Y-93222445D01*
X140673402Y-93057701D01*
X140700500Y-92886611D01*
X140700500Y-92713389D01*
X140698012Y-92697682D01*
X143300000Y-92697682D01*
X143300000Y-92902317D01*
X143332009Y-93104417D01*
X143395243Y-93299027D01*
X143395246Y-93299034D01*
X143442512Y-93391801D01*
X144034314Y-92800000D01*
X144034314Y-92799999D01*
X143981654Y-92747339D01*
X144200000Y-92747339D01*
X144200000Y-92852661D01*
X144227259Y-92954394D01*
X144279920Y-93045606D01*
X144354394Y-93120080D01*
X144445606Y-93172741D01*
X144547339Y-93200000D01*
X144652661Y-93200000D01*
X144754394Y-93172741D01*
X144845606Y-93120080D01*
X144920080Y-93045606D01*
X144972741Y-92954394D01*
X145000000Y-92852661D01*
X145000000Y-92799999D01*
X145165685Y-92799999D01*
X145165685Y-92800000D01*
X145757485Y-93391800D01*
X145804755Y-93299031D01*
X145867990Y-93104417D01*
X145900000Y-92902317D01*
X145900000Y-92697682D01*
X145867990Y-92495582D01*
X145804755Y-92300968D01*
X145757485Y-92208198D01*
X145165685Y-92799999D01*
X145000000Y-92799999D01*
X145000000Y-92747339D01*
X144972741Y-92645606D01*
X144920080Y-92554394D01*
X144845606Y-92479920D01*
X144754394Y-92427259D01*
X144652661Y-92400000D01*
X144547339Y-92400000D01*
X144445606Y-92427259D01*
X144354394Y-92479920D01*
X144279920Y-92554394D01*
X144227259Y-92645606D01*
X144200000Y-92747339D01*
X143981654Y-92747339D01*
X143442512Y-92208197D01*
X143395242Y-92300973D01*
X143395242Y-92300974D01*
X143332010Y-92495578D01*
X143332010Y-92495581D01*
X143300000Y-92697682D01*
X140698012Y-92697682D01*
X140673402Y-92542299D01*
X140619873Y-92377555D01*
X140541232Y-92223212D01*
X140439414Y-92083072D01*
X140316928Y-91960586D01*
X140176788Y-91858768D01*
X140053604Y-91796003D01*
X140053602Y-91796001D01*
X140022450Y-91780129D01*
X140022447Y-91780128D01*
X140022445Y-91780127D01*
X139857701Y-91726598D01*
X139857699Y-91726597D01*
X139857698Y-91726597D01*
X139726271Y-91705781D01*
X139686611Y-91699500D01*
X139513389Y-91699500D01*
X139473728Y-91705781D01*
X139342302Y-91726597D01*
X139177552Y-91780128D01*
X139023211Y-91858768D01*
X138955885Y-91907684D01*
X138883072Y-91960586D01*
X138883070Y-91960588D01*
X138883069Y-91960588D01*
X138760588Y-92083069D01*
X138760588Y-92083070D01*
X138760586Y-92083072D01*
X138741917Y-92108768D01*
X138658768Y-92223211D01*
X138580128Y-92377552D01*
X138526597Y-92542302D01*
X138499500Y-92713389D01*
X136106973Y-92713389D01*
X136044394Y-92677259D01*
X135942661Y-92650000D01*
X136290000Y-92650000D01*
X137189999Y-92650000D01*
X137189999Y-92450028D01*
X137189998Y-92450013D01*
X137179505Y-92347302D01*
X137124358Y-92180880D01*
X137124356Y-92180875D01*
X137032315Y-92031654D01*
X136908345Y-91907684D01*
X136759124Y-91815643D01*
X136759119Y-91815641D01*
X136592697Y-91760494D01*
X136592690Y-91760493D01*
X136489986Y-91750000D01*
X136290000Y-91750000D01*
X136290000Y-92650000D01*
X135942661Y-92650000D01*
X135837339Y-92650000D01*
X135735606Y-92677259D01*
X135644394Y-92729920D01*
X135569920Y-92804394D01*
X135517259Y-92895606D01*
X135490000Y-92997339D01*
X135490000Y-91750000D01*
X135290029Y-91750000D01*
X135290012Y-91750001D01*
X135187302Y-91760494D01*
X135020880Y-91815641D01*
X135020875Y-91815643D01*
X134871654Y-91907684D01*
X134747684Y-92031654D01*
X134655643Y-92180875D01*
X134655641Y-92180880D01*
X134600494Y-92347302D01*
X134600493Y-92347309D01*
X134590000Y-92450013D01*
X134590000Y-92543080D01*
X134570315Y-92610119D01*
X134517511Y-92655874D01*
X134448353Y-92665818D01*
X134384797Y-92636793D01*
X134355515Y-92599375D01*
X134302628Y-92495578D01*
X134291232Y-92473212D01*
X134189414Y-92333072D01*
X134066928Y-92210586D01*
X133926788Y-92108768D01*
X133772445Y-92030127D01*
X133607701Y-91976598D01*
X133607699Y-91976597D01*
X133607698Y-91976597D01*
X133476271Y-91955781D01*
X133436611Y-91949500D01*
X133263389Y-91949500D01*
X133223728Y-91955781D01*
X133092302Y-91976597D01*
X132927552Y-92030128D01*
X132773211Y-92108768D01*
X132693256Y-92166859D01*
X132633072Y-92210586D01*
X132633070Y-92210588D01*
X132633069Y-92210588D01*
X132510588Y-92333069D01*
X132510588Y-92333070D01*
X132510586Y-92333072D01*
X132466859Y-92393256D01*
X132408768Y-92473211D01*
X132330128Y-92627552D01*
X132330127Y-92627554D01*
X132330127Y-92627555D01*
X132314632Y-92675243D01*
X132276597Y-92792302D01*
X132251287Y-92952104D01*
X132249500Y-92963389D01*
X131910500Y-92963389D01*
X131883402Y-92792299D01*
X131829873Y-92627555D01*
X131751232Y-92473212D01*
X131649414Y-92333072D01*
X131526928Y-92210586D01*
X131386788Y-92108768D01*
X131232445Y-92030127D01*
X131067701Y-91976598D01*
X131067699Y-91976597D01*
X131067698Y-91976597D01*
X130936271Y-91955781D01*
X130896611Y-91949500D01*
X130723389Y-91949500D01*
X130683728Y-91955781D01*
X130552302Y-91976597D01*
X130387552Y-92030128D01*
X130233211Y-92108768D01*
X130153256Y-92166859D01*
X130093072Y-92210586D01*
X130093070Y-92210588D01*
X130093069Y-92210588D01*
X129970588Y-92333069D01*
X129970588Y-92333070D01*
X129970586Y-92333072D01*
X129926859Y-92393256D01*
X129868768Y-92473211D01*
X129790128Y-92627552D01*
X129790127Y-92627554D01*
X129790127Y-92627555D01*
X129774632Y-92675243D01*
X129736597Y-92792302D01*
X129711287Y-92952104D01*
X129709500Y-92963389D01*
X129709500Y-93136611D01*
X129711296Y-93147949D01*
X129736597Y-93307698D01*
X129784133Y-93453997D01*
X129786128Y-93523838D01*
X129750048Y-93583671D01*
X129687347Y-93614499D01*
X129617933Y-93606534D01*
X129578521Y-93579996D01*
X129382994Y-93384469D01*
X129349509Y-93323146D01*
X129348202Y-93277394D01*
X129370500Y-93136611D01*
X129370500Y-92963389D01*
X129343402Y-92792299D01*
X129289873Y-92627555D01*
X129211232Y-92473212D01*
X129109414Y-92333072D01*
X128986928Y-92210586D01*
X128846788Y-92108768D01*
X128692445Y-92030127D01*
X128527701Y-91976598D01*
X128527699Y-91976597D01*
X128527698Y-91976597D01*
X128396271Y-91955781D01*
X128356611Y-91949500D01*
X128183389Y-91949500D01*
X128143728Y-91955781D01*
X128012302Y-91976597D01*
X127847552Y-92030128D01*
X127693211Y-92108768D01*
X127613256Y-92166859D01*
X127553072Y-92210586D01*
X127553070Y-92210588D01*
X127553069Y-92210588D01*
X127430588Y-92333069D01*
X127430588Y-92333070D01*
X127430586Y-92333072D01*
X127386859Y-92393256D01*
X127328768Y-92473211D01*
X127250128Y-92627552D01*
X127250127Y-92627554D01*
X127250127Y-92627555D01*
X127234632Y-92675243D01*
X127196597Y-92792302D01*
X127171287Y-92952104D01*
X127169500Y-92963389D01*
X117559753Y-92963389D01*
X117537606Y-92952104D01*
X117537603Y-92952103D01*
X117327952Y-92883985D01*
X117219086Y-92866742D01*
X117110222Y-92849500D01*
X116889778Y-92849500D01*
X116817201Y-92860995D01*
X116672047Y-92883985D01*
X116462396Y-92952103D01*
X116462393Y-92952104D01*
X116265974Y-93052187D01*
X116087641Y-93181752D01*
X116087636Y-93181756D01*
X115931756Y-93337636D01*
X115931752Y-93337641D01*
X115802187Y-93515974D01*
X115702104Y-93712393D01*
X115702103Y-93712396D01*
X115633985Y-93922047D01*
X115619824Y-94011456D01*
X115599500Y-94139778D01*
X91500500Y-94139778D01*
X91500500Y-91642512D01*
X144008197Y-91642512D01*
X144600000Y-92234314D01*
X144600001Y-92234314D01*
X145191801Y-91642512D01*
X145099034Y-91595246D01*
X145099027Y-91595243D01*
X144904417Y-91532009D01*
X144702317Y-91500000D01*
X144497683Y-91500000D01*
X144295581Y-91532010D01*
X144295578Y-91532010D01*
X144100974Y-91595242D01*
X144100973Y-91595242D01*
X144008197Y-91642512D01*
X91500500Y-91642512D01*
X91500500Y-91207485D01*
X130193198Y-91207485D01*
X130285968Y-91254755D01*
X130480582Y-91317990D01*
X130682683Y-91350000D01*
X130887317Y-91350000D01*
X131089417Y-91317990D01*
X131284031Y-91254755D01*
X131286712Y-91253389D01*
X153079500Y-91253389D01*
X153079500Y-91426610D01*
X153106208Y-91595243D01*
X153106598Y-91597701D01*
X153156083Y-91750000D01*
X153160128Y-91762447D01*
X153187231Y-91815641D01*
X153238768Y-91916788D01*
X153340586Y-92056928D01*
X153463072Y-92179414D01*
X153603212Y-92281232D01*
X153757555Y-92359873D01*
X153841614Y-92387185D01*
X153899288Y-92426621D01*
X153926487Y-92490979D01*
X153914573Y-92559826D01*
X153867329Y-92611302D01*
X153841614Y-92623046D01*
X153680972Y-92675243D01*
X153588197Y-92722512D01*
X154180000Y-93314314D01*
X154180001Y-93314314D01*
X154771801Y-92722512D01*
X154679034Y-92675246D01*
X154679027Y-92675243D01*
X154518385Y-92623047D01*
X154460710Y-92583609D01*
X154433512Y-92519250D01*
X154445427Y-92450404D01*
X154492671Y-92398928D01*
X154518381Y-92387187D01*
X154602445Y-92359873D01*
X154756788Y-92281232D01*
X154896928Y-92179414D01*
X155019414Y-92056928D01*
X155121232Y-91916788D01*
X155199873Y-91762445D01*
X155253402Y-91597701D01*
X155280500Y-91426611D01*
X155280500Y-91253389D01*
X160699500Y-91253389D01*
X160699500Y-91426610D01*
X160726208Y-91595243D01*
X160726598Y-91597701D01*
X160776083Y-91750000D01*
X160780128Y-91762447D01*
X160807231Y-91815641D01*
X160858768Y-91916788D01*
X160960586Y-92056928D01*
X161083072Y-92179414D01*
X161223212Y-92281232D01*
X161377555Y-92359873D01*
X161461614Y-92387185D01*
X161519288Y-92426621D01*
X161546487Y-92490979D01*
X161534573Y-92559826D01*
X161487329Y-92611302D01*
X161461614Y-92623046D01*
X161300972Y-92675243D01*
X161208197Y-92722512D01*
X161800000Y-93314314D01*
X161800001Y-93314314D01*
X162391801Y-92722512D01*
X162299034Y-92675246D01*
X162299027Y-92675243D01*
X162138385Y-92623047D01*
X162080710Y-92583609D01*
X162053512Y-92519250D01*
X162065427Y-92450404D01*
X162112671Y-92398928D01*
X162138381Y-92387187D01*
X162222445Y-92359873D01*
X162376788Y-92281232D01*
X162516928Y-92179414D01*
X162639414Y-92056928D01*
X162741232Y-91916788D01*
X162819873Y-91762445D01*
X162873402Y-91597701D01*
X162900500Y-91426611D01*
X162900500Y-91253389D01*
X162873402Y-91082299D01*
X162819873Y-90917555D01*
X162741232Y-90763212D01*
X162639414Y-90623072D01*
X162516928Y-90500586D01*
X162376788Y-90398768D01*
X162222445Y-90320127D01*
X162057701Y-90266598D01*
X162057699Y-90266597D01*
X162057698Y-90266597D01*
X161926271Y-90245781D01*
X161886611Y-90239500D01*
X161713389Y-90239500D01*
X161673728Y-90245781D01*
X161542302Y-90266597D01*
X161377552Y-90320128D01*
X161223211Y-90398768D01*
X161190216Y-90422741D01*
X161083072Y-90500586D01*
X161083070Y-90500588D01*
X161083069Y-90500588D01*
X160960588Y-90623069D01*
X160960588Y-90623070D01*
X160960586Y-90623072D01*
X160946979Y-90641801D01*
X160858768Y-90763211D01*
X160780128Y-90917552D01*
X160726597Y-91082302D01*
X160699500Y-91253389D01*
X155280500Y-91253389D01*
X155253402Y-91082299D01*
X155199873Y-90917555D01*
X155121232Y-90763212D01*
X155019414Y-90623072D01*
X154896928Y-90500586D01*
X154756788Y-90398768D01*
X154602445Y-90320127D01*
X154437701Y-90266598D01*
X154437699Y-90266597D01*
X154437698Y-90266597D01*
X154306271Y-90245781D01*
X154266611Y-90239500D01*
X154093389Y-90239500D01*
X154053728Y-90245781D01*
X153922302Y-90266597D01*
X153757552Y-90320128D01*
X153603211Y-90398768D01*
X153570216Y-90422741D01*
X153463072Y-90500586D01*
X153463070Y-90500588D01*
X153463069Y-90500588D01*
X153340588Y-90623069D01*
X153340588Y-90623070D01*
X153340586Y-90623072D01*
X153326979Y-90641801D01*
X153238768Y-90763211D01*
X153160128Y-90917552D01*
X153106597Y-91082302D01*
X153079500Y-91253389D01*
X131286712Y-91253389D01*
X131376801Y-91207485D01*
X130785001Y-90615685D01*
X130785000Y-90615685D01*
X130193198Y-91207485D01*
X91500500Y-91207485D01*
X91500500Y-88105039D01*
X95099500Y-88105039D01*
X95099500Y-90394960D01*
X95114630Y-90529249D01*
X95114631Y-90529254D01*
X95174211Y-90699523D01*
X95216566Y-90766930D01*
X95270184Y-90852262D01*
X95397738Y-90979816D01*
X95488080Y-91036582D01*
X95541062Y-91069873D01*
X95550478Y-91075789D01*
X95686548Y-91123402D01*
X95720745Y-91135368D01*
X95720750Y-91135369D01*
X95811246Y-91145565D01*
X95855040Y-91150499D01*
X95855043Y-91150500D01*
X95855046Y-91150500D01*
X98144957Y-91150500D01*
X98144958Y-91150499D01*
X98212104Y-91142934D01*
X98279249Y-91135369D01*
X98279252Y-91135368D01*
X98279255Y-91135368D01*
X98449522Y-91075789D01*
X98602262Y-90979816D01*
X98729816Y-90852262D01*
X98825789Y-90699522D01*
X98885368Y-90529255D01*
X98900500Y-90394954D01*
X98900500Y-89963389D01*
X127184500Y-89963389D01*
X127184500Y-90136611D01*
X127211598Y-90307701D01*
X127265127Y-90472445D01*
X127343768Y-90626788D01*
X127445586Y-90766928D01*
X127568072Y-90889414D01*
X127708212Y-90991232D01*
X127862555Y-91069873D01*
X128027299Y-91123402D01*
X128198389Y-91150500D01*
X128198390Y-91150500D01*
X128371610Y-91150500D01*
X128371611Y-91150500D01*
X128542701Y-91123402D01*
X128707445Y-91069873D01*
X128861788Y-90991232D01*
X129001928Y-90889414D01*
X129124414Y-90766928D01*
X129226232Y-90626788D01*
X129304873Y-90472445D01*
X129312185Y-90449938D01*
X129351621Y-90392264D01*
X129415980Y-90365065D01*
X129484826Y-90376979D01*
X129536303Y-90424223D01*
X129548047Y-90449938D01*
X129580243Y-90549027D01*
X129580246Y-90549034D01*
X129627512Y-90641801D01*
X130219314Y-90050000D01*
X130219314Y-90049999D01*
X130166654Y-89997339D01*
X130385000Y-89997339D01*
X130385000Y-90102661D01*
X130412259Y-90204394D01*
X130464920Y-90295606D01*
X130539394Y-90370080D01*
X130630606Y-90422741D01*
X130732339Y-90450000D01*
X130837661Y-90450000D01*
X130939394Y-90422741D01*
X131030606Y-90370080D01*
X131105080Y-90295606D01*
X131157741Y-90204394D01*
X131185000Y-90102661D01*
X131185000Y-90049999D01*
X131350685Y-90049999D01*
X131350685Y-90050000D01*
X131942485Y-90641800D01*
X131989755Y-90549031D01*
X132052990Y-90354417D01*
X132085000Y-90152317D01*
X132085000Y-89947682D01*
X132052990Y-89745582D01*
X131989755Y-89550968D01*
X131942485Y-89458198D01*
X131350685Y-90049999D01*
X131185000Y-90049999D01*
X131185000Y-89997339D01*
X131157741Y-89895606D01*
X131105080Y-89804394D01*
X131030606Y-89729920D01*
X130939394Y-89677259D01*
X130837661Y-89650000D01*
X130732339Y-89650000D01*
X130630606Y-89677259D01*
X130539394Y-89729920D01*
X130464920Y-89804394D01*
X130412259Y-89895606D01*
X130385000Y-89997339D01*
X130166654Y-89997339D01*
X129627512Y-89458197D01*
X129580243Y-89550972D01*
X129548047Y-89650060D01*
X129508609Y-89707735D01*
X129444250Y-89734933D01*
X129375404Y-89723018D01*
X129323928Y-89675774D01*
X129312185Y-89650060D01*
X129304871Y-89627550D01*
X129241875Y-89503914D01*
X129226232Y-89473212D01*
X129124414Y-89333072D01*
X129001928Y-89210586D01*
X128861788Y-89108768D01*
X128738604Y-89046003D01*
X128738602Y-89046001D01*
X128707450Y-89030129D01*
X128707447Y-89030128D01*
X128707445Y-89030127D01*
X128542701Y-88976598D01*
X128542699Y-88976597D01*
X128542698Y-88976597D01*
X128411271Y-88955781D01*
X128371611Y-88949500D01*
X128198389Y-88949500D01*
X128158728Y-88955781D01*
X128027302Y-88976597D01*
X127862552Y-89030128D01*
X127708211Y-89108768D01*
X127628256Y-89166859D01*
X127568072Y-89210586D01*
X127568070Y-89210588D01*
X127568069Y-89210588D01*
X127445588Y-89333069D01*
X127445588Y-89333070D01*
X127445586Y-89333072D01*
X127401859Y-89393256D01*
X127343768Y-89473211D01*
X127265128Y-89627552D01*
X127211597Y-89792302D01*
X127191905Y-89916635D01*
X127184500Y-89963389D01*
X98900500Y-89963389D01*
X98900500Y-88892512D01*
X130193197Y-88892512D01*
X130785000Y-89484314D01*
X130785001Y-89484314D01*
X131376801Y-88892512D01*
X131284034Y-88845246D01*
X131284027Y-88845243D01*
X131226181Y-88826448D01*
X131089417Y-88782009D01*
X130887317Y-88750000D01*
X130682683Y-88750000D01*
X130480581Y-88782010D01*
X130480578Y-88782010D01*
X130285974Y-88845242D01*
X130285973Y-88845242D01*
X130193197Y-88892512D01*
X98900500Y-88892512D01*
X98900500Y-88713389D01*
X153079500Y-88713389D01*
X153079500Y-88886610D01*
X153102230Y-89030127D01*
X153106598Y-89057701D01*
X153160127Y-89222445D01*
X153238768Y-89376788D01*
X153340586Y-89516928D01*
X153463072Y-89639414D01*
X153603212Y-89741232D01*
X153757555Y-89819873D01*
X153922299Y-89873402D01*
X154093389Y-89900500D01*
X154093390Y-89900500D01*
X154266610Y-89900500D01*
X154266611Y-89900500D01*
X154437701Y-89873402D01*
X154602445Y-89819873D01*
X154756788Y-89741232D01*
X154896928Y-89639414D01*
X155019414Y-89516928D01*
X155121232Y-89376788D01*
X155199873Y-89222445D01*
X155253402Y-89057701D01*
X155280500Y-88886611D01*
X155280500Y-88713389D01*
X160699500Y-88713389D01*
X160699500Y-88886610D01*
X160722230Y-89030127D01*
X160726598Y-89057701D01*
X160780127Y-89222445D01*
X160858768Y-89376788D01*
X160960586Y-89516928D01*
X161083072Y-89639414D01*
X161223212Y-89741232D01*
X161377555Y-89819873D01*
X161542299Y-89873402D01*
X161713389Y-89900500D01*
X161713390Y-89900500D01*
X161886610Y-89900500D01*
X161886611Y-89900500D01*
X162057701Y-89873402D01*
X162222445Y-89819873D01*
X162376788Y-89741232D01*
X162516928Y-89639414D01*
X162639414Y-89516928D01*
X162741232Y-89376788D01*
X162819873Y-89222445D01*
X162850384Y-89128543D01*
X164299499Y-89128543D01*
X164337947Y-89321829D01*
X164337950Y-89321839D01*
X164413364Y-89503907D01*
X164413371Y-89503920D01*
X164522860Y-89667781D01*
X164522863Y-89667785D01*
X164662214Y-89807136D01*
X164662218Y-89807139D01*
X164826079Y-89916628D01*
X164826092Y-89916635D01*
X164938968Y-89963389D01*
X165008165Y-89992051D01*
X165008169Y-89992051D01*
X165008170Y-89992052D01*
X165201456Y-90030500D01*
X165201459Y-90030500D01*
X165398543Y-90030500D01*
X165528582Y-90004632D01*
X165591835Y-89992051D01*
X165773914Y-89916632D01*
X165937782Y-89807139D01*
X166077139Y-89667782D01*
X166186632Y-89503914D01*
X166199350Y-89473211D01*
X166239289Y-89376788D01*
X166262051Y-89321835D01*
X166300500Y-89128541D01*
X166300500Y-88931459D01*
X166300500Y-88931456D01*
X166262052Y-88738170D01*
X166262051Y-88738169D01*
X166262051Y-88738165D01*
X166251789Y-88713389D01*
X166186635Y-88556092D01*
X166186628Y-88556079D01*
X166077139Y-88392218D01*
X166077136Y-88392214D01*
X165937785Y-88252863D01*
X165937781Y-88252860D01*
X165773920Y-88143371D01*
X165773907Y-88143364D01*
X165591839Y-88067950D01*
X165591829Y-88067947D01*
X165398543Y-88029500D01*
X165398541Y-88029500D01*
X165201459Y-88029500D01*
X165201457Y-88029500D01*
X165008170Y-88067947D01*
X165008160Y-88067950D01*
X164826092Y-88143364D01*
X164826079Y-88143371D01*
X164662218Y-88252860D01*
X164662214Y-88252863D01*
X164522863Y-88392214D01*
X164522860Y-88392218D01*
X164413371Y-88556079D01*
X164413364Y-88556092D01*
X164337950Y-88738160D01*
X164337947Y-88738170D01*
X164299500Y-88931456D01*
X164299500Y-88931459D01*
X164299500Y-89128541D01*
X164299500Y-89128543D01*
X164299499Y-89128543D01*
X162850384Y-89128543D01*
X162873402Y-89057701D01*
X162900500Y-88886611D01*
X162900500Y-88713389D01*
X162873402Y-88542299D01*
X162819873Y-88377555D01*
X162741232Y-88223212D01*
X162639414Y-88083072D01*
X162516928Y-87960586D01*
X162376788Y-87858768D01*
X162222445Y-87780127D01*
X162057701Y-87726598D01*
X162057699Y-87726597D01*
X162057698Y-87726597D01*
X161926271Y-87705781D01*
X161886611Y-87699500D01*
X161713389Y-87699500D01*
X161673728Y-87705781D01*
X161542302Y-87726597D01*
X161377552Y-87780128D01*
X161223211Y-87858768D01*
X161143256Y-87916859D01*
X161083072Y-87960586D01*
X161083070Y-87960588D01*
X161083069Y-87960588D01*
X160960588Y-88083069D01*
X160960588Y-88083070D01*
X160960586Y-88083072D01*
X160944626Y-88105039D01*
X160858768Y-88223211D01*
X160780128Y-88377552D01*
X160726597Y-88542302D01*
X160699500Y-88713389D01*
X155280500Y-88713389D01*
X155253402Y-88542299D01*
X155199873Y-88377555D01*
X155121232Y-88223212D01*
X155019414Y-88083072D01*
X154896928Y-87960586D01*
X154756788Y-87858768D01*
X154602445Y-87780127D01*
X154437701Y-87726598D01*
X154437699Y-87726597D01*
X154437698Y-87726597D01*
X154306271Y-87705781D01*
X154266611Y-87699500D01*
X154093389Y-87699500D01*
X154053728Y-87705781D01*
X153922302Y-87726597D01*
X153757552Y-87780128D01*
X153603211Y-87858768D01*
X153523256Y-87916859D01*
X153463072Y-87960586D01*
X153463070Y-87960588D01*
X153463069Y-87960588D01*
X153340588Y-88083069D01*
X153340588Y-88083070D01*
X153340586Y-88083072D01*
X153324626Y-88105039D01*
X153238768Y-88223211D01*
X153160128Y-88377552D01*
X153106597Y-88542302D01*
X153079500Y-88713389D01*
X98900500Y-88713389D01*
X98900500Y-88105046D01*
X98885368Y-87970745D01*
X98825789Y-87800478D01*
X98729816Y-87647738D01*
X98602262Y-87520184D01*
X98449523Y-87424211D01*
X98279254Y-87364631D01*
X98279249Y-87364630D01*
X98144960Y-87349500D01*
X98144954Y-87349500D01*
X95855046Y-87349500D01*
X95855039Y-87349500D01*
X95720750Y-87364630D01*
X95720745Y-87364631D01*
X95550476Y-87424211D01*
X95397737Y-87520184D01*
X95270184Y-87647737D01*
X95174211Y-87800476D01*
X95114631Y-87970745D01*
X95114630Y-87970750D01*
X95099500Y-88105039D01*
X91500500Y-88105039D01*
X91500500Y-86447485D01*
X136208198Y-86447485D01*
X136300968Y-86494755D01*
X136495582Y-86557990D01*
X136697683Y-86590000D01*
X136902317Y-86590000D01*
X137104417Y-86557990D01*
X137299031Y-86494755D01*
X137372175Y-86457485D01*
X141508198Y-86457485D01*
X141600968Y-86504755D01*
X141795582Y-86567990D01*
X141997683Y-86600000D01*
X142202317Y-86600000D01*
X142404417Y-86567990D01*
X142599031Y-86504755D01*
X142691801Y-86457485D01*
X142100001Y-85865685D01*
X142100000Y-85865685D01*
X141508198Y-86457485D01*
X137372175Y-86457485D01*
X137391801Y-86447485D01*
X136800001Y-85855685D01*
X136800000Y-85855685D01*
X136208198Y-86447485D01*
X91500500Y-86447485D01*
X91500500Y-85203389D01*
X133199500Y-85203389D01*
X133199500Y-85376611D01*
X133206465Y-85420586D01*
X133225864Y-85543072D01*
X133226598Y-85547701D01*
X133280127Y-85712445D01*
X133358768Y-85866788D01*
X133460586Y-86006928D01*
X133583072Y-86129414D01*
X133723212Y-86231232D01*
X133877555Y-86309873D01*
X134042299Y-86363402D01*
X134213389Y-86390500D01*
X134213390Y-86390500D01*
X134386610Y-86390500D01*
X134386611Y-86390500D01*
X134557701Y-86363402D01*
X134722445Y-86309873D01*
X134876788Y-86231232D01*
X135016928Y-86129414D01*
X135139414Y-86006928D01*
X135241232Y-85866788D01*
X135319873Y-85712445D01*
X135327185Y-85689938D01*
X135366621Y-85632264D01*
X135430980Y-85605065D01*
X135499826Y-85616979D01*
X135551303Y-85664223D01*
X135563047Y-85689938D01*
X135595243Y-85789027D01*
X135595246Y-85789034D01*
X135642512Y-85881801D01*
X136234314Y-85290000D01*
X136234314Y-85289999D01*
X136181654Y-85237339D01*
X136400000Y-85237339D01*
X136400000Y-85342661D01*
X136427259Y-85444394D01*
X136479920Y-85535606D01*
X136554394Y-85610080D01*
X136645606Y-85662741D01*
X136747339Y-85690000D01*
X136852661Y-85690000D01*
X136954394Y-85662741D01*
X137045606Y-85610080D01*
X137120080Y-85535606D01*
X137172741Y-85444394D01*
X137200000Y-85342661D01*
X137200000Y-85289999D01*
X137365685Y-85289999D01*
X137365685Y-85290000D01*
X137957485Y-85881800D01*
X138004755Y-85789031D01*
X138067990Y-85594417D01*
X138100000Y-85392317D01*
X138100000Y-85213389D01*
X138499500Y-85213389D01*
X138499500Y-85386610D01*
X138525013Y-85547697D01*
X138526598Y-85557701D01*
X138580127Y-85722445D01*
X138658768Y-85876788D01*
X138760586Y-86016928D01*
X138883072Y-86139414D01*
X139023212Y-86241232D01*
X139177555Y-86319873D01*
X139342299Y-86373402D01*
X139513389Y-86400500D01*
X139513390Y-86400500D01*
X139686610Y-86400500D01*
X139686611Y-86400500D01*
X139857701Y-86373402D01*
X140022445Y-86319873D01*
X140176788Y-86241232D01*
X140316928Y-86139414D01*
X140439414Y-86016928D01*
X140541232Y-85876788D01*
X140619873Y-85722445D01*
X140627185Y-85699938D01*
X140666621Y-85642264D01*
X140730980Y-85615065D01*
X140799826Y-85626979D01*
X140851303Y-85674223D01*
X140863047Y-85699938D01*
X140895243Y-85799027D01*
X140895246Y-85799034D01*
X140942512Y-85891801D01*
X141534314Y-85300000D01*
X141534314Y-85299999D01*
X141481654Y-85247339D01*
X141700000Y-85247339D01*
X141700000Y-85352661D01*
X141727259Y-85454394D01*
X141779920Y-85545606D01*
X141854394Y-85620080D01*
X141945606Y-85672741D01*
X142047339Y-85700000D01*
X142152661Y-85700000D01*
X142254394Y-85672741D01*
X142345606Y-85620080D01*
X142420080Y-85545606D01*
X142472741Y-85454394D01*
X142500000Y-85352661D01*
X142500000Y-85299999D01*
X142665685Y-85299999D01*
X142665685Y-85300000D01*
X143257485Y-85891800D01*
X143304755Y-85799030D01*
X143347689Y-85666898D01*
X153079500Y-85666898D01*
X153079500Y-86853102D01*
X153084746Y-86896788D01*
X153090122Y-86941561D01*
X153145639Y-87082343D01*
X153237077Y-87202922D01*
X153357656Y-87294360D01*
X153357657Y-87294360D01*
X153357658Y-87294361D01*
X153498436Y-87349877D01*
X153586898Y-87360500D01*
X153586903Y-87360500D01*
X154773097Y-87360500D01*
X154773102Y-87360500D01*
X154861564Y-87349877D01*
X155002342Y-87294361D01*
X155122922Y-87202922D01*
X155214361Y-87082342D01*
X155269877Y-86941564D01*
X155272500Y-86919716D01*
X155300036Y-86855503D01*
X155357918Y-86816369D01*
X155395616Y-86810500D01*
X160776487Y-86810500D01*
X160843526Y-86830185D01*
X160876805Y-86861614D01*
X160960586Y-86976928D01*
X161083072Y-87099414D01*
X161223212Y-87201232D01*
X161377555Y-87279873D01*
X161542299Y-87333402D01*
X161713389Y-87360500D01*
X161713390Y-87360500D01*
X161886610Y-87360500D01*
X161886611Y-87360500D01*
X162057701Y-87333402D01*
X162222445Y-87279873D01*
X162376788Y-87201232D01*
X162516928Y-87099414D01*
X162639414Y-86976928D01*
X162741232Y-86836788D01*
X162819873Y-86682445D01*
X162873402Y-86517701D01*
X162900500Y-86346611D01*
X162900500Y-86233389D01*
X163939500Y-86233389D01*
X163939500Y-86406611D01*
X163966598Y-86577701D01*
X164020127Y-86742445D01*
X164098768Y-86896788D01*
X164200586Y-87036928D01*
X164323072Y-87159414D01*
X164463212Y-87261232D01*
X164617555Y-87339873D01*
X164782299Y-87393402D01*
X164953389Y-87420500D01*
X164953390Y-87420500D01*
X165126610Y-87420500D01*
X165126611Y-87420500D01*
X165297701Y-87393402D01*
X165462445Y-87339873D01*
X165616788Y-87261232D01*
X165756928Y-87159414D01*
X165879414Y-87036928D01*
X165981232Y-86896788D01*
X166059873Y-86742445D01*
X166113402Y-86577701D01*
X166140500Y-86406611D01*
X166140500Y-86233389D01*
X166113402Y-86062299D01*
X166059873Y-85897555D01*
X165981232Y-85743212D01*
X165879414Y-85603072D01*
X165756928Y-85480586D01*
X165616788Y-85378768D01*
X165565550Y-85352661D01*
X165462446Y-85300127D01*
X165439936Y-85292813D01*
X165382262Y-85253374D01*
X165355065Y-85189015D01*
X165366981Y-85120169D01*
X165414226Y-85068694D01*
X165439939Y-85056952D01*
X165539029Y-85024755D01*
X165631801Y-84977485D01*
X165040001Y-84385685D01*
X165040000Y-84385685D01*
X164448198Y-84977485D01*
X164540970Y-85024755D01*
X164640060Y-85056952D01*
X164697736Y-85096389D01*
X164724934Y-85160748D01*
X164713019Y-85229594D01*
X164665775Y-85281070D01*
X164640064Y-85292813D01*
X164617551Y-85300128D01*
X164463211Y-85378768D01*
X164405652Y-85420588D01*
X164323072Y-85480586D01*
X164323070Y-85480588D01*
X164323069Y-85480588D01*
X164200588Y-85603069D01*
X164200588Y-85603070D01*
X164200586Y-85603072D01*
X164179377Y-85632264D01*
X164098768Y-85743211D01*
X164020128Y-85897552D01*
X163966597Y-86062302D01*
X163954384Y-86139414D01*
X163939500Y-86233389D01*
X162900500Y-86233389D01*
X162900500Y-86173389D01*
X162873402Y-86002299D01*
X162819873Y-85837555D01*
X162741232Y-85683212D01*
X162639414Y-85543072D01*
X162516928Y-85420586D01*
X162376788Y-85318768D01*
X162248444Y-85253374D01*
X162222447Y-85240128D01*
X162222446Y-85240127D01*
X162222445Y-85240127D01*
X162057701Y-85186598D01*
X162057699Y-85186597D01*
X162057698Y-85186597D01*
X161926271Y-85165781D01*
X161886611Y-85159500D01*
X161713389Y-85159500D01*
X161673728Y-85165781D01*
X161542302Y-85186597D01*
X161377552Y-85240128D01*
X161223211Y-85318768D01*
X161190326Y-85342661D01*
X161083072Y-85420586D01*
X161083070Y-85420588D01*
X161083069Y-85420588D01*
X160968052Y-85535606D01*
X160960586Y-85543072D01*
X160901154Y-85624873D01*
X160876805Y-85658386D01*
X160821474Y-85701051D01*
X160776487Y-85709500D01*
X155395616Y-85709500D01*
X155328577Y-85689815D01*
X155282822Y-85637011D01*
X155272500Y-85600282D01*
X155269877Y-85578438D01*
X155269877Y-85578436D01*
X155214361Y-85437658D01*
X155214360Y-85437657D01*
X155214360Y-85437656D01*
X155122922Y-85317077D01*
X155002343Y-85225639D01*
X154861561Y-85170122D01*
X154815926Y-85164642D01*
X154773102Y-85159500D01*
X153586898Y-85159500D01*
X153547853Y-85164188D01*
X153498438Y-85170122D01*
X153357656Y-85225639D01*
X153237077Y-85317077D01*
X153145639Y-85437656D01*
X153090122Y-85578438D01*
X153085122Y-85620080D01*
X153079500Y-85666898D01*
X143347689Y-85666898D01*
X143361344Y-85624873D01*
X143361345Y-85624871D01*
X143367988Y-85604425D01*
X143367989Y-85604418D01*
X143400000Y-85402317D01*
X143400000Y-85197682D01*
X143367990Y-84995582D01*
X143304755Y-84800968D01*
X143257485Y-84708198D01*
X142665685Y-85299999D01*
X142500000Y-85299999D01*
X142500000Y-85247339D01*
X142472741Y-85145606D01*
X142420080Y-85054394D01*
X142345606Y-84979920D01*
X142254394Y-84927259D01*
X142152661Y-84900000D01*
X142047339Y-84900000D01*
X141945606Y-84927259D01*
X141854394Y-84979920D01*
X141779920Y-85054394D01*
X141727259Y-85145606D01*
X141700000Y-85247339D01*
X141481654Y-85247339D01*
X140942512Y-84708197D01*
X140895243Y-84800972D01*
X140863047Y-84900060D01*
X140823609Y-84957735D01*
X140759250Y-84984933D01*
X140690404Y-84973018D01*
X140638928Y-84925774D01*
X140627185Y-84900060D01*
X140623916Y-84890000D01*
X140619873Y-84877555D01*
X140619871Y-84877552D01*
X140619871Y-84877550D01*
X140575755Y-84790968D01*
X140541232Y-84723212D01*
X140439414Y-84583072D01*
X140316928Y-84460586D01*
X140176788Y-84358768D01*
X140053604Y-84296003D01*
X140053602Y-84296001D01*
X140022450Y-84280129D01*
X140022447Y-84280128D01*
X140022445Y-84280127D01*
X139857701Y-84226598D01*
X139857699Y-84226597D01*
X139857698Y-84226597D01*
X139726271Y-84205781D01*
X139686611Y-84199500D01*
X139513389Y-84199500D01*
X139473728Y-84205781D01*
X139342302Y-84226597D01*
X139177552Y-84280128D01*
X139023211Y-84358768D01*
X138943256Y-84416859D01*
X138883072Y-84460586D01*
X138883070Y-84460588D01*
X138883069Y-84460588D01*
X138760588Y-84583069D01*
X138760588Y-84583070D01*
X138760586Y-84583072D01*
X138716859Y-84643256D01*
X138658768Y-84723211D01*
X138580128Y-84877552D01*
X138526597Y-85042302D01*
X138499500Y-85213389D01*
X138100000Y-85213389D01*
X138100000Y-85187682D01*
X138067990Y-84985582D01*
X138004755Y-84790968D01*
X137957485Y-84698198D01*
X137365685Y-85289999D01*
X137200000Y-85289999D01*
X137200000Y-85237339D01*
X137172741Y-85135606D01*
X137120080Y-85044394D01*
X137045606Y-84969920D01*
X136954394Y-84917259D01*
X136852661Y-84890000D01*
X136747339Y-84890000D01*
X136645606Y-84917259D01*
X136554394Y-84969920D01*
X136479920Y-85044394D01*
X136427259Y-85135606D01*
X136400000Y-85237339D01*
X136181654Y-85237339D01*
X135642512Y-84698197D01*
X135595243Y-84790972D01*
X135563047Y-84890060D01*
X135523609Y-84947735D01*
X135459250Y-84974933D01*
X135390404Y-84963018D01*
X135338928Y-84915774D01*
X135327185Y-84890060D01*
X135323120Y-84877550D01*
X135319873Y-84867555D01*
X135319871Y-84867552D01*
X135319871Y-84867550D01*
X135251984Y-84734314D01*
X135241232Y-84713212D01*
X135139414Y-84573072D01*
X135016928Y-84450586D01*
X134876788Y-84348768D01*
X134818425Y-84319031D01*
X134753604Y-84286003D01*
X134753602Y-84286001D01*
X134722450Y-84270129D01*
X134722447Y-84270128D01*
X134722445Y-84270127D01*
X134557701Y-84216598D01*
X134557699Y-84216597D01*
X134557698Y-84216597D01*
X134426271Y-84195781D01*
X134386611Y-84189500D01*
X134213389Y-84189500D01*
X134173728Y-84195781D01*
X134042302Y-84216597D01*
X133877552Y-84270128D01*
X133723211Y-84348768D01*
X133672400Y-84385685D01*
X133583072Y-84450586D01*
X133583070Y-84450588D01*
X133583069Y-84450588D01*
X133460588Y-84573069D01*
X133460588Y-84573070D01*
X133460586Y-84573072D01*
X133453323Y-84583069D01*
X133358768Y-84713211D01*
X133280128Y-84867552D01*
X133226597Y-85032302D01*
X133216447Y-85096389D01*
X133199500Y-85203389D01*
X91500500Y-85203389D01*
X91500500Y-84132512D01*
X136208197Y-84132512D01*
X136800000Y-84724314D01*
X136800001Y-84724314D01*
X137381801Y-84142512D01*
X141508197Y-84142512D01*
X142100000Y-84734314D01*
X142100001Y-84734314D01*
X142691801Y-84142512D01*
X142599034Y-84095246D01*
X142599027Y-84095243D01*
X142404417Y-84032009D01*
X142202317Y-84000000D01*
X141997683Y-84000000D01*
X141795581Y-84032010D01*
X141795578Y-84032010D01*
X141600974Y-84095242D01*
X141600973Y-84095242D01*
X141508197Y-84142512D01*
X137381801Y-84142512D01*
X137391801Y-84132512D01*
X137299034Y-84085246D01*
X137299027Y-84085243D01*
X137104417Y-84022009D01*
X136902317Y-83990000D01*
X136697683Y-83990000D01*
X136495581Y-84022010D01*
X136495578Y-84022010D01*
X136300974Y-84085242D01*
X136300973Y-84085242D01*
X136208197Y-84132512D01*
X91500500Y-84132512D01*
X91500500Y-83717682D01*
X163740000Y-83717682D01*
X163740000Y-83922317D01*
X163772009Y-84124417D01*
X163835243Y-84319027D01*
X163835246Y-84319034D01*
X163882512Y-84411801D01*
X164474314Y-83820000D01*
X164474314Y-83819999D01*
X164421654Y-83767339D01*
X164640000Y-83767339D01*
X164640000Y-83872661D01*
X164667259Y-83974394D01*
X164719920Y-84065606D01*
X164794394Y-84140080D01*
X164885606Y-84192741D01*
X164987339Y-84220000D01*
X165092661Y-84220000D01*
X165194394Y-84192741D01*
X165285606Y-84140080D01*
X165360080Y-84065606D01*
X165412741Y-83974394D01*
X165440000Y-83872661D01*
X165440000Y-83819999D01*
X165605685Y-83819999D01*
X165605685Y-83820000D01*
X166197485Y-84411800D01*
X166244755Y-84319031D01*
X166307990Y-84124417D01*
X166340000Y-83922317D01*
X166340000Y-83717682D01*
X166307990Y-83515582D01*
X166244755Y-83320968D01*
X166197485Y-83228198D01*
X165605685Y-83819999D01*
X165440000Y-83819999D01*
X165440000Y-83767339D01*
X165412741Y-83665606D01*
X165360080Y-83574394D01*
X165285606Y-83499920D01*
X165194394Y-83447259D01*
X165092661Y-83420000D01*
X164987339Y-83420000D01*
X164885606Y-83447259D01*
X164794394Y-83499920D01*
X164719920Y-83574394D01*
X164667259Y-83665606D01*
X164640000Y-83767339D01*
X164421654Y-83767339D01*
X163882512Y-83228197D01*
X163835242Y-83320973D01*
X163835242Y-83320974D01*
X163772010Y-83515578D01*
X163772010Y-83515581D01*
X163740000Y-83717682D01*
X91500500Y-83717682D01*
X91500500Y-81145131D01*
X133257000Y-81145131D01*
X133257000Y-83234856D01*
X133257002Y-83234882D01*
X133259913Y-83259987D01*
X133259915Y-83259991D01*
X133305293Y-83362764D01*
X133305294Y-83362765D01*
X133384735Y-83442206D01*
X133487509Y-83487585D01*
X133512635Y-83490500D01*
X135507364Y-83490499D01*
X135507379Y-83490497D01*
X135507382Y-83490497D01*
X135532487Y-83487586D01*
X135532488Y-83487585D01*
X135532491Y-83487585D01*
X135635265Y-83442206D01*
X135714706Y-83362765D01*
X135760085Y-83259991D01*
X135760084Y-83259991D01*
X135763853Y-83251458D01*
X135765908Y-83252365D01*
X135795764Y-83203785D01*
X135858722Y-83173486D01*
X135928067Y-83182035D01*
X135966518Y-83208163D01*
X136103757Y-83345402D01*
X136288723Y-83479788D01*
X136492433Y-83583583D01*
X136492436Y-83583585D01*
X136649999Y-83634779D01*
X136650000Y-83634779D01*
X136650000Y-82567818D01*
X136712292Y-82630110D01*
X136837708Y-82702518D01*
X136977591Y-82740000D01*
X137122409Y-82740000D01*
X137262292Y-82702518D01*
X137387708Y-82630110D01*
X137450000Y-82567818D01*
X137450000Y-83634779D01*
X137572786Y-83594885D01*
X137607563Y-83583585D01*
X137607566Y-83583583D01*
X137811276Y-83479788D01*
X137996242Y-83345402D01*
X138157902Y-83183742D01*
X138292288Y-82998776D01*
X138324918Y-82934735D01*
X138372892Y-82883938D01*
X138440713Y-82867142D01*
X138506848Y-82889678D01*
X138535721Y-82918141D01*
X138634265Y-83053775D01*
X138773725Y-83193235D01*
X138933285Y-83309162D01*
X139038485Y-83362764D01*
X139109017Y-83398702D01*
X139202801Y-83429174D01*
X139296588Y-83459647D01*
X139386807Y-83473936D01*
X139491382Y-83490500D01*
X139491387Y-83490500D01*
X139688618Y-83490500D01*
X139783052Y-83475542D01*
X139883412Y-83459647D01*
X140070985Y-83398701D01*
X140246715Y-83309162D01*
X140406275Y-83193235D01*
X140545735Y-83053775D01*
X140661662Y-82894215D01*
X140751201Y-82718485D01*
X140756389Y-82702518D01*
X140767865Y-82667200D01*
X140769388Y-82662512D01*
X164448197Y-82662512D01*
X165040000Y-83254314D01*
X165040001Y-83254314D01*
X165631801Y-82662512D01*
X165539034Y-82615246D01*
X165539027Y-82615243D01*
X165344417Y-82552009D01*
X165142317Y-82520000D01*
X164937683Y-82520000D01*
X164735581Y-82552010D01*
X164735578Y-82552010D01*
X164540974Y-82615242D01*
X164540973Y-82615242D01*
X164448197Y-82662512D01*
X140769388Y-82662512D01*
X140787497Y-82606774D01*
X140812147Y-82530912D01*
X140828042Y-82430552D01*
X140843000Y-82336118D01*
X140843000Y-82043881D01*
X140812654Y-81852292D01*
X140812147Y-81849088D01*
X140751201Y-81661515D01*
X140661662Y-81485785D01*
X140545735Y-81326225D01*
X140406275Y-81186765D01*
X140246715Y-81070838D01*
X140175588Y-81034597D01*
X140070982Y-80981297D01*
X139883413Y-80920353D01*
X139688618Y-80889500D01*
X139688613Y-80889500D01*
X139491387Y-80889500D01*
X139491382Y-80889500D01*
X139296586Y-80920353D01*
X139109017Y-80981297D01*
X138933284Y-81070838D01*
X138773722Y-81186767D01*
X138634267Y-81326222D01*
X138634260Y-81326231D01*
X138535721Y-81461856D01*
X138480391Y-81504522D01*
X138410778Y-81510500D01*
X138348983Y-81477894D01*
X138324919Y-81445264D01*
X138292290Y-81381225D01*
X138157902Y-81196257D01*
X137996242Y-81034597D01*
X137811276Y-80900211D01*
X137607570Y-80796417D01*
X137450000Y-80745219D01*
X137450000Y-81812182D01*
X137387708Y-81749890D01*
X137262292Y-81677482D01*
X137122409Y-81640000D01*
X136977591Y-81640000D01*
X136837708Y-81677482D01*
X136712292Y-81749890D01*
X136650000Y-81812182D01*
X136650000Y-80745219D01*
X136492429Y-80796417D01*
X136288723Y-80900211D01*
X136103761Y-81034594D01*
X135966518Y-81171837D01*
X135905195Y-81205321D01*
X135835503Y-81200337D01*
X135779570Y-81158465D01*
X135764767Y-81128138D01*
X135763853Y-81128542D01*
X135714706Y-81017235D01*
X135635265Y-80937794D01*
X135532492Y-80892415D01*
X135507365Y-80889500D01*
X133512643Y-80889500D01*
X133512617Y-80889502D01*
X133487512Y-80892413D01*
X133487508Y-80892415D01*
X133384735Y-80937793D01*
X133305294Y-81017234D01*
X133259915Y-81120006D01*
X133259915Y-81120008D01*
X133257000Y-81145131D01*
X91500500Y-81145131D01*
X91500500Y-80277485D01*
X151348198Y-80277485D01*
X151440968Y-80324755D01*
X151635582Y-80387990D01*
X151837683Y-80420000D01*
X152042317Y-80420000D01*
X152244417Y-80387990D01*
X152439031Y-80324755D01*
X152531801Y-80277485D01*
X151940001Y-79685685D01*
X151940000Y-79685685D01*
X151348198Y-80277485D01*
X91500500Y-80277485D01*
X91500500Y-79017682D01*
X150640000Y-79017682D01*
X150640000Y-79222317D01*
X150672009Y-79424417D01*
X150735243Y-79619027D01*
X150735246Y-79619034D01*
X150782512Y-79711801D01*
X151374314Y-79120000D01*
X151374314Y-79119999D01*
X151321654Y-79067339D01*
X151540000Y-79067339D01*
X151540000Y-79172661D01*
X151567259Y-79274394D01*
X151619920Y-79365606D01*
X151694394Y-79440080D01*
X151785606Y-79492741D01*
X151887339Y-79520000D01*
X151992661Y-79520000D01*
X152094394Y-79492741D01*
X152185606Y-79440080D01*
X152260080Y-79365606D01*
X152312741Y-79274394D01*
X152340000Y-79172661D01*
X152340000Y-79119999D01*
X152505685Y-79119999D01*
X152505685Y-79120000D01*
X153097485Y-79711800D01*
X153144755Y-79619031D01*
X153207990Y-79424417D01*
X153240000Y-79222317D01*
X153240000Y-79033389D01*
X158459500Y-79033389D01*
X158459500Y-79206611D01*
X158486598Y-79377701D01*
X158540127Y-79542445D01*
X158618768Y-79696788D01*
X158720586Y-79836928D01*
X158843072Y-79959414D01*
X158983212Y-80061232D01*
X159137555Y-80139873D01*
X159302299Y-80193402D01*
X159473389Y-80220500D01*
X159473390Y-80220500D01*
X159646610Y-80220500D01*
X159646611Y-80220500D01*
X159817701Y-80193402D01*
X159982445Y-80139873D01*
X160136788Y-80061232D01*
X160276928Y-79959414D01*
X160399414Y-79836928D01*
X160501232Y-79696788D01*
X160579873Y-79542445D01*
X160633402Y-79377701D01*
X160660500Y-79206611D01*
X160660500Y-79033389D01*
X160633402Y-78862299D01*
X160579873Y-78697555D01*
X160501232Y-78543212D01*
X160399414Y-78403072D01*
X160276928Y-78280586D01*
X160136788Y-78178768D01*
X159982445Y-78100127D01*
X159817701Y-78046598D01*
X159817699Y-78046597D01*
X159817698Y-78046597D01*
X159686271Y-78025781D01*
X159646611Y-78019500D01*
X159473389Y-78019500D01*
X159433728Y-78025781D01*
X159302302Y-78046597D01*
X159137552Y-78100128D01*
X158983211Y-78178768D01*
X158909332Y-78232445D01*
X158843072Y-78280586D01*
X158843070Y-78280588D01*
X158843069Y-78280588D01*
X158720588Y-78403069D01*
X158720588Y-78403070D01*
X158720586Y-78403072D01*
X158676859Y-78463256D01*
X158618768Y-78543211D01*
X158540128Y-78697552D01*
X158486597Y-78862302D01*
X158470236Y-78965606D01*
X158459500Y-79033389D01*
X153240000Y-79033389D01*
X153240000Y-79017682D01*
X153207990Y-78815582D01*
X153144755Y-78620968D01*
X153097485Y-78528198D01*
X152505685Y-79119999D01*
X152340000Y-79119999D01*
X152340000Y-79067339D01*
X152312741Y-78965606D01*
X152260080Y-78874394D01*
X152185606Y-78799920D01*
X152094394Y-78747259D01*
X151992661Y-78720000D01*
X151887339Y-78720000D01*
X151785606Y-78747259D01*
X151694394Y-78799920D01*
X151619920Y-78874394D01*
X151567259Y-78965606D01*
X151540000Y-79067339D01*
X151321654Y-79067339D01*
X150782512Y-78528197D01*
X150735242Y-78620973D01*
X150735242Y-78620974D01*
X150672010Y-78815578D01*
X150672010Y-78815581D01*
X150640000Y-79017682D01*
X91500500Y-79017682D01*
X91500500Y-77723389D01*
X100819500Y-77723389D01*
X100819500Y-77896611D01*
X100827677Y-77948239D01*
X100843255Y-78046598D01*
X100846598Y-78067701D01*
X100900127Y-78232445D01*
X100978768Y-78386788D01*
X101080586Y-78526928D01*
X101203072Y-78649414D01*
X101343212Y-78751232D01*
X101497555Y-78829873D01*
X101662299Y-78883402D01*
X101833389Y-78910500D01*
X101833390Y-78910500D01*
X102006610Y-78910500D01*
X102006611Y-78910500D01*
X102177701Y-78883402D01*
X102342445Y-78829873D01*
X102496788Y-78751232D01*
X102636928Y-78649414D01*
X102759414Y-78526928D01*
X102861232Y-78386788D01*
X102939873Y-78232445D01*
X102993402Y-78067701D01*
X103020500Y-77896611D01*
X103020500Y-77723389D01*
X105899500Y-77723389D01*
X105899500Y-77896611D01*
X105907677Y-77948239D01*
X105923255Y-78046598D01*
X105926598Y-78067701D01*
X105980127Y-78232445D01*
X106058768Y-78386788D01*
X106160586Y-78526928D01*
X106283072Y-78649414D01*
X106423212Y-78751232D01*
X106577555Y-78829873D01*
X106742299Y-78883402D01*
X106913389Y-78910500D01*
X106913390Y-78910500D01*
X107086610Y-78910500D01*
X107086611Y-78910500D01*
X107159778Y-78898911D01*
X107213878Y-78890343D01*
X107220714Y-78889260D01*
X107257701Y-78883402D01*
X107422445Y-78829873D01*
X107576788Y-78751232D01*
X107716928Y-78649414D01*
X107839414Y-78526928D01*
X107941232Y-78386788D01*
X108019873Y-78232445D01*
X108073402Y-78067701D01*
X108076745Y-78046598D01*
X108086323Y-77986121D01*
X108086323Y-77986120D01*
X108090062Y-77962512D01*
X151348197Y-77962512D01*
X151940000Y-78554314D01*
X151940001Y-78554314D01*
X152531801Y-77962512D01*
X152439034Y-77915246D01*
X152439027Y-77915243D01*
X152244417Y-77852009D01*
X152042317Y-77820000D01*
X151837683Y-77820000D01*
X151635581Y-77852010D01*
X151635578Y-77852010D01*
X151440974Y-77915242D01*
X151440973Y-77915242D01*
X151348197Y-77962512D01*
X108090062Y-77962512D01*
X108097549Y-77915246D01*
X108100500Y-77896611D01*
X108100500Y-77723389D01*
X108073402Y-77552299D01*
X108019873Y-77387555D01*
X107941232Y-77233212D01*
X107839414Y-77093072D01*
X107716928Y-76970586D01*
X107576788Y-76868768D01*
X107422445Y-76790127D01*
X107257701Y-76736598D01*
X107257699Y-76736597D01*
X107257698Y-76736597D01*
X107126271Y-76715781D01*
X107086611Y-76709500D01*
X106913389Y-76709500D01*
X106873728Y-76715781D01*
X106742302Y-76736597D01*
X106577552Y-76790128D01*
X106423211Y-76868768D01*
X106343256Y-76926859D01*
X106283072Y-76970586D01*
X106283070Y-76970588D01*
X106283069Y-76970588D01*
X106160588Y-77093069D01*
X106160588Y-77093070D01*
X106160586Y-77093072D01*
X106143165Y-77117050D01*
X106058768Y-77233211D01*
X105980128Y-77387552D01*
X105926597Y-77552302D01*
X105915169Y-77624458D01*
X105899500Y-77723389D01*
X103020500Y-77723389D01*
X102993402Y-77552299D01*
X102939873Y-77387555D01*
X102861232Y-77233212D01*
X102759414Y-77093072D01*
X102636928Y-76970586D01*
X102496788Y-76868768D01*
X102342445Y-76790127D01*
X102177701Y-76736598D01*
X102177699Y-76736597D01*
X102177698Y-76736597D01*
X102046271Y-76715781D01*
X102006611Y-76709500D01*
X101833389Y-76709500D01*
X101793728Y-76715781D01*
X101662302Y-76736597D01*
X101497552Y-76790128D01*
X101343211Y-76868768D01*
X101263256Y-76926859D01*
X101203072Y-76970586D01*
X101203070Y-76970588D01*
X101203069Y-76970588D01*
X101080588Y-77093069D01*
X101080588Y-77093070D01*
X101080586Y-77093072D01*
X101063165Y-77117050D01*
X100978768Y-77233211D01*
X100900128Y-77387552D01*
X100846597Y-77552302D01*
X100835169Y-77624458D01*
X100819500Y-77723389D01*
X91500500Y-77723389D01*
X91500500Y-75130859D01*
X118299500Y-75130859D01*
X118299500Y-77117050D01*
X118310123Y-77205521D01*
X118365639Y-77346301D01*
X118365640Y-77346303D01*
X118457077Y-77466881D01*
X118569718Y-77552299D01*
X118577658Y-77558320D01*
X118718436Y-77613835D01*
X118806901Y-77624459D01*
X120793098Y-77624458D01*
X120881564Y-77613835D01*
X121022342Y-77558320D01*
X121142922Y-77466881D01*
X121234361Y-77346301D01*
X121289876Y-77205523D01*
X121300500Y-77117058D01*
X121300499Y-75697485D01*
X136408198Y-75697485D01*
X136500968Y-75744755D01*
X136695582Y-75807990D01*
X136897683Y-75840000D01*
X137102317Y-75840000D01*
X137304417Y-75807990D01*
X137499031Y-75744755D01*
X137591801Y-75697485D01*
X141708198Y-75697485D01*
X141800968Y-75744755D01*
X141995582Y-75807990D01*
X142197683Y-75840000D01*
X142402317Y-75840000D01*
X142604417Y-75807990D01*
X142799031Y-75744755D01*
X142891801Y-75697485D01*
X142300001Y-75105685D01*
X142300000Y-75105685D01*
X141708198Y-75697485D01*
X137591801Y-75697485D01*
X137000001Y-75105685D01*
X137000000Y-75105685D01*
X136408198Y-75697485D01*
X121300499Y-75697485D01*
X121300499Y-75130861D01*
X121289876Y-75042395D01*
X121234361Y-74901617D01*
X121219685Y-74882264D01*
X121142922Y-74781036D01*
X121022344Y-74689599D01*
X121022342Y-74689598D01*
X120881564Y-74634083D01*
X120881561Y-74634082D01*
X120793099Y-74623459D01*
X118806908Y-74623459D01*
X118718437Y-74634082D01*
X118577657Y-74689598D01*
X118577655Y-74689599D01*
X118457077Y-74781036D01*
X118365640Y-74901614D01*
X118365639Y-74901617D01*
X118311450Y-75039034D01*
X118310124Y-75042396D01*
X118310123Y-75042397D01*
X118299500Y-75130859D01*
X91500500Y-75130859D01*
X91500500Y-74453389D01*
X133399500Y-74453389D01*
X133399500Y-74626611D01*
X133401988Y-74642317D01*
X133423958Y-74781037D01*
X133426598Y-74797701D01*
X133480127Y-74962445D01*
X133558768Y-75116788D01*
X133660586Y-75256928D01*
X133783072Y-75379414D01*
X133923212Y-75481232D01*
X134077555Y-75559873D01*
X134242299Y-75613402D01*
X134413389Y-75640500D01*
X134413390Y-75640500D01*
X134586610Y-75640500D01*
X134586611Y-75640500D01*
X134757701Y-75613402D01*
X134922445Y-75559873D01*
X135076788Y-75481232D01*
X135216928Y-75379414D01*
X135339414Y-75256928D01*
X135441232Y-75116788D01*
X135519873Y-74962445D01*
X135527185Y-74939938D01*
X135566621Y-74882264D01*
X135630980Y-74855065D01*
X135699826Y-74866979D01*
X135751303Y-74914223D01*
X135763047Y-74939938D01*
X135795243Y-75039027D01*
X135795246Y-75039034D01*
X135842512Y-75131801D01*
X136434314Y-74540000D01*
X136434314Y-74539999D01*
X136381654Y-74487339D01*
X136600000Y-74487339D01*
X136600000Y-74592661D01*
X136627259Y-74694394D01*
X136679920Y-74785606D01*
X136754394Y-74860080D01*
X136845606Y-74912741D01*
X136947339Y-74940000D01*
X137052661Y-74940000D01*
X137154394Y-74912741D01*
X137245606Y-74860080D01*
X137320080Y-74785606D01*
X137372741Y-74694394D01*
X137400000Y-74592661D01*
X137400000Y-74539999D01*
X137565685Y-74539999D01*
X137565685Y-74540000D01*
X138157485Y-75131800D01*
X138204755Y-75039031D01*
X138267990Y-74844417D01*
X138300000Y-74642317D01*
X138300000Y-74453389D01*
X138699500Y-74453389D01*
X138699500Y-74626611D01*
X138701988Y-74642317D01*
X138723958Y-74781037D01*
X138726598Y-74797701D01*
X138780127Y-74962445D01*
X138858768Y-75116788D01*
X138960586Y-75256928D01*
X139083072Y-75379414D01*
X139223212Y-75481232D01*
X139377555Y-75559873D01*
X139542299Y-75613402D01*
X139713389Y-75640500D01*
X139713390Y-75640500D01*
X139886610Y-75640500D01*
X139886611Y-75640500D01*
X140057701Y-75613402D01*
X140222445Y-75559873D01*
X140376788Y-75481232D01*
X140516928Y-75379414D01*
X140639414Y-75256928D01*
X140741232Y-75116788D01*
X140819873Y-74962445D01*
X140827185Y-74939938D01*
X140866621Y-74882264D01*
X140930980Y-74855065D01*
X140999826Y-74866979D01*
X141051303Y-74914223D01*
X141063047Y-74939938D01*
X141095243Y-75039027D01*
X141095246Y-75039034D01*
X141142512Y-75131801D01*
X141734314Y-74540000D01*
X141734314Y-74539999D01*
X141681654Y-74487339D01*
X141900000Y-74487339D01*
X141900000Y-74592661D01*
X141927259Y-74694394D01*
X141979920Y-74785606D01*
X142054394Y-74860080D01*
X142145606Y-74912741D01*
X142247339Y-74940000D01*
X142352661Y-74940000D01*
X142454394Y-74912741D01*
X142545606Y-74860080D01*
X142620080Y-74785606D01*
X142672741Y-74694394D01*
X142700000Y-74592661D01*
X142700000Y-74539999D01*
X142865685Y-74539999D01*
X142865685Y-74540000D01*
X143457485Y-75131801D01*
X143469875Y-75107485D01*
X146908198Y-75107485D01*
X147000968Y-75154755D01*
X147195582Y-75217990D01*
X147397683Y-75250000D01*
X147602317Y-75250000D01*
X147804417Y-75217990D01*
X147999031Y-75154755D01*
X148091801Y-75107485D01*
X147500001Y-74515685D01*
X147500000Y-74515685D01*
X146908198Y-75107485D01*
X143469875Y-75107485D01*
X143504756Y-75039028D01*
X143508938Y-75026160D01*
X143567990Y-74844417D01*
X143600000Y-74642317D01*
X143600000Y-74437682D01*
X143567990Y-74235582D01*
X143504755Y-74040968D01*
X143457486Y-73948198D01*
X142865685Y-74539999D01*
X142700000Y-74539999D01*
X142700000Y-74487339D01*
X142672741Y-74385606D01*
X142620080Y-74294394D01*
X142545606Y-74219920D01*
X142454394Y-74167259D01*
X142352661Y-74140000D01*
X142247339Y-74140000D01*
X142145606Y-74167259D01*
X142054394Y-74219920D01*
X141979920Y-74294394D01*
X141927259Y-74385606D01*
X141900000Y-74487339D01*
X141681654Y-74487339D01*
X141142512Y-73948197D01*
X141095243Y-74040972D01*
X141063047Y-74140060D01*
X141023609Y-74197735D01*
X140959250Y-74224933D01*
X140890404Y-74213018D01*
X140838928Y-74165774D01*
X140827185Y-74140060D01*
X140819871Y-74117550D01*
X140761332Y-74002661D01*
X140741232Y-73963212D01*
X140639414Y-73823072D01*
X140516928Y-73700586D01*
X140376788Y-73598768D01*
X140253604Y-73536003D01*
X140253602Y-73536001D01*
X140222450Y-73520129D01*
X140222447Y-73520128D01*
X140222445Y-73520127D01*
X140057701Y-73466598D01*
X140057699Y-73466597D01*
X140057698Y-73466597D01*
X139926271Y-73445781D01*
X139886611Y-73439500D01*
X139713389Y-73439500D01*
X139673728Y-73445781D01*
X139542302Y-73466597D01*
X139377552Y-73520128D01*
X139223211Y-73598768D01*
X139158778Y-73645582D01*
X139083072Y-73700586D01*
X139083070Y-73700588D01*
X139083069Y-73700588D01*
X138960588Y-73823069D01*
X138960588Y-73823070D01*
X138960586Y-73823072D01*
X138942706Y-73847682D01*
X138858768Y-73963211D01*
X138780128Y-74117552D01*
X138726597Y-74282302D01*
X138715875Y-74350000D01*
X138699500Y-74453389D01*
X138300000Y-74453389D01*
X138300000Y-74437682D01*
X138267990Y-74235582D01*
X138204755Y-74040968D01*
X138157485Y-73948198D01*
X137565685Y-74539999D01*
X137400000Y-74539999D01*
X137400000Y-74487339D01*
X137372741Y-74385606D01*
X137320080Y-74294394D01*
X137245606Y-74219920D01*
X137154394Y-74167259D01*
X137052661Y-74140000D01*
X136947339Y-74140000D01*
X136845606Y-74167259D01*
X136754394Y-74219920D01*
X136679920Y-74294394D01*
X136627259Y-74385606D01*
X136600000Y-74487339D01*
X136381654Y-74487339D01*
X135842512Y-73948197D01*
X135795243Y-74040972D01*
X135763047Y-74140060D01*
X135723609Y-74197735D01*
X135659250Y-74224933D01*
X135590404Y-74213018D01*
X135538928Y-74165774D01*
X135527185Y-74140060D01*
X135519871Y-74117550D01*
X135461332Y-74002661D01*
X135441232Y-73963212D01*
X135339414Y-73823072D01*
X135216928Y-73700586D01*
X135076788Y-73598768D01*
X134953604Y-73536003D01*
X134953602Y-73536001D01*
X134922450Y-73520129D01*
X134922447Y-73520128D01*
X134922445Y-73520127D01*
X134757701Y-73466598D01*
X134757699Y-73466597D01*
X134757698Y-73466597D01*
X134626271Y-73445781D01*
X134586611Y-73439500D01*
X134413389Y-73439500D01*
X134373728Y-73445781D01*
X134242302Y-73466597D01*
X134077552Y-73520128D01*
X133923211Y-73598768D01*
X133858778Y-73645582D01*
X133783072Y-73700586D01*
X133783070Y-73700588D01*
X133783069Y-73700588D01*
X133660588Y-73823069D01*
X133660588Y-73823070D01*
X133660586Y-73823072D01*
X133642706Y-73847682D01*
X133558768Y-73963211D01*
X133480128Y-74117552D01*
X133426597Y-74282302D01*
X133415875Y-74350000D01*
X133399500Y-74453389D01*
X91500500Y-74453389D01*
X91500500Y-73382512D01*
X136408197Y-73382512D01*
X137000000Y-73974314D01*
X137000001Y-73974314D01*
X137591801Y-73382512D01*
X141708197Y-73382512D01*
X142300000Y-73974314D01*
X142300001Y-73974314D01*
X142426633Y-73847682D01*
X146200000Y-73847682D01*
X146200000Y-74052317D01*
X146232009Y-74254417D01*
X146295243Y-74449027D01*
X146295246Y-74449034D01*
X146342512Y-74541801D01*
X146934314Y-73950000D01*
X146934314Y-73949999D01*
X146881654Y-73897339D01*
X147100000Y-73897339D01*
X147100000Y-74002661D01*
X147127259Y-74104394D01*
X147179920Y-74195606D01*
X147254394Y-74270080D01*
X147345606Y-74322741D01*
X147447339Y-74350000D01*
X147552661Y-74350000D01*
X147654394Y-74322741D01*
X147745606Y-74270080D01*
X147820080Y-74195606D01*
X147872741Y-74104394D01*
X147900000Y-74002661D01*
X147900000Y-73949999D01*
X148065685Y-73949999D01*
X148065685Y-73950000D01*
X148657485Y-74541800D01*
X148704755Y-74449031D01*
X148767990Y-74254417D01*
X148800000Y-74052317D01*
X148800000Y-73847682D01*
X148767990Y-73645582D01*
X148704755Y-73450968D01*
X148657485Y-73358198D01*
X148065685Y-73949999D01*
X147900000Y-73949999D01*
X147900000Y-73897339D01*
X147872741Y-73795606D01*
X147820080Y-73704394D01*
X147745606Y-73629920D01*
X147654394Y-73577259D01*
X147552661Y-73550000D01*
X147447339Y-73550000D01*
X147345606Y-73577259D01*
X147254394Y-73629920D01*
X147179920Y-73704394D01*
X147127259Y-73795606D01*
X147100000Y-73897339D01*
X146881654Y-73897339D01*
X146342512Y-73358197D01*
X146295242Y-73450973D01*
X146295242Y-73450974D01*
X146232010Y-73645578D01*
X146232010Y-73645581D01*
X146200000Y-73847682D01*
X142426633Y-73847682D01*
X142891801Y-73382512D01*
X142799034Y-73335246D01*
X142799027Y-73335243D01*
X142604417Y-73272009D01*
X142402317Y-73240000D01*
X142197683Y-73240000D01*
X141995581Y-73272010D01*
X141995578Y-73272010D01*
X141800974Y-73335242D01*
X141800973Y-73335242D01*
X141708197Y-73382512D01*
X137591801Y-73382512D01*
X137499034Y-73335246D01*
X137499027Y-73335243D01*
X137304417Y-73272009D01*
X137102317Y-73240000D01*
X136897683Y-73240000D01*
X136695581Y-73272010D01*
X136695578Y-73272010D01*
X136500974Y-73335242D01*
X136500973Y-73335242D01*
X136408197Y-73382512D01*
X91500500Y-73382512D01*
X91500500Y-70583410D01*
X91520185Y-70516371D01*
X91572989Y-70470616D01*
X91642147Y-70460672D01*
X91705703Y-70489697D01*
X91739061Y-70535958D01*
X91741259Y-70541264D01*
X91741264Y-70541276D01*
X91908017Y-70853247D01*
X91908028Y-70853265D01*
X92104558Y-71147393D01*
X92104568Y-71147407D01*
X92328992Y-71420869D01*
X92579130Y-71671007D01*
X92579135Y-71671011D01*
X92579136Y-71671012D01*
X92852598Y-71895436D01*
X93146741Y-72091976D01*
X93146750Y-72091981D01*
X93146752Y-72091982D01*
X93458723Y-72258735D01*
X93458725Y-72258735D01*
X93458731Y-72258739D01*
X93785565Y-72394118D01*
X94124095Y-72496809D01*
X94124101Y-72496810D01*
X94124104Y-72496811D01*
X94124115Y-72496814D01*
X94341674Y-72540088D01*
X94471060Y-72565825D01*
X94823119Y-72600500D01*
X94823122Y-72600500D01*
X95176878Y-72600500D01*
X95176881Y-72600500D01*
X95528940Y-72565825D01*
X95700679Y-72531663D01*
X95875884Y-72496814D01*
X95875895Y-72496811D01*
X95875895Y-72496810D01*
X95875905Y-72496809D01*
X96214435Y-72394118D01*
X96541269Y-72258739D01*
X96853259Y-72091976D01*
X97147402Y-71895436D01*
X97420864Y-71671012D01*
X97671012Y-71420864D01*
X97895436Y-71147402D01*
X98091976Y-70853259D01*
X98232692Y-70590000D01*
X100683067Y-70590000D01*
X100715244Y-70689029D01*
X100808140Y-70871349D01*
X100928417Y-71036894D01*
X100928417Y-71036895D01*
X101073104Y-71181582D01*
X101238650Y-71301859D01*
X101420970Y-71394755D01*
X101519999Y-71426932D01*
X101520000Y-71426932D01*
X102320000Y-71426932D01*
X102419029Y-71394755D01*
X102601349Y-71301859D01*
X102766894Y-71181582D01*
X102766895Y-71181582D01*
X102911582Y-71036895D01*
X102911582Y-71036894D01*
X103031859Y-70871349D01*
X103124755Y-70689029D01*
X103156933Y-70590000D01*
X102320000Y-70590000D01*
X102320000Y-71426932D01*
X101520000Y-71426932D01*
X101520000Y-70590000D01*
X100683067Y-70590000D01*
X98232692Y-70590000D01*
X98258739Y-70541269D01*
X98394118Y-70214435D01*
X98417505Y-70137339D01*
X101520000Y-70137339D01*
X101520000Y-70242661D01*
X101547259Y-70344394D01*
X101599920Y-70435606D01*
X101674394Y-70510080D01*
X101765606Y-70562741D01*
X101867339Y-70590000D01*
X101972661Y-70590000D01*
X102074394Y-70562741D01*
X102165606Y-70510080D01*
X102240080Y-70435606D01*
X102292741Y-70344394D01*
X102320000Y-70242661D01*
X102320000Y-70137339D01*
X102292741Y-70035606D01*
X102240080Y-69944394D01*
X102165606Y-69869920D01*
X102074394Y-69817259D01*
X101972661Y-69790000D01*
X102320000Y-69790000D01*
X103156933Y-69790000D01*
X103156932Y-69789999D01*
X103124755Y-69690970D01*
X103031859Y-69508650D01*
X102963411Y-69414440D01*
X102913055Y-69345131D01*
X105899500Y-69345131D01*
X105899500Y-71034856D01*
X105899502Y-71034882D01*
X105902413Y-71059987D01*
X105902415Y-71059991D01*
X105947793Y-71162764D01*
X105947794Y-71162765D01*
X106027235Y-71242206D01*
X106130009Y-71287585D01*
X106155135Y-71290500D01*
X107844864Y-71290499D01*
X107844879Y-71290497D01*
X107844882Y-71290497D01*
X107869987Y-71287586D01*
X107869988Y-71287585D01*
X107869991Y-71287585D01*
X107972765Y-71242206D01*
X108052206Y-71162765D01*
X108097585Y-71059991D01*
X108100500Y-71034865D01*
X108100500Y-71012534D01*
X118100000Y-71012534D01*
X118100000Y-71235383D01*
X118129085Y-71456313D01*
X118129088Y-71456326D01*
X118186763Y-71671577D01*
X118272045Y-71877461D01*
X118272050Y-71877472D01*
X118348458Y-72009814D01*
X118348459Y-72009815D01*
X119200000Y-71158274D01*
X119200000Y-71202950D01*
X119240889Y-71355550D01*
X119319881Y-71492367D01*
X119431592Y-71604078D01*
X119568409Y-71683070D01*
X119721009Y-71723959D01*
X119765685Y-71723959D01*
X118914143Y-72575499D01*
X118914143Y-72575500D01*
X119046487Y-72651909D01*
X119046488Y-72651910D01*
X119252381Y-72737195D01*
X119467632Y-72794870D01*
X119467645Y-72794873D01*
X119688575Y-72823959D01*
X119911425Y-72823959D01*
X120132354Y-72794873D01*
X120132367Y-72794870D01*
X120347618Y-72737195D01*
X120553503Y-72651913D01*
X120553514Y-72651908D01*
X120685856Y-72575500D01*
X120685856Y-72575499D01*
X119834315Y-71723959D01*
X119878991Y-71723959D01*
X120031591Y-71683070D01*
X120168408Y-71604078D01*
X120280119Y-71492367D01*
X120359111Y-71355550D01*
X120400000Y-71202950D01*
X120400000Y-71158275D01*
X121251540Y-72009815D01*
X121251541Y-72009815D01*
X121327949Y-71877473D01*
X121327954Y-71877462D01*
X121413236Y-71671577D01*
X121470911Y-71456326D01*
X121470914Y-71456313D01*
X121500000Y-71235383D01*
X121500000Y-71012534D01*
X121470914Y-70791604D01*
X121470911Y-70791591D01*
X121413236Y-70576340D01*
X121377061Y-70489007D01*
X121358887Y-70445131D01*
X133227000Y-70445131D01*
X133227000Y-72534856D01*
X133227002Y-72534882D01*
X133229913Y-72559987D01*
X133229915Y-72559991D01*
X133275293Y-72662764D01*
X133275294Y-72662765D01*
X133354735Y-72742206D01*
X133457509Y-72787585D01*
X133482635Y-72790500D01*
X135477364Y-72790499D01*
X135477379Y-72790497D01*
X135477382Y-72790497D01*
X135502487Y-72787586D01*
X135502488Y-72787585D01*
X135502491Y-72787585D01*
X135605265Y-72742206D01*
X135684706Y-72662765D01*
X135723238Y-72575499D01*
X135733853Y-72551458D01*
X135735908Y-72552365D01*
X135765764Y-72503785D01*
X135828722Y-72473486D01*
X135898067Y-72482035D01*
X135936518Y-72508163D01*
X136073757Y-72645402D01*
X136258723Y-72779788D01*
X136462433Y-72883583D01*
X136462436Y-72883585D01*
X136619999Y-72934779D01*
X136620000Y-72934779D01*
X136620000Y-71867818D01*
X136682292Y-71930110D01*
X136807708Y-72002518D01*
X136947591Y-72040000D01*
X137092409Y-72040000D01*
X137232292Y-72002518D01*
X137357708Y-71930110D01*
X137420000Y-71867818D01*
X137420000Y-72934779D01*
X137577563Y-72883585D01*
X137577566Y-72883583D01*
X137781276Y-72779788D01*
X137966242Y-72645402D01*
X138127902Y-72483742D01*
X138262288Y-72298776D01*
X138294918Y-72234735D01*
X138342892Y-72183938D01*
X138410713Y-72167142D01*
X138476848Y-72189678D01*
X138505721Y-72218141D01*
X138604265Y-72353775D01*
X138743725Y-72493235D01*
X138903285Y-72609162D01*
X139079015Y-72698701D01*
X139079017Y-72698702D01*
X139172801Y-72729174D01*
X139266588Y-72759647D01*
X139356807Y-72773936D01*
X139461382Y-72790500D01*
X139461387Y-72790500D01*
X139658618Y-72790500D01*
X139753052Y-72775542D01*
X139853412Y-72759647D01*
X140040985Y-72698701D01*
X140216715Y-72609162D01*
X140376275Y-72493235D01*
X140515735Y-72353775D01*
X140631662Y-72194215D01*
X140721201Y-72018485D01*
X140782147Y-71830912D01*
X140801662Y-71707697D01*
X140813000Y-71636118D01*
X140813000Y-71363389D01*
X146399500Y-71363389D01*
X146399500Y-71536610D01*
X146420876Y-71671577D01*
X146426598Y-71707701D01*
X146480127Y-71872445D01*
X146558768Y-72026788D01*
X146660586Y-72166928D01*
X146783072Y-72289414D01*
X146923212Y-72391232D01*
X146964751Y-72412397D01*
X147077550Y-72469871D01*
X147077552Y-72469871D01*
X147077555Y-72469873D01*
X147100061Y-72477185D01*
X147157735Y-72516624D01*
X147184933Y-72580982D01*
X147173018Y-72649829D01*
X147125773Y-72701304D01*
X147100060Y-72713047D01*
X147000972Y-72745243D01*
X146908197Y-72792512D01*
X147500000Y-73384314D01*
X147500001Y-73384314D01*
X148091801Y-72792512D01*
X147999034Y-72745246D01*
X147999027Y-72745243D01*
X147899938Y-72713047D01*
X147842263Y-72673609D01*
X147815065Y-72609250D01*
X147826980Y-72540404D01*
X147874224Y-72488928D01*
X147899937Y-72477186D01*
X147922445Y-72469873D01*
X148076788Y-72391232D01*
X148216928Y-72289414D01*
X148339414Y-72166928D01*
X148441232Y-72026788D01*
X148519873Y-71872445D01*
X148573402Y-71707701D01*
X148600500Y-71536611D01*
X148600500Y-71363389D01*
X148573402Y-71192299D01*
X148519873Y-71027555D01*
X148441232Y-70873212D01*
X148339414Y-70733072D01*
X148261473Y-70655131D01*
X150839500Y-70655131D01*
X150839500Y-72344856D01*
X150839502Y-72344882D01*
X150842413Y-72369987D01*
X150842415Y-72369991D01*
X150887793Y-72472764D01*
X150887794Y-72472765D01*
X150967235Y-72552206D01*
X151070009Y-72597585D01*
X151095135Y-72600500D01*
X152784864Y-72600499D01*
X152784879Y-72600497D01*
X152784882Y-72600497D01*
X152809987Y-72597586D01*
X152809988Y-72597585D01*
X152809991Y-72597585D01*
X152912765Y-72552206D01*
X152992206Y-72472765D01*
X153037585Y-72369991D01*
X153040500Y-72344865D01*
X153040499Y-71413389D01*
X158459500Y-71413389D01*
X158459500Y-71586610D01*
X158474777Y-71683070D01*
X158486598Y-71757701D01*
X158540127Y-71922445D01*
X158618768Y-72076788D01*
X158720586Y-72216928D01*
X158843072Y-72339414D01*
X158983212Y-72441232D01*
X159137555Y-72519873D01*
X159302299Y-72573402D01*
X159473389Y-72600500D01*
X159473390Y-72600500D01*
X159646610Y-72600500D01*
X159646611Y-72600500D01*
X159817701Y-72573402D01*
X159982445Y-72519873D01*
X160136788Y-72441232D01*
X160276928Y-72339414D01*
X160399414Y-72216928D01*
X160501232Y-72076788D01*
X160579873Y-71922445D01*
X160633402Y-71757701D01*
X160660500Y-71586611D01*
X160660500Y-71413389D01*
X160633402Y-71242299D01*
X160579873Y-71077555D01*
X160501232Y-70923212D01*
X160399414Y-70783072D01*
X160276928Y-70660586D01*
X160136788Y-70558768D01*
X159982445Y-70480127D01*
X159817701Y-70426598D01*
X159817699Y-70426597D01*
X159817698Y-70426597D01*
X159686271Y-70405781D01*
X159646611Y-70399500D01*
X159473389Y-70399500D01*
X159433728Y-70405781D01*
X159302302Y-70426597D01*
X159137552Y-70480128D01*
X158983211Y-70558768D01*
X158959026Y-70576340D01*
X158843072Y-70660586D01*
X158843070Y-70660588D01*
X158843069Y-70660588D01*
X158720588Y-70783069D01*
X158720588Y-70783070D01*
X158720586Y-70783072D01*
X158676859Y-70843256D01*
X158618768Y-70923211D01*
X158540128Y-71077552D01*
X158486597Y-71242302D01*
X158459500Y-71413389D01*
X153040499Y-71413389D01*
X153040499Y-70655136D01*
X153039189Y-70643840D01*
X153037586Y-70630012D01*
X153037585Y-70630010D01*
X153037585Y-70630009D01*
X152992206Y-70527235D01*
X152912765Y-70447794D01*
X152885162Y-70435606D01*
X152809992Y-70402415D01*
X152784865Y-70399500D01*
X151095143Y-70399500D01*
X151095117Y-70399502D01*
X151070012Y-70402413D01*
X151070008Y-70402415D01*
X150967235Y-70447793D01*
X150887794Y-70527234D01*
X150842415Y-70630006D01*
X150842415Y-70630008D01*
X150839500Y-70655131D01*
X148261473Y-70655131D01*
X148216928Y-70610586D01*
X148076788Y-70508768D01*
X147922445Y-70430127D01*
X147757701Y-70376598D01*
X147757699Y-70376597D01*
X147757698Y-70376597D01*
X147626271Y-70355781D01*
X147586611Y-70349500D01*
X147413389Y-70349500D01*
X147373728Y-70355781D01*
X147242302Y-70376597D01*
X147242299Y-70376598D01*
X147083677Y-70428138D01*
X147077552Y-70430128D01*
X146923211Y-70508768D01*
X146855074Y-70558273D01*
X146783072Y-70610586D01*
X146783070Y-70610588D01*
X146783069Y-70610588D01*
X146660588Y-70733069D01*
X146660588Y-70733070D01*
X146660586Y-70733072D01*
X146651728Y-70745264D01*
X146558768Y-70873211D01*
X146480128Y-71027552D01*
X146426597Y-71192302D01*
X146399500Y-71363389D01*
X140813000Y-71363389D01*
X140813000Y-71343881D01*
X140788991Y-71192299D01*
X140782147Y-71149088D01*
X140745034Y-71034865D01*
X140721202Y-70961517D01*
X140721201Y-70961515D01*
X140631662Y-70785785D01*
X140515735Y-70626225D01*
X140376275Y-70486765D01*
X140216715Y-70370838D01*
X140145588Y-70334597D01*
X140040982Y-70281297D01*
X139853413Y-70220353D01*
X139658618Y-70189500D01*
X139658613Y-70189500D01*
X139461387Y-70189500D01*
X139461382Y-70189500D01*
X139266586Y-70220353D01*
X139079017Y-70281297D01*
X138903284Y-70370838D01*
X138743722Y-70486767D01*
X138604267Y-70626222D01*
X138604260Y-70626231D01*
X138505721Y-70761856D01*
X138450391Y-70804522D01*
X138380778Y-70810500D01*
X138318983Y-70777894D01*
X138294919Y-70745264D01*
X138262290Y-70681225D01*
X138127902Y-70496257D01*
X137966242Y-70334597D01*
X137781276Y-70200211D01*
X137577570Y-70096417D01*
X137420000Y-70045219D01*
X137420000Y-71112182D01*
X137357708Y-71049890D01*
X137232292Y-70977482D01*
X137092409Y-70940000D01*
X136947591Y-70940000D01*
X136807708Y-70977482D01*
X136682292Y-71049890D01*
X136620000Y-71112182D01*
X136620000Y-70045219D01*
X136462429Y-70096417D01*
X136258723Y-70200211D01*
X136073761Y-70334594D01*
X135936518Y-70471837D01*
X135875195Y-70505321D01*
X135805503Y-70500337D01*
X135749570Y-70458465D01*
X135734767Y-70428138D01*
X135733853Y-70428542D01*
X135684706Y-70317235D01*
X135605265Y-70237794D01*
X135502492Y-70192415D01*
X135477365Y-70189500D01*
X133482643Y-70189500D01*
X133482617Y-70189502D01*
X133457512Y-70192413D01*
X133457508Y-70192415D01*
X133354735Y-70237793D01*
X133275294Y-70317234D01*
X133229915Y-70420006D01*
X133229915Y-70420008D01*
X133227000Y-70445131D01*
X121358887Y-70445131D01*
X121327951Y-70370447D01*
X121327950Y-70370446D01*
X121251541Y-70238102D01*
X121251540Y-70238102D01*
X120400000Y-71089642D01*
X120400000Y-71044968D01*
X120359111Y-70892368D01*
X120280119Y-70755551D01*
X120168408Y-70643840D01*
X120031591Y-70564848D01*
X119878991Y-70523959D01*
X119834313Y-70523959D01*
X120685855Y-69672417D01*
X120553513Y-69596009D01*
X120553502Y-69596004D01*
X120347618Y-69510722D01*
X120132367Y-69453047D01*
X120132354Y-69453044D01*
X119911425Y-69423959D01*
X119688575Y-69423959D01*
X119467645Y-69453044D01*
X119467632Y-69453047D01*
X119252381Y-69510722D01*
X119046502Y-69596000D01*
X119046497Y-69596003D01*
X118914143Y-69672417D01*
X118914142Y-69672417D01*
X119765685Y-70523959D01*
X119721009Y-70523959D01*
X119568409Y-70564848D01*
X119431592Y-70643840D01*
X119319881Y-70755551D01*
X119240889Y-70892368D01*
X119200000Y-71044968D01*
X119200000Y-71089643D01*
X118348458Y-70238101D01*
X118348458Y-70238102D01*
X118272044Y-70370456D01*
X118272041Y-70370461D01*
X118186763Y-70576340D01*
X118129088Y-70791591D01*
X118129085Y-70791604D01*
X118100000Y-71012534D01*
X108100500Y-71012534D01*
X108100499Y-69345136D01*
X108100497Y-69345117D01*
X108097586Y-69320012D01*
X108097585Y-69320010D01*
X108097585Y-69320009D01*
X108052206Y-69217235D01*
X107972765Y-69137794D01*
X107972763Y-69137793D01*
X107869992Y-69092415D01*
X107844865Y-69089500D01*
X106155143Y-69089500D01*
X106155117Y-69089502D01*
X106130012Y-69092413D01*
X106130008Y-69092415D01*
X106027235Y-69137793D01*
X105947794Y-69217234D01*
X105902415Y-69320006D01*
X105902415Y-69320008D01*
X105899500Y-69345131D01*
X102913055Y-69345131D01*
X102911582Y-69343104D01*
X102766895Y-69198417D01*
X102601349Y-69078140D01*
X102419031Y-68985244D01*
X102320000Y-68953066D01*
X102320000Y-69790000D01*
X101972661Y-69790000D01*
X101867339Y-69790000D01*
X101765606Y-69817259D01*
X101674394Y-69869920D01*
X101599920Y-69944394D01*
X101547259Y-70035606D01*
X101520000Y-70137339D01*
X98417505Y-70137339D01*
X98496809Y-69875905D01*
X98496811Y-69875895D01*
X98496814Y-69875883D01*
X98513898Y-69789999D01*
X100683067Y-69789999D01*
X100683067Y-69790000D01*
X101520000Y-69790000D01*
X101520000Y-68953066D01*
X101420968Y-68985244D01*
X101238650Y-69078140D01*
X101073105Y-69198417D01*
X101073104Y-69198417D01*
X100928417Y-69343104D01*
X100928417Y-69343105D01*
X100808140Y-69508650D01*
X100715244Y-69690970D01*
X100683067Y-69789999D01*
X98513898Y-69789999D01*
X98514379Y-69787580D01*
X98552486Y-69596000D01*
X98565825Y-69528940D01*
X98600500Y-69176881D01*
X98600500Y-68823119D01*
X98565825Y-68471060D01*
X98540088Y-68341674D01*
X98496814Y-68124115D01*
X98496811Y-68124104D01*
X98496810Y-68124101D01*
X98496809Y-68124095D01*
X98394118Y-67785565D01*
X98258739Y-67458731D01*
X98091976Y-67146741D01*
X97895436Y-66852598D01*
X97671012Y-66579136D01*
X97671011Y-66579135D01*
X97671007Y-66579130D01*
X97420869Y-66328992D01*
X97147407Y-66104568D01*
X97147406Y-66104567D01*
X97147402Y-66104564D01*
X96853259Y-65908024D01*
X96853254Y-65908021D01*
X96853247Y-65908017D01*
X96541276Y-65741264D01*
X96541264Y-65741259D01*
X96535958Y-65739061D01*
X96481554Y-65695221D01*
X96459489Y-65628927D01*
X96476768Y-65561227D01*
X96527905Y-65513616D01*
X96583410Y-65500500D01*
X165416590Y-65500500D01*
X165483629Y-65520185D01*
G37*
%TD.AperFunction*%
%TD*%
M02*
