M48
; DRILL file KiCad 10.0.1 date 2026-05-15T18:02:38
; FORMAT={-:-/ absolute / metric / decimal}
; #@! TF.CreationDate,2026-05-15T18:02:38-06:00
; #@! TF.GenerationSoftware,Kicad,Pcbnew,10.0.1
; #@! TF.FileFunction,Plated,1,2,PTH
FMAT,2
METRIC
; #@! TA.AperFunction,Plated,PTH,ComponentDrill
T1C0.700
; #@! TA.AperFunction,Plated,PTH,ComponentDrill
T2C0.800
; #@! TA.AperFunction,Plated,PTH,ComponentDrill
T3C0.900
; #@! TA.AperFunction,Plated,PTH,ComponentDrill
T4C1.000
; #@! TA.AperFunction,Plated,PTH,ComponentDrill
T5C1.100
; #@! TA.AperFunction,Plated,PTH,ComponentDrill
T6C1.200
; #@! TA.AperFunction,Plated,PTH,ComponentDrill
T7C1.300
; #@! TA.AperFunction,Plated,PTH,ComponentDrill
T8C1.500
; #@! TA.AperFunction,Plated,PTH,ComponentDrill
T9C2.000
%
G90
G05
T1
X124.0Y-128.46
X124.0Y-133.54
X139.39Y-96.55
X139.39Y-101.63
X142.785Y-96.55
X142.785Y-101.63
X165.3Y-89.03
X165.3Y-94.11
T2
X101.92Y-70.19
X101.92Y-77.81
X107.0Y-70.19
X107.0Y-77.81
X128.02Y-103.75
X128.27Y-93.05
X128.27Y-100.67
X128.285Y-90.05
X130.52Y-103.75
X130.785Y-90.05
X130.81Y-93.05
X130.81Y-100.67
X133.35Y-93.05
X133.35Y-100.67
X134.5Y-74.54
X134.5Y-85.29
X135.89Y-93.05
X135.89Y-100.67
X137.0Y-74.54
X137.0Y-85.29
X139.55Y-74.54
X139.55Y-85.29
X139.6Y-92.8
X142.05Y-74.54
X142.05Y-85.29
X144.6Y-92.8
X146.285Y-96.49
X146.285Y-104.11
X147.5Y-71.45
X147.5Y-73.95
X151.94Y-71.5
X151.94Y-79.12
X154.18Y-86.26
X154.18Y-88.8
X154.18Y-91.34
X154.18Y-93.88
X159.56Y-71.5
X159.56Y-79.12
X161.8Y-86.26
X161.8Y-88.8
X161.8Y-91.34
X161.8Y-93.88
X165.04Y-83.82
X165.04Y-86.32
T3
X122.93Y-138.2
X125.47Y-138.2
T4
X161.7Y-99.8
X161.7Y-109.8
T5
X134.48Y-71.49
X134.51Y-82.19
X137.02Y-71.49
X137.05Y-82.19
X139.56Y-71.49
X139.59Y-82.19
T6
X97.0Y-88.0
X97.0Y-108.0
X97.5Y-122.65
X97.5Y-135.35
X117.0Y-93.0
X117.0Y-103.0
X119.8Y-71.124
X119.8Y-76.124
X131.06Y-138.0
X136.14Y-138.0
X152.9Y-123.1
X154.5Y-99.4
X154.5Y-112.1
X167.9Y-123.1
T7
X103.25Y-122.5
X104.0Y-132.6
X109.0Y-132.6
X114.0Y-132.6
X115.95Y-122.5
X148.0Y-132.6
X153.0Y-132.6
X158.0Y-132.6
T8
X168.2Y-99.55
X168.2Y-105.0
X168.2Y-110.45
T9
X136.0Y-113.058
X136.0Y-123.058
M30
