%TF.GenerationSoftware,KiCad,Pcbnew,10.0.1*%
%TF.CreationDate,2026-05-15T18:02:35-06:00*%
%TF.ProjectId,MMS_SSTC,4d4d535f-5353-4544-932e-6b696361645f,1.0.0*%
%TF.SameCoordinates,Original*%
%TF.FileFunction,Copper,L2,Bot*%
%TF.FilePolarity,Positive*%
%FSLAX46Y46*%
G04 Gerber Fmt 4.6, Leading zero omitted, Abs format (unit mm)*
G04 Created by KiCad (PCBNEW 10.0.1) date 2026-05-15 18:02:35*
%MOMM*%
%LPD*%
G01*
G04 APERTURE LIST*
G04 Aperture macros list*
%AMRoundRect*
0 Rectangle with rounded corners*
0 $1 Rounding radius*
0 $2 $3 $4 $5 $6 $7 $8 $9 X,Y pos of 4 corners*
0 Add a 4 corners polygon primitive as box body*
4,1,4,$2,$3,$4,$5,$6,$7,$8,$9,$2,$3,0*
0 Add four circle primitives for the rounded corners*
1,1,$1+$1,$2,$3*
1,1,$1+$1,$4,$5*
1,1,$1+$1,$6,$7*
1,1,$1+$1,$8,$9*
0 Add four rect primitives between the rounded corners*
20,1,$1+$1,$2,$3,$4,$5,0*
20,1,$1+$1,$4,$5,$6,$7,0*
20,1,$1+$1,$6,$7,$8,$9,0*
20,1,$1+$1,$8,$9,$2,$3,0*%
G04 Aperture macros list end*
%TA.AperFunction,ComponentPad*%
%ADD10C,1.400000*%
%TD*%
%TA.AperFunction,ComponentPad*%
%ADD11C,1.600000*%
%TD*%
%TA.AperFunction,ComponentPad*%
%ADD12RoundRect,0.250000X0.550000X-0.550000X0.550000X0.550000X-0.550000X0.550000X-0.550000X-0.550000X0*%
%TD*%
%TA.AperFunction,ComponentPad*%
%ADD13RoundRect,0.250000X-0.550000X0.550000X-0.550000X-0.550000X0.550000X-0.550000X0.550000X0.550000X0*%
%TD*%
%TA.AperFunction,ComponentPad*%
%ADD14C,1.950000*%
%TD*%
%TA.AperFunction,ComponentPad*%
%ADD15R,4.500000X2.500000*%
%TD*%
%TA.AperFunction,ComponentPad*%
%ADD16O,4.500000X2.500000*%
%TD*%
%TA.AperFunction,ComponentPad*%
%ADD17R,1.800000X1.800000*%
%TD*%
%TA.AperFunction,ComponentPad*%
%ADD18C,1.800000*%
%TD*%
%TA.AperFunction,ComponentPad*%
%ADD19C,2.400000*%
%TD*%
%TA.AperFunction,ComponentPad*%
%ADD20R,2.200000X2.200000*%
%TD*%
%TA.AperFunction,ComponentPad*%
%ADD21C,2.200000*%
%TD*%
%TA.AperFunction,ComponentPad*%
%ADD22RoundRect,0.250000X-0.550000X-0.550000X0.550000X-0.550000X0.550000X0.550000X-0.550000X0.550000X0*%
%TD*%
%TA.AperFunction,ComponentPad*%
%ADD23R,1.905000X2.000000*%
%TD*%
%TA.AperFunction,ComponentPad*%
%ADD24O,1.905000X2.000000*%
%TD*%
%TA.AperFunction,ComponentPad*%
%ADD25R,1.600000X1.600000*%
%TD*%
%TA.AperFunction,ComponentPad*%
%ADD26O,1.600000X1.600000*%
%TD*%
%TA.AperFunction,ComponentPad*%
%ADD27RoundRect,0.250000X1.050000X1.050000X-1.050000X1.050000X-1.050000X-1.050000X1.050000X-1.050000X0*%
%TD*%
%TA.AperFunction,ComponentPad*%
%ADD28C,2.600000*%
%TD*%
%TA.AperFunction,ComponentPad*%
%ADD29C,2.000000*%
%TD*%
%TA.AperFunction,ComponentPad*%
%ADD30RoundRect,0.250001X0.949999X-0.949999X0.949999X0.949999X-0.949999X0.949999X-0.949999X-0.949999X0*%
%TD*%
%TA.AperFunction,ComponentPad*%
%ADD31RoundRect,0.250000X1.750000X-1.750000X1.750000X1.750000X-1.750000X1.750000X-1.750000X-1.750000X0*%
%TD*%
%TA.AperFunction,ComponentPad*%
%ADD32C,4.000000*%
%TD*%
%TA.AperFunction,Conductor*%
%ADD33C,2.000000*%
%TD*%
%TA.AperFunction,Conductor*%
%ADD34C,0.500000*%
%TD*%
%TA.AperFunction,Conductor*%
%ADD35C,1.000000*%
%TD*%
%TA.AperFunction,Conductor*%
%ADD36C,1.500000*%
%TD*%
G04 APERTURE END LIST*
D10*
%TO.P,R1,2*%
%TO.N,Net-(U1-THR)*%
X139390000Y-96550000D03*
%TO.P,R1,1*%
%TO.N,Net-(D1-K)*%
X139390000Y-101630000D03*
%TD*%
D11*
%TO.P,C1,2*%
%TO.N,GND*%
X130520000Y-103750000D03*
%TO.P,C1,1*%
%TO.N,Net-(U1-CV)*%
X128020000Y-103750000D03*
%TD*%
%TO.P,D1,2,A_2*%
%TO.N,INTERRUPT_OUT*%
X146285000Y-96490000D03*
D12*
%TO.P,D1,1,K_1*%
%TO.N,Net-(D1-K)*%
X146285000Y-104110000D03*
%TD*%
D10*
%TO.P,R2,2*%
%TO.N,Net-(U1-THR)*%
X142785000Y-96550000D03*
%TO.P,R2,1*%
%TO.N,Net-(U1-DIS)*%
X142785000Y-101630000D03*
%TD*%
D11*
%TO.P,C2,2*%
%TO.N,GND*%
X130785000Y-90050000D03*
%TO.P,C2,1*%
%TO.N,+12V*%
X128285000Y-90050000D03*
%TD*%
%TO.P,U1,8,VCC_8*%
%TO.N,+12V*%
X135890000Y-100670000D03*
%TO.P,U1,7,DIS_7*%
%TO.N,Net-(U1-DIS)*%
X133350000Y-100670000D03*
%TO.P,U1,6,THR_6*%
%TO.N,Net-(U1-THR)*%
X130810000Y-100670000D03*
%TO.P,U1,5,CV_5*%
%TO.N,Net-(U1-CV)*%
X128270000Y-100670000D03*
%TO.P,U1,4,R_4*%
%TO.N,+12V*%
X128270000Y-93050000D03*
%TO.P,U1,3,Q_3*%
%TO.N,INTERRUPT_OUT*%
X130810000Y-93050000D03*
%TO.P,U1,2,TR_2*%
%TO.N,Net-(U1-THR)*%
X133350000Y-93050000D03*
D13*
%TO.P,U1,1,GND_1*%
%TO.N,GND*%
X135890000Y-93050000D03*
%TD*%
D11*
%TO.P,C9,2*%
%TO.N,GND*%
X144600000Y-92800000D03*
%TO.P,C9,1*%
%TO.N,Net-(U1-THR)*%
X139600000Y-92800000D03*
%TD*%
%TO.P,C4,1*%
%TO.N,+5V*%
X147500000Y-71450000D03*
%TO.P,C4,2*%
%TO.N,GND*%
X147500000Y-73950000D03*
%TD*%
D14*
%TO.P,J1,3,Pin_3_3*%
%TO.N,Earth*%
X114000000Y-132600000D03*
%TO.P,J1,2,Pin_2_2*%
%TO.N,GND*%
X109000000Y-132600000D03*
%TO.P,J1,1,Pin_1_1*%
%TO.N,HT_SW*%
X104000000Y-132600000D03*
%TD*%
D15*
%TO.P,Q1,1,G_1*%
%TO.N,/GATE*%
X168200000Y-99550000D03*
D16*
%TO.P,Q1,2,D_2*%
%TO.N,/DRAIN*%
X168200000Y-105000000D03*
%TO.P,Q1,3,S_3*%
%TO.N,GND*%
X168200000Y-110450000D03*
%TD*%
D11*
%TO.P,C3,1*%
%TO.N,GND*%
X165040000Y-83820000D03*
%TO.P,C3,2*%
%TO.N,+12V*%
X165040000Y-86320000D03*
%TD*%
%TO.P,C8,1*%
%TO.N,+5V*%
X139550000Y-74540000D03*
%TO.P,C8,2*%
%TO.N,GND*%
X142050000Y-74540000D03*
%TD*%
D14*
%TO.P,J2,1,Pin_1_1*%
%TO.N,Earth*%
X148000000Y-132600000D03*
%TO.P,J2,2,Pin_2_2*%
%TO.N,+170V*%
X153000000Y-132600000D03*
%TO.P,J2,3,Pin_3_3*%
%TO.N,/DRAIN*%
X158000000Y-132600000D03*
%TD*%
D10*
%TO.P,R3,1*%
%TO.N,/GATE*%
X165300000Y-94110000D03*
%TO.P,R3,2*%
%TO.N,Net-(U2-OUT)*%
X165300000Y-89030000D03*
%TD*%
D11*
%TO.P,C5,1*%
%TO.N,Net-(D2-+)*%
X134500000Y-85290000D03*
%TO.P,C5,2*%
%TO.N,GND*%
X137000000Y-85290000D03*
%TD*%
D17*
%TO.P,LED1,1,K_1*%
%TO.N,GND*%
X122930000Y-138200000D03*
D18*
%TO.P,LED1,2,A_2*%
%TO.N,Net-(LED1-A)*%
X125470000Y-138200000D03*
%TD*%
D11*
%TO.P,C6,1*%
%TO.N,+12V*%
X139550000Y-85290000D03*
%TO.P,C6,2*%
%TO.N,GND*%
X142050000Y-85290000D03*
%TD*%
D19*
%TO.P,F1,1*%
%TO.N,HT_SW*%
X97500000Y-135350000D03*
%TO.P,F1,2*%
%TO.N,AC_PROT*%
X97500000Y-122650000D03*
%TD*%
D20*
%TO.P,TR1,1*%
%TO.N,AC_PROT*%
X97000000Y-88000000D03*
D21*
%TO.P,TR1,2*%
%TO.N,GND*%
X97000000Y-108000000D03*
%TO.P,TR1,3*%
%TO.N,Net-(D2-Pad4)*%
X117000000Y-93000000D03*
%TO.P,TR1,4*%
%TO.N,Net-(D2-Pad3)*%
X117000000Y-103000000D03*
%TD*%
D22*
%TO.P,U2,1,VDD__1_1*%
%TO.N,+12V*%
X154180000Y-86260000D03*
D11*
%TO.P,U2,2,IN_2*%
%TO.N,OSC_OUT*%
X154180000Y-88800000D03*
%TO.P,U2,3,ENBL_3*%
%TO.N,INTERRUPT_OUT*%
X154180000Y-91340000D03*
%TO.P,U2,4,AGND_4*%
%TO.N,GND*%
X154180000Y-93880000D03*
%TO.P,U2,5,PGND_5*%
X161800000Y-93880000D03*
%TO.P,U2,6,OUT_6*%
%TO.N,Net-(U2-OUT)*%
X161800000Y-91340000D03*
%TO.P,U2,7,OUT__1_7*%
X161800000Y-88800000D03*
%TO.P,U2,8,VDD_8*%
%TO.N,+12V*%
X161800000Y-86260000D03*
%TD*%
D23*
%TO.P,U3,1,VI_1*%
%TO.N,Net-(D2-+)*%
X134510000Y-82190000D03*
D24*
%TO.P,U3,2,GND_2*%
%TO.N,GND*%
X137050000Y-82190000D03*
%TO.P,U3,3,VO_3*%
%TO.N,+12V*%
X139590000Y-82190000D03*
%TD*%
D23*
%TO.P,U4,1,VI_1*%
%TO.N,+12V*%
X134480000Y-71490000D03*
D24*
%TO.P,U4,2,GND_2*%
%TO.N,GND*%
X137020000Y-71490000D03*
%TO.P,U4,3,VO_3*%
%TO.N,+5V*%
X139560000Y-71490000D03*
%TD*%
D25*
%TO.P,D2,1,+_1*%
%TO.N,Net-(D2-+)*%
X107000000Y-70190000D03*
D26*
%TO.P,D2,2,-_2*%
%TO.N,GND*%
X101920000Y-70190000D03*
%TO.P,D2,3*%
%TO.N,Net-(D2-Pad3)*%
X101920000Y-77810000D03*
%TO.P,D2,4*%
%TO.N,Net-(D2-Pad4)*%
X107000000Y-77810000D03*
%TD*%
D27*
%TO.P,D3,1,K_1*%
%TO.N,+170V*%
X115950000Y-122500000D03*
D28*
%TO.P,D3,2,A_2*%
%TO.N,AC_PROT*%
X103250000Y-122500000D03*
%TD*%
D29*
%TO.P,C10,1*%
%TO.N,/DRAIN*%
X161700000Y-99800000D03*
%TO.P,C10,2*%
%TO.N,GND*%
X161700000Y-109800000D03*
%TD*%
D19*
%TO.P,TVS1,1,A1_1*%
%TO.N,GND*%
X154500000Y-112100000D03*
%TO.P,TVS1,2,A2_2*%
%TO.N,/GATE*%
X154500000Y-99400000D03*
%TD*%
%TO.P,R5,1*%
%TO.N,+170V*%
X136140000Y-138000000D03*
%TO.P,R5,2*%
%TO.N,Net-(LED1-A)*%
X131060000Y-138000000D03*
%TD*%
D11*
%TO.P,C7,1*%
%TO.N,+12V*%
X134500000Y-74540000D03*
%TO.P,C7,2*%
%TO.N,GND*%
X137000000Y-74540000D03*
%TD*%
D30*
%TO.P,C12,1*%
%TO.N,Net-(D2-+)*%
X119800000Y-76123959D03*
D19*
%TO.P,C12,2*%
%TO.N,GND*%
X119800000Y-71123959D03*
%TD*%
%TO.P,C13,1*%
%TO.N,+170V*%
X152900000Y-123100000D03*
%TO.P,C13,2*%
%TO.N,GND*%
X167900000Y-123100000D03*
%TD*%
D31*
%TO.P,C14,1*%
%TO.N,+170V*%
X136000000Y-123057832D03*
D32*
%TO.P,C14,2*%
%TO.N,GND*%
X136000000Y-113057832D03*
%TD*%
D25*
%TO.P,Y1,1,EN_1*%
%TO.N,+5V*%
X151940000Y-71500000D03*
D11*
%TO.P,Y1,4,GND_4*%
%TO.N,GND*%
X151940000Y-79120000D03*
%TO.P,Y1,5,OUT_5*%
%TO.N,OSC_OUT*%
X159560000Y-79120000D03*
%TO.P,Y1,8,Vcc_8*%
%TO.N,+5V*%
X159560000Y-71500000D03*
%TD*%
D10*
%TO.P,R4,1*%
%TO.N,Net-(LED1-A)*%
X124000000Y-133540000D03*
%TO.P,R4,2*%
%TO.N,GND*%
X124000000Y-128460000D03*
%TD*%
%TO.N,/DRAIN*%
D33*
X161900000Y-105000000D02*
X161700000Y-104800000D01*
X161700000Y-104800000D02*
X161700000Y-99800000D01*
%TO.N,Net-(U1-THR)*%
D34*
X139600000Y-92800000D02*
X139600000Y-96340000D01*
%TO.N,INTERRUPT_OUT*%
X141095000Y-91300000D02*
X132560000Y-91300000D01*
X146285000Y-96490000D02*
X141315000Y-91520000D01*
X141315000Y-91520000D02*
X141095000Y-91300000D01*
X146285000Y-96490000D02*
X146285000Y-96300000D01*
%TO.N,Net-(U1-THR)*%
X134180000Y-96550000D02*
X139390000Y-96550000D01*
%TO.N,+12V*%
X128270000Y-93050000D02*
X128270000Y-90295000D01*
%TO.N,INTERRUPT_OUT*%
X141135000Y-91340000D02*
X141135000Y-91300000D01*
%TO.N,Net-(U1-DIS)*%
X133350000Y-100670000D02*
X134601000Y-99419000D01*
%TO.N,Net-(D1-K)*%
X141870000Y-104110000D02*
X145850000Y-104110000D01*
%TO.N,INTERRUPT_OUT*%
X141095000Y-91300000D02*
X141135000Y-91300000D01*
%TO.N,Net-(U1-THR)*%
X133430000Y-92970000D02*
X133350000Y-93050000D01*
%TO.N,INTERRUPT_OUT*%
X130770000Y-93010000D02*
X130810000Y-93050000D01*
%TO.N,Net-(U1-CV)*%
X128020000Y-103550000D02*
X128020000Y-100920000D01*
%TO.N,Net-(U1-THR)*%
X133350000Y-96550000D02*
X133350000Y-93050000D01*
X130810000Y-100670000D02*
X130810000Y-99090000D01*
%TO.N,INTERRUPT_OUT*%
X141315000Y-91520000D02*
X141135000Y-91340000D01*
%TO.N,Net-(D1-K)*%
X139390000Y-101630000D02*
X141870000Y-104110000D01*
%TO.N,Net-(U1-DIS)*%
X134601000Y-99419000D02*
X140429000Y-99419000D01*
%TO.N,INTERRUPT_OUT*%
X132560000Y-91300000D02*
X130810000Y-93050000D01*
%TO.N,Net-(U1-THR)*%
X133350000Y-96550000D02*
X134180000Y-96550000D01*
%TO.N,+12V*%
X128515000Y-89920000D02*
X128515000Y-90050000D01*
%TO.N,Net-(U1-THR)*%
X139600000Y-96340000D02*
X139390000Y-96550000D01*
X139390000Y-96550000D02*
X142640000Y-96550000D01*
%TO.N,Net-(U1-DIS)*%
X140429000Y-99419000D02*
X142640000Y-101630000D01*
%TO.N,Net-(U1-THR)*%
X130810000Y-99090000D02*
X133350000Y-96550000D01*
%TO.N,+12V*%
X136020000Y-100800000D02*
X135890000Y-100670000D01*
%TO.N,Net-(U1-CV)*%
X128020000Y-100920000D02*
X128270000Y-100670000D01*
%TO.N,/DRAIN*%
D33*
X167200000Y-105000000D02*
X168370000Y-105000000D01*
X168370000Y-105000000D02*
X161900000Y-105000000D01*
X161900000Y-105000000D02*
X158000000Y-108900000D01*
X158000000Y-108900000D02*
X158000000Y-132600000D01*
%TO.N,+170V*%
X153000000Y-132600000D02*
X153000000Y-122900000D01*
X136000000Y-123057832D02*
X152442168Y-123057832D01*
%TO.N,Net-(D2-Pad3)*%
D35*
X101920000Y-84520000D02*
X117000000Y-99600000D01*
X117000000Y-99600000D02*
X117000000Y-103000000D01*
%TO.N,/GATE*%
D36*
X154500000Y-99400000D02*
X157200000Y-96700000D01*
X157200000Y-96700000D02*
X165080000Y-96700000D01*
X165080000Y-96700000D02*
X165300000Y-96480000D01*
X165300000Y-94110000D02*
X165300000Y-96480000D01*
X165300000Y-96480000D02*
X168370000Y-99550000D01*
%TO.N,+170V*%
D33*
X115950000Y-122500000D02*
X135442168Y-122500000D01*
X135442168Y-122500000D02*
X136000000Y-123057832D01*
%TO.N,+5V*%
D34*
X159560000Y-71500000D02*
X160000000Y-71500000D01*
%TO.N,Earth*%
D33*
X148000000Y-132600000D02*
X138100000Y-142500000D01*
X138100000Y-142500000D02*
X121000000Y-142500000D01*
X121000000Y-142500000D02*
X114000000Y-135500000D01*
X114000000Y-135500000D02*
X114000000Y-132600000D01*
%TO.N,AC_PROT*%
X103250000Y-122500000D02*
X103250000Y-94250000D01*
X103250000Y-94250000D02*
X97000000Y-88000000D01*
X97500000Y-122650000D02*
X103100000Y-122650000D01*
X103100000Y-122650000D02*
X103250000Y-122500000D01*
%TO.N,HT_SW*%
X104000000Y-132600000D02*
X100250000Y-132600000D01*
X100250000Y-132600000D02*
X97500000Y-135350000D01*
%TO.N,AC_PROT*%
D36*
X103000000Y-122250000D02*
X103250000Y-122500000D01*
%TO.N,+170V*%
D33*
X152900000Y-132500000D02*
X153000000Y-132600000D01*
%TO.N,Net-(D2-Pad3)*%
D35*
X101920000Y-84520000D02*
X101920000Y-77810000D01*
%TO.N,Net-(D2-Pad4)*%
X116200000Y-93000000D02*
X107000000Y-83800000D01*
X107000000Y-83800000D02*
X107000000Y-77810000D01*
%TO.N,+12V*%
X165240000Y-86320000D02*
X161860000Y-86320000D01*
X161860000Y-86320000D02*
X161800000Y-86260000D01*
D34*
X137240000Y-87600000D02*
X139550000Y-85290000D01*
X134560000Y-71570000D02*
X134480000Y-71490000D01*
X139590000Y-82190000D02*
X139590000Y-84900000D01*
X141860000Y-87600000D02*
X152840000Y-87600000D01*
X139550000Y-85290000D02*
X141860000Y-87600000D01*
X139550000Y-84940000D02*
X139550000Y-85190000D01*
X139550000Y-84940000D02*
X139550000Y-85090000D01*
X128285000Y-90050000D02*
X130735000Y-87600000D01*
X134560000Y-74490000D02*
X134560000Y-71570000D01*
X139590000Y-82190000D02*
X139590000Y-79570000D01*
X139800000Y-82400000D02*
X139590000Y-82190000D01*
X152840000Y-87600000D02*
X154180000Y-86260000D01*
X139590000Y-84900000D02*
X139550000Y-84940000D01*
X139550000Y-85190000D02*
X139510000Y-85230000D01*
X139590000Y-79570000D02*
X134560000Y-74540000D01*
X130735000Y-87600000D02*
X137240000Y-87600000D01*
%TO.N,GND*%
X137060000Y-71530000D02*
X137020000Y-71490000D01*
D35*
X136950000Y-71560000D02*
X137020000Y-71490000D01*
%TO.N,+170V*%
D33*
X136140000Y-138000000D02*
X136140000Y-123640000D01*
X136000000Y-123057832D02*
X136457832Y-122600000D01*
X136140000Y-123640000D02*
X136000000Y-123500000D01*
%TO.N,OSC_OUT*%
D34*
X159560000Y-83420000D02*
X159560000Y-79120000D01*
X155790000Y-87190000D02*
X159560000Y-83420000D01*
X154180000Y-88800000D02*
X153910000Y-89070000D01*
X154180000Y-88800000D02*
X155790000Y-87190000D01*
%TO.N,+5V*%
X139550000Y-74540000D02*
X139550000Y-71500000D01*
X139560000Y-71490000D02*
X151930000Y-71490000D01*
X151940000Y-71500000D02*
X159560000Y-71500000D01*
X139300000Y-71750000D02*
X139560000Y-71490000D01*
X139550000Y-71500000D02*
X139560000Y-71490000D01*
X151930000Y-71490000D02*
X151940000Y-71500000D01*
X139560000Y-71490000D02*
X139670000Y-71380000D01*
%TO.N,Net-(U2-OUT)*%
D35*
X162990000Y-91340000D02*
X165300000Y-89030000D01*
X165070000Y-88800000D02*
X165300000Y-89030000D01*
X161800000Y-91340000D02*
X162990000Y-91340000D01*
X161800000Y-88800000D02*
X165070000Y-88800000D01*
%TO.N,Net-(LED1-A)*%
D34*
X125470000Y-138200000D02*
X125670000Y-138000000D01*
X124000000Y-135400000D02*
X124000000Y-133540000D01*
X125470000Y-136870000D02*
X124000000Y-135400000D01*
X130860000Y-138200000D02*
X131060000Y-138000000D01*
X125470000Y-138200000D02*
X125470000Y-136870000D01*
X131060000Y-138000000D02*
X125670000Y-138000000D01*
%TO.N,Net-(D2-+)*%
D35*
X124123959Y-76123959D02*
X130190000Y-82190000D01*
X115723959Y-76123959D02*
X119800000Y-76123959D01*
X109790000Y-70190000D02*
X115723959Y-76123959D01*
D34*
X134300000Y-82400000D02*
X134510000Y-82190000D01*
D35*
X119800000Y-76123959D02*
X124123959Y-76123959D01*
D34*
X134300000Y-84940000D02*
X134300000Y-82400000D01*
D35*
X130190000Y-82190000D02*
X134510000Y-82190000D01*
X107000000Y-70190000D02*
X109790000Y-70190000D01*
%TO.N,/DRAIN*%
D33*
X168200000Y-105000000D02*
X166900000Y-105000000D01*
%TO.N,INTERRUPT_OUT*%
D34*
X151260000Y-91340000D02*
X154180000Y-91340000D01*
X146285000Y-96490000D02*
X146285000Y-96315000D01*
X146285000Y-96315000D02*
X151260000Y-91340000D01*
%TD*%
%TA.AperFunction,Conductor*%
%TO.N,GND*%
G36*
X138556973Y-91970185D02*
G01*
X138602728Y-92022989D01*
X138612672Y-92092147D01*
X138590252Y-92147385D01*
X138573242Y-92170797D01*
X138487454Y-92339163D01*
X138429059Y-92518881D01*
X138399500Y-92705513D01*
X138399500Y-92894486D01*
X138429059Y-93081118D01*
X138487454Y-93260836D01*
X138554184Y-93391800D01*
X138573240Y-93429199D01*
X138684310Y-93582073D01*
X138684312Y-93582075D01*
X138817930Y-93715693D01*
X138898384Y-93774145D01*
X138941051Y-93829475D01*
X138949500Y-93874464D01*
X138949500Y-95463338D01*
X138929815Y-95530377D01*
X138881795Y-95573823D01*
X138813211Y-95608768D01*
X138778772Y-95633790D01*
X138673072Y-95710586D01*
X138673070Y-95710588D01*
X138673069Y-95710588D01*
X138550585Y-95833072D01*
X138539459Y-95848387D01*
X138484128Y-95891052D01*
X138439142Y-95899500D01*
X134124500Y-95899500D01*
X134057461Y-95879815D01*
X134011706Y-95827011D01*
X134000500Y-95775500D01*
X134000500Y-94124464D01*
X134020185Y-94057425D01*
X134051616Y-94024145D01*
X134132069Y-93965693D01*
X134132069Y-93965692D01*
X134132073Y-93965690D01*
X134265690Y-93832073D01*
X134375627Y-93680757D01*
X134430957Y-93638092D01*
X134500570Y-93632113D01*
X134562365Y-93664719D01*
X134596722Y-93725557D01*
X134599303Y-93741039D01*
X134600494Y-93752697D01*
X134655641Y-93919119D01*
X134655643Y-93919124D01*
X134747684Y-94068345D01*
X134871654Y-94192315D01*
X135020875Y-94284356D01*
X135020880Y-94284358D01*
X135187302Y-94339505D01*
X135187309Y-94339506D01*
X135290019Y-94349999D01*
X135489999Y-94349999D01*
X136290000Y-94349999D01*
X136489972Y-94349999D01*
X136489986Y-94349998D01*
X136592697Y-94339505D01*
X136759119Y-94284358D01*
X136759124Y-94284356D01*
X136908345Y-94192315D01*
X137032315Y-94068345D01*
X137124356Y-93919124D01*
X137124358Y-93919119D01*
X137179505Y-93752697D01*
X137179506Y-93752690D01*
X137189999Y-93649986D01*
X137190000Y-93649973D01*
X137190000Y-93450000D01*
X136290000Y-93450000D01*
X136290000Y-94349999D01*
X135489999Y-94349999D01*
X135490000Y-94349998D01*
X135490000Y-93174000D01*
X135499994Y-93139962D01*
X135517259Y-93204394D01*
X135569920Y-93295606D01*
X135644394Y-93370080D01*
X135735606Y-93422741D01*
X135837339Y-93450000D01*
X135942661Y-93450000D01*
X136044394Y-93422741D01*
X136135606Y-93370080D01*
X136210080Y-93295606D01*
X136262741Y-93204394D01*
X136290000Y-93102661D01*
X136290000Y-92997339D01*
X136262741Y-92895606D01*
X136210080Y-92804394D01*
X136135606Y-92729920D01*
X136044394Y-92677259D01*
X135974627Y-92658565D01*
X136014000Y-92650000D01*
X137189999Y-92650000D01*
X137189999Y-92450028D01*
X137189998Y-92450013D01*
X137179505Y-92347302D01*
X137124358Y-92180880D01*
X137124353Y-92180869D01*
X137098896Y-92139597D01*
X137080455Y-92072205D01*
X137101377Y-92005541D01*
X137155019Y-91960771D01*
X137204434Y-91950500D01*
X138489934Y-91950500D01*
X138556973Y-91970185D01*
G37*
%TD.AperFunction*%
%TA.AperFunction,Conductor*%
G36*
X139812000Y-86483895D02*
G01*
X139849787Y-86509733D01*
X141441540Y-88101487D01*
X141441543Y-88101489D01*
X141445330Y-88105276D01*
X141511517Y-88149500D01*
X141512103Y-88149892D01*
X141512127Y-88149908D01*
X141551866Y-88176461D01*
X141551872Y-88176464D01*
X141551873Y-88176465D01*
X141670256Y-88225501D01*
X141670260Y-88225501D01*
X141670261Y-88225502D01*
X141795928Y-88250500D01*
X141795931Y-88250500D01*
X152904071Y-88250500D01*
X152910134Y-88249903D01*
X152910305Y-88251646D01*
X152971615Y-88257123D01*
X153026799Y-88299976D01*
X153050055Y-88365862D01*
X153044165Y-88410838D01*
X153009060Y-88518877D01*
X153009060Y-88518880D01*
X152979500Y-88705513D01*
X152979500Y-88894486D01*
X153009059Y-89081118D01*
X153067454Y-89260836D01*
X153148961Y-89420801D01*
X153153240Y-89429199D01*
X153264310Y-89582073D01*
X153397927Y-89715690D01*
X153550801Y-89826760D01*
X153581000Y-89842147D01*
X153719163Y-89912545D01*
X153719165Y-89912545D01*
X153719168Y-89912547D01*
X153808734Y-89941649D01*
X153840803Y-89952069D01*
X153898478Y-89991507D01*
X153925676Y-90055866D01*
X153913761Y-90124712D01*
X153866516Y-90176188D01*
X153840803Y-90187931D01*
X153719163Y-90227454D01*
X153550800Y-90313240D01*
X153494126Y-90354417D01*
X153397927Y-90424310D01*
X153397925Y-90424312D01*
X153397924Y-90424312D01*
X153264311Y-90557925D01*
X153205853Y-90638386D01*
X153150522Y-90681051D01*
X153105535Y-90689500D01*
X151195929Y-90689500D01*
X151088852Y-90710800D01*
X151088847Y-90710801D01*
X151074870Y-90713581D01*
X151070255Y-90714499D01*
X150951870Y-90763535D01*
X150845331Y-90834722D01*
X150845324Y-90834728D01*
X146426872Y-95253181D01*
X146365549Y-95286666D01*
X146339191Y-95289500D01*
X146190514Y-95289500D01*
X146092290Y-95305057D01*
X146022996Y-95296102D01*
X145985211Y-95270265D01*
X144955810Y-94240864D01*
X144922325Y-94179541D01*
X144927309Y-94109849D01*
X144969181Y-94053916D01*
X145005173Y-94035252D01*
X145099029Y-94004755D01*
X145191801Y-93957485D01*
X144354394Y-93120080D01*
X144445606Y-93172741D01*
X144547339Y-93200000D01*
X144652661Y-93200000D01*
X144754394Y-93172741D01*
X144845606Y-93120080D01*
X144920080Y-93045606D01*
X144972741Y-92954394D01*
X145000000Y-92852661D01*
X145000000Y-92799999D01*
X145165685Y-92799999D01*
X145165685Y-92800000D01*
X145757485Y-93391800D01*
X145804755Y-93299031D01*
X145867990Y-93104417D01*
X145900000Y-92902317D01*
X145900000Y-92697682D01*
X145867990Y-92495582D01*
X145804755Y-92300968D01*
X145757485Y-92208198D01*
X145165685Y-92799999D01*
X145000000Y-92799999D01*
X145000000Y-92747339D01*
X144972741Y-92645606D01*
X144920080Y-92554394D01*
X144845606Y-92479920D01*
X144754394Y-92427259D01*
X144652661Y-92400000D01*
X144547339Y-92400000D01*
X144445606Y-92427259D01*
X144354394Y-92479920D01*
X144279920Y-92554394D01*
X144227259Y-92645606D01*
X144200000Y-92747339D01*
X144200000Y-92852661D01*
X144227259Y-92954394D01*
X144279920Y-93045606D01*
X144070633Y-92836319D01*
X143442512Y-92208197D01*
X143395243Y-92300972D01*
X143364747Y-92394827D01*
X143325309Y-92452502D01*
X143260950Y-92479700D01*
X143192104Y-92467785D01*
X143159135Y-92444189D01*
X142357458Y-91642512D01*
X144008197Y-91642512D01*
X144600000Y-92234314D01*
X144600001Y-92234314D01*
X145191801Y-91642512D01*
X145099034Y-91595246D01*
X145099027Y-91595243D01*
X144904417Y-91532009D01*
X144702317Y-91500000D01*
X144497683Y-91500000D01*
X144295581Y-91532010D01*
X144295578Y-91532010D01*
X144100974Y-91595242D01*
X144100973Y-91595242D01*
X144008197Y-91642512D01*
X142357458Y-91642512D01*
X141729457Y-91014511D01*
X141714036Y-90995720D01*
X141640279Y-90885335D01*
X141640273Y-90885327D01*
X141549672Y-90794726D01*
X141549668Y-90794723D01*
X141443133Y-90723538D01*
X141443124Y-90723533D01*
X141324744Y-90674499D01*
X141324738Y-90674497D01*
X141199071Y-90649500D01*
X141199069Y-90649500D01*
X141159069Y-90649500D01*
X132495931Y-90649500D01*
X132495929Y-90649500D01*
X132370261Y-90674497D01*
X132370255Y-90674499D01*
X132273688Y-90714499D01*
X132251877Y-90723533D01*
X132251869Y-90723537D01*
X132145326Y-90794726D01*
X132126498Y-90813554D01*
X132065174Y-90847038D01*
X131995483Y-90842052D01*
X131939550Y-90800179D01*
X131915135Y-90734714D01*
X131928334Y-90669576D01*
X131989755Y-90549031D01*
X132052990Y-90354417D01*
X132085000Y-90152317D01*
X132085000Y-89947682D01*
X132052990Y-89745582D01*
X131989755Y-89550968D01*
X131942485Y-89458198D01*
X131105080Y-90295605D01*
X131157741Y-90204394D01*
X131185000Y-90102661D01*
X131185000Y-89997339D01*
X131157741Y-89895606D01*
X131105080Y-89804394D01*
X131030606Y-89729920D01*
X130939394Y-89677259D01*
X130837661Y-89650000D01*
X130732339Y-89650000D01*
X130630606Y-89677259D01*
X130539394Y-89729920D01*
X130464920Y-89804394D01*
X130412259Y-89895606D01*
X130385000Y-89997339D01*
X130385000Y-90102661D01*
X130412259Y-90204394D01*
X130464920Y-90295606D01*
X130539394Y-90370080D01*
X130630606Y-90422741D01*
X130732339Y-90450000D01*
X130837661Y-90450000D01*
X130939394Y-90422741D01*
X131030606Y-90370080D01*
X130193198Y-91207485D01*
X130285968Y-91254755D01*
X130480582Y-91317990D01*
X130682683Y-91350000D01*
X130887317Y-91350000D01*
X131089417Y-91317990D01*
X131284031Y-91254755D01*
X131404576Y-91193334D01*
X131473245Y-91180438D01*
X131537986Y-91206714D01*
X131578243Y-91263821D01*
X131581235Y-91333626D01*
X131548552Y-91391500D01*
X131109787Y-91830265D01*
X131048464Y-91863750D01*
X131002708Y-91865057D01*
X130904486Y-91849500D01*
X130904481Y-91849500D01*
X130715519Y-91849500D01*
X130715514Y-91849500D01*
X130528881Y-91879059D01*
X130349163Y-91937454D01*
X130180800Y-92023240D01*
X130108332Y-92075892D01*
X130027927Y-92134310D01*
X130027925Y-92134312D01*
X130027924Y-92134312D01*
X129894312Y-92267924D01*
X129894312Y-92267925D01*
X129894310Y-92267927D01*
X129846610Y-92333579D01*
X129783240Y-92420800D01*
X129697454Y-92589163D01*
X129657931Y-92710803D01*
X129618493Y-92768478D01*
X129554134Y-92795676D01*
X129485288Y-92783761D01*
X129433812Y-92736516D01*
X129422069Y-92710803D01*
X129382545Y-92589163D01*
X129333555Y-92493016D01*
X129296760Y-92420801D01*
X129185690Y-92267927D01*
X129052073Y-92134310D01*
X129052072Y-92134309D01*
X128971613Y-92075851D01*
X128928948Y-92020521D01*
X128920500Y-91975534D01*
X128920500Y-91135363D01*
X128940185Y-91068324D01*
X128971614Y-91035045D01*
X129067073Y-90965690D01*
X129200690Y-90832073D01*
X129311760Y-90679199D01*
X129368679Y-90567487D01*
X129416653Y-90516692D01*
X129484474Y-90499896D01*
X129550609Y-90522433D01*
X129589649Y-90567488D01*
X129627512Y-90641801D01*
X131376801Y-88892512D01*
X131284034Y-88845246D01*
X131284027Y-88845243D01*
X131089417Y-88782009D01*
X130887317Y-88750000D01*
X130804306Y-88750000D01*
X130737267Y-88730315D01*
X130691512Y-88677511D01*
X130681568Y-88608353D01*
X130710593Y-88544797D01*
X130716613Y-88538330D01*
X130968126Y-88286819D01*
X131029449Y-88253334D01*
X131055807Y-88250500D01*
X137304071Y-88250500D01*
X137388615Y-88233682D01*
X137429744Y-88225501D01*
X137548127Y-88176465D01*
X137566624Y-88164106D01*
X137654669Y-88105277D01*
X139250213Y-86509731D01*
X139311534Y-86476248D01*
X139357285Y-86474941D01*
X139455519Y-86490500D01*
X139455521Y-86490500D01*
X139644479Y-86490500D01*
X139644481Y-86490500D01*
X139742711Y-86474941D01*
X139812000Y-86483895D01*
G37*
%TD.AperFunction*%
%TA.AperFunction,Conductor*%
G36*
X170442539Y-65520185D02*
G01*
X170488294Y-65572989D01*
X170499500Y-65624500D01*
X170499500Y-97775500D01*
X170479815Y-97842539D01*
X170427011Y-97888294D01*
X170375500Y-97899500D01*
X168397914Y-97899500D01*
X168330875Y-97879815D01*
X168310233Y-97863181D01*
X166486819Y-96039766D01*
X166453334Y-95978443D01*
X166450500Y-95952085D01*
X166450500Y-94019448D01*
X166434019Y-93915397D01*
X166422171Y-93840591D01*
X166370239Y-93680758D01*
X166366212Y-93668363D01*
X166366211Y-93668360D01*
X166285945Y-93510832D01*
X166283996Y-93507006D01*
X166242579Y-93450000D01*
X166177558Y-93360505D01*
X166177554Y-93360500D01*
X166049499Y-93232445D01*
X166049494Y-93232441D01*
X165902997Y-93126006D01*
X165902996Y-93126005D01*
X165902994Y-93126004D01*
X165851300Y-93099664D01*
X165741639Y-93043788D01*
X165741636Y-93043787D01*
X165569410Y-92987829D01*
X165390551Y-92959500D01*
X165390546Y-92959500D01*
X165209454Y-92959500D01*
X165209449Y-92959500D01*
X165030589Y-92987829D01*
X164858363Y-93043787D01*
X164858360Y-93043788D01*
X164697002Y-93126006D01*
X164550505Y-93232441D01*
X164550500Y-93232445D01*
X164422445Y-93360500D01*
X164422441Y-93360505D01*
X164316006Y-93507002D01*
X164233788Y-93668360D01*
X164233787Y-93668363D01*
X164177829Y-93840589D01*
X164149500Y-94019448D01*
X164149500Y-95425500D01*
X164129815Y-95492539D01*
X164077011Y-95538294D01*
X164025500Y-95549500D01*
X157295682Y-95549500D01*
X157295658Y-95549499D01*
X157290547Y-95549499D01*
X157109454Y-95549499D01*
X157109449Y-95549499D01*
X156930590Y-95577827D01*
X156758356Y-95633790D01*
X156597002Y-95716006D01*
X156450505Y-95822441D01*
X156450500Y-95822445D01*
X156320751Y-95952195D01*
X154509766Y-97763181D01*
X154448443Y-97796666D01*
X154422085Y-97799500D01*
X154374038Y-97799500D01*
X154249626Y-97819205D01*
X154125214Y-97838910D01*
X153885616Y-97916760D01*
X153661151Y-98031132D01*
X153457350Y-98179201D01*
X153457345Y-98179205D01*
X153279205Y-98357345D01*
X153279201Y-98357350D01*
X153131132Y-98561151D01*
X153016760Y-98785616D01*
X152938910Y-99025214D01*
X152901344Y-99262393D01*
X152899500Y-99274038D01*
X152899500Y-99525962D01*
X152916588Y-99633848D01*
X152938910Y-99774785D01*
X153016760Y-100014383D01*
X153061478Y-100102145D01*
X153127550Y-100231819D01*
X153131132Y-100238848D01*
X153279201Y-100442649D01*
X153279205Y-100442654D01*
X153457345Y-100620794D01*
X153457350Y-100620798D01*
X153635117Y-100749952D01*
X153661155Y-100768870D01*
X153784107Y-100831517D01*
X153885616Y-100883239D01*
X153885618Y-100883239D01*
X153885621Y-100883241D01*
X154125215Y-100961090D01*
X154374038Y-101000500D01*
X154374039Y-101000500D01*
X154625961Y-101000500D01*
X154625962Y-101000500D01*
X154874785Y-100961090D01*
X155114379Y-100883241D01*
X155338845Y-100768870D01*
X155542656Y-100620793D01*
X155720793Y-100442656D01*
X155868870Y-100238845D01*
X155983241Y-100014379D01*
X156061090Y-99774785D01*
X156100500Y-99525962D01*
X156100500Y-99477914D01*
X156120185Y-99410875D01*
X156136819Y-99390233D01*
X157640233Y-97886819D01*
X157701556Y-97853334D01*
X157727914Y-97850500D01*
X164984335Y-97850500D01*
X164989451Y-97850500D01*
X164989454Y-97850501D01*
X164992102Y-97850501D01*
X164993828Y-97851008D01*
X164994617Y-97850928D01*
X164994629Y-97850929D01*
X164994603Y-97851235D01*
X165028778Y-97861275D01*
X165059125Y-97870186D01*
X165059132Y-97870192D01*
X165059139Y-97870194D01*
X165059148Y-97870204D01*
X165079767Y-97886820D01*
X165513181Y-98320233D01*
X165546666Y-98381556D01*
X165549500Y-98407914D01*
X165549500Y-100831517D01*
X165557692Y-100883239D01*
X165564354Y-100925304D01*
X165621950Y-101038342D01*
X165621952Y-101038344D01*
X165621954Y-101038347D01*
X165711652Y-101128045D01*
X165711654Y-101128046D01*
X165711658Y-101128050D01*
X165824696Y-101185646D01*
X165824698Y-101185647D01*
X165918475Y-101200499D01*
X165918481Y-101200500D01*
X170375500Y-101200499D01*
X170442539Y-101220184D01*
X170488294Y-101272988D01*
X170499500Y-101324499D01*
X170499500Y-103665978D01*
X170479815Y-103733017D01*
X170427011Y-103778772D01*
X170357853Y-103788716D01*
X170294297Y-103759691D01*
X170287819Y-103753659D01*
X170275231Y-103741071D01*
X170275225Y-103741066D01*
X170065054Y-103588368D01*
X170065053Y-103588367D01*
X170065051Y-103588366D01*
X169944636Y-103527011D01*
X169833576Y-103470422D01*
X169586493Y-103390140D01*
X169329902Y-103349500D01*
X169329897Y-103349500D01*
X167070103Y-103349500D01*
X167070098Y-103349500D01*
X166813506Y-103390140D01*
X166566423Y-103470422D01*
X166339622Y-103585985D01*
X166283327Y-103599500D01*
X163224500Y-103599500D01*
X163157461Y-103579815D01*
X163111706Y-103527011D01*
X163100500Y-103475500D01*
X163100500Y-99689778D01*
X163092698Y-99640521D01*
X163066015Y-99472049D01*
X163017628Y-99323127D01*
X162997896Y-99262396D01*
X162997895Y-99262393D01*
X162952577Y-99173453D01*
X162897815Y-99065978D01*
X162787199Y-98913727D01*
X162768247Y-98887641D01*
X162768243Y-98887636D01*
X162612363Y-98731756D01*
X162612358Y-98731752D01*
X162434025Y-98602187D01*
X162434024Y-98602186D01*
X162434022Y-98602185D01*
X162353489Y-98561151D01*
X162237606Y-98502104D01*
X162237603Y-98502103D01*
X162027952Y-98433985D01*
X161919086Y-98416742D01*
X161810222Y-98399500D01*
X161589778Y-98399500D01*
X161517201Y-98410995D01*
X161372047Y-98433985D01*
X161162396Y-98502103D01*
X161162393Y-98502104D01*
X160965974Y-98602187D01*
X160787641Y-98731752D01*
X160787636Y-98731756D01*
X160631756Y-98887636D01*
X160631752Y-98887641D01*
X160502187Y-99065974D01*
X160402104Y-99262393D01*
X160402103Y-99262396D01*
X160333985Y-99472047D01*
X160299500Y-99689778D01*
X160299500Y-104568531D01*
X160279815Y-104635570D01*
X160263181Y-104656212D01*
X156931756Y-107987636D01*
X156931752Y-107987641D01*
X156802187Y-108165974D01*
X156702104Y-108362393D01*
X156702103Y-108362396D01*
X156633985Y-108572047D01*
X156599499Y-108789779D01*
X156599499Y-109015332D01*
X156599500Y-109015357D01*
X156599500Y-132710222D01*
X156612072Y-132789598D01*
X156633985Y-132927952D01*
X156702103Y-133137603D01*
X156702104Y-133137606D01*
X156802187Y-133334025D01*
X156931752Y-133512358D01*
X156931756Y-133512363D01*
X157087636Y-133668243D01*
X157087641Y-133668247D01*
X157192283Y-133744273D01*
X157265978Y-133797815D01*
X157394375Y-133863237D01*
X157462393Y-133897895D01*
X157462396Y-133897896D01*
X157567221Y-133931955D01*
X157672049Y-133966015D01*
X157889778Y-134000500D01*
X157889779Y-134000500D01*
X158110221Y-134000500D01*
X158110222Y-134000500D01*
X158327951Y-133966015D01*
X158537606Y-133897895D01*
X158734022Y-133797815D01*
X158912365Y-133668242D01*
X159068242Y-133512365D01*
X159197815Y-133334022D01*
X159297895Y-133137606D01*
X159366015Y-132927951D01*
X159400500Y-132710222D01*
X159400500Y-122988575D01*
X166200000Y-122988575D01*
X166200000Y-123211424D01*
X166229085Y-123432354D01*
X166229088Y-123432367D01*
X166286763Y-123647618D01*
X166372045Y-123853502D01*
X166372050Y-123853513D01*
X166448458Y-123985855D01*
X166448459Y-123985856D01*
X167300000Y-123134315D01*
X167300000Y-123178991D01*
X167340889Y-123331591D01*
X167419881Y-123468408D01*
X167531592Y-123580119D01*
X167668409Y-123659111D01*
X167821009Y-123700000D01*
X167865685Y-123700000D01*
X167014143Y-124551540D01*
X167014143Y-124551541D01*
X167146487Y-124627950D01*
X167146488Y-124627951D01*
X167352381Y-124713236D01*
X167567632Y-124770911D01*
X167567645Y-124770914D01*
X167788575Y-124800000D01*
X168011425Y-124800000D01*
X168232354Y-124770914D01*
X168232367Y-124770911D01*
X168447618Y-124713236D01*
X168653503Y-124627954D01*
X168653514Y-124627949D01*
X168785856Y-124551541D01*
X168785856Y-124551540D01*
X167934315Y-123700000D01*
X167978991Y-123700000D01*
X168131591Y-123659111D01*
X168268408Y-123580119D01*
X168380119Y-123468408D01*
X168459111Y-123331591D01*
X168500000Y-123178991D01*
X168500000Y-123134315D01*
X169351540Y-123985856D01*
X169351541Y-123985856D01*
X169427949Y-123853514D01*
X169427954Y-123853503D01*
X169513236Y-123647618D01*
X169570911Y-123432367D01*
X169570914Y-123432354D01*
X169600000Y-123211424D01*
X169600000Y-122988575D01*
X169570914Y-122767645D01*
X169570911Y-122767632D01*
X169513236Y-122552381D01*
X169427951Y-122346488D01*
X169427950Y-122346487D01*
X169351541Y-122214143D01*
X169351540Y-122214143D01*
X168500000Y-123065683D01*
X168500000Y-123021009D01*
X168459111Y-122868409D01*
X168380119Y-122731592D01*
X168268408Y-122619881D01*
X168131591Y-122540889D01*
X167978991Y-122500000D01*
X167934313Y-122500000D01*
X168785855Y-121648458D01*
X168653513Y-121572050D01*
X168653502Y-121572045D01*
X168447618Y-121486763D01*
X168232367Y-121429088D01*
X168232354Y-121429085D01*
X168011425Y-121400000D01*
X167788575Y-121400000D01*
X167567645Y-121429085D01*
X167567632Y-121429088D01*
X167352381Y-121486763D01*
X167146502Y-121572041D01*
X167146497Y-121572044D01*
X167014143Y-121648458D01*
X167014142Y-121648458D01*
X167865685Y-122500000D01*
X167821009Y-122500000D01*
X167668409Y-122540889D01*
X167531592Y-122619881D01*
X167419881Y-122731592D01*
X167340889Y-122868409D01*
X167300000Y-123021009D01*
X167300000Y-123065684D01*
X166448458Y-122214142D01*
X166448458Y-122214143D01*
X166372044Y-122346497D01*
X166372041Y-122346502D01*
X166286763Y-122552381D01*
X166229088Y-122767632D01*
X166229085Y-122767645D01*
X166200000Y-122988575D01*
X159400500Y-122988575D01*
X159400500Y-111106184D01*
X160959499Y-111106184D01*
X161124197Y-111190102D01*
X161348752Y-111263065D01*
X161348751Y-111263065D01*
X161581948Y-111300000D01*
X161818052Y-111300000D01*
X162051247Y-111263065D01*
X162275797Y-111190104D01*
X162440499Y-111106184D01*
X162245024Y-110910709D01*
X161700000Y-110365686D01*
X160959499Y-111106184D01*
X159400500Y-111106184D01*
X159400500Y-109681947D01*
X160200000Y-109681947D01*
X160200000Y-109918052D01*
X160236934Y-110151247D01*
X160309897Y-110375802D01*
X160393814Y-110540498D01*
X161134314Y-109800000D01*
X161068488Y-109734174D01*
X161200000Y-109734174D01*
X161200000Y-109865826D01*
X161234075Y-109992993D01*
X161299901Y-110107007D01*
X161392993Y-110200099D01*
X161507007Y-110265925D01*
X161634174Y-110300000D01*
X161765826Y-110300000D01*
X161892993Y-110265925D01*
X162007007Y-110200099D01*
X162100099Y-110107007D01*
X162165925Y-109992993D01*
X162200000Y-109865826D01*
X162200000Y-109799999D01*
X162265686Y-109799999D01*
X162265686Y-109800001D01*
X163006184Y-110540499D01*
X163090104Y-110375797D01*
X163163065Y-110151247D01*
X163177902Y-110057574D01*
X163200000Y-109918052D01*
X163200000Y-109681947D01*
X163163065Y-109448752D01*
X163090102Y-109224197D01*
X163006184Y-109059499D01*
X162265686Y-109799999D01*
X162200000Y-109799999D01*
X162200000Y-109734174D01*
X162165925Y-109607007D01*
X162100099Y-109492993D01*
X162007007Y-109399901D01*
X161892993Y-109334075D01*
X161765826Y-109300000D01*
X161634174Y-109300000D01*
X161507007Y-109334075D01*
X161392993Y-109399901D01*
X161299901Y-109492993D01*
X161234075Y-109607007D01*
X161200000Y-109734174D01*
X161068488Y-109734174D01*
X160393813Y-109059499D01*
X160393813Y-109059500D01*
X160309898Y-109224194D01*
X160236934Y-109448752D01*
X160200000Y-109681947D01*
X159400500Y-109681947D01*
X159400500Y-109531468D01*
X159420185Y-109464429D01*
X159436819Y-109443787D01*
X160386793Y-108493813D01*
X160959499Y-108493813D01*
X161700000Y-109234314D01*
X161700001Y-109234314D01*
X162440498Y-108493814D01*
X162275802Y-108409897D01*
X162051247Y-108336934D01*
X162051248Y-108336934D01*
X161818052Y-108300000D01*
X161581948Y-108300000D01*
X161348752Y-108336934D01*
X161124194Y-108409898D01*
X160959500Y-108493813D01*
X160959499Y-108493813D01*
X160386793Y-108493813D01*
X162443787Y-106436819D01*
X162505110Y-106403334D01*
X162531468Y-106400500D01*
X166283327Y-106400500D01*
X166339622Y-106414015D01*
X166566423Y-106529577D01*
X166566425Y-106529577D01*
X166566428Y-106529579D01*
X166813507Y-106609860D01*
X166945706Y-106630797D01*
X167070098Y-106650500D01*
X167070103Y-106650500D01*
X169329902Y-106650500D01*
X169443298Y-106632539D01*
X169586493Y-106609860D01*
X169833572Y-106529579D01*
X170065051Y-106411634D01*
X170275229Y-106258931D01*
X170287819Y-106246341D01*
X170349142Y-106212856D01*
X170418834Y-106217840D01*
X170474767Y-106259712D01*
X170499184Y-106325176D01*
X170499500Y-106334022D01*
X170499500Y-108989867D01*
X170479815Y-109056906D01*
X170427011Y-109102661D01*
X170357853Y-109112605D01*
X170300014Y-109088243D01*
X170174338Y-108991809D01*
X169975668Y-108877106D01*
X169975659Y-108877102D01*
X169763730Y-108789318D01*
X169542137Y-108729942D01*
X169314710Y-108700001D01*
X169314694Y-108700000D01*
X168600000Y-108700000D01*
X168600000Y-109815254D01*
X168555258Y-109785359D01*
X168418767Y-109728822D01*
X168273869Y-109700000D01*
X168126131Y-109700000D01*
X167981233Y-109728822D01*
X167844742Y-109785359D01*
X167800000Y-109815254D01*
X167800000Y-108700000D01*
X167085306Y-108700000D01*
X167085289Y-108700001D01*
X166857862Y-108729942D01*
X166636269Y-108789318D01*
X166424340Y-108877102D01*
X166424331Y-108877106D01*
X166225661Y-108991809D01*
X166043670Y-109131455D01*
X166043663Y-109131461D01*
X165881461Y-109293663D01*
X165881455Y-109293670D01*
X165741809Y-109475661D01*
X165627106Y-109674331D01*
X165627102Y-109674340D01*
X165539318Y-109886269D01*
X165495446Y-110050000D01*
X167565255Y-110050000D01*
X167535359Y-110094742D01*
X167478822Y-110231233D01*
X167450000Y-110376131D01*
X167450000Y-110523869D01*
X167478822Y-110668767D01*
X167535359Y-110805258D01*
X167565255Y-110850000D01*
X165495446Y-110850000D01*
X165539318Y-111013730D01*
X165627102Y-111225659D01*
X165627106Y-111225668D01*
X165741809Y-111424338D01*
X165881455Y-111606329D01*
X165881461Y-111606336D01*
X166043663Y-111768538D01*
X166043670Y-111768544D01*
X166225661Y-111908190D01*
X166424331Y-112022893D01*
X166424340Y-112022897D01*
X166636269Y-112110681D01*
X166857862Y-112170057D01*
X167085289Y-112199998D01*
X167085306Y-112200000D01*
X167800000Y-112200000D01*
X167800000Y-111084745D01*
X167844742Y-111114641D01*
X167981233Y-111171178D01*
X168126131Y-111200000D01*
X168273869Y-111200000D01*
X168418767Y-111171178D01*
X168555258Y-111114641D01*
X168600000Y-111084745D01*
X168600000Y-112200000D01*
X169314694Y-112200000D01*
X169314710Y-112199998D01*
X169542137Y-112170057D01*
X169763730Y-112110681D01*
X169975659Y-112022897D01*
X169975668Y-112022893D01*
X170174334Y-111908193D01*
X170300013Y-111811756D01*
X170365182Y-111786562D01*
X170433627Y-111800600D01*
X170483617Y-111849414D01*
X170499500Y-111910132D01*
X170499500Y-144375500D01*
X170479815Y-144442539D01*
X170427011Y-144488294D01*
X170375500Y-144499500D01*
X91624500Y-144499500D01*
X91557461Y-144479815D01*
X91511706Y-144427011D01*
X91500500Y-144375500D01*
X91500500Y-140878711D01*
X93149500Y-140878711D01*
X93149500Y-141121288D01*
X93181161Y-141361785D01*
X93243947Y-141596104D01*
X93336773Y-141820205D01*
X93336776Y-141820212D01*
X93458064Y-142030289D01*
X93458066Y-142030292D01*
X93458067Y-142030293D01*
X93605733Y-142222736D01*
X93605739Y-142222743D01*
X93777256Y-142394260D01*
X93777262Y-142394265D01*
X93969711Y-142541936D01*
X94179788Y-142663224D01*
X94403900Y-142756054D01*
X94638211Y-142818838D01*
X94818586Y-142842584D01*
X94878711Y-142850500D01*
X94878712Y-142850500D01*
X95121289Y-142850500D01*
X95169388Y-142844167D01*
X95361789Y-142818838D01*
X95596100Y-142756054D01*
X95820212Y-142663224D01*
X96030289Y-142541936D01*
X96222738Y-142394265D01*
X96394265Y-142222738D01*
X96541936Y-142030289D01*
X96663224Y-141820212D01*
X96756054Y-141596100D01*
X96818838Y-141361789D01*
X96850500Y-141121288D01*
X96850500Y-140878712D01*
X96818838Y-140638211D01*
X96756054Y-140403900D01*
X96663224Y-140179788D01*
X96541936Y-139969711D01*
X96394265Y-139777262D01*
X96394260Y-139777256D01*
X96222743Y-139605739D01*
X96222736Y-139605733D01*
X96030293Y-139458067D01*
X96030292Y-139458066D01*
X96030289Y-139458064D01*
X95858661Y-139358974D01*
X95820214Y-139336777D01*
X95820205Y-139336773D01*
X95596104Y-139243947D01*
X95361785Y-139181161D01*
X95121289Y-139149500D01*
X95121288Y-139149500D01*
X94878712Y-139149500D01*
X94878711Y-139149500D01*
X94638214Y-139181161D01*
X94403895Y-139243947D01*
X94179794Y-139336773D01*
X94179785Y-139336777D01*
X93969706Y-139458067D01*
X93777263Y-139605733D01*
X93777256Y-139605739D01*
X93605739Y-139777256D01*
X93605733Y-139777263D01*
X93458067Y-139969706D01*
X93336777Y-140179785D01*
X93336773Y-140179794D01*
X93243947Y-140403895D01*
X93181161Y-140638214D01*
X93149500Y-140878711D01*
X91500500Y-140878711D01*
X91500500Y-135224038D01*
X95899500Y-135224038D01*
X95899500Y-135475962D01*
X95920765Y-135610220D01*
X95938910Y-135724785D01*
X95938909Y-135724785D01*
X96016760Y-135964383D01*
X96131132Y-136188848D01*
X96279201Y-136392649D01*
X96279205Y-136392654D01*
X96457345Y-136570794D01*
X96457350Y-136570798D01*
X96608006Y-136680255D01*
X96661155Y-136718870D01*
X96779573Y-136779207D01*
X96885616Y-136833239D01*
X96885618Y-136833239D01*
X96885621Y-136833241D01*
X97125215Y-136911090D01*
X97374038Y-136950500D01*
X97374039Y-136950500D01*
X97625961Y-136950500D01*
X97625962Y-136950500D01*
X97874785Y-136911090D01*
X98114379Y-136833241D01*
X98338845Y-136718870D01*
X98542656Y-136570793D01*
X98720793Y-136392656D01*
X98868870Y-136188845D01*
X98983241Y-135964379D01*
X99030361Y-135819357D01*
X99060609Y-135769995D01*
X99445228Y-135385377D01*
X112599499Y-135385377D01*
X112599499Y-135389778D01*
X112599499Y-135610222D01*
X112617645Y-135724785D01*
X112617645Y-135724786D01*
X112633985Y-135827952D01*
X112702103Y-136037603D01*
X112702104Y-136037606D01*
X112770122Y-136171096D01*
X112779167Y-136188848D01*
X112802187Y-136234025D01*
X112931751Y-136412357D01*
X112931755Y-136412361D01*
X112931758Y-136412365D01*
X113036148Y-136516755D01*
X113091965Y-136572572D01*
X113091976Y-136572582D01*
X119928632Y-143409238D01*
X119928646Y-143409253D01*
X119931757Y-143412364D01*
X119931758Y-143412365D01*
X120087635Y-143568242D01*
X120087638Y-143568244D01*
X120087642Y-143568248D01*
X120249372Y-143685750D01*
X120265978Y-143697815D01*
X120394375Y-143763237D01*
X120462393Y-143797895D01*
X120462396Y-143797896D01*
X120567221Y-143831955D01*
X120672049Y-143866015D01*
X120889778Y-143900501D01*
X120889779Y-143900501D01*
X121115333Y-143900501D01*
X121115357Y-143900500D01*
X137984643Y-143900500D01*
X137984667Y-143900501D01*
X137989778Y-143900501D01*
X138210221Y-143900501D01*
X138210222Y-143900501D01*
X138427951Y-143866015D01*
X138637606Y-143797895D01*
X138834022Y-143697815D01*
X139012365Y-143568242D01*
X139168242Y-143412365D01*
X139168243Y-143412363D01*
X139175303Y-143405303D01*
X139175308Y-143405296D01*
X141701894Y-140878711D01*
X165149500Y-140878711D01*
X165149500Y-141121288D01*
X165181161Y-141361785D01*
X165243947Y-141596104D01*
X165336773Y-141820205D01*
X165336776Y-141820212D01*
X165458064Y-142030289D01*
X165458066Y-142030292D01*
X165458067Y-142030293D01*
X165605733Y-142222736D01*
X165605739Y-142222743D01*
X165777256Y-142394260D01*
X165777262Y-142394265D01*
X165969711Y-142541936D01*
X166179788Y-142663224D01*
X166403900Y-142756054D01*
X166638211Y-142818838D01*
X166818586Y-142842584D01*
X166878711Y-142850500D01*
X166878712Y-142850500D01*
X167121289Y-142850500D01*
X167169388Y-142844167D01*
X167361789Y-142818838D01*
X167596100Y-142756054D01*
X167820212Y-142663224D01*
X168030289Y-142541936D01*
X168222738Y-142394265D01*
X168394265Y-142222738D01*
X168541936Y-142030289D01*
X168663224Y-141820212D01*
X168756054Y-141596100D01*
X168818838Y-141361789D01*
X168850500Y-141121288D01*
X168850500Y-140878712D01*
X168818838Y-140638211D01*
X168756054Y-140403900D01*
X168663224Y-140179788D01*
X168541936Y-139969711D01*
X168394265Y-139777262D01*
X168394260Y-139777256D01*
X168222743Y-139605739D01*
X168222736Y-139605733D01*
X168030293Y-139458067D01*
X168030292Y-139458066D01*
X168030289Y-139458064D01*
X167858661Y-139358974D01*
X167820214Y-139336777D01*
X167820205Y-139336773D01*
X167596104Y-139243947D01*
X167361785Y-139181161D01*
X167121289Y-139149500D01*
X167121288Y-139149500D01*
X166878712Y-139149500D01*
X166878711Y-139149500D01*
X166638214Y-139181161D01*
X166403895Y-139243947D01*
X166179794Y-139336773D01*
X166179785Y-139336777D01*
X165969706Y-139458067D01*
X165777263Y-139605733D01*
X165777256Y-139605739D01*
X165605739Y-139777256D01*
X165605733Y-139777263D01*
X165458067Y-139969706D01*
X165336777Y-140179785D01*
X165336773Y-140179794D01*
X165243947Y-140403895D01*
X165181161Y-140638214D01*
X165149500Y-140878711D01*
X141701894Y-140878711D01*
X149068242Y-133512365D01*
X149197815Y-133334022D01*
X149297895Y-133137606D01*
X149366015Y-132927951D01*
X149400500Y-132710222D01*
X149400500Y-132489779D01*
X149400500Y-132489778D01*
X149400500Y-132489773D01*
X149369192Y-132292110D01*
X149366015Y-132272049D01*
X149331955Y-132167222D01*
X149297896Y-132062397D01*
X149297895Y-132062394D01*
X149240627Y-131950000D01*
X149197815Y-131865978D01*
X149068242Y-131687636D01*
X148912364Y-131531758D01*
X148734022Y-131402185D01*
X148537605Y-131302104D01*
X148537602Y-131302103D01*
X148327952Y-131233985D01*
X148110226Y-131199500D01*
X148110221Y-131199500D01*
X147889778Y-131199500D01*
X147817201Y-131210995D01*
X147672047Y-131233985D01*
X147462396Y-131302103D01*
X147462393Y-131302104D01*
X147265974Y-131402187D01*
X147087641Y-131531752D01*
X147087636Y-131531756D01*
X137556213Y-141063181D01*
X137494890Y-141096666D01*
X137468532Y-141099500D01*
X121631468Y-141099500D01*
X121564429Y-141079815D01*
X121543787Y-141063181D01*
X119628450Y-139147844D01*
X121530000Y-139147844D01*
X121536401Y-139207372D01*
X121536403Y-139207379D01*
X121586645Y-139342086D01*
X121586649Y-139342093D01*
X121672809Y-139457187D01*
X121672812Y-139457190D01*
X121787906Y-139543350D01*
X121787913Y-139543354D01*
X121922620Y-139593596D01*
X121922627Y-139593598D01*
X121982155Y-139599999D01*
X121982172Y-139600000D01*
X122530000Y-139600000D01*
X122530000Y-138600000D01*
X121530000Y-138600000D01*
X121530000Y-139147844D01*
X119628450Y-139147844D01*
X118621362Y-138140756D01*
X122480000Y-138140756D01*
X122480000Y-138259244D01*
X122510667Y-138373694D01*
X122569910Y-138476306D01*
X122653694Y-138560090D01*
X122756306Y-138619333D01*
X122870756Y-138650000D01*
X122989244Y-138650000D01*
X123103694Y-138619333D01*
X123206306Y-138560090D01*
X123290090Y-138476306D01*
X123330000Y-138407179D01*
X123330000Y-139600000D01*
X123877828Y-139600000D01*
X123877844Y-139599999D01*
X123937372Y-139593598D01*
X123937379Y-139593596D01*
X124072086Y-139543354D01*
X124072093Y-139543350D01*
X124187187Y-139457190D01*
X124187190Y-139457187D01*
X124273350Y-139342093D01*
X124273354Y-139342086D01*
X124323596Y-139207379D01*
X124326431Y-139181015D01*
X124353168Y-139116463D01*
X124410560Y-139076614D01*
X124480385Y-139074119D01*
X124537402Y-139106587D01*
X124622786Y-139191971D01*
X124777749Y-139304556D01*
X124788390Y-139312287D01*
X124899434Y-139368867D01*
X124970776Y-139405218D01*
X124970778Y-139405218D01*
X124970781Y-139405220D01*
X125075137Y-139439127D01*
X125165465Y-139468477D01*
X125258668Y-139483239D01*
X125367648Y-139500500D01*
X125367649Y-139500500D01*
X125572351Y-139500500D01*
X125572352Y-139500500D01*
X125774534Y-139468477D01*
X125969219Y-139405220D01*
X126151610Y-139312287D01*
X126277535Y-139220798D01*
X126317213Y-139191971D01*
X126317215Y-139191968D01*
X126317219Y-139191966D01*
X126461966Y-139047219D01*
X126461968Y-139047215D01*
X126461971Y-139047213D01*
X126582284Y-138881614D01*
X126582283Y-138881614D01*
X126582287Y-138881610D01*
X126665546Y-138718204D01*
X126713521Y-138667409D01*
X126776031Y-138650500D01*
X129519176Y-138650500D01*
X129586215Y-138670185D01*
X129629661Y-138718205D01*
X129691132Y-138838848D01*
X129839201Y-139042649D01*
X129839205Y-139042654D01*
X130017345Y-139220794D01*
X130017350Y-139220798D01*
X130195117Y-139349952D01*
X130221155Y-139368870D01*
X130364184Y-139441747D01*
X130445616Y-139483239D01*
X130445618Y-139483239D01*
X130445621Y-139483241D01*
X130685215Y-139561090D01*
X130934038Y-139600500D01*
X130934039Y-139600500D01*
X131185961Y-139600500D01*
X131185962Y-139600500D01*
X131434785Y-139561090D01*
X131674379Y-139483241D01*
X131898845Y-139368870D01*
X132102656Y-139220793D01*
X132280793Y-139042656D01*
X132428870Y-138838845D01*
X132543241Y-138614379D01*
X132621090Y-138374785D01*
X132660500Y-138125962D01*
X132660500Y-137874038D01*
X132621090Y-137625215D01*
X132543241Y-137385621D01*
X132543239Y-137385618D01*
X132543239Y-137385616D01*
X132476553Y-137254738D01*
X132428870Y-137161155D01*
X132386070Y-137102246D01*
X132280798Y-136957350D01*
X132280794Y-136957345D01*
X132102654Y-136779205D01*
X132102649Y-136779201D01*
X131898848Y-136631132D01*
X131898847Y-136631131D01*
X131898845Y-136631130D01*
X131828747Y-136595413D01*
X131674383Y-136516760D01*
X131434785Y-136438910D01*
X131185962Y-136399500D01*
X130934038Y-136399500D01*
X130809626Y-136419205D01*
X130685214Y-136438910D01*
X130445616Y-136516760D01*
X130221151Y-136631132D01*
X130017350Y-136779201D01*
X130017345Y-136779205D01*
X129839205Y-136957345D01*
X129839201Y-136957350D01*
X129691132Y-137161151D01*
X129629661Y-137281795D01*
X129581686Y-137332591D01*
X129519176Y-137349500D01*
X126510047Y-137349500D01*
X126443008Y-137329815D01*
X126422366Y-137313181D01*
X126317217Y-137208032D01*
X126317212Y-137208028D01*
X126171615Y-137102246D01*
X126128949Y-137046916D01*
X126120500Y-137001928D01*
X126120500Y-136805928D01*
X126095502Y-136680261D01*
X126095501Y-136680260D01*
X126095501Y-136680256D01*
X126046465Y-136561873D01*
X126016321Y-136516759D01*
X126016320Y-136516757D01*
X126016319Y-136516755D01*
X125975278Y-136455332D01*
X125975272Y-136455325D01*
X124686819Y-135166872D01*
X124653334Y-135105549D01*
X124650500Y-135079191D01*
X124650500Y-134490857D01*
X124670185Y-134423818D01*
X124701618Y-134390537D01*
X124716928Y-134379414D01*
X124839414Y-134256928D01*
X124941232Y-134116788D01*
X125019873Y-133962445D01*
X125073402Y-133797701D01*
X125100500Y-133626611D01*
X125100500Y-133453389D01*
X125073402Y-133282299D01*
X125019873Y-133117555D01*
X124941232Y-132963212D01*
X124839414Y-132823072D01*
X124716928Y-132700586D01*
X124576788Y-132598768D01*
X124422447Y-132520128D01*
X124422446Y-132520127D01*
X124422445Y-132520127D01*
X124257701Y-132466598D01*
X124257699Y-132466597D01*
X124257698Y-132466597D01*
X124126271Y-132445781D01*
X124086611Y-132439500D01*
X123913389Y-132439500D01*
X123873728Y-132445781D01*
X123742302Y-132466597D01*
X123577552Y-132520128D01*
X123423211Y-132598768D01*
X123343256Y-132656859D01*
X123283072Y-132700586D01*
X123283070Y-132700588D01*
X123283069Y-132700588D01*
X123160588Y-132823069D01*
X123160588Y-132823070D01*
X123160586Y-132823072D01*
X123116859Y-132883256D01*
X123058768Y-132963211D01*
X122980128Y-133117552D01*
X122980127Y-133117554D01*
X122980127Y-133117555D01*
X122964321Y-133166201D01*
X122926597Y-133282302D01*
X122920324Y-133321911D01*
X122899500Y-133453389D01*
X122899500Y-133626611D01*
X122926598Y-133797701D01*
X122980127Y-133962445D01*
X123058768Y-134116788D01*
X123160586Y-134256928D01*
X123160588Y-134256930D01*
X123283070Y-134379412D01*
X123283076Y-134379417D01*
X123298382Y-134390537D01*
X123341050Y-134445866D01*
X123349500Y-134490857D01*
X123349500Y-135464069D01*
X123349500Y-135464071D01*
X123349499Y-135464071D01*
X123374497Y-135589738D01*
X123374499Y-135589744D01*
X123423535Y-135708127D01*
X123494723Y-135814669D01*
X123494726Y-135814673D01*
X123494727Y-135814674D01*
X124673783Y-136993729D01*
X124679494Y-137004189D01*
X124688697Y-137011766D01*
X124695931Y-137034291D01*
X124707268Y-137055052D01*
X124706417Y-137066939D01*
X124710063Y-137078289D01*
X124703971Y-137101148D01*
X124702284Y-137124744D01*
X124694689Y-137135981D01*
X124692072Y-137145803D01*
X124676966Y-137162204D01*
X124669638Y-137173049D01*
X124664549Y-137177687D01*
X124622781Y-137208034D01*
X124535383Y-137295431D01*
X124533257Y-137297370D01*
X124504324Y-137311474D01*
X124476078Y-137326897D01*
X124473119Y-137326685D01*
X124470452Y-137327986D01*
X124438491Y-137324208D01*
X124406387Y-137321913D01*
X124404010Y-137320134D01*
X124401065Y-137319786D01*
X124376224Y-137299333D01*
X124350453Y-137280041D01*
X124349331Y-137277191D01*
X124347126Y-137275375D01*
X124340497Y-137254738D01*
X124326431Y-137218985D01*
X124323596Y-137192620D01*
X124273354Y-137057913D01*
X124273350Y-137057906D01*
X124187190Y-136942812D01*
X124187187Y-136942809D01*
X124072093Y-136856649D01*
X124072086Y-136856645D01*
X123937379Y-136806403D01*
X123937372Y-136806401D01*
X123877844Y-136800000D01*
X123330000Y-136800000D01*
X123330000Y-137992820D01*
X123290090Y-137923694D01*
X123206306Y-137839910D01*
X123103694Y-137780667D01*
X122989244Y-137750000D01*
X122870756Y-137750000D01*
X122756306Y-137780667D01*
X122653694Y-137839910D01*
X122569910Y-137923694D01*
X122510667Y-138026306D01*
X122480000Y-138140756D01*
X118621362Y-138140756D01*
X117732761Y-137252155D01*
X121530000Y-137252155D01*
X121530000Y-137800000D01*
X122530000Y-137800000D01*
X122530000Y-136800000D01*
X121982155Y-136800000D01*
X121922627Y-136806401D01*
X121922620Y-136806403D01*
X121787913Y-136856645D01*
X121787906Y-136856649D01*
X121672812Y-136942809D01*
X121672809Y-136942812D01*
X121586649Y-137057906D01*
X121586645Y-137057913D01*
X121536403Y-137192620D01*
X121536401Y-137192627D01*
X121530000Y-137252155D01*
X117732761Y-137252155D01*
X115436819Y-134956213D01*
X115403334Y-134894890D01*
X115400500Y-134868532D01*
X115400500Y-132489778D01*
X115387928Y-132410402D01*
X115366015Y-132272049D01*
X115297895Y-132062395D01*
X115297895Y-132062393D01*
X115241020Y-131950772D01*
X115197815Y-131865978D01*
X115181260Y-131843192D01*
X115068247Y-131687641D01*
X115068243Y-131687636D01*
X114912363Y-131531756D01*
X114912358Y-131531752D01*
X114734025Y-131402187D01*
X114734024Y-131402186D01*
X114734022Y-131402185D01*
X114671096Y-131370122D01*
X114537606Y-131302104D01*
X114537603Y-131302103D01*
X114327952Y-131233985D01*
X114219086Y-131216742D01*
X114110222Y-131199500D01*
X113889778Y-131199500D01*
X113817201Y-131210995D01*
X113672047Y-131233985D01*
X113462396Y-131302103D01*
X113462393Y-131302104D01*
X113265974Y-131402187D01*
X113087641Y-131531752D01*
X113087636Y-131531756D01*
X112931756Y-131687636D01*
X112931752Y-131687641D01*
X112802187Y-131865974D01*
X112702104Y-132062393D01*
X112702103Y-132062396D01*
X112633985Y-132272047D01*
X112599500Y-132489778D01*
X112599500Y-135385362D01*
X112599499Y-135385377D01*
X99445228Y-135385377D01*
X100793788Y-134036819D01*
X100855111Y-134003334D01*
X100881469Y-134000500D01*
X104110221Y-134000500D01*
X104110222Y-134000500D01*
X104327951Y-133966015D01*
X104537606Y-133897895D01*
X104734022Y-133797815D01*
X104768014Y-133773117D01*
X104807718Y-133744273D01*
X104912358Y-133668247D01*
X104912356Y-133668247D01*
X104912365Y-133668242D01*
X105068242Y-133512365D01*
X105197815Y-133334022D01*
X105297895Y-133137606D01*
X105366015Y-132927951D01*
X105400500Y-132710222D01*
X105400500Y-132489778D01*
X105399570Y-132483909D01*
X107525000Y-132483909D01*
X107525000Y-132716090D01*
X107561318Y-132945393D01*
X107633065Y-133166205D01*
X107712402Y-133321911D01*
X108353367Y-132680946D01*
X108374979Y-132789598D01*
X108423978Y-132907890D01*
X108495112Y-133014351D01*
X108585649Y-133104888D01*
X108692110Y-133176022D01*
X108810402Y-133225021D01*
X108919052Y-133246632D01*
X108278086Y-133887596D01*
X108433799Y-133966936D01*
X108654606Y-134038681D01*
X108883910Y-134075000D01*
X109116090Y-134075000D01*
X109345393Y-134038681D01*
X109566201Y-133966936D01*
X109566204Y-133966935D01*
X109721912Y-133887596D01*
X109080947Y-133246632D01*
X109189598Y-133225021D01*
X109307890Y-133176022D01*
X109414351Y-133104888D01*
X109504888Y-133014351D01*
X109576022Y-132907890D01*
X109625021Y-132789598D01*
X109646632Y-132680948D01*
X110287596Y-133321912D01*
X110366935Y-133166204D01*
X110366936Y-133166201D01*
X110438681Y-132945393D01*
X110475000Y-132716090D01*
X110475000Y-132483909D01*
X110438681Y-132254606D01*
X110366936Y-132033799D01*
X110287596Y-131878086D01*
X109646632Y-132519051D01*
X109625021Y-132410402D01*
X109576022Y-132292110D01*
X109504888Y-132185649D01*
X109414351Y-132095112D01*
X109307890Y-132023978D01*
X109189598Y-131974979D01*
X109080946Y-131953366D01*
X109721911Y-131312402D01*
X109566205Y-131233065D01*
X109345393Y-131161318D01*
X109116090Y-131125000D01*
X108883910Y-131125000D01*
X108654606Y-131161318D01*
X108433794Y-131233065D01*
X108278087Y-131312402D01*
X108919052Y-131953367D01*
X108810402Y-131974979D01*
X108692110Y-132023978D01*
X108585649Y-132095112D01*
X108495112Y-132185649D01*
X108423978Y-132292110D01*
X108374979Y-132410402D01*
X108353367Y-132519052D01*
X107712402Y-131878087D01*
X107633065Y-132033794D01*
X107561318Y-132254606D01*
X107525000Y-132483909D01*
X105399570Y-132483909D01*
X105366015Y-132272049D01*
X105297895Y-132062395D01*
X105297895Y-132062393D01*
X105241020Y-131950772D01*
X105197815Y-131865978D01*
X105181260Y-131843192D01*
X105068247Y-131687641D01*
X105068243Y-131687636D01*
X104912359Y-131531752D01*
X104807715Y-131455725D01*
X104734025Y-131402187D01*
X104734024Y-131402186D01*
X104734022Y-131402185D01*
X104671096Y-131370122D01*
X104537606Y-131302104D01*
X104537603Y-131302103D01*
X104327952Y-131233985D01*
X104219086Y-131216742D01*
X104110222Y-131199500D01*
X100360221Y-131199500D01*
X100139778Y-131199500D01*
X100067201Y-131210995D01*
X99922047Y-131233985D01*
X99712396Y-131302103D01*
X99712393Y-131302104D01*
X99515974Y-131402187D01*
X99337641Y-131531752D01*
X99337636Y-131531756D01*
X97080004Y-133789388D01*
X97030642Y-133819638D01*
X96885616Y-133866760D01*
X96661151Y-133981132D01*
X96457350Y-134129201D01*
X96457345Y-134129205D01*
X96279205Y-134307345D01*
X96279201Y-134307350D01*
X96131132Y-134511151D01*
X96016760Y-134735616D01*
X95938910Y-134975214D01*
X95908554Y-135166872D01*
X95899500Y-135224038D01*
X91500500Y-135224038D01*
X91500500Y-129543136D01*
X123482548Y-129543136D01*
X123539359Y-129572084D01*
X123539362Y-129572085D01*
X123718997Y-129630452D01*
X123905553Y-129660000D01*
X124094447Y-129660000D01*
X124281001Y-129630452D01*
X124460637Y-129572084D01*
X124517451Y-129543136D01*
X124000001Y-129025686D01*
X124000000Y-129025686D01*
X123482548Y-129543136D01*
X91500500Y-129543136D01*
X91500500Y-128365552D01*
X122800000Y-128365552D01*
X122800000Y-128554447D01*
X122829547Y-128741002D01*
X122887915Y-128920639D01*
X122916861Y-128977451D01*
X122916862Y-128977451D01*
X123434314Y-128460000D01*
X123434314Y-128459999D01*
X123388237Y-128413922D01*
X123650000Y-128413922D01*
X123650000Y-128506078D01*
X123673852Y-128595095D01*
X123719930Y-128674905D01*
X123785095Y-128740070D01*
X123864905Y-128786148D01*
X123953922Y-128810000D01*
X124046078Y-128810000D01*
X124135095Y-128786148D01*
X124214905Y-128740070D01*
X124280070Y-128674905D01*
X124326148Y-128595095D01*
X124350000Y-128506078D01*
X124350000Y-128459999D01*
X124565686Y-128459999D01*
X124565686Y-128460000D01*
X125083136Y-128977451D01*
X125112084Y-128920637D01*
X125170452Y-128741001D01*
X125200000Y-128554447D01*
X125200000Y-128365552D01*
X125170452Y-128178997D01*
X125112085Y-127999362D01*
X125112084Y-127999359D01*
X125083136Y-127942548D01*
X124565686Y-128459999D01*
X124350000Y-128459999D01*
X124350000Y-128413922D01*
X124326148Y-128324905D01*
X124280070Y-128245095D01*
X124214905Y-128179930D01*
X124135095Y-128133852D01*
X124046078Y-128110000D01*
X123953922Y-128110000D01*
X123864905Y-128133852D01*
X123785095Y-128179930D01*
X123719930Y-128245095D01*
X123673852Y-128324905D01*
X123650000Y-128413922D01*
X123388237Y-128413922D01*
X122916862Y-127942547D01*
X122887915Y-127999362D01*
X122887914Y-127999364D01*
X122829547Y-128178997D01*
X122800000Y-128365552D01*
X91500500Y-128365552D01*
X91500500Y-127376862D01*
X123482547Y-127376862D01*
X124000000Y-127894314D01*
X124000001Y-127894314D01*
X124517451Y-127376862D01*
X124517451Y-127376861D01*
X124460639Y-127347915D01*
X124281002Y-127289547D01*
X124094447Y-127260000D01*
X123905553Y-127260000D01*
X123718997Y-127289547D01*
X123539364Y-127347914D01*
X123539362Y-127347915D01*
X123482547Y-127376862D01*
X91500500Y-127376862D01*
X91500500Y-107874071D01*
X95400000Y-107874071D01*
X95400000Y-108125928D01*
X95439397Y-108374669D01*
X95517219Y-108614184D01*
X95517220Y-108614187D01*
X95619464Y-108814849D01*
X96400000Y-108034313D01*
X96400000Y-108078991D01*
X96440889Y-108231591D01*
X96519881Y-108368408D01*
X96631592Y-108480119D01*
X96768409Y-108559111D01*
X96921009Y-108600000D01*
X96965685Y-108600000D01*
X96185148Y-109380534D01*
X96385815Y-109482780D01*
X96625330Y-109560602D01*
X96874072Y-109600000D01*
X97125928Y-109600000D01*
X97374668Y-109560602D01*
X97614184Y-109482779D01*
X97814850Y-109380534D01*
X97034315Y-108600000D01*
X97078991Y-108600000D01*
X97231591Y-108559111D01*
X97368408Y-108480119D01*
X97480119Y-108368408D01*
X97559111Y-108231591D01*
X97600000Y-108078991D01*
X97600000Y-108034316D01*
X98380534Y-108814850D01*
X98482779Y-108614184D01*
X98560602Y-108374668D01*
X98600000Y-108125928D01*
X98600000Y-107874071D01*
X98560602Y-107625330D01*
X98482780Y-107385815D01*
X98380534Y-107185148D01*
X97600000Y-107965683D01*
X97600000Y-107921009D01*
X97559111Y-107768409D01*
X97480119Y-107631592D01*
X97368408Y-107519881D01*
X97231591Y-107440889D01*
X97078991Y-107400000D01*
X97034313Y-107400000D01*
X97814849Y-106619464D01*
X97614187Y-106517220D01*
X97614184Y-106517219D01*
X97374669Y-106439397D01*
X97125928Y-106400000D01*
X96874072Y-106400000D01*
X96625330Y-106439397D01*
X96385815Y-106517219D01*
X96385812Y-106517221D01*
X96185149Y-106619464D01*
X96965685Y-107400000D01*
X96921009Y-107400000D01*
X96768409Y-107440889D01*
X96631592Y-107519881D01*
X96519881Y-107631592D01*
X96440889Y-107768409D01*
X96400000Y-107921009D01*
X96400000Y-107965685D01*
X95619464Y-107185149D01*
X95517221Y-107385812D01*
X95517219Y-107385815D01*
X95439397Y-107625330D01*
X95400000Y-107874071D01*
X91500500Y-107874071D01*
X91500500Y-86868475D01*
X95499500Y-86868475D01*
X95499500Y-89131517D01*
X95499943Y-89134312D01*
X95514354Y-89225304D01*
X95571950Y-89338342D01*
X95571952Y-89338344D01*
X95571954Y-89338347D01*
X95661652Y-89428045D01*
X95661654Y-89428046D01*
X95661658Y-89428050D01*
X95774696Y-89485646D01*
X95774698Y-89485647D01*
X95868475Y-89500499D01*
X95868481Y-89500500D01*
X96468531Y-89500499D01*
X96535570Y-89520183D01*
X96556212Y-89536818D01*
X101813181Y-94793787D01*
X101846666Y-94855110D01*
X101849500Y-94881468D01*
X101849500Y-121125500D01*
X101829815Y-121192539D01*
X101777011Y-121238294D01*
X101725500Y-121249500D01*
X98306538Y-121249500D01*
X98250243Y-121235985D01*
X98114383Y-121166760D01*
X97874785Y-121088910D01*
X97817362Y-121079815D01*
X97625962Y-121049500D01*
X97374038Y-121049500D01*
X97249626Y-121069205D01*
X97125214Y-121088910D01*
X96885616Y-121166760D01*
X96661151Y-121281132D01*
X96457350Y-121429201D01*
X96457345Y-121429205D01*
X96279205Y-121607345D01*
X96279201Y-121607350D01*
X96131132Y-121811151D01*
X96016760Y-122035616D01*
X95938910Y-122275214D01*
X95899500Y-122524038D01*
X95899500Y-122775961D01*
X95938910Y-123024785D01*
X96016760Y-123264383D01*
X96051005Y-123331591D01*
X96102346Y-123432354D01*
X96131132Y-123488848D01*
X96279201Y-123692649D01*
X96279205Y-123692654D01*
X96457345Y-123870794D01*
X96457350Y-123870798D01*
X96568937Y-123951870D01*
X96661155Y-124018870D01*
X96804184Y-124091747D01*
X96885616Y-124133239D01*
X96885618Y-124133239D01*
X96885621Y-124133241D01*
X97125215Y-124211090D01*
X97374038Y-124250500D01*
X97374039Y-124250500D01*
X97625961Y-124250500D01*
X97625962Y-124250500D01*
X97874785Y-124211090D01*
X98114379Y-124133241D01*
X98250243Y-124064014D01*
X98306538Y-124050500D01*
X102524951Y-124050500D01*
X102572403Y-124059938D01*
X102702219Y-124113710D01*
X102917537Y-124171404D01*
X103138543Y-124200500D01*
X103138550Y-124200500D01*
X103361450Y-124200500D01*
X103361457Y-124200500D01*
X103582463Y-124171404D01*
X103797781Y-124113710D01*
X104003726Y-124028405D01*
X104196774Y-123916948D01*
X104373624Y-123781247D01*
X104531247Y-123623624D01*
X104666948Y-123446774D01*
X104778405Y-123253726D01*
X104863710Y-123047781D01*
X104921404Y-122832463D01*
X104950500Y-122611457D01*
X104950500Y-122388543D01*
X104921404Y-122167537D01*
X104863710Y-121952219D01*
X104778405Y-121746274D01*
X104778403Y-121746271D01*
X104778401Y-121746266D01*
X104667113Y-121553511D01*
X104662962Y-121538022D01*
X104655523Y-121526446D01*
X104650500Y-121491511D01*
X104650500Y-121384298D01*
X114249500Y-121384298D01*
X114249500Y-123615701D01*
X114252401Y-123652567D01*
X114252402Y-123652573D01*
X114298254Y-123810393D01*
X114298255Y-123810396D01*
X114381917Y-123951862D01*
X114381923Y-123951870D01*
X114498129Y-124068076D01*
X114498133Y-124068079D01*
X114498135Y-124068081D01*
X114639602Y-124151744D01*
X114681224Y-124163836D01*
X114797426Y-124197597D01*
X114797429Y-124197597D01*
X114797431Y-124197598D01*
X114834306Y-124200500D01*
X114834314Y-124200500D01*
X117065686Y-124200500D01*
X117065694Y-124200500D01*
X117102569Y-124197598D01*
X117102571Y-124197597D01*
X117102573Y-124197597D01*
X117144191Y-124185505D01*
X117260398Y-124151744D01*
X117401865Y-124068081D01*
X117518081Y-123951865D01*
X117518083Y-123951862D01*
X117520691Y-123948501D01*
X117523408Y-123946538D01*
X117523598Y-123946349D01*
X117523628Y-123946379D01*
X117577333Y-123907593D01*
X117618671Y-123900500D01*
X133475500Y-123900500D01*
X133542539Y-123920185D01*
X133588294Y-123972989D01*
X133599500Y-124024500D01*
X133599500Y-124873533D01*
X133602401Y-124910399D01*
X133602402Y-124910405D01*
X133648254Y-125068225D01*
X133648255Y-125068228D01*
X133731917Y-125209694D01*
X133731923Y-125209702D01*
X133848129Y-125325908D01*
X133848133Y-125325911D01*
X133848135Y-125325913D01*
X133989602Y-125409576D01*
X134031224Y-125421668D01*
X134147426Y-125455429D01*
X134147429Y-125455429D01*
X134147431Y-125455430D01*
X134184306Y-125458332D01*
X134615500Y-125458332D01*
X134682539Y-125478017D01*
X134728294Y-125530821D01*
X134739500Y-125582332D01*
X134739500Y-137193461D01*
X134725985Y-137249755D01*
X134656761Y-137385613D01*
X134578910Y-137625214D01*
X134539500Y-137874038D01*
X134539500Y-138125961D01*
X134578910Y-138374785D01*
X134656760Y-138614383D01*
X134771132Y-138838848D01*
X134919201Y-139042649D01*
X134919205Y-139042654D01*
X135097345Y-139220794D01*
X135097350Y-139220798D01*
X135275117Y-139349952D01*
X135301155Y-139368870D01*
X135444184Y-139441747D01*
X135525616Y-139483239D01*
X135525618Y-139483239D01*
X135525621Y-139483241D01*
X135765215Y-139561090D01*
X136014038Y-139600500D01*
X136014039Y-139600500D01*
X136265961Y-139600500D01*
X136265962Y-139600500D01*
X136514785Y-139561090D01*
X136754379Y-139483241D01*
X136978845Y-139368870D01*
X137182656Y-139220793D01*
X137360793Y-139042656D01*
X137508870Y-138838845D01*
X137623241Y-138614379D01*
X137701090Y-138374785D01*
X137740500Y-138125962D01*
X137740500Y-137874038D01*
X137701090Y-137625215D01*
X137623241Y-137385621D01*
X137623239Y-137385618D01*
X137623238Y-137385613D01*
X137554015Y-137249755D01*
X137540500Y-137193461D01*
X137540500Y-125582332D01*
X137560185Y-125515293D01*
X137612989Y-125469538D01*
X137664500Y-125458332D01*
X137815686Y-125458332D01*
X137815694Y-125458332D01*
X137852569Y-125455430D01*
X137852571Y-125455429D01*
X137852573Y-125455429D01*
X137894191Y-125443337D01*
X138010398Y-125409576D01*
X138151865Y-125325913D01*
X138268081Y-125209697D01*
X138351744Y-125068230D01*
X138397598Y-124910401D01*
X138400500Y-124873526D01*
X138400500Y-124582332D01*
X138420185Y-124515293D01*
X138472989Y-124469538D01*
X138524500Y-124458332D01*
X151475500Y-124458332D01*
X151542539Y-124478017D01*
X151588294Y-124530821D01*
X151599500Y-124582332D01*
X151599500Y-131950772D01*
X151593431Y-131989090D01*
X151533985Y-132172047D01*
X151499499Y-132389779D01*
X151499499Y-132610220D01*
X151533985Y-132827952D01*
X151602103Y-133037603D01*
X151602104Y-133037606D01*
X151667630Y-133166205D01*
X151702185Y-133234022D01*
X151831758Y-133412364D01*
X151931756Y-133512362D01*
X151931758Y-133512365D01*
X152029523Y-133610130D01*
X152029525Y-133610132D01*
X152087636Y-133668243D01*
X152087641Y-133668247D01*
X152192283Y-133744273D01*
X152265978Y-133797815D01*
X152394375Y-133863237D01*
X152462393Y-133897895D01*
X152462396Y-133897896D01*
X152567221Y-133931955D01*
X152672049Y-133966015D01*
X152889778Y-134000500D01*
X152889779Y-134000500D01*
X153110221Y-134000500D01*
X153110222Y-134000500D01*
X153327951Y-133966015D01*
X153537606Y-133897895D01*
X153734022Y-133797815D01*
X153912365Y-133668242D01*
X154068242Y-133512365D01*
X154197815Y-133334022D01*
X154297895Y-133137606D01*
X154366015Y-132927951D01*
X154400500Y-132710222D01*
X154400500Y-123680900D01*
X154406569Y-123642582D01*
X154412729Y-123623624D01*
X154461090Y-123474785D01*
X154500500Y-123225962D01*
X154500500Y-122974038D01*
X154461090Y-122725215D01*
X154383241Y-122485621D01*
X154383239Y-122485618D01*
X154383239Y-122485616D01*
X154312356Y-122346502D01*
X154268870Y-122261155D01*
X154200851Y-122167534D01*
X154120798Y-122057350D01*
X154120794Y-122057345D01*
X154120728Y-122057279D01*
X154108090Y-122042482D01*
X154103105Y-122035621D01*
X154098010Y-122028608D01*
X154068245Y-121987638D01*
X153912363Y-121831756D01*
X153912358Y-121831752D01*
X153734025Y-121702187D01*
X153734024Y-121702186D01*
X153734022Y-121702185D01*
X153645994Y-121657332D01*
X153537606Y-121602104D01*
X153537603Y-121602103D01*
X153327952Y-121533985D01*
X153219086Y-121516742D01*
X153110222Y-121499500D01*
X153025962Y-121499500D01*
X152774038Y-121499500D01*
X152649626Y-121519205D01*
X152525214Y-121538910D01*
X152285616Y-121616760D01*
X152232517Y-121643817D01*
X152176222Y-121657332D01*
X138524500Y-121657332D01*
X138457461Y-121637647D01*
X138411706Y-121584843D01*
X138400500Y-121533332D01*
X138400500Y-121242145D01*
X138400499Y-121242130D01*
X138400015Y-121235985D01*
X138397598Y-121205263D01*
X138393901Y-121192539D01*
X138351745Y-121047438D01*
X138351744Y-121047435D01*
X138351744Y-121047434D01*
X138268081Y-120905967D01*
X138268079Y-120905965D01*
X138268076Y-120905961D01*
X138151870Y-120789755D01*
X138151862Y-120789749D01*
X138010396Y-120706087D01*
X138010393Y-120706086D01*
X137852573Y-120660234D01*
X137852567Y-120660233D01*
X137815701Y-120657332D01*
X137815694Y-120657332D01*
X134184306Y-120657332D01*
X134184298Y-120657332D01*
X134147432Y-120660233D01*
X134147426Y-120660234D01*
X133989606Y-120706086D01*
X133989603Y-120706087D01*
X133848137Y-120789749D01*
X133848129Y-120789755D01*
X133731923Y-120905961D01*
X133731917Y-120905969D01*
X133653468Y-121038621D01*
X133602399Y-121086304D01*
X133546736Y-121099500D01*
X117618671Y-121099500D01*
X117551632Y-121079815D01*
X117520691Y-121051499D01*
X117518080Y-121048133D01*
X117401870Y-120931923D01*
X117401862Y-120931917D01*
X117260396Y-120848255D01*
X117260393Y-120848254D01*
X117102573Y-120802402D01*
X117102567Y-120802401D01*
X117065701Y-120799500D01*
X117065694Y-120799500D01*
X114834306Y-120799500D01*
X114834298Y-120799500D01*
X114797432Y-120802401D01*
X114797426Y-120802402D01*
X114639606Y-120848254D01*
X114639603Y-120848255D01*
X114498137Y-120931917D01*
X114498129Y-120931923D01*
X114381923Y-121048129D01*
X114381917Y-121048137D01*
X114298255Y-121189603D01*
X114298254Y-121189606D01*
X114252402Y-121347426D01*
X114252401Y-121347432D01*
X114249500Y-121384298D01*
X104650500Y-121384298D01*
X104650500Y-112917430D01*
X133500000Y-112917430D01*
X133500000Y-113198233D01*
X133531437Y-113477244D01*
X133531439Y-113477256D01*
X133593921Y-113751010D01*
X133593922Y-113751012D01*
X133686662Y-114016049D01*
X133808492Y-114269032D01*
X133957886Y-114506792D01*
X133970072Y-114522073D01*
X135068947Y-113423198D01*
X135113811Y-113531510D01*
X135223249Y-113695295D01*
X135362537Y-113834583D01*
X135526322Y-113944021D01*
X135634632Y-113988884D01*
X134535758Y-115087758D01*
X134535758Y-115087759D01*
X134551033Y-115099940D01*
X134788799Y-115249339D01*
X135041782Y-115371169D01*
X135306819Y-115463909D01*
X135306821Y-115463910D01*
X135580575Y-115526392D01*
X135580587Y-115526394D01*
X135859598Y-115557831D01*
X135859600Y-115557832D01*
X136140400Y-115557832D01*
X136140401Y-115557831D01*
X136419412Y-115526394D01*
X136419424Y-115526392D01*
X136693178Y-115463910D01*
X136693180Y-115463909D01*
X136958217Y-115371169D01*
X137211200Y-115249339D01*
X137448957Y-115099947D01*
X137464240Y-115087759D01*
X137464241Y-115087758D01*
X136365366Y-113988884D01*
X136473678Y-113944021D01*
X136637463Y-113834583D01*
X136776751Y-113695295D01*
X136886189Y-113531510D01*
X136931052Y-113423198D01*
X138029926Y-114522073D01*
X138029927Y-114522072D01*
X138042115Y-114506789D01*
X138191507Y-114269032D01*
X138313337Y-114016049D01*
X138406077Y-113751012D01*
X138406079Y-113751006D01*
X138468047Y-113479507D01*
X138468047Y-113479506D01*
X138468049Y-113479497D01*
X138468561Y-113477250D01*
X138468562Y-113477244D01*
X138499999Y-113198233D01*
X138500000Y-113198231D01*
X138500000Y-112917432D01*
X138499999Y-112917430D01*
X138468562Y-112638419D01*
X138468560Y-112638407D01*
X138406078Y-112364653D01*
X138406077Y-112364651D01*
X138313337Y-112099614D01*
X138283819Y-112038319D01*
X138283818Y-112038317D01*
X138259864Y-111988575D01*
X152800000Y-111988575D01*
X152800000Y-112211424D01*
X152829085Y-112432354D01*
X152829088Y-112432367D01*
X152886763Y-112647618D01*
X152972045Y-112853502D01*
X152972050Y-112853513D01*
X153048458Y-112985855D01*
X153048459Y-112985856D01*
X153900000Y-112134315D01*
X153900000Y-112178991D01*
X153940889Y-112331591D01*
X154019881Y-112468408D01*
X154131592Y-112580119D01*
X154268409Y-112659111D01*
X154421009Y-112700000D01*
X154465685Y-112700000D01*
X153614143Y-113551540D01*
X153614143Y-113551541D01*
X153746487Y-113627950D01*
X153746488Y-113627951D01*
X153952381Y-113713236D01*
X154167632Y-113770911D01*
X154167645Y-113770914D01*
X154388575Y-113800000D01*
X154611425Y-113800000D01*
X154832354Y-113770914D01*
X154832367Y-113770911D01*
X155047618Y-113713236D01*
X155253503Y-113627954D01*
X155253514Y-113627949D01*
X155385856Y-113551541D01*
X155385856Y-113551540D01*
X154534315Y-112700000D01*
X154578991Y-112700000D01*
X154731591Y-112659111D01*
X154868408Y-112580119D01*
X154980119Y-112468408D01*
X155059111Y-112331591D01*
X155100000Y-112178991D01*
X155100000Y-112134316D01*
X155951540Y-112985856D01*
X155951541Y-112985856D01*
X156027949Y-112853514D01*
X156027954Y-112853503D01*
X156113236Y-112647618D01*
X156170911Y-112432367D01*
X156170914Y-112432354D01*
X156200000Y-112211424D01*
X156200000Y-111988575D01*
X156170914Y-111767645D01*
X156170911Y-111767632D01*
X156113236Y-111552381D01*
X156027951Y-111346488D01*
X156027950Y-111346487D01*
X155951541Y-111214143D01*
X155951540Y-111214143D01*
X155100000Y-112065683D01*
X155100000Y-112021009D01*
X155059111Y-111868409D01*
X154980119Y-111731592D01*
X154868408Y-111619881D01*
X154731591Y-111540889D01*
X154578991Y-111500000D01*
X154534313Y-111500000D01*
X155385855Y-110648458D01*
X155253513Y-110572050D01*
X155253502Y-110572045D01*
X155047618Y-110486763D01*
X154832367Y-110429088D01*
X154832354Y-110429085D01*
X154611425Y-110400000D01*
X154388575Y-110400000D01*
X154167645Y-110429085D01*
X154167632Y-110429088D01*
X153952381Y-110486763D01*
X153746502Y-110572041D01*
X153746497Y-110572044D01*
X153614143Y-110648458D01*
X153614142Y-110648458D01*
X154465685Y-111500000D01*
X154421009Y-111500000D01*
X154268409Y-111540889D01*
X154131592Y-111619881D01*
X154019881Y-111731592D01*
X153940889Y-111868409D01*
X153900000Y-112021009D01*
X153900000Y-112065684D01*
X153048458Y-111214142D01*
X153048458Y-111214143D01*
X152972044Y-111346497D01*
X152972041Y-111346502D01*
X152886763Y-111552381D01*
X152829088Y-111767632D01*
X152829085Y-111767645D01*
X152800000Y-111988575D01*
X138259864Y-111988575D01*
X138191509Y-111846634D01*
X138042108Y-111608865D01*
X138029927Y-111593590D01*
X138029926Y-111593590D01*
X136931052Y-112692464D01*
X136886189Y-112584154D01*
X136776751Y-112420369D01*
X136637463Y-112281081D01*
X136473678Y-112171643D01*
X136365367Y-112126779D01*
X137464241Y-111027904D01*
X137448960Y-111015718D01*
X137211200Y-110866324D01*
X137083070Y-110804620D01*
X137083068Y-110804618D01*
X136958222Y-110744496D01*
X136958218Y-110744494D01*
X136693180Y-110651754D01*
X136693178Y-110651753D01*
X136419424Y-110589271D01*
X136419412Y-110589269D01*
X136140401Y-110557832D01*
X135859598Y-110557832D01*
X135580587Y-110589269D01*
X135580575Y-110589271D01*
X135306821Y-110651753D01*
X135306819Y-110651754D01*
X135041782Y-110744494D01*
X134788799Y-110866324D01*
X134551041Y-111015717D01*
X134535758Y-111027904D01*
X134535757Y-111027904D01*
X135634633Y-112126779D01*
X135526322Y-112171643D01*
X135362537Y-112281081D01*
X135223249Y-112420369D01*
X135113811Y-112584154D01*
X135068947Y-112692464D01*
X133970072Y-111593589D01*
X133970072Y-111593590D01*
X133957885Y-111608873D01*
X133808492Y-111846631D01*
X133686662Y-112099614D01*
X133593922Y-112364651D01*
X133593921Y-112364653D01*
X133531439Y-112638407D01*
X133531437Y-112638419D01*
X133500000Y-112917430D01*
X104650500Y-112917430D01*
X104650500Y-94365357D01*
X104650501Y-94365332D01*
X104650501Y-94139779D01*
X104648075Y-94124464D01*
X104616015Y-93922049D01*
X104616014Y-93922045D01*
X104616014Y-93922044D01*
X104571951Y-93786433D01*
X104571951Y-93786432D01*
X104547897Y-93712399D01*
X104547895Y-93712393D01*
X104481493Y-93582075D01*
X104447815Y-93515978D01*
X104421676Y-93480000D01*
X104318248Y-93337642D01*
X104318244Y-93337638D01*
X104318242Y-93337635D01*
X104162365Y-93181758D01*
X104162364Y-93181757D01*
X104159253Y-93178646D01*
X104159238Y-93178632D01*
X98536818Y-87556212D01*
X98503333Y-87494889D01*
X98500499Y-87468531D01*
X98500499Y-86868482D01*
X98500498Y-86868475D01*
X98485646Y-86774696D01*
X98428050Y-86661658D01*
X98428046Y-86661654D01*
X98428045Y-86661652D01*
X98338347Y-86571954D01*
X98338344Y-86571952D01*
X98338342Y-86571950D01*
X98261517Y-86532805D01*
X98225301Y-86514352D01*
X98131524Y-86499500D01*
X95868482Y-86499500D01*
X95787519Y-86512323D01*
X95774696Y-86514354D01*
X95661658Y-86571950D01*
X95661657Y-86571951D01*
X95661652Y-86571954D01*
X95571954Y-86661652D01*
X95571951Y-86661657D01*
X95571950Y-86661658D01*
X95560359Y-86684406D01*
X95514352Y-86774698D01*
X95499500Y-86868475D01*
X91500500Y-86868475D01*
X91500500Y-77715513D01*
X100719500Y-77715513D01*
X100719500Y-77904486D01*
X100749059Y-78091118D01*
X100807454Y-78270836D01*
X100893240Y-78439199D01*
X100995819Y-78580386D01*
X101019298Y-78646189D01*
X101019500Y-78653269D01*
X101019500Y-84608696D01*
X101052085Y-84772511D01*
X101054105Y-84782666D01*
X101088046Y-84864606D01*
X101121987Y-84946547D01*
X101163638Y-85008882D01*
X101167266Y-85014312D01*
X101167271Y-85014321D01*
X101220532Y-85094031D01*
X101220538Y-85094039D01*
X116063181Y-99936680D01*
X116096666Y-99998003D01*
X116099500Y-100024361D01*
X116099500Y-101736350D01*
X116079815Y-101803389D01*
X116048388Y-101836666D01*
X116022493Y-101855480D01*
X116022487Y-101855485D01*
X115855485Y-102022487D01*
X115855485Y-102022488D01*
X115855483Y-102022490D01*
X115833718Y-102052447D01*
X115716657Y-102213566D01*
X115609433Y-102424003D01*
X115536446Y-102648631D01*
X115499500Y-102881902D01*
X115499500Y-103118097D01*
X115536446Y-103351368D01*
X115609433Y-103575996D01*
X115716657Y-103786433D01*
X115855483Y-103977510D01*
X116022490Y-104144517D01*
X116213567Y-104283343D01*
X116277042Y-104315685D01*
X116424003Y-104390566D01*
X116424005Y-104390566D01*
X116424008Y-104390568D01*
X116544412Y-104429689D01*
X116648631Y-104463553D01*
X116881903Y-104500500D01*
X116881908Y-104500500D01*
X117118097Y-104500500D01*
X117351368Y-104463553D01*
X117575992Y-104390568D01*
X117786433Y-104283343D01*
X117977510Y-104144517D01*
X118144517Y-103977510D01*
X118283343Y-103786433D01*
X118390568Y-103575992D01*
X118463553Y-103351368D01*
X118471752Y-103299602D01*
X118500500Y-103118097D01*
X118500500Y-102881902D01*
X118463553Y-102648631D01*
X118390566Y-102424003D01*
X118283342Y-102213566D01*
X118144517Y-102022490D01*
X117977510Y-101855483D01*
X117977506Y-101855480D01*
X117951612Y-101836666D01*
X117908948Y-101781335D01*
X117900500Y-101736350D01*
X117900500Y-99511309D01*
X117892184Y-99469498D01*
X117892184Y-99469497D01*
X117865896Y-99337341D01*
X117865895Y-99337334D01*
X117800339Y-99179071D01*
X117798695Y-99174474D01*
X117699465Y-99025966D01*
X117698713Y-99025214D01*
X117574035Y-98900536D01*
X110268741Y-91595242D01*
X102856819Y-84183319D01*
X102823334Y-84121996D01*
X102820500Y-84095638D01*
X102820500Y-78653269D01*
X102840185Y-78586230D01*
X102844160Y-78580413D01*
X102946760Y-78439199D01*
X103032547Y-78270832D01*
X103090940Y-78091118D01*
X103111309Y-77962512D01*
X103120500Y-77904486D01*
X103120500Y-77715513D01*
X105799500Y-77715513D01*
X105799500Y-77904486D01*
X105829059Y-78091118D01*
X105887454Y-78270836D01*
X105973240Y-78439199D01*
X106075819Y-78580386D01*
X106099298Y-78646189D01*
X106099500Y-78653269D01*
X106099500Y-83888696D01*
X106134103Y-84062659D01*
X106134104Y-84062665D01*
X106134105Y-84062666D01*
X106146858Y-84093453D01*
X106201987Y-84226547D01*
X106226505Y-84263240D01*
X106231485Y-84270694D01*
X106231487Y-84270697D01*
X106300537Y-84374038D01*
X106300538Y-84374039D01*
X115625961Y-93699461D01*
X115625965Y-93699464D01*
X115669381Y-93728474D01*
X115710973Y-93775277D01*
X115716657Y-93786433D01*
X115855483Y-93977510D01*
X116022490Y-94144517D01*
X116213567Y-94283343D01*
X116312991Y-94334002D01*
X116424003Y-94390566D01*
X116424005Y-94390566D01*
X116424008Y-94390568D01*
X116544412Y-94429689D01*
X116648631Y-94463553D01*
X116881903Y-94500500D01*
X116881908Y-94500500D01*
X117118097Y-94500500D01*
X117351368Y-94463553D01*
X117575992Y-94390568D01*
X117786433Y-94283343D01*
X117977510Y-94144517D01*
X118144517Y-93977510D01*
X118283343Y-93786433D01*
X118390568Y-93575992D01*
X118463553Y-93351368D01*
X118477892Y-93260836D01*
X118500500Y-93118097D01*
X118500500Y-92881902D01*
X118463553Y-92648631D01*
X118428419Y-92540500D01*
X118390568Y-92424008D01*
X118390566Y-92424005D01*
X118390566Y-92424003D01*
X118311039Y-92267924D01*
X118283343Y-92213567D01*
X118144517Y-92022490D01*
X117977510Y-91855483D01*
X117786433Y-91716657D01*
X117721669Y-91683658D01*
X117575996Y-91609433D01*
X117351368Y-91536446D01*
X117118097Y-91499500D01*
X117118092Y-91499500D01*
X116881908Y-91499500D01*
X116881903Y-91499500D01*
X116648631Y-91536446D01*
X116424000Y-91609434D01*
X116278328Y-91683658D01*
X116209659Y-91696554D01*
X116144919Y-91670277D01*
X116134353Y-91660854D01*
X107936819Y-83463319D01*
X107903334Y-83401996D01*
X107900500Y-83375638D01*
X107900500Y-78653269D01*
X107920185Y-78586230D01*
X107924160Y-78580413D01*
X108026760Y-78439199D01*
X108112547Y-78270832D01*
X108170940Y-78091118D01*
X108191309Y-77962512D01*
X108200500Y-77904486D01*
X108200500Y-77715513D01*
X108170940Y-77528881D01*
X108112545Y-77349163D01*
X108026759Y-77180800D01*
X108023654Y-77176526D01*
X107915690Y-77027927D01*
X107782073Y-76894310D01*
X107629199Y-76783240D01*
X107460836Y-76697454D01*
X107281118Y-76639059D01*
X107094486Y-76609500D01*
X107094481Y-76609500D01*
X106905519Y-76609500D01*
X106905514Y-76609500D01*
X106718881Y-76639059D01*
X106539163Y-76697454D01*
X106370800Y-76783240D01*
X106283579Y-76846610D01*
X106217927Y-76894310D01*
X106217925Y-76894312D01*
X106217924Y-76894312D01*
X106084312Y-77027924D01*
X106084312Y-77027925D01*
X106084310Y-77027927D01*
X106051242Y-77073441D01*
X105973240Y-77180800D01*
X105887454Y-77349163D01*
X105829059Y-77528881D01*
X105799500Y-77715513D01*
X103120500Y-77715513D01*
X103090940Y-77528881D01*
X103032545Y-77349163D01*
X102946759Y-77180800D01*
X102943654Y-77176526D01*
X102835690Y-77027927D01*
X102702073Y-76894310D01*
X102549199Y-76783240D01*
X102380836Y-76697454D01*
X102201118Y-76639059D01*
X102014486Y-76609500D01*
X102014481Y-76609500D01*
X101825519Y-76609500D01*
X101825514Y-76609500D01*
X101638881Y-76639059D01*
X101459163Y-76697454D01*
X101290800Y-76783240D01*
X101203579Y-76846610D01*
X101137927Y-76894310D01*
X101137925Y-76894312D01*
X101137924Y-76894312D01*
X101004312Y-77027924D01*
X101004312Y-77027925D01*
X101004310Y-77027927D01*
X100971242Y-77073441D01*
X100893240Y-77180800D01*
X100807454Y-77349163D01*
X100749059Y-77528881D01*
X100719500Y-77715513D01*
X91500500Y-77715513D01*
X91500500Y-68878711D01*
X93149500Y-68878711D01*
X93149500Y-69121288D01*
X93181161Y-69361785D01*
X93243947Y-69596104D01*
X93275557Y-69672417D01*
X93336776Y-69820212D01*
X93458064Y-70030289D01*
X93458066Y-70030292D01*
X93458067Y-70030293D01*
X93605733Y-70222736D01*
X93605739Y-70222743D01*
X93777256Y-70394260D01*
X93777263Y-70394266D01*
X93815023Y-70423240D01*
X93969711Y-70541936D01*
X94179788Y-70663224D01*
X94311853Y-70717927D01*
X94402685Y-70755551D01*
X94403900Y-70756054D01*
X94638211Y-70818838D01*
X94818586Y-70842584D01*
X94878711Y-70850500D01*
X94878712Y-70850500D01*
X95121289Y-70850500D01*
X95169388Y-70844167D01*
X95361789Y-70818838D01*
X95596100Y-70756054D01*
X95820212Y-70663224D01*
X95947040Y-70590000D01*
X100683067Y-70590000D01*
X100715244Y-70689029D01*
X100808140Y-70871349D01*
X100928417Y-71036894D01*
X100928417Y-71036895D01*
X101073104Y-71181582D01*
X101238650Y-71301859D01*
X101420970Y-71394755D01*
X101519999Y-71426932D01*
X101520000Y-71426932D01*
X102320000Y-71426932D01*
X102419029Y-71394755D01*
X102601349Y-71301859D01*
X102766894Y-71181582D01*
X102766895Y-71181582D01*
X102911582Y-71036895D01*
X102911582Y-71036894D01*
X103031859Y-70871349D01*
X103124755Y-70689029D01*
X103156933Y-70590000D01*
X102320000Y-70590000D01*
X102320000Y-71426932D01*
X101520000Y-71426932D01*
X101520000Y-70590000D01*
X100683067Y-70590000D01*
X95947040Y-70590000D01*
X96030289Y-70541936D01*
X96134918Y-70461652D01*
X96186715Y-70421906D01*
X96222738Y-70394265D01*
X96394265Y-70222738D01*
X96459794Y-70137339D01*
X101520000Y-70137339D01*
X101520000Y-70242661D01*
X101547259Y-70344394D01*
X101599920Y-70435606D01*
X101674394Y-70510080D01*
X101765606Y-70562741D01*
X101867339Y-70590000D01*
X101972661Y-70590000D01*
X102074394Y-70562741D01*
X102165606Y-70510080D01*
X102240080Y-70435606D01*
X102292741Y-70344394D01*
X102320000Y-70242661D01*
X102320000Y-70137339D01*
X102292741Y-70035606D01*
X102240080Y-69944394D01*
X102165606Y-69869920D01*
X102074394Y-69817259D01*
X101972661Y-69790000D01*
X102320000Y-69790000D01*
X103156933Y-69790000D01*
X103156932Y-69789999D01*
X103124755Y-69690970D01*
X103031857Y-69508647D01*
X102972172Y-69426497D01*
X102972170Y-69426495D01*
X102922750Y-69358475D01*
X105799500Y-69358475D01*
X105799500Y-71021517D01*
X105803994Y-71049890D01*
X105814354Y-71115304D01*
X105871950Y-71228342D01*
X105871952Y-71228344D01*
X105871954Y-71228347D01*
X105961652Y-71318045D01*
X105961654Y-71318046D01*
X105961658Y-71318050D01*
X106074694Y-71375645D01*
X106074698Y-71375647D01*
X106168475Y-71390499D01*
X106168481Y-71390500D01*
X107831518Y-71390499D01*
X107925304Y-71375646D01*
X108038342Y-71318050D01*
X108128050Y-71228342D01*
X108163787Y-71158203D01*
X108211761Y-71107409D01*
X108274271Y-71090500D01*
X109365638Y-71090500D01*
X109432677Y-71110185D01*
X109453319Y-71126819D01*
X112274698Y-73948197D01*
X115024495Y-76697994D01*
X115109741Y-76783240D01*
X115149925Y-76823424D01*
X115297405Y-76921968D01*
X115297418Y-76921975D01*
X115420322Y-76972882D01*
X115461293Y-76989853D01*
X115503894Y-76998327D01*
X115635264Y-77024459D01*
X115635267Y-77024459D01*
X115635268Y-77024459D01*
X118075809Y-77024459D01*
X118142848Y-77044144D01*
X118188603Y-77096948D01*
X118199427Y-77138730D01*
X118202401Y-77176526D01*
X118202402Y-77176532D01*
X118248253Y-77334351D01*
X118248255Y-77334354D01*
X118331917Y-77475820D01*
X118331923Y-77475828D01*
X118448130Y-77592035D01*
X118448134Y-77592038D01*
X118448136Y-77592040D01*
X118589603Y-77675703D01*
X118589604Y-77675703D01*
X118589607Y-77675705D01*
X118747426Y-77721556D01*
X118747429Y-77721556D01*
X118747431Y-77721557D01*
X118784306Y-77724459D01*
X118784314Y-77724459D01*
X120815686Y-77724459D01*
X120815694Y-77724459D01*
X120852569Y-77721557D01*
X120852571Y-77721556D01*
X120852573Y-77721556D01*
X121010392Y-77675705D01*
X121010393Y-77675704D01*
X121010397Y-77675703D01*
X121151864Y-77592040D01*
X121268081Y-77475823D01*
X121351744Y-77334356D01*
X121351745Y-77334352D01*
X121351746Y-77334351D01*
X121397597Y-77176532D01*
X121397598Y-77176526D01*
X121400573Y-77138730D01*
X121425457Y-77073441D01*
X121481688Y-77031971D01*
X121524191Y-77024459D01*
X123699597Y-77024459D01*
X123766636Y-77044144D01*
X123787278Y-77060778D01*
X126762191Y-80035690D01*
X129490536Y-82764035D01*
X129615965Y-82889464D01*
X129615966Y-82889465D01*
X129763446Y-82988009D01*
X129763459Y-82988016D01*
X129886363Y-83038923D01*
X129927334Y-83055894D01*
X129927336Y-83055894D01*
X129927341Y-83055896D01*
X130101304Y-83090499D01*
X130101307Y-83090500D01*
X130101309Y-83090500D01*
X133033001Y-83090500D01*
X133100040Y-83110185D01*
X133145795Y-83162989D01*
X133157001Y-83214500D01*
X133157001Y-83221518D01*
X133171854Y-83315304D01*
X133229450Y-83428342D01*
X133229452Y-83428344D01*
X133229454Y-83428347D01*
X133319152Y-83518045D01*
X133319154Y-83518046D01*
X133319158Y-83518050D01*
X133429739Y-83574394D01*
X133432198Y-83575647D01*
X133525976Y-83590500D01*
X133530832Y-83590882D01*
X133530740Y-83592044D01*
X133592516Y-83610168D01*
X133638283Y-83662962D01*
X133649500Y-83714499D01*
X133649500Y-84391375D01*
X133629815Y-84458414D01*
X133613181Y-84479056D01*
X133584312Y-84507924D01*
X133584312Y-84507925D01*
X133584310Y-84507927D01*
X133536610Y-84573579D01*
X133473240Y-84660800D01*
X133387454Y-84829163D01*
X133329059Y-85008881D01*
X133299500Y-85195513D01*
X133299500Y-85384486D01*
X133329059Y-85571118D01*
X133387454Y-85750836D01*
X133454184Y-85881800D01*
X133473240Y-85919199D01*
X133584310Y-86072073D01*
X133717927Y-86205690D01*
X133870801Y-86316760D01*
X133944833Y-86354481D01*
X134039163Y-86402545D01*
X134039165Y-86402545D01*
X134039168Y-86402547D01*
X134135497Y-86433846D01*
X134218881Y-86460940D01*
X134405514Y-86490500D01*
X134405519Y-86490500D01*
X134594486Y-86490500D01*
X134781118Y-86460940D01*
X134800932Y-86454502D01*
X134960832Y-86402547D01*
X135129199Y-86316760D01*
X135282073Y-86205690D01*
X135415690Y-86072073D01*
X135526760Y-85919199D01*
X135583679Y-85807487D01*
X135631653Y-85756692D01*
X135699474Y-85739896D01*
X135765609Y-85762433D01*
X135804649Y-85807488D01*
X135842512Y-85881801D01*
X136434314Y-85290000D01*
X136434314Y-85289999D01*
X135842512Y-84698197D01*
X135804649Y-84772510D01*
X135756675Y-84823307D01*
X135688854Y-84840102D01*
X135622719Y-84817565D01*
X135583679Y-84772511D01*
X135559121Y-84724314D01*
X135526760Y-84660801D01*
X135415690Y-84507927D01*
X135282073Y-84374310D01*
X135228260Y-84335212D01*
X135152942Y-84280490D01*
X135152939Y-84280488D01*
X135129199Y-84263240D01*
X135016595Y-84205865D01*
X135014966Y-84204974D01*
X134991520Y-84181482D01*
X134967409Y-84158710D01*
X134966894Y-84156806D01*
X134965610Y-84155520D01*
X134961855Y-84138180D01*
X134960322Y-84132512D01*
X136408197Y-84132512D01*
X137000000Y-84724314D01*
X137000001Y-84724314D01*
X137591801Y-84132512D01*
X137499034Y-84085246D01*
X137499027Y-84085243D01*
X137304417Y-84022009D01*
X137102317Y-83990000D01*
X136897683Y-83990000D01*
X136695581Y-84022010D01*
X136695578Y-84022010D01*
X136500974Y-84085242D01*
X136500973Y-84085242D01*
X136408197Y-84132512D01*
X134960322Y-84132512D01*
X134950500Y-84096200D01*
X134950500Y-83714499D01*
X134970185Y-83647460D01*
X135022989Y-83601705D01*
X135074500Y-83590499D01*
X135494017Y-83590499D01*
X135494018Y-83590499D01*
X135587804Y-83575646D01*
X135700842Y-83518050D01*
X135790550Y-83428342D01*
X135846784Y-83317976D01*
X135894756Y-83267183D01*
X135962577Y-83250388D01*
X136028712Y-83272925D01*
X136044948Y-83286593D01*
X136103757Y-83345402D01*
X136288723Y-83479788D01*
X136492433Y-83583583D01*
X136492436Y-83583585D01*
X136649999Y-83634779D01*
X136650000Y-83634779D01*
X136650000Y-82567818D01*
X136712292Y-82630110D01*
X136837708Y-82702518D01*
X136977591Y-82740000D01*
X137122409Y-82740000D01*
X137262292Y-82702518D01*
X137387708Y-82630110D01*
X137450000Y-82567818D01*
X137450000Y-83634779D01*
X137607563Y-83583585D01*
X137607566Y-83583583D01*
X137811276Y-83479788D01*
X137996242Y-83345402D01*
X138157902Y-83183742D01*
X138157907Y-83183736D01*
X138281175Y-83014072D01*
X138336504Y-82971406D01*
X138406118Y-82965427D01*
X138467913Y-82998032D01*
X138481810Y-83014070D01*
X138557989Y-83118921D01*
X138708579Y-83269511D01*
X138779412Y-83320974D01*
X138884815Y-83397554D01*
X138884096Y-83398543D01*
X138927162Y-83446137D01*
X138939500Y-83500060D01*
X138939500Y-84186473D01*
X138919815Y-84253512D01*
X138888386Y-84286791D01*
X138767925Y-84374311D01*
X138634312Y-84507924D01*
X138634312Y-84507925D01*
X138634310Y-84507927D01*
X138586610Y-84573579D01*
X138523240Y-84660800D01*
X138438850Y-84826424D01*
X138390875Y-84877220D01*
X138323054Y-84894015D01*
X138256919Y-84871477D01*
X138213468Y-84816762D01*
X138210433Y-84808446D01*
X138204753Y-84790966D01*
X138157485Y-84698198D01*
X137320080Y-85535605D01*
X137372741Y-85444394D01*
X137400000Y-85342661D01*
X137400000Y-85237339D01*
X137372741Y-85135606D01*
X137320080Y-85044394D01*
X137245606Y-84969920D01*
X137154394Y-84917259D01*
X137052661Y-84890000D01*
X136947339Y-84890000D01*
X136845606Y-84917259D01*
X136754394Y-84969920D01*
X136679920Y-85044394D01*
X136627259Y-85135606D01*
X136600000Y-85237339D01*
X136600000Y-85342661D01*
X136627259Y-85444394D01*
X136679920Y-85535606D01*
X136754394Y-85610080D01*
X136845606Y-85662741D01*
X136947339Y-85690000D01*
X137052661Y-85690000D01*
X137154394Y-85662741D01*
X137245606Y-85610080D01*
X136408198Y-86447485D01*
X136500968Y-86494755D01*
X136695582Y-86557990D01*
X136897683Y-86590000D01*
X137030692Y-86590000D01*
X137051937Y-86596238D01*
X137074026Y-86597818D01*
X137084809Y-86605890D01*
X137097731Y-86609685D01*
X137112230Y-86626418D01*
X137129959Y-86639690D01*
X137134666Y-86652310D01*
X137143486Y-86662489D01*
X137146637Y-86684406D01*
X137154376Y-86705154D01*
X137151513Y-86718314D01*
X137153430Y-86731647D01*
X137144230Y-86751790D01*
X137139524Y-86773427D01*
X137126255Y-86791152D01*
X137124405Y-86795203D01*
X137118373Y-86801681D01*
X137006873Y-86913181D01*
X136945550Y-86946666D01*
X136919192Y-86949500D01*
X130670929Y-86949500D01*
X130545261Y-86974497D01*
X130545255Y-86974499D01*
X130426875Y-87023533D01*
X130426866Y-87023538D01*
X130320331Y-87094723D01*
X130320327Y-87094726D01*
X128584788Y-88830265D01*
X128523465Y-88863750D01*
X128477709Y-88865057D01*
X128379486Y-88849500D01*
X128379481Y-88849500D01*
X128190519Y-88849500D01*
X128190514Y-88849500D01*
X128003881Y-88879059D01*
X127824163Y-88937454D01*
X127655800Y-89023240D01*
X127576139Y-89081118D01*
X127502927Y-89134310D01*
X127502925Y-89134312D01*
X127502924Y-89134312D01*
X127369312Y-89267924D01*
X127369312Y-89267925D01*
X127369310Y-89267927D01*
X127321610Y-89333579D01*
X127258240Y-89420800D01*
X127172454Y-89589163D01*
X127114059Y-89768881D01*
X127084500Y-89955513D01*
X127084500Y-90144486D01*
X127114059Y-90331118D01*
X127172454Y-90510836D01*
X127253337Y-90669576D01*
X127258240Y-90679199D01*
X127369310Y-90832073D01*
X127369312Y-90832075D01*
X127502930Y-90965693D01*
X127568384Y-91013247D01*
X127611051Y-91068577D01*
X127619500Y-91113566D01*
X127619500Y-91975534D01*
X127599815Y-92042573D01*
X127568387Y-92075851D01*
X127487927Y-92134309D01*
X127354312Y-92267924D01*
X127354312Y-92267925D01*
X127354310Y-92267927D01*
X127306610Y-92333579D01*
X127243240Y-92420800D01*
X127157454Y-92589163D01*
X127099059Y-92768881D01*
X127069500Y-92955513D01*
X127069500Y-93144486D01*
X127099059Y-93331118D01*
X127157454Y-93510836D01*
X127228355Y-93649986D01*
X127243240Y-93679199D01*
X127354310Y-93832073D01*
X127487927Y-93965690D01*
X127640801Y-94076760D01*
X127646130Y-94079475D01*
X127809163Y-94162545D01*
X127809165Y-94162545D01*
X127809168Y-94162547D01*
X127900784Y-94192315D01*
X127988881Y-94220940D01*
X128175514Y-94250500D01*
X128175519Y-94250500D01*
X128364486Y-94250500D01*
X128551118Y-94220940D01*
X128730832Y-94162547D01*
X128899199Y-94076760D01*
X129052073Y-93965690D01*
X129185690Y-93832073D01*
X129296760Y-93679199D01*
X129382547Y-93510832D01*
X129422069Y-93389195D01*
X129461507Y-93331521D01*
X129525866Y-93304323D01*
X129594712Y-93316238D01*
X129646188Y-93363482D01*
X129657931Y-93389196D01*
X129697454Y-93510836D01*
X129768355Y-93649986D01*
X129783240Y-93679199D01*
X129894310Y-93832073D01*
X130027927Y-93965690D01*
X130180801Y-94076760D01*
X130186130Y-94079475D01*
X130349163Y-94162545D01*
X130349165Y-94162545D01*
X130349168Y-94162547D01*
X130440784Y-94192315D01*
X130528881Y-94220940D01*
X130715514Y-94250500D01*
X130715519Y-94250500D01*
X130904486Y-94250500D01*
X131091118Y-94220940D01*
X131270832Y-94162547D01*
X131439199Y-94076760D01*
X131592073Y-93965690D01*
X131725690Y-93832073D01*
X131836760Y-93679199D01*
X131922547Y-93510832D01*
X131962069Y-93389195D01*
X132001507Y-93331521D01*
X132065866Y-93304323D01*
X132134712Y-93316238D01*
X132186188Y-93363482D01*
X132197931Y-93389196D01*
X132237454Y-93510836D01*
X132308355Y-93649986D01*
X132323240Y-93679199D01*
X132434310Y-93832073D01*
X132434312Y-93832075D01*
X132567930Y-93965693D01*
X132648384Y-94024145D01*
X132691051Y-94079475D01*
X132699500Y-94124464D01*
X132699500Y-96229191D01*
X132679815Y-96296230D01*
X132663181Y-96316872D01*
X130304727Y-98675325D01*
X130304726Y-98675326D01*
X130242471Y-98768500D01*
X130233533Y-98781876D01*
X130184499Y-98900255D01*
X130184497Y-98900261D01*
X130159500Y-99025928D01*
X130159500Y-99595534D01*
X130139815Y-99662573D01*
X130108387Y-99695851D01*
X130027927Y-99754309D01*
X129894312Y-99887924D01*
X129894312Y-99887925D01*
X129894310Y-99887927D01*
X129858889Y-99936680D01*
X129783240Y-100040800D01*
X129697454Y-100209163D01*
X129657931Y-100330803D01*
X129618493Y-100388478D01*
X129554134Y-100415676D01*
X129485288Y-100403761D01*
X129433812Y-100356516D01*
X129422069Y-100330803D01*
X129411649Y-100298734D01*
X129382547Y-100209168D01*
X129382545Y-100209165D01*
X129382545Y-100209163D01*
X129296759Y-100040800D01*
X129185690Y-99887927D01*
X129052073Y-99754310D01*
X128899199Y-99643240D01*
X128880766Y-99633848D01*
X128730836Y-99557454D01*
X128551118Y-99499059D01*
X128364486Y-99469500D01*
X128364481Y-99469500D01*
X128175519Y-99469500D01*
X128175514Y-99469500D01*
X127988881Y-99499059D01*
X127809163Y-99557454D01*
X127640800Y-99643240D01*
X127553579Y-99706610D01*
X127487927Y-99754310D01*
X127487925Y-99754312D01*
X127487924Y-99754312D01*
X127354312Y-99887924D01*
X127354312Y-99887925D01*
X127354310Y-99887927D01*
X127318889Y-99936680D01*
X127243240Y-100040800D01*
X127157454Y-100209163D01*
X127099059Y-100388881D01*
X127069500Y-100575513D01*
X127069500Y-100764486D01*
X127099059Y-100951118D01*
X127157454Y-101130836D01*
X127229885Y-101272988D01*
X127243240Y-101299199D01*
X127345819Y-101440386D01*
X127369298Y-101506189D01*
X127369500Y-101513269D01*
X127369500Y-102675534D01*
X127349815Y-102742573D01*
X127318387Y-102775851D01*
X127237927Y-102834309D01*
X127104312Y-102967924D01*
X127104312Y-102967925D01*
X127104310Y-102967927D01*
X127056610Y-103033579D01*
X126993240Y-103120800D01*
X126907454Y-103289163D01*
X126849059Y-103468881D01*
X126819500Y-103655513D01*
X126819500Y-103844486D01*
X126849059Y-104031118D01*
X126907454Y-104210836D01*
X126960878Y-104315685D01*
X126993240Y-104379199D01*
X127104310Y-104532073D01*
X127237927Y-104665690D01*
X127390801Y-104776760D01*
X127470347Y-104817290D01*
X127559163Y-104862545D01*
X127559165Y-104862545D01*
X127559168Y-104862547D01*
X127655497Y-104893846D01*
X127738881Y-104920940D01*
X127925514Y-104950500D01*
X127925519Y-104950500D01*
X128114486Y-104950500D01*
X128301118Y-104920940D01*
X128302801Y-104920393D01*
X128342528Y-104907485D01*
X129928198Y-104907485D01*
X130020968Y-104954755D01*
X130215582Y-105017990D01*
X130417683Y-105050000D01*
X130622317Y-105050000D01*
X130824417Y-105017990D01*
X131019031Y-104954755D01*
X131111801Y-104907485D01*
X130520001Y-104315685D01*
X130520000Y-104315685D01*
X129928198Y-104907485D01*
X128342528Y-104907485D01*
X128480832Y-104862547D01*
X128649199Y-104776760D01*
X128802073Y-104665690D01*
X128935690Y-104532073D01*
X129046760Y-104379199D01*
X129103679Y-104267487D01*
X129151653Y-104216692D01*
X129219474Y-104199896D01*
X129285609Y-104222433D01*
X129324649Y-104267488D01*
X129362512Y-104341801D01*
X129954314Y-103750000D01*
X129954314Y-103749999D01*
X129901654Y-103697339D01*
X130120000Y-103697339D01*
X130120000Y-103802661D01*
X130147259Y-103904394D01*
X130199920Y-103995606D01*
X130274394Y-104070080D01*
X130365606Y-104122741D01*
X130467339Y-104150000D01*
X130572661Y-104150000D01*
X130674394Y-104122741D01*
X130765606Y-104070080D01*
X130840080Y-103995606D01*
X130892741Y-103904394D01*
X130920000Y-103802661D01*
X130920000Y-103749999D01*
X131085685Y-103749999D01*
X131085685Y-103750000D01*
X131677485Y-104341800D01*
X131724755Y-104249031D01*
X131787990Y-104054417D01*
X131820000Y-103852317D01*
X131820000Y-103647682D01*
X131787990Y-103445582D01*
X131724755Y-103250968D01*
X131677485Y-103158198D01*
X131085685Y-103749999D01*
X130920000Y-103749999D01*
X130920000Y-103697339D01*
X130892741Y-103595606D01*
X130840080Y-103504394D01*
X130765606Y-103429920D01*
X130674394Y-103377259D01*
X130572661Y-103350000D01*
X130467339Y-103350000D01*
X130365606Y-103377259D01*
X130274394Y-103429920D01*
X130199920Y-103504394D01*
X130147259Y-103595606D01*
X130120000Y-103697339D01*
X129901654Y-103697339D01*
X129362512Y-103158197D01*
X129324649Y-103232510D01*
X129276675Y-103283307D01*
X129208854Y-103300102D01*
X129142719Y-103277565D01*
X129103679Y-103232511D01*
X129079121Y-103184314D01*
X129046760Y-103120801D01*
X128935690Y-102967927D01*
X128802073Y-102834310D01*
X128802072Y-102834309D01*
X128721613Y-102775851D01*
X128718272Y-102771519D01*
X128713297Y-102769247D01*
X128697167Y-102744149D01*
X128678948Y-102720521D01*
X128677695Y-102713848D01*
X128675523Y-102710469D01*
X128670500Y-102675534D01*
X128670500Y-102592512D01*
X129928197Y-102592512D01*
X130520000Y-103184314D01*
X130520001Y-103184314D01*
X131111801Y-102592512D01*
X131019034Y-102545246D01*
X131019027Y-102545243D01*
X130824417Y-102482009D01*
X130622317Y-102450000D01*
X130417683Y-102450000D01*
X130215581Y-102482010D01*
X130215578Y-102482010D01*
X130020974Y-102545242D01*
X130020973Y-102545242D01*
X129928197Y-102592512D01*
X128670500Y-102592512D01*
X128670500Y-101889275D01*
X128690185Y-101822236D01*
X128738204Y-101778790D01*
X128899199Y-101696760D01*
X129052073Y-101585690D01*
X129185690Y-101452073D01*
X129296760Y-101299199D01*
X129382547Y-101130832D01*
X129422069Y-101009195D01*
X129461507Y-100951521D01*
X129525866Y-100924323D01*
X129594712Y-100936238D01*
X129646188Y-100983482D01*
X129657931Y-101009196D01*
X129697454Y-101130836D01*
X129769885Y-101272988D01*
X129783240Y-101299199D01*
X129894310Y-101452073D01*
X130027927Y-101585690D01*
X130180801Y-101696760D01*
X130219759Y-101716610D01*
X130349163Y-101782545D01*
X130349165Y-101782545D01*
X130349168Y-101782547D01*
X130413313Y-101803389D01*
X130528881Y-101840940D01*
X130715514Y-101870500D01*
X130715519Y-101870500D01*
X130904486Y-101870500D01*
X131091118Y-101840940D01*
X131104272Y-101836666D01*
X131270832Y-101782547D01*
X131439199Y-101696760D01*
X131592073Y-101585690D01*
X131725690Y-101452073D01*
X131836760Y-101299199D01*
X131922547Y-101130832D01*
X131962069Y-101009195D01*
X132001507Y-100951521D01*
X132065866Y-100924323D01*
X132134712Y-100936238D01*
X132186188Y-100983482D01*
X132197931Y-101009196D01*
X132237454Y-101130836D01*
X132309885Y-101272988D01*
X132323240Y-101299199D01*
X132434310Y-101452073D01*
X132567927Y-101585690D01*
X132720801Y-101696760D01*
X132759759Y-101716610D01*
X132889163Y-101782545D01*
X132889165Y-101782545D01*
X132889168Y-101782547D01*
X132953313Y-101803389D01*
X133068881Y-101840940D01*
X133255514Y-101870500D01*
X133255519Y-101870500D01*
X133444486Y-101870500D01*
X133631118Y-101840940D01*
X133644272Y-101836666D01*
X133810832Y-101782547D01*
X133979199Y-101696760D01*
X134132073Y-101585690D01*
X134265690Y-101452073D01*
X134376760Y-101299199D01*
X134462547Y-101130832D01*
X134502069Y-101009195D01*
X134541507Y-100951521D01*
X134605866Y-100924323D01*
X134674712Y-100936238D01*
X134726188Y-100983482D01*
X134737931Y-101009196D01*
X134777454Y-101130836D01*
X134849885Y-101272988D01*
X134863240Y-101299199D01*
X134974310Y-101452073D01*
X135107927Y-101585690D01*
X135260801Y-101696760D01*
X135299759Y-101716610D01*
X135429163Y-101782545D01*
X135429165Y-101782545D01*
X135429168Y-101782547D01*
X135493313Y-101803389D01*
X135608881Y-101840940D01*
X135795514Y-101870500D01*
X135795519Y-101870500D01*
X135984486Y-101870500D01*
X136171118Y-101840940D01*
X136184272Y-101836666D01*
X136350832Y-101782547D01*
X136519199Y-101696760D01*
X136672073Y-101585690D01*
X136714374Y-101543389D01*
X138289500Y-101543389D01*
X138289500Y-101716610D01*
X138313873Y-101870500D01*
X138316598Y-101887701D01*
X138370127Y-102052445D01*
X138448768Y-102206788D01*
X138550586Y-102346928D01*
X138673072Y-102469414D01*
X138813212Y-102571232D01*
X138967555Y-102649873D01*
X139132299Y-102703402D01*
X139303389Y-102730500D01*
X139303390Y-102730500D01*
X139476604Y-102730500D01*
X139476611Y-102730500D01*
X139495306Y-102727538D01*
X139564594Y-102736490D01*
X139602384Y-102762330D01*
X141455325Y-104615272D01*
X141455332Y-104615278D01*
X141485702Y-104635570D01*
X141561874Y-104686466D01*
X141631221Y-104715189D01*
X141680256Y-104735501D01*
X141680259Y-104735501D01*
X141680260Y-104735502D01*
X141805928Y-104760500D01*
X141805931Y-104760500D01*
X141934069Y-104760500D01*
X144993699Y-104760500D01*
X145060738Y-104780185D01*
X145106493Y-104832989D01*
X145112775Y-104849905D01*
X145133253Y-104920393D01*
X145133255Y-104920396D01*
X145216917Y-105061862D01*
X145216923Y-105061870D01*
X145333129Y-105178076D01*
X145333133Y-105178079D01*
X145333135Y-105178081D01*
X145474602Y-105261744D01*
X145516224Y-105273836D01*
X145632426Y-105307597D01*
X145632429Y-105307597D01*
X145632431Y-105307598D01*
X145669306Y-105310500D01*
X145669314Y-105310500D01*
X146900686Y-105310500D01*
X146900694Y-105310500D01*
X146937569Y-105307598D01*
X146937571Y-105307597D01*
X146937573Y-105307597D01*
X146979191Y-105295505D01*
X147095398Y-105261744D01*
X147236865Y-105178081D01*
X147353081Y-105061865D01*
X147436744Y-104920398D01*
X147482598Y-104762569D01*
X147485500Y-104725694D01*
X147485500Y-103494306D01*
X147482598Y-103457431D01*
X147474605Y-103429920D01*
X147436745Y-103299606D01*
X147436744Y-103299603D01*
X147436744Y-103299602D01*
X147353081Y-103158135D01*
X147353079Y-103158133D01*
X147353076Y-103158129D01*
X147236870Y-103041923D01*
X147236862Y-103041917D01*
X147095396Y-102958255D01*
X147095393Y-102958254D01*
X146937573Y-102912402D01*
X146937567Y-102912401D01*
X146900701Y-102909500D01*
X146900694Y-102909500D01*
X145669306Y-102909500D01*
X145669298Y-102909500D01*
X145632432Y-102912401D01*
X145632426Y-102912402D01*
X145474606Y-102958254D01*
X145474603Y-102958255D01*
X145333137Y-103041917D01*
X145333129Y-103041923D01*
X145216923Y-103158129D01*
X145216917Y-103158137D01*
X145133255Y-103299603D01*
X145133253Y-103299606D01*
X145112775Y-103370095D01*
X145075169Y-103428981D01*
X145011696Y-103458187D01*
X144993699Y-103459500D01*
X142190808Y-103459500D01*
X142123769Y-103439815D01*
X142103127Y-103423181D01*
X140522330Y-101842384D01*
X140488845Y-101781061D01*
X140487538Y-101735310D01*
X140490500Y-101716611D01*
X140490500Y-101543389D01*
X140463402Y-101372299D01*
X140409873Y-101207555D01*
X140331232Y-101053212D01*
X140229414Y-100913072D01*
X140106928Y-100790586D01*
X139966788Y-100688768D01*
X139812445Y-100610127D01*
X139647701Y-100556598D01*
X139647699Y-100556597D01*
X139647698Y-100556597D01*
X139516271Y-100535781D01*
X139476611Y-100529500D01*
X139303389Y-100529500D01*
X139263728Y-100535781D01*
X139132302Y-100556597D01*
X138967552Y-100610128D01*
X138813211Y-100688768D01*
X138733256Y-100746859D01*
X138673072Y-100790586D01*
X138673070Y-100790588D01*
X138673069Y-100790588D01*
X138550588Y-100913069D01*
X138550588Y-100913070D01*
X138550586Y-100913072D01*
X138515699Y-100961090D01*
X138448768Y-101053211D01*
X138370128Y-101207552D01*
X138316597Y-101372302D01*
X138289500Y-101543389D01*
X136714374Y-101543389D01*
X136805690Y-101452073D01*
X136916760Y-101299199D01*
X137002547Y-101130832D01*
X137060940Y-100951118D01*
X137063297Y-100936238D01*
X137090500Y-100764486D01*
X137090500Y-100575513D01*
X137060940Y-100388881D01*
X137042069Y-100330803D01*
X137009905Y-100231816D01*
X137007911Y-100161978D01*
X137043991Y-100102145D01*
X137106691Y-100071316D01*
X137127837Y-100069500D01*
X140108192Y-100069500D01*
X140175231Y-100089185D01*
X140195873Y-100105819D01*
X141648181Y-101558126D01*
X141681666Y-101619449D01*
X141684500Y-101645807D01*
X141684500Y-101716610D01*
X141708873Y-101870500D01*
X141711598Y-101887701D01*
X141765127Y-102052445D01*
X141843768Y-102206788D01*
X141945586Y-102346928D01*
X142068072Y-102469414D01*
X142208212Y-102571232D01*
X142362555Y-102649873D01*
X142527299Y-102703402D01*
X142698389Y-102730500D01*
X142698390Y-102730500D01*
X142871610Y-102730500D01*
X142871611Y-102730500D01*
X143042701Y-102703402D01*
X143207445Y-102649873D01*
X143361788Y-102571232D01*
X143501928Y-102469414D01*
X143624414Y-102346928D01*
X143726232Y-102206788D01*
X143804873Y-102052445D01*
X143858402Y-101887701D01*
X143885500Y-101716611D01*
X143885500Y-101543389D01*
X143858402Y-101372299D01*
X143804873Y-101207555D01*
X143726232Y-101053212D01*
X143624414Y-100913072D01*
X143501928Y-100790586D01*
X143361788Y-100688768D01*
X143207445Y-100610127D01*
X143042701Y-100556598D01*
X143042699Y-100556597D01*
X143042698Y-100556597D01*
X142911271Y-100535781D01*
X142871611Y-100529500D01*
X142698389Y-100529500D01*
X142554518Y-100552286D01*
X142485225Y-100543331D01*
X142447440Y-100517494D01*
X140843674Y-98913727D01*
X140843673Y-98913726D01*
X140823934Y-98900537D01*
X140737127Y-98842535D01*
X140737122Y-98842533D01*
X140618744Y-98793499D01*
X140618738Y-98793497D01*
X140493071Y-98768500D01*
X140493069Y-98768500D01*
X134536931Y-98768500D01*
X134536929Y-98768500D01*
X134411261Y-98793497D01*
X134411255Y-98793499D01*
X134292875Y-98842533D01*
X134292866Y-98842538D01*
X134186331Y-98913723D01*
X134186327Y-98913726D01*
X133649788Y-99450265D01*
X133588465Y-99483750D01*
X133542709Y-99485057D01*
X133444486Y-99469500D01*
X133444481Y-99469500D01*
X133255519Y-99469500D01*
X133255514Y-99469500D01*
X133068881Y-99499059D01*
X132889163Y-99557454D01*
X132720800Y-99643240D01*
X132633579Y-99706610D01*
X132567927Y-99754310D01*
X132567925Y-99754312D01*
X132567924Y-99754312D01*
X132434312Y-99887924D01*
X132434312Y-99887925D01*
X132434310Y-99887927D01*
X132398889Y-99936680D01*
X132323240Y-100040800D01*
X132237454Y-100209163D01*
X132197931Y-100330803D01*
X132158493Y-100388478D01*
X132094134Y-100415676D01*
X132025288Y-100403761D01*
X131973812Y-100356516D01*
X131962069Y-100330803D01*
X131951649Y-100298734D01*
X131922547Y-100209168D01*
X131922545Y-100209165D01*
X131922545Y-100209163D01*
X131836759Y-100040800D01*
X131725690Y-99887927D01*
X131592073Y-99754310D01*
X131592072Y-99754309D01*
X131511613Y-99695851D01*
X131508272Y-99691519D01*
X131503297Y-99689247D01*
X131487167Y-99664149D01*
X131468948Y-99640521D01*
X131467695Y-99633848D01*
X131465523Y-99630469D01*
X131460500Y-99595534D01*
X131460500Y-99410808D01*
X131480185Y-99343769D01*
X131496819Y-99323127D01*
X133583127Y-97236819D01*
X133644450Y-97203334D01*
X133670808Y-97200500D01*
X134115931Y-97200500D01*
X138439142Y-97200500D01*
X138506181Y-97220185D01*
X138539458Y-97251612D01*
X138550586Y-97266928D01*
X138673072Y-97389414D01*
X138813212Y-97491232D01*
X138967555Y-97569873D01*
X139132299Y-97623402D01*
X139303389Y-97650500D01*
X139303390Y-97650500D01*
X139476610Y-97650500D01*
X139476611Y-97650500D01*
X139647701Y-97623402D01*
X139812445Y-97569873D01*
X139966788Y-97491232D01*
X140106928Y-97389414D01*
X140229414Y-97266928D01*
X140240541Y-97251612D01*
X140295872Y-97208948D01*
X140340858Y-97200500D01*
X141834142Y-97200500D01*
X141901181Y-97220185D01*
X141934458Y-97251612D01*
X141945586Y-97266928D01*
X142068072Y-97389414D01*
X142208212Y-97491232D01*
X142362555Y-97569873D01*
X142527299Y-97623402D01*
X142698389Y-97650500D01*
X142698390Y-97650500D01*
X142871610Y-97650500D01*
X142871611Y-97650500D01*
X143042701Y-97623402D01*
X143207445Y-97569873D01*
X143361788Y-97491232D01*
X143501928Y-97389414D01*
X143624414Y-97266928D01*
X143726232Y-97126788D01*
X143804873Y-96972445D01*
X143858402Y-96807701D01*
X143885500Y-96636611D01*
X143885500Y-96463389D01*
X143858402Y-96292299D01*
X143804873Y-96127555D01*
X143726232Y-95973212D01*
X143624414Y-95833072D01*
X143501928Y-95710586D01*
X143361788Y-95608768D01*
X143207445Y-95530127D01*
X143042701Y-95476598D01*
X143042699Y-95476597D01*
X143042698Y-95476597D01*
X142911271Y-95455781D01*
X142871611Y-95449500D01*
X142698389Y-95449500D01*
X142658728Y-95455781D01*
X142527302Y-95476597D01*
X142362552Y-95530128D01*
X142208211Y-95608768D01*
X142173772Y-95633790D01*
X142068072Y-95710586D01*
X142068070Y-95710588D01*
X142068069Y-95710588D01*
X141945585Y-95833072D01*
X141934459Y-95848387D01*
X141879128Y-95891052D01*
X141834142Y-95899500D01*
X140374500Y-95899500D01*
X140307461Y-95879815D01*
X140261706Y-95827011D01*
X140250500Y-95775500D01*
X140250500Y-93874464D01*
X140270185Y-93807425D01*
X140301616Y-93774145D01*
X140382069Y-93715693D01*
X140382069Y-93715692D01*
X140382073Y-93715690D01*
X140515690Y-93582073D01*
X140626760Y-93429199D01*
X140712547Y-93260832D01*
X140770940Y-93081118D01*
X140775869Y-93050000D01*
X140800500Y-92894486D01*
X140800500Y-92705513D01*
X140770940Y-92518881D01*
X140712545Y-92339163D01*
X140662273Y-92240500D01*
X140626760Y-92170801D01*
X140620497Y-92162181D01*
X140609748Y-92147385D01*
X140605516Y-92135525D01*
X140597272Y-92126011D01*
X140593998Y-92103244D01*
X140586268Y-92081579D01*
X140589119Y-92069315D01*
X140587328Y-92056853D01*
X140596884Y-92035927D01*
X140602094Y-92013525D01*
X140611122Y-92004750D01*
X140616353Y-91993297D01*
X140635703Y-91980861D01*
X140652199Y-91964830D01*
X140665946Y-91961425D01*
X140675131Y-91955523D01*
X140710066Y-91950500D01*
X140774192Y-91950500D01*
X140841231Y-91970185D01*
X140861873Y-91986819D01*
X145065265Y-96190211D01*
X145098750Y-96251534D01*
X145100057Y-96297290D01*
X145084500Y-96395513D01*
X145084500Y-96584486D01*
X145114059Y-96771118D01*
X145172454Y-96950836D01*
X145258240Y-97119199D01*
X145369310Y-97272073D01*
X145502927Y-97405690D01*
X145655801Y-97516760D01*
X145735347Y-97557290D01*
X145824163Y-97602545D01*
X145824165Y-97602545D01*
X145824168Y-97602547D01*
X145888353Y-97623402D01*
X146003881Y-97660940D01*
X146190514Y-97690500D01*
X146190519Y-97690500D01*
X146379486Y-97690500D01*
X146566118Y-97660940D01*
X146745832Y-97602547D01*
X146914199Y-97516760D01*
X147067073Y-97405690D01*
X147200690Y-97272073D01*
X147311760Y-97119199D01*
X147397547Y-96950832D01*
X147455940Y-96771118D01*
X147477244Y-96636610D01*
X147485500Y-96584486D01*
X147485500Y-96395513D01*
X147462695Y-96251534D01*
X147455940Y-96208882D01*
X147443891Y-96171803D01*
X147441895Y-96101963D01*
X147474139Y-96045805D01*
X148482459Y-95037485D01*
X153588198Y-95037485D01*
X153680968Y-95084755D01*
X153875582Y-95147990D01*
X154077683Y-95180000D01*
X154282317Y-95180000D01*
X154484417Y-95147990D01*
X154679031Y-95084755D01*
X154771801Y-95037485D01*
X161208198Y-95037485D01*
X161300968Y-95084755D01*
X161495582Y-95147990D01*
X161697683Y-95180000D01*
X161902317Y-95180000D01*
X162104417Y-95147990D01*
X162299031Y-95084755D01*
X162391801Y-95037485D01*
X161800001Y-94445685D01*
X161800000Y-94445685D01*
X161208198Y-95037485D01*
X154771801Y-95037485D01*
X154180001Y-94445685D01*
X154180000Y-94445685D01*
X153588198Y-95037485D01*
X148482459Y-95037485D01*
X149742263Y-93777682D01*
X152880000Y-93777682D01*
X152880000Y-93982317D01*
X152912009Y-94184417D01*
X152975243Y-94379027D01*
X152975246Y-94379034D01*
X153022512Y-94471801D01*
X153614314Y-93880000D01*
X153614314Y-93879999D01*
X153561654Y-93827339D01*
X153780000Y-93827339D01*
X153780000Y-93932661D01*
X153807259Y-94034394D01*
X153859920Y-94125606D01*
X153934394Y-94200080D01*
X154025606Y-94252741D01*
X154127339Y-94280000D01*
X154232661Y-94280000D01*
X154334394Y-94252741D01*
X154425606Y-94200080D01*
X154500080Y-94125606D01*
X154552741Y-94034394D01*
X154580000Y-93932661D01*
X154580000Y-93879999D01*
X154745685Y-93879999D01*
X154745685Y-93880000D01*
X155337485Y-94471800D01*
X155384755Y-94379031D01*
X155447990Y-94184417D01*
X155480000Y-93982317D01*
X155480000Y-93777682D01*
X160500000Y-93777682D01*
X160500000Y-93982317D01*
X160532009Y-94184417D01*
X160595243Y-94379027D01*
X160595246Y-94379034D01*
X160642512Y-94471801D01*
X161234314Y-93880000D01*
X161234314Y-93879999D01*
X161181654Y-93827339D01*
X161400000Y-93827339D01*
X161400000Y-93932661D01*
X161427259Y-94034394D01*
X161479920Y-94125606D01*
X161554394Y-94200080D01*
X161645606Y-94252741D01*
X161747339Y-94280000D01*
X161852661Y-94280000D01*
X161954394Y-94252741D01*
X162045606Y-94200080D01*
X162120080Y-94125606D01*
X162172741Y-94034394D01*
X162200000Y-93932661D01*
X162200000Y-93879999D01*
X162365685Y-93879999D01*
X162365685Y-93880000D01*
X162957485Y-94471800D01*
X163004755Y-94379031D01*
X163067990Y-94184417D01*
X163100000Y-93982317D01*
X163100000Y-93777682D01*
X163067990Y-93575582D01*
X163004755Y-93380968D01*
X162957485Y-93288198D01*
X162365685Y-93879999D01*
X162200000Y-93879999D01*
X162200000Y-93827339D01*
X162172741Y-93725606D01*
X162120080Y-93634394D01*
X162045606Y-93559920D01*
X161954394Y-93507259D01*
X161852661Y-93480000D01*
X161747339Y-93480000D01*
X161645606Y-93507259D01*
X161554394Y-93559920D01*
X161479920Y-93634394D01*
X161427259Y-93725606D01*
X161400000Y-93827339D01*
X161181654Y-93827339D01*
X160642512Y-93288197D01*
X160595242Y-93380973D01*
X160595242Y-93380974D01*
X160532010Y-93575578D01*
X160532010Y-93575581D01*
X160500000Y-93777682D01*
X155480000Y-93777682D01*
X155447990Y-93575582D01*
X155384755Y-93380968D01*
X155337485Y-93288198D01*
X154745685Y-93879999D01*
X154580000Y-93879999D01*
X154580000Y-93827339D01*
X154552741Y-93725606D01*
X154500080Y-93634394D01*
X154425606Y-93559920D01*
X154334394Y-93507259D01*
X154232661Y-93480000D01*
X154127339Y-93480000D01*
X154025606Y-93507259D01*
X153934394Y-93559920D01*
X153859920Y-93634394D01*
X153807259Y-93725606D01*
X153780000Y-93827339D01*
X153561654Y-93827339D01*
X153022512Y-93288197D01*
X152975242Y-93380973D01*
X152975242Y-93380974D01*
X152912010Y-93575578D01*
X152912010Y-93575581D01*
X152880000Y-93777682D01*
X149742263Y-93777682D01*
X151493127Y-92026819D01*
X151554450Y-91993334D01*
X151580808Y-91990500D01*
X153105535Y-91990500D01*
X153172574Y-92010185D01*
X153205852Y-92041613D01*
X153264310Y-92122073D01*
X153397927Y-92255690D01*
X153550801Y-92366760D01*
X153704439Y-92445042D01*
X153755235Y-92493016D01*
X153772030Y-92560837D01*
X153749493Y-92626972D01*
X153694778Y-92670424D01*
X153686474Y-92673454D01*
X153680981Y-92675239D01*
X153680973Y-92675242D01*
X153588197Y-92722512D01*
X154180000Y-93314314D01*
X154180001Y-93314314D01*
X154771801Y-92722512D01*
X154679034Y-92675246D01*
X154679019Y-92675240D01*
X154673534Y-92673458D01*
X154615859Y-92634020D01*
X154588662Y-92569661D01*
X154600578Y-92500815D01*
X154647822Y-92449340D01*
X154655559Y-92445043D01*
X154655561Y-92445042D01*
X154809199Y-92366760D01*
X154962073Y-92255690D01*
X155095690Y-92122073D01*
X155206760Y-91969199D01*
X155292547Y-91800832D01*
X155350940Y-91621118D01*
X155355038Y-91595242D01*
X155380500Y-91434486D01*
X155380500Y-91245513D01*
X155350940Y-91058881D01*
X155320659Y-90965687D01*
X155292547Y-90879168D01*
X155292545Y-90879165D01*
X155292545Y-90879163D01*
X155218944Y-90734714D01*
X155206760Y-90710801D01*
X155095690Y-90557927D01*
X154962073Y-90424310D01*
X154809199Y-90313240D01*
X154640836Y-90227454D01*
X154566472Y-90203291D01*
X154519195Y-90187930D01*
X154461521Y-90148493D01*
X154434323Y-90084134D01*
X154446238Y-90015288D01*
X154493482Y-89963812D01*
X154519194Y-89952069D01*
X154640832Y-89912547D01*
X154809199Y-89826760D01*
X154962073Y-89715690D01*
X155095690Y-89582073D01*
X155206760Y-89429199D01*
X155292547Y-89260832D01*
X155350940Y-89081118D01*
X155373694Y-88937454D01*
X155380500Y-88894486D01*
X155380500Y-88705521D01*
X155380499Y-88705513D01*
X155364941Y-88607287D01*
X155373895Y-88537997D01*
X155399730Y-88500214D01*
X156295277Y-87604669D01*
X156295277Y-87604668D01*
X157734432Y-86165513D01*
X160599500Y-86165513D01*
X160599500Y-86354486D01*
X160629059Y-86541118D01*
X160687454Y-86720836D01*
X160728647Y-86801681D01*
X160773240Y-86889199D01*
X160884310Y-87042073D01*
X161017927Y-87175690D01*
X161170801Y-87286760D01*
X161250347Y-87327290D01*
X161339163Y-87372545D01*
X161339165Y-87372545D01*
X161339168Y-87372547D01*
X161428734Y-87401649D01*
X161460803Y-87412069D01*
X161518478Y-87451507D01*
X161545676Y-87515866D01*
X161533761Y-87584712D01*
X161486516Y-87636188D01*
X161460803Y-87647931D01*
X161339163Y-87687454D01*
X161170800Y-87773240D01*
X161083579Y-87836610D01*
X161017927Y-87884310D01*
X161017925Y-87884312D01*
X161017924Y-87884312D01*
X160884312Y-88017924D01*
X160884312Y-88017925D01*
X160884310Y-88017927D01*
X160836610Y-88083579D01*
X160773240Y-88170800D01*
X160687454Y-88339163D01*
X160629059Y-88518881D01*
X160599500Y-88705513D01*
X160599500Y-88894486D01*
X160629059Y-89081118D01*
X160687454Y-89260836D01*
X160768961Y-89420801D01*
X160773240Y-89429199D01*
X160884310Y-89582073D01*
X161017927Y-89715690D01*
X161170801Y-89826760D01*
X161201000Y-89842147D01*
X161339163Y-89912545D01*
X161339165Y-89912545D01*
X161339168Y-89912547D01*
X161428734Y-89941649D01*
X161460803Y-89952069D01*
X161518478Y-89991507D01*
X161545676Y-90055866D01*
X161533761Y-90124712D01*
X161486516Y-90176188D01*
X161460803Y-90187931D01*
X161339163Y-90227454D01*
X161170800Y-90313240D01*
X161114126Y-90354417D01*
X161017927Y-90424310D01*
X161017925Y-90424312D01*
X161017924Y-90424312D01*
X160884312Y-90557924D01*
X160884312Y-90557925D01*
X160884310Y-90557927D01*
X160836610Y-90623579D01*
X160773240Y-90710800D01*
X160687454Y-90879163D01*
X160629059Y-91058881D01*
X160599500Y-91245513D01*
X160599500Y-91434486D01*
X160629059Y-91621118D01*
X160687454Y-91800836D01*
X160757065Y-91937454D01*
X160773240Y-91969199D01*
X160884310Y-92122073D01*
X161017927Y-92255690D01*
X161170801Y-92366760D01*
X161324439Y-92445042D01*
X161375235Y-92493016D01*
X161392030Y-92560837D01*
X161369493Y-92626972D01*
X161314778Y-92670424D01*
X161306474Y-92673454D01*
X161300981Y-92675239D01*
X161300973Y-92675242D01*
X161208197Y-92722512D01*
X161800000Y-93314314D01*
X161800001Y-93314314D01*
X162391801Y-92722512D01*
X162299034Y-92675246D01*
X162299019Y-92675240D01*
X162293534Y-92673458D01*
X162235859Y-92634020D01*
X162208662Y-92569661D01*
X162220578Y-92500815D01*
X162267822Y-92449340D01*
X162275559Y-92445043D01*
X162275561Y-92445042D01*
X162429199Y-92366760D01*
X162570385Y-92264181D01*
X162636190Y-92240702D01*
X162643270Y-92240500D01*
X163078693Y-92240500D01*
X163078694Y-92240499D01*
X163252666Y-92205895D01*
X163338118Y-92170499D01*
X163416547Y-92138013D01*
X163504959Y-92078936D01*
X163564036Y-92039464D01*
X165460767Y-90142730D01*
X165522088Y-90109247D01*
X165529049Y-90107940D01*
X165538388Y-90106460D01*
X165557701Y-90103402D01*
X165722445Y-90049873D01*
X165876788Y-89971232D01*
X166016928Y-89869414D01*
X166139414Y-89746928D01*
X166241232Y-89606788D01*
X166319873Y-89452445D01*
X166373402Y-89287701D01*
X166400500Y-89116611D01*
X166400500Y-88943389D01*
X166373402Y-88772299D01*
X166319873Y-88607555D01*
X166241232Y-88453212D01*
X166139414Y-88313072D01*
X166016928Y-88190586D01*
X165876788Y-88088768D01*
X165722447Y-88010128D01*
X165722446Y-88010127D01*
X165722445Y-88010127D01*
X165557701Y-87956598D01*
X165557699Y-87956597D01*
X165557698Y-87956597D01*
X165426271Y-87935781D01*
X165386611Y-87929500D01*
X165386610Y-87929500D01*
X165321726Y-87929500D01*
X165297535Y-87927117D01*
X165158696Y-87899500D01*
X165158692Y-87899500D01*
X165158691Y-87899500D01*
X162643270Y-87899500D01*
X162576231Y-87879815D01*
X162570397Y-87875827D01*
X162429199Y-87773240D01*
X162260836Y-87687454D01*
X162186472Y-87663291D01*
X162139195Y-87647930D01*
X162081521Y-87608493D01*
X162054323Y-87544134D01*
X162066238Y-87475288D01*
X162113482Y-87423812D01*
X162139194Y-87412069D01*
X162260832Y-87372547D01*
X162429199Y-87286760D01*
X162487803Y-87244181D01*
X162553608Y-87220702D01*
X162560688Y-87220500D01*
X164196730Y-87220500D01*
X164263769Y-87240185D01*
X164269602Y-87244172D01*
X164410801Y-87346760D01*
X164461407Y-87372545D01*
X164579163Y-87432545D01*
X164579165Y-87432545D01*
X164579168Y-87432547D01*
X164665198Y-87460500D01*
X164758881Y-87490940D01*
X164945514Y-87520500D01*
X164945519Y-87520500D01*
X165134486Y-87520500D01*
X165321118Y-87490940D01*
X165500832Y-87432547D01*
X165669199Y-87346760D01*
X165822073Y-87235690D01*
X165955690Y-87102073D01*
X166066760Y-86949199D01*
X166152547Y-86780832D01*
X166210940Y-86601118D01*
X166220443Y-86541118D01*
X166240500Y-86414486D01*
X166240500Y-86225513D01*
X166210940Y-86038881D01*
X166159901Y-85881801D01*
X166152547Y-85859168D01*
X166152545Y-85859165D01*
X166152545Y-85859163D01*
X166066759Y-85690800D01*
X166032973Y-85644298D01*
X165955690Y-85537927D01*
X165822073Y-85404310D01*
X165669199Y-85293240D01*
X165662838Y-85289999D01*
X165557488Y-85236320D01*
X165506692Y-85188345D01*
X165489897Y-85120524D01*
X165512435Y-85054389D01*
X165557488Y-85015350D01*
X165631800Y-84977485D01*
X165040001Y-84385685D01*
X165040000Y-84385685D01*
X164448198Y-84977485D01*
X164522511Y-85015350D01*
X164573307Y-85063324D01*
X164590102Y-85131145D01*
X164567565Y-85197280D01*
X164522512Y-85236319D01*
X164410803Y-85293238D01*
X164390297Y-85308137D01*
X164269614Y-85395818D01*
X164203810Y-85419298D01*
X164196730Y-85419500D01*
X162708625Y-85419500D01*
X162641586Y-85399815D01*
X162620944Y-85383181D01*
X162582075Y-85344312D01*
X162582073Y-85344310D01*
X162429199Y-85233240D01*
X162260836Y-85147454D01*
X162081118Y-85089059D01*
X161894486Y-85059500D01*
X161894481Y-85059500D01*
X161705519Y-85059500D01*
X161705514Y-85059500D01*
X161518881Y-85089059D01*
X161339163Y-85147454D01*
X161170800Y-85233240D01*
X161092679Y-85289999D01*
X161017927Y-85344310D01*
X161017925Y-85344312D01*
X161017924Y-85344312D01*
X160884312Y-85477924D01*
X160884312Y-85477925D01*
X160884310Y-85477927D01*
X160842404Y-85535606D01*
X160773240Y-85630800D01*
X160687454Y-85799163D01*
X160629059Y-85978881D01*
X160599500Y-86165513D01*
X157734432Y-86165513D01*
X160065276Y-83834669D01*
X160136465Y-83728127D01*
X160140791Y-83717682D01*
X163740000Y-83717682D01*
X163740000Y-83922317D01*
X163772009Y-84124417D01*
X163835243Y-84319027D01*
X163835246Y-84319034D01*
X163882512Y-84411801D01*
X164474314Y-83820000D01*
X164474314Y-83819999D01*
X164421654Y-83767339D01*
X164640000Y-83767339D01*
X164640000Y-83872661D01*
X164667259Y-83974394D01*
X164719920Y-84065606D01*
X164794394Y-84140080D01*
X164885606Y-84192741D01*
X164987339Y-84220000D01*
X165092661Y-84220000D01*
X165194394Y-84192741D01*
X165285606Y-84140080D01*
X165360080Y-84065606D01*
X165412741Y-83974394D01*
X165440000Y-83872661D01*
X165440000Y-83819999D01*
X165605685Y-83819999D01*
X165605685Y-83820000D01*
X166197485Y-84411800D01*
X166244755Y-84319031D01*
X166307990Y-84124417D01*
X166340000Y-83922317D01*
X166340000Y-83717682D01*
X166307990Y-83515582D01*
X166244755Y-83320968D01*
X166197485Y-83228198D01*
X165605685Y-83819999D01*
X165440000Y-83819999D01*
X165440000Y-83767339D01*
X165412741Y-83665606D01*
X165360080Y-83574394D01*
X165285606Y-83499920D01*
X165194394Y-83447259D01*
X165092661Y-83420000D01*
X164987339Y-83420000D01*
X164885606Y-83447259D01*
X164794394Y-83499920D01*
X164719920Y-83574394D01*
X164667259Y-83665606D01*
X164640000Y-83767339D01*
X164421654Y-83767339D01*
X163882512Y-83228197D01*
X163835242Y-83320973D01*
X163835242Y-83320974D01*
X163772010Y-83515578D01*
X163772010Y-83515581D01*
X163740000Y-83717682D01*
X160140791Y-83717682D01*
X160185501Y-83609744D01*
X160189329Y-83590499D01*
X160210500Y-83484069D01*
X160210500Y-82662512D01*
X164448197Y-82662512D01*
X165040000Y-83254314D01*
X165040001Y-83254314D01*
X165631801Y-82662512D01*
X165539034Y-82615246D01*
X165539027Y-82615243D01*
X165344417Y-82552009D01*
X165142317Y-82520000D01*
X164937683Y-82520000D01*
X164735581Y-82552010D01*
X164735578Y-82552010D01*
X164540974Y-82615242D01*
X164540973Y-82615242D01*
X164448197Y-82662512D01*
X160210500Y-82662512D01*
X160210500Y-80194464D01*
X160230185Y-80127425D01*
X160261616Y-80094145D01*
X160342069Y-80035693D01*
X160342069Y-80035692D01*
X160342073Y-80035690D01*
X160475690Y-79902073D01*
X160586760Y-79749199D01*
X160672547Y-79580832D01*
X160730940Y-79401118D01*
X160734244Y-79380255D01*
X160760500Y-79214486D01*
X160760500Y-79025513D01*
X160730940Y-78838881D01*
X160672545Y-78659163D01*
X160619121Y-78554314D01*
X160586760Y-78490801D01*
X160475690Y-78337927D01*
X160342073Y-78204310D01*
X160189199Y-78093240D01*
X160185034Y-78091118D01*
X160020836Y-78007454D01*
X159841118Y-77949059D01*
X159654486Y-77919500D01*
X159654481Y-77919500D01*
X159465519Y-77919500D01*
X159465514Y-77919500D01*
X159278881Y-77949059D01*
X159099163Y-78007454D01*
X158930800Y-78093240D01*
X158843579Y-78156610D01*
X158777927Y-78204310D01*
X158777925Y-78204312D01*
X158777924Y-78204312D01*
X158644312Y-78337924D01*
X158644312Y-78337925D01*
X158644310Y-78337927D01*
X158596610Y-78403579D01*
X158533240Y-78490800D01*
X158447454Y-78659163D01*
X158389059Y-78838881D01*
X158359500Y-79025513D01*
X158359500Y-79214486D01*
X158389059Y-79401118D01*
X158447454Y-79580836D01*
X158500878Y-79685685D01*
X158533240Y-79749199D01*
X158644310Y-79902073D01*
X158644312Y-79902075D01*
X158777930Y-80035693D01*
X158858384Y-80094145D01*
X158901051Y-80149475D01*
X158909500Y-80194464D01*
X158909500Y-83099192D01*
X158889815Y-83166231D01*
X158873181Y-83186873D01*
X155592181Y-86467873D01*
X155530858Y-86501358D01*
X155461166Y-86496374D01*
X155405233Y-86454502D01*
X155380816Y-86389038D01*
X155380500Y-86380192D01*
X155380500Y-85644313D01*
X155380499Y-85644298D01*
X155377598Y-85607432D01*
X155377597Y-85607426D01*
X155331745Y-85449606D01*
X155331744Y-85449603D01*
X155331744Y-85449602D01*
X155248081Y-85308135D01*
X155248079Y-85308133D01*
X155248076Y-85308129D01*
X155131870Y-85191923D01*
X155131862Y-85191917D01*
X155053681Y-85145681D01*
X154990398Y-85108256D01*
X154990397Y-85108255D01*
X154990396Y-85108255D01*
X154990393Y-85108254D01*
X154832573Y-85062402D01*
X154832567Y-85062401D01*
X154795701Y-85059500D01*
X154795694Y-85059500D01*
X153564306Y-85059500D01*
X153564298Y-85059500D01*
X153527432Y-85062401D01*
X153527426Y-85062402D01*
X153369606Y-85108254D01*
X153369603Y-85108255D01*
X153228137Y-85191917D01*
X153228129Y-85191923D01*
X153111923Y-85308129D01*
X153111917Y-85308137D01*
X153028255Y-85449603D01*
X153028254Y-85449606D01*
X152982402Y-85607426D01*
X152982401Y-85607432D01*
X152979500Y-85644298D01*
X152979500Y-86489192D01*
X152959815Y-86556231D01*
X152943181Y-86576873D01*
X152606873Y-86913181D01*
X152545550Y-86946666D01*
X152519192Y-86949500D01*
X142180808Y-86949500D01*
X142151367Y-86940855D01*
X142121381Y-86934332D01*
X142116365Y-86930577D01*
X142113769Y-86929815D01*
X142093127Y-86913181D01*
X141981627Y-86801681D01*
X141948142Y-86740358D01*
X141953126Y-86670666D01*
X141994998Y-86614733D01*
X142060462Y-86590316D01*
X142069308Y-86590000D01*
X142152317Y-86590000D01*
X142354417Y-86557990D01*
X142549031Y-86494755D01*
X142641801Y-86447485D01*
X141804394Y-85610080D01*
X141895606Y-85662741D01*
X141997339Y-85690000D01*
X142102661Y-85690000D01*
X142204394Y-85662741D01*
X142295606Y-85610080D01*
X142370080Y-85535606D01*
X142422741Y-85444394D01*
X142450000Y-85342661D01*
X142450000Y-85289999D01*
X142615685Y-85289999D01*
X142615685Y-85290000D01*
X143207485Y-85881800D01*
X143254755Y-85789031D01*
X143317990Y-85594417D01*
X143350000Y-85392317D01*
X143350000Y-85187682D01*
X143317990Y-84985582D01*
X143254755Y-84790968D01*
X143207485Y-84698198D01*
X142615685Y-85289999D01*
X142450000Y-85289999D01*
X142450000Y-85237339D01*
X142422741Y-85135606D01*
X142370080Y-85044394D01*
X142295606Y-84969920D01*
X142204394Y-84917259D01*
X142102661Y-84890000D01*
X141997339Y-84890000D01*
X141895606Y-84917259D01*
X141804394Y-84969920D01*
X141729920Y-85044394D01*
X141677259Y-85135606D01*
X141650000Y-85237339D01*
X141650000Y-85342661D01*
X141677259Y-85444394D01*
X141729920Y-85535606D01*
X141520633Y-85326319D01*
X140892512Y-84698197D01*
X140854649Y-84772510D01*
X140806675Y-84823307D01*
X140738854Y-84840102D01*
X140672719Y-84817565D01*
X140633679Y-84772511D01*
X140609121Y-84724314D01*
X140576760Y-84660801D01*
X140465690Y-84507927D01*
X140332073Y-84374310D01*
X140332070Y-84374307D01*
X140291613Y-84344913D01*
X140288272Y-84340581D01*
X140283297Y-84338309D01*
X140267167Y-84313211D01*
X140248948Y-84289583D01*
X140247695Y-84282910D01*
X140245523Y-84279531D01*
X140240500Y-84244596D01*
X140240500Y-84132512D01*
X141458197Y-84132512D01*
X142050000Y-84724314D01*
X142050001Y-84724314D01*
X142641801Y-84132512D01*
X142549034Y-84085246D01*
X142549027Y-84085243D01*
X142354417Y-84022009D01*
X142152317Y-83990000D01*
X141947683Y-83990000D01*
X141745581Y-84022010D01*
X141745578Y-84022010D01*
X141550974Y-84085242D01*
X141550973Y-84085242D01*
X141458197Y-84132512D01*
X140240500Y-84132512D01*
X140240500Y-83500060D01*
X140260185Y-83433021D01*
X140295699Y-83398261D01*
X140295185Y-83397554D01*
X140299127Y-83394690D01*
X140471421Y-83269511D01*
X140622011Y-83118921D01*
X140747190Y-82946627D01*
X140843875Y-82756872D01*
X140909685Y-82554328D01*
X140933765Y-82402292D01*
X140943000Y-82343988D01*
X140943000Y-82036011D01*
X140913901Y-81852292D01*
X140909685Y-81825672D01*
X140843875Y-81623128D01*
X140843875Y-81623127D01*
X140747189Y-81433372D01*
X140729187Y-81408594D01*
X140622011Y-81261079D01*
X140471421Y-81110489D01*
X140299127Y-80985310D01*
X140299126Y-80985309D01*
X140295185Y-80982446D01*
X140295900Y-80981461D01*
X140252827Y-80933839D01*
X140240500Y-80879939D01*
X140240500Y-80277485D01*
X151348198Y-80277485D01*
X151440968Y-80324755D01*
X151635582Y-80387990D01*
X151837683Y-80420000D01*
X152042317Y-80420000D01*
X152244417Y-80387990D01*
X152439031Y-80324755D01*
X152531801Y-80277485D01*
X151940001Y-79685685D01*
X151940000Y-79685685D01*
X151348198Y-80277485D01*
X140240500Y-80277485D01*
X140240500Y-79505928D01*
X140215502Y-79380261D01*
X140215501Y-79380260D01*
X140215501Y-79380256D01*
X140166465Y-79261873D01*
X140166464Y-79261872D01*
X140166461Y-79261866D01*
X140095276Y-79155331D01*
X140095273Y-79155327D01*
X140040443Y-79100498D01*
X139957627Y-79017682D01*
X150640000Y-79017682D01*
X150640000Y-79222317D01*
X150672009Y-79424417D01*
X150735243Y-79619027D01*
X150735246Y-79619034D01*
X150782512Y-79711801D01*
X151374314Y-79120000D01*
X151374314Y-79119999D01*
X151321654Y-79067339D01*
X151540000Y-79067339D01*
X151540000Y-79172661D01*
X151567259Y-79274394D01*
X151619920Y-79365606D01*
X151694394Y-79440080D01*
X151785606Y-79492741D01*
X151887339Y-79520000D01*
X151992661Y-79520000D01*
X152094394Y-79492741D01*
X152185606Y-79440080D01*
X152260080Y-79365606D01*
X152312741Y-79274394D01*
X152340000Y-79172661D01*
X152340000Y-79119999D01*
X152505685Y-79119999D01*
X152505685Y-79120000D01*
X153097485Y-79711800D01*
X153144755Y-79619031D01*
X153207990Y-79424417D01*
X153240000Y-79222317D01*
X153240000Y-79017682D01*
X153207990Y-78815582D01*
X153144755Y-78620968D01*
X153097485Y-78528198D01*
X152505685Y-79119999D01*
X152340000Y-79119999D01*
X152340000Y-79067339D01*
X152312741Y-78965606D01*
X152260080Y-78874394D01*
X152185606Y-78799920D01*
X152094394Y-78747259D01*
X151992661Y-78720000D01*
X151887339Y-78720000D01*
X151785606Y-78747259D01*
X151694394Y-78799920D01*
X151619920Y-78874394D01*
X151567259Y-78965606D01*
X151540000Y-79067339D01*
X151321654Y-79067339D01*
X150782512Y-78528197D01*
X150735242Y-78620973D01*
X150735242Y-78620974D01*
X150672010Y-78815578D01*
X150672010Y-78815581D01*
X150640000Y-79017682D01*
X139957627Y-79017682D01*
X138902457Y-77962512D01*
X151348197Y-77962512D01*
X151940000Y-78554314D01*
X151940001Y-78554314D01*
X152531801Y-77962512D01*
X152439034Y-77915246D01*
X152439027Y-77915243D01*
X152244417Y-77852009D01*
X152042317Y-77820000D01*
X151837683Y-77820000D01*
X151635581Y-77852010D01*
X151635578Y-77852010D01*
X151440974Y-77915242D01*
X151440973Y-77915242D01*
X151348197Y-77962512D01*
X138902457Y-77962512D01*
X137861913Y-76921968D01*
X136991625Y-76051679D01*
X136958141Y-75990358D01*
X136963125Y-75920666D01*
X137004997Y-75864733D01*
X137070461Y-75840316D01*
X137079307Y-75840000D01*
X137102317Y-75840000D01*
X137304417Y-75807990D01*
X137499031Y-75744755D01*
X137591801Y-75697485D01*
X136754394Y-74860080D01*
X136845606Y-74912741D01*
X136947339Y-74940000D01*
X137052661Y-74940000D01*
X137154394Y-74912741D01*
X137245606Y-74860080D01*
X137320080Y-74785606D01*
X137372741Y-74694394D01*
X137400000Y-74592661D01*
X137400000Y-74487339D01*
X137372741Y-74385606D01*
X137320080Y-74294394D01*
X137245606Y-74219920D01*
X137154394Y-74167259D01*
X137052661Y-74140000D01*
X136947339Y-74140000D01*
X136845606Y-74167259D01*
X136754394Y-74219920D01*
X136679920Y-74294394D01*
X136627259Y-74385606D01*
X136600000Y-74487339D01*
X136600000Y-74592661D01*
X136627259Y-74694394D01*
X136679919Y-74785605D01*
X135842512Y-73948197D01*
X135804649Y-74022510D01*
X135756675Y-74073307D01*
X135688854Y-74090102D01*
X135622719Y-74067565D01*
X135583679Y-74022511D01*
X135546732Y-73949999D01*
X135526760Y-73910801D01*
X135415690Y-73757927D01*
X135282073Y-73624310D01*
X135282069Y-73624307D01*
X135261613Y-73609444D01*
X135258273Y-73605112D01*
X135253297Y-73602840D01*
X135237165Y-73577739D01*
X135218948Y-73554113D01*
X135217695Y-73547442D01*
X135215523Y-73544062D01*
X135210500Y-73509127D01*
X135210500Y-73382512D01*
X136408197Y-73382512D01*
X137000000Y-73974314D01*
X137000001Y-73974314D01*
X137591801Y-73382512D01*
X137499034Y-73335246D01*
X137499027Y-73335243D01*
X137304417Y-73272009D01*
X137102317Y-73240000D01*
X136897683Y-73240000D01*
X136695581Y-73272010D01*
X136695578Y-73272010D01*
X136500974Y-73335242D01*
X136500973Y-73335242D01*
X136408197Y-73382512D01*
X135210500Y-73382512D01*
X135210500Y-73014499D01*
X135230185Y-72947460D01*
X135282989Y-72901705D01*
X135334500Y-72890499D01*
X135464017Y-72890499D01*
X135464018Y-72890499D01*
X135557804Y-72875646D01*
X135670842Y-72818050D01*
X135760550Y-72728342D01*
X135816784Y-72617976D01*
X135864756Y-72567183D01*
X135932577Y-72550388D01*
X135998712Y-72572925D01*
X136014948Y-72586593D01*
X136073757Y-72645402D01*
X136258723Y-72779788D01*
X136462433Y-72883583D01*
X136462436Y-72883585D01*
X136619999Y-72934779D01*
X136620000Y-72934779D01*
X136620000Y-71867818D01*
X136682292Y-71930110D01*
X136807708Y-72002518D01*
X136947591Y-72040000D01*
X137092409Y-72040000D01*
X137232292Y-72002518D01*
X137357708Y-71930110D01*
X137420000Y-71867818D01*
X137420000Y-72934779D01*
X137577563Y-72883585D01*
X137577566Y-72883583D01*
X137781276Y-72779788D01*
X137966242Y-72645402D01*
X138127902Y-72483742D01*
X138127907Y-72483736D01*
X138251175Y-72314072D01*
X138306504Y-72271406D01*
X138376118Y-72265427D01*
X138437913Y-72298032D01*
X138451810Y-72314070D01*
X138527989Y-72418921D01*
X138678579Y-72569511D01*
X138848386Y-72692883D01*
X138891051Y-72748213D01*
X138899500Y-72793201D01*
X138899500Y-73465534D01*
X138879815Y-73532573D01*
X138848387Y-73565851D01*
X138767927Y-73624309D01*
X138634312Y-73757924D01*
X138634312Y-73757925D01*
X138634310Y-73757927D01*
X138586610Y-73823579D01*
X138523240Y-73910800D01*
X138438850Y-74076424D01*
X138390875Y-74127220D01*
X138323054Y-74144015D01*
X138256919Y-74121477D01*
X138213468Y-74066762D01*
X138210433Y-74058446D01*
X138204753Y-74040966D01*
X138157485Y-73948198D01*
X137565685Y-74539999D01*
X137565685Y-74540000D01*
X138157485Y-75131800D01*
X138204755Y-75039030D01*
X138210433Y-75021555D01*
X138249869Y-74963879D01*
X138314227Y-74936679D01*
X138383073Y-74948591D01*
X138434551Y-74995834D01*
X138438850Y-75003575D01*
X138492663Y-75109188D01*
X138523240Y-75169199D01*
X138634310Y-75322073D01*
X138767927Y-75455690D01*
X138920801Y-75566760D01*
X139000347Y-75607290D01*
X139089163Y-75652545D01*
X139089165Y-75652545D01*
X139089168Y-75652547D01*
X139185497Y-75683846D01*
X139268881Y-75710940D01*
X139455514Y-75740500D01*
X139455519Y-75740500D01*
X139644486Y-75740500D01*
X139831118Y-75710940D01*
X139853668Y-75703613D01*
X139872528Y-75697485D01*
X141458198Y-75697485D01*
X141550968Y-75744755D01*
X141745582Y-75807990D01*
X141947683Y-75840000D01*
X142152317Y-75840000D01*
X142354417Y-75807990D01*
X142549031Y-75744755D01*
X142641801Y-75697485D01*
X142050001Y-75105685D01*
X142050000Y-75105685D01*
X141458198Y-75697485D01*
X139872528Y-75697485D01*
X140010832Y-75652547D01*
X140179199Y-75566760D01*
X140332073Y-75455690D01*
X140465690Y-75322073D01*
X140576760Y-75169199D01*
X140633679Y-75057487D01*
X140681653Y-75006692D01*
X140749474Y-74989896D01*
X140815609Y-75012433D01*
X140854649Y-75057488D01*
X140892512Y-75131801D01*
X141484314Y-74540000D01*
X141484314Y-74539999D01*
X141431654Y-74487339D01*
X141650000Y-74487339D01*
X141650000Y-74592661D01*
X141677259Y-74694394D01*
X141729920Y-74785606D01*
X141804394Y-74860080D01*
X141895606Y-74912741D01*
X141997339Y-74940000D01*
X142102661Y-74940000D01*
X142204394Y-74912741D01*
X142295606Y-74860080D01*
X142370080Y-74785606D01*
X142422741Y-74694394D01*
X142450000Y-74592661D01*
X142450000Y-74539999D01*
X142615685Y-74539999D01*
X142615685Y-74540000D01*
X143207485Y-75131800D01*
X143219874Y-75107485D01*
X146908198Y-75107485D01*
X147000968Y-75154755D01*
X147195582Y-75217990D01*
X147397683Y-75250000D01*
X147602317Y-75250000D01*
X147804417Y-75217990D01*
X147999031Y-75154755D01*
X148091801Y-75107485D01*
X147500001Y-74515685D01*
X147500000Y-74515685D01*
X146908198Y-75107485D01*
X143219874Y-75107485D01*
X143254756Y-75039028D01*
X143258938Y-75026160D01*
X143317990Y-74844417D01*
X143350000Y-74642317D01*
X143350000Y-74437682D01*
X143317990Y-74235582D01*
X143254755Y-74040968D01*
X143207486Y-73948198D01*
X142615685Y-74539999D01*
X142450000Y-74539999D01*
X142450000Y-74487339D01*
X142422741Y-74385606D01*
X142370080Y-74294394D01*
X142295606Y-74219920D01*
X142204394Y-74167259D01*
X142102661Y-74140000D01*
X141997339Y-74140000D01*
X141895606Y-74167259D01*
X141804394Y-74219920D01*
X141729920Y-74294394D01*
X141677259Y-74385606D01*
X141650000Y-74487339D01*
X141431654Y-74487339D01*
X140892512Y-73948197D01*
X140854649Y-74022510D01*
X140806675Y-74073307D01*
X140738854Y-74090102D01*
X140672719Y-74067565D01*
X140633679Y-74022511D01*
X140596732Y-73949999D01*
X140576760Y-73910801D01*
X140465690Y-73757927D01*
X140332073Y-73624310D01*
X140311612Y-73609444D01*
X140251613Y-73565851D01*
X140248272Y-73561519D01*
X140243297Y-73559247D01*
X140227167Y-73534149D01*
X140208948Y-73510521D01*
X140207695Y-73503848D01*
X140205523Y-73500469D01*
X140200500Y-73465534D01*
X140200500Y-73382512D01*
X141458197Y-73382512D01*
X142050000Y-73974314D01*
X142050001Y-73974314D01*
X142176633Y-73847682D01*
X146200000Y-73847682D01*
X146200000Y-74052317D01*
X146232009Y-74254417D01*
X146295243Y-74449027D01*
X146295246Y-74449034D01*
X146342512Y-74541801D01*
X146934314Y-73950000D01*
X146934314Y-73949999D01*
X146881654Y-73897339D01*
X147100000Y-73897339D01*
X147100000Y-74002661D01*
X147127259Y-74104394D01*
X147179920Y-74195606D01*
X147254394Y-74270080D01*
X147345606Y-74322741D01*
X147447339Y-74350000D01*
X147552661Y-74350000D01*
X147654394Y-74322741D01*
X147745606Y-74270080D01*
X147820080Y-74195606D01*
X147872741Y-74104394D01*
X147900000Y-74002661D01*
X147900000Y-73949999D01*
X148065685Y-73949999D01*
X148065685Y-73950000D01*
X148657485Y-74541800D01*
X148704755Y-74449031D01*
X148767990Y-74254417D01*
X148800000Y-74052317D01*
X148800000Y-73847682D01*
X148767990Y-73645582D01*
X148704755Y-73450968D01*
X148657485Y-73358198D01*
X148065685Y-73949999D01*
X147900000Y-73949999D01*
X147900000Y-73897339D01*
X147872741Y-73795606D01*
X147820080Y-73704394D01*
X147745606Y-73629920D01*
X147654394Y-73577259D01*
X147552661Y-73550000D01*
X147447339Y-73550000D01*
X147345606Y-73577259D01*
X147254394Y-73629920D01*
X147179920Y-73704394D01*
X147127259Y-73795606D01*
X147100000Y-73897339D01*
X146881654Y-73897339D01*
X146342512Y-73358197D01*
X146295242Y-73450973D01*
X146295242Y-73450974D01*
X146232010Y-73645578D01*
X146232010Y-73645581D01*
X146200000Y-73847682D01*
X142176633Y-73847682D01*
X142641801Y-73382512D01*
X142549034Y-73335246D01*
X142549027Y-73335243D01*
X142354417Y-73272009D01*
X142152317Y-73240000D01*
X141947683Y-73240000D01*
X141745581Y-73272010D01*
X141745578Y-73272010D01*
X141550974Y-73335242D01*
X141550973Y-73335242D01*
X141458197Y-73382512D01*
X140200500Y-73382512D01*
X140200500Y-72805644D01*
X140220185Y-72738605D01*
X140265310Y-72697782D01*
X140264975Y-72697235D01*
X140267890Y-72695448D01*
X140268216Y-72695154D01*
X140269127Y-72694690D01*
X140441421Y-72569511D01*
X140592011Y-72418921D01*
X140717190Y-72246627D01*
X140736767Y-72208205D01*
X140784742Y-72157409D01*
X140847252Y-72140500D01*
X146454597Y-72140500D01*
X146521636Y-72160185D01*
X146554913Y-72191613D01*
X146584310Y-72232073D01*
X146717927Y-72365690D01*
X146870801Y-72476760D01*
X146958642Y-72521517D01*
X146982511Y-72533679D01*
X147033307Y-72581654D01*
X147050102Y-72649475D01*
X147027565Y-72715609D01*
X146982510Y-72754649D01*
X146908197Y-72792512D01*
X147500000Y-73384314D01*
X147500001Y-73384314D01*
X148091801Y-72792512D01*
X148017488Y-72754649D01*
X147966692Y-72706675D01*
X147949896Y-72638854D01*
X147972433Y-72572719D01*
X148017486Y-72533680D01*
X148129199Y-72476760D01*
X148282073Y-72365690D01*
X148415690Y-72232073D01*
X148445085Y-72191613D01*
X148500416Y-72148949D01*
X148545403Y-72140500D01*
X150615501Y-72140500D01*
X150682540Y-72160185D01*
X150728295Y-72212989D01*
X150739501Y-72264500D01*
X150739501Y-72331518D01*
X150754354Y-72425304D01*
X150811950Y-72538342D01*
X150811952Y-72538344D01*
X150811954Y-72538347D01*
X150901652Y-72628045D01*
X150901654Y-72628046D01*
X150901658Y-72628050D01*
X151014694Y-72685645D01*
X151014698Y-72685647D01*
X151108475Y-72700499D01*
X151108481Y-72700500D01*
X152771518Y-72700499D01*
X152865304Y-72685646D01*
X152978342Y-72628050D01*
X153068050Y-72538342D01*
X153125646Y-72425304D01*
X153125646Y-72425302D01*
X153125647Y-72425301D01*
X153140500Y-72331524D01*
X153140500Y-72274500D01*
X153160185Y-72207461D01*
X153212989Y-72161706D01*
X153264500Y-72150500D01*
X158485535Y-72150500D01*
X158552574Y-72170185D01*
X158585852Y-72201613D01*
X158644310Y-72282073D01*
X158777927Y-72415690D01*
X158930801Y-72526760D01*
X158977174Y-72550388D01*
X159099163Y-72612545D01*
X159099165Y-72612545D01*
X159099168Y-72612547D01*
X159180132Y-72638854D01*
X159278881Y-72670940D01*
X159465514Y-72700500D01*
X159465519Y-72700500D01*
X159654486Y-72700500D01*
X159841118Y-72670940D01*
X160020832Y-72612547D01*
X160189199Y-72526760D01*
X160342073Y-72415690D01*
X160475690Y-72282073D01*
X160586760Y-72129199D01*
X160672547Y-71960832D01*
X160730940Y-71781118D01*
X160746469Y-71683070D01*
X160760500Y-71594486D01*
X160760500Y-71405513D01*
X160730940Y-71218881D01*
X160689226Y-71090500D01*
X160672547Y-71039168D01*
X160672545Y-71039165D01*
X160672545Y-71039163D01*
X160627290Y-70950347D01*
X160586760Y-70870801D01*
X160475690Y-70717927D01*
X160342073Y-70584310D01*
X160189199Y-70473240D01*
X160160221Y-70458475D01*
X160020836Y-70387454D01*
X159841118Y-70329059D01*
X159654486Y-70299500D01*
X159654481Y-70299500D01*
X159465519Y-70299500D01*
X159465514Y-70299500D01*
X159278881Y-70329059D01*
X159099163Y-70387454D01*
X158930800Y-70473240D01*
X158846746Y-70534310D01*
X158777927Y-70584310D01*
X158777925Y-70584312D01*
X158777924Y-70584312D01*
X158644311Y-70717925D01*
X158585853Y-70798386D01*
X158530522Y-70841051D01*
X158485535Y-70849500D01*
X153264499Y-70849500D01*
X153197460Y-70829815D01*
X153151705Y-70777011D01*
X153140499Y-70725500D01*
X153140499Y-70668482D01*
X153140411Y-70667924D01*
X153125646Y-70574696D01*
X153068050Y-70461658D01*
X153068046Y-70461654D01*
X153068045Y-70461652D01*
X152978347Y-70371954D01*
X152978344Y-70371952D01*
X152978342Y-70371950D01*
X152894164Y-70329059D01*
X152865301Y-70314352D01*
X152771524Y-70299500D01*
X151108482Y-70299500D01*
X151027519Y-70312323D01*
X151014696Y-70314354D01*
X150901658Y-70371950D01*
X150901657Y-70371951D01*
X150901652Y-70371954D01*
X150811954Y-70461652D01*
X150811951Y-70461657D01*
X150811950Y-70461658D01*
X150806049Y-70473240D01*
X150754352Y-70574698D01*
X150739500Y-70668475D01*
X150739500Y-70715500D01*
X150719815Y-70782539D01*
X150667011Y-70828294D01*
X150615500Y-70839500D01*
X148603526Y-70839500D01*
X148536487Y-70819815D01*
X148503208Y-70788385D01*
X148494944Y-70777011D01*
X148415690Y-70667927D01*
X148282073Y-70534310D01*
X148129199Y-70423240D01*
X148104174Y-70410489D01*
X147960836Y-70337454D01*
X147781118Y-70279059D01*
X147594486Y-70249500D01*
X147594481Y-70249500D01*
X147405519Y-70249500D01*
X147405514Y-70249500D01*
X147218881Y-70279059D01*
X147039163Y-70337454D01*
X146870800Y-70423240D01*
X146817923Y-70461658D01*
X146717927Y-70534310D01*
X146717925Y-70534312D01*
X146717924Y-70534312D01*
X146584312Y-70667924D01*
X146584307Y-70667930D01*
X146536761Y-70733372D01*
X146505056Y-70777011D01*
X146496792Y-70788385D01*
X146441462Y-70831051D01*
X146396474Y-70839500D01*
X140847252Y-70839500D01*
X140780213Y-70819815D01*
X140736767Y-70771795D01*
X140717189Y-70733372D01*
X140711470Y-70725500D01*
X140592011Y-70561079D01*
X140441421Y-70410489D01*
X140269127Y-70285310D01*
X140256859Y-70279059D01*
X140079372Y-70188624D01*
X140079369Y-70188623D01*
X139876829Y-70122815D01*
X139666488Y-70089500D01*
X139666483Y-70089500D01*
X139453517Y-70089500D01*
X139453512Y-70089500D01*
X139243170Y-70122815D01*
X139040630Y-70188623D01*
X139040627Y-70188624D01*
X138850872Y-70285310D01*
X138790656Y-70329060D01*
X138678579Y-70410489D01*
X138678577Y-70410491D01*
X138678576Y-70410491D01*
X138527991Y-70561076D01*
X138527984Y-70561085D01*
X138451810Y-70665928D01*
X138396480Y-70708594D01*
X138326867Y-70714572D01*
X138265072Y-70681966D01*
X138251175Y-70665927D01*
X138127907Y-70496263D01*
X138127902Y-70496257D01*
X137966242Y-70334597D01*
X137781276Y-70200211D01*
X137577570Y-70096417D01*
X137420000Y-70045219D01*
X137420000Y-71112182D01*
X137357708Y-71049890D01*
X137232292Y-70977482D01*
X137092409Y-70940000D01*
X136947591Y-70940000D01*
X136807708Y-70977482D01*
X136682292Y-71049890D01*
X136620000Y-71112182D01*
X136620000Y-70045219D01*
X136462429Y-70096417D01*
X136258723Y-70200211D01*
X136073760Y-70334595D01*
X136014948Y-70393407D01*
X135953624Y-70426891D01*
X135883933Y-70421906D01*
X135827999Y-70380035D01*
X135816784Y-70362024D01*
X135760550Y-70251658D01*
X135760546Y-70251654D01*
X135760545Y-70251652D01*
X135670847Y-70161954D01*
X135670844Y-70161952D01*
X135670842Y-70161950D01*
X135594017Y-70122805D01*
X135557801Y-70104352D01*
X135464024Y-70089500D01*
X133495982Y-70089500D01*
X133415019Y-70102323D01*
X133402196Y-70104354D01*
X133289158Y-70161950D01*
X133289157Y-70161951D01*
X133289152Y-70161954D01*
X133199454Y-70251652D01*
X133199451Y-70251657D01*
X133199450Y-70251658D01*
X133185488Y-70279060D01*
X133141852Y-70364698D01*
X133127000Y-70458475D01*
X133127000Y-72521517D01*
X133135110Y-72572719D01*
X133141854Y-72615304D01*
X133199450Y-72728342D01*
X133199452Y-72728344D01*
X133199454Y-72728347D01*
X133289152Y-72818045D01*
X133289154Y-72818046D01*
X133289158Y-72818050D01*
X133402194Y-72875645D01*
X133402198Y-72875647D01*
X133495975Y-72890499D01*
X133495981Y-72890500D01*
X133785501Y-72890499D01*
X133852539Y-72910183D01*
X133898294Y-72962987D01*
X133909500Y-73014499D01*
X133909500Y-73421943D01*
X133889815Y-73488982D01*
X133858385Y-73522261D01*
X133717930Y-73624307D01*
X133717924Y-73624312D01*
X133584312Y-73757924D01*
X133584312Y-73757925D01*
X133584310Y-73757927D01*
X133536610Y-73823579D01*
X133473240Y-73910800D01*
X133387454Y-74079163D01*
X133329059Y-74258881D01*
X133299500Y-74445513D01*
X133299500Y-74634486D01*
X133329059Y-74821118D01*
X133387454Y-75000836D01*
X133442663Y-75109188D01*
X133473240Y-75169199D01*
X133584310Y-75322073D01*
X133717927Y-75455690D01*
X133870801Y-75566760D01*
X133950347Y-75607290D01*
X134039163Y-75652545D01*
X134039165Y-75652545D01*
X134039168Y-75652547D01*
X134135497Y-75683846D01*
X134218881Y-75710940D01*
X134405514Y-75740500D01*
X134405519Y-75740500D01*
X134594485Y-75740500D01*
X134652310Y-75731340D01*
X134744507Y-75716738D01*
X134813798Y-75725692D01*
X134851584Y-75751530D01*
X138903181Y-79803126D01*
X138936666Y-79864449D01*
X138939500Y-79890807D01*
X138939500Y-80879939D01*
X138919815Y-80946978D01*
X138884303Y-80981742D01*
X138884815Y-80982446D01*
X138880873Y-80985309D01*
X138880873Y-80985310D01*
X138708579Y-81110489D01*
X138708577Y-81110491D01*
X138708576Y-81110491D01*
X138557991Y-81261076D01*
X138557984Y-81261085D01*
X138481810Y-81365928D01*
X138426480Y-81408594D01*
X138356867Y-81414572D01*
X138295072Y-81381966D01*
X138281175Y-81365927D01*
X138157907Y-81196263D01*
X138157902Y-81196257D01*
X137996242Y-81034597D01*
X137811276Y-80900211D01*
X137607570Y-80796417D01*
X137450000Y-80745219D01*
X137450000Y-81812182D01*
X137387708Y-81749890D01*
X137262292Y-81677482D01*
X137122409Y-81640000D01*
X136977591Y-81640000D01*
X136837708Y-81677482D01*
X136712292Y-81749890D01*
X136650000Y-81812182D01*
X136650000Y-80745219D01*
X136492429Y-80796417D01*
X136288723Y-80900211D01*
X136103760Y-81034595D01*
X136044948Y-81093407D01*
X135983624Y-81126891D01*
X135913933Y-81121906D01*
X135857999Y-81080035D01*
X135846784Y-81062024D01*
X135790550Y-80951658D01*
X135790546Y-80951654D01*
X135790545Y-80951652D01*
X135700847Y-80861954D01*
X135700844Y-80861952D01*
X135700842Y-80861950D01*
X135624017Y-80822805D01*
X135587801Y-80804352D01*
X135494024Y-80789500D01*
X133525982Y-80789500D01*
X133445019Y-80802323D01*
X133432196Y-80804354D01*
X133319158Y-80861950D01*
X133319157Y-80861951D01*
X133319152Y-80861954D01*
X133229454Y-80951652D01*
X133229451Y-80951657D01*
X133171852Y-81064698D01*
X133157000Y-81158475D01*
X133157000Y-81165500D01*
X133137315Y-81232539D01*
X133084511Y-81278294D01*
X133033000Y-81289500D01*
X130614361Y-81289500D01*
X130547322Y-81269815D01*
X130526680Y-81253181D01*
X124697994Y-75424494D01*
X124697989Y-75424490D01*
X124643581Y-75388137D01*
X124643575Y-75388134D01*
X124638918Y-75385022D01*
X124550506Y-75325946D01*
X124468565Y-75292005D01*
X124386625Y-75258064D01*
X124386617Y-75258062D01*
X124212655Y-75223459D01*
X124212651Y-75223459D01*
X124212650Y-75223459D01*
X121524191Y-75223459D01*
X121457152Y-75203774D01*
X121411397Y-75150970D01*
X121400573Y-75109188D01*
X121397598Y-75071391D01*
X121397597Y-75071385D01*
X121351746Y-74913566D01*
X121351744Y-74913563D01*
X121351744Y-74913562D01*
X121268081Y-74772095D01*
X121268079Y-74772093D01*
X121268076Y-74772089D01*
X121151869Y-74655882D01*
X121151861Y-74655876D01*
X121010395Y-74572214D01*
X121010392Y-74572212D01*
X120852573Y-74526361D01*
X120852567Y-74526360D01*
X120815701Y-74523459D01*
X120815694Y-74523459D01*
X118784306Y-74523459D01*
X118784298Y-74523459D01*
X118747432Y-74526360D01*
X118747426Y-74526361D01*
X118589607Y-74572212D01*
X118589604Y-74572214D01*
X118448138Y-74655876D01*
X118448130Y-74655882D01*
X118331923Y-74772089D01*
X118331917Y-74772097D01*
X118248255Y-74913563D01*
X118248253Y-74913566D01*
X118202402Y-75071385D01*
X118202401Y-75071391D01*
X118199427Y-75109188D01*
X118174543Y-75174477D01*
X118118312Y-75215947D01*
X118075809Y-75223459D01*
X116148320Y-75223459D01*
X116081281Y-75203774D01*
X116060639Y-75187140D01*
X113492239Y-72618739D01*
X111886034Y-71012534D01*
X118100000Y-71012534D01*
X118100000Y-71235383D01*
X118129085Y-71456313D01*
X118129088Y-71456326D01*
X118186763Y-71671577D01*
X118272045Y-71877461D01*
X118272050Y-71877472D01*
X118348458Y-72009814D01*
X118348459Y-72009815D01*
X119200000Y-71158274D01*
X119200000Y-71202950D01*
X119240889Y-71355550D01*
X119319881Y-71492367D01*
X119431592Y-71604078D01*
X119568409Y-71683070D01*
X119721009Y-71723959D01*
X119765685Y-71723959D01*
X118914143Y-72575499D01*
X118914143Y-72575500D01*
X119046487Y-72651909D01*
X119046488Y-72651910D01*
X119252381Y-72737195D01*
X119467632Y-72794870D01*
X119467645Y-72794873D01*
X119688575Y-72823959D01*
X119911425Y-72823959D01*
X120132354Y-72794873D01*
X120132367Y-72794870D01*
X120347618Y-72737195D01*
X120553503Y-72651913D01*
X120553514Y-72651908D01*
X120685856Y-72575500D01*
X120685856Y-72575499D01*
X119834315Y-71723959D01*
X119878991Y-71723959D01*
X120031591Y-71683070D01*
X120168408Y-71604078D01*
X120280119Y-71492367D01*
X120359111Y-71355550D01*
X120400000Y-71202950D01*
X120400000Y-71158275D01*
X121251540Y-72009815D01*
X121251541Y-72009815D01*
X121327949Y-71877473D01*
X121327954Y-71877462D01*
X121413236Y-71671577D01*
X121470911Y-71456326D01*
X121470914Y-71456313D01*
X121500000Y-71235383D01*
X121500000Y-71012534D01*
X121470914Y-70791604D01*
X121470911Y-70791591D01*
X121413236Y-70576340D01*
X121327951Y-70370447D01*
X121327950Y-70370446D01*
X121251541Y-70238102D01*
X121251540Y-70238102D01*
X120400000Y-71089642D01*
X120400000Y-71044968D01*
X120359111Y-70892368D01*
X120280119Y-70755551D01*
X120168408Y-70643840D01*
X120031591Y-70564848D01*
X119878991Y-70523959D01*
X119834313Y-70523959D01*
X120685855Y-69672417D01*
X120553513Y-69596009D01*
X120553502Y-69596004D01*
X120347618Y-69510722D01*
X120132367Y-69453047D01*
X120132354Y-69453044D01*
X119911425Y-69423959D01*
X119688575Y-69423959D01*
X119467645Y-69453044D01*
X119467632Y-69453047D01*
X119252381Y-69510722D01*
X119046502Y-69596000D01*
X119046497Y-69596003D01*
X118914143Y-69672417D01*
X118914142Y-69672417D01*
X119765685Y-70523959D01*
X119721009Y-70523959D01*
X119568409Y-70564848D01*
X119431592Y-70643840D01*
X119319881Y-70755551D01*
X119240889Y-70892368D01*
X119200000Y-71044968D01*
X119200000Y-71089643D01*
X118348458Y-70238101D01*
X118348458Y-70238102D01*
X118272044Y-70370456D01*
X118272041Y-70370461D01*
X118186763Y-70576340D01*
X118129088Y-70791591D01*
X118129085Y-70791604D01*
X118100000Y-71012534D01*
X111886034Y-71012534D01*
X110364035Y-69490535D01*
X110364030Y-69490531D01*
X110309622Y-69454178D01*
X110309616Y-69454175D01*
X110304959Y-69451063D01*
X110216547Y-69391987D01*
X110134606Y-69358046D01*
X110052666Y-69324105D01*
X110052658Y-69324103D01*
X109878696Y-69289500D01*
X109878692Y-69289500D01*
X109878691Y-69289500D01*
X108274272Y-69289500D01*
X108207233Y-69269815D01*
X108163788Y-69221796D01*
X108142607Y-69180229D01*
X108128050Y-69151658D01*
X108128047Y-69151655D01*
X108128045Y-69151652D01*
X108038347Y-69061954D01*
X108038344Y-69061952D01*
X108038342Y-69061950D01*
X107961517Y-69022805D01*
X107925301Y-69004352D01*
X107879673Y-68997126D01*
X107831524Y-68989500D01*
X106168482Y-68989500D01*
X106087519Y-69002323D01*
X106074696Y-69004354D01*
X105961658Y-69061950D01*
X105961657Y-69061951D01*
X105961652Y-69061954D01*
X105871954Y-69151652D01*
X105871951Y-69151657D01*
X105871950Y-69151658D01*
X105852751Y-69189337D01*
X105814352Y-69264698D01*
X105799500Y-69358475D01*
X102922750Y-69358475D01*
X102911583Y-69343105D01*
X102766895Y-69198417D01*
X102601349Y-69078140D01*
X102419031Y-68985244D01*
X102320000Y-68953066D01*
X102320000Y-69790000D01*
X101972661Y-69790000D01*
X101867339Y-69790000D01*
X101765606Y-69817259D01*
X101674394Y-69869920D01*
X101599920Y-69944394D01*
X101547259Y-70035606D01*
X101520000Y-70137339D01*
X96459794Y-70137339D01*
X96541936Y-70030289D01*
X96663224Y-69820212D01*
X96675739Y-69789999D01*
X100683067Y-69789999D01*
X100683067Y-69790000D01*
X101520000Y-69790000D01*
X101520000Y-68953066D01*
X101420968Y-68985244D01*
X101238650Y-69078140D01*
X101073105Y-69198417D01*
X101073104Y-69198417D01*
X100928417Y-69343104D01*
X100928417Y-69343105D01*
X100808140Y-69508650D01*
X100715244Y-69690970D01*
X100683067Y-69789999D01*
X96675739Y-69789999D01*
X96756054Y-69596100D01*
X96818838Y-69361789D01*
X96850500Y-69121288D01*
X96850500Y-68878712D01*
X96850500Y-68878711D01*
X165149500Y-68878711D01*
X165149500Y-69121288D01*
X165181161Y-69361785D01*
X165243947Y-69596104D01*
X165275557Y-69672417D01*
X165336776Y-69820212D01*
X165458064Y-70030289D01*
X165458066Y-70030292D01*
X165458067Y-70030293D01*
X165605733Y-70222736D01*
X165605739Y-70222743D01*
X165777256Y-70394260D01*
X165777263Y-70394266D01*
X165815023Y-70423240D01*
X165969711Y-70541936D01*
X166179788Y-70663224D01*
X166311853Y-70717927D01*
X166402685Y-70755551D01*
X166403900Y-70756054D01*
X166638211Y-70818838D01*
X166818586Y-70842584D01*
X166878711Y-70850500D01*
X166878712Y-70850500D01*
X167121289Y-70850500D01*
X167169388Y-70844167D01*
X167361789Y-70818838D01*
X167596100Y-70756054D01*
X167820212Y-70663224D01*
X168030289Y-70541936D01*
X168222738Y-70394265D01*
X168394265Y-70222738D01*
X168541936Y-70030289D01*
X168663224Y-69820212D01*
X168756054Y-69596100D01*
X168818838Y-69361789D01*
X168850500Y-69121288D01*
X168850500Y-68878712D01*
X168818838Y-68638211D01*
X168756054Y-68403900D01*
X168663224Y-68179788D01*
X168541936Y-67969711D01*
X168394265Y-67777262D01*
X168394260Y-67777256D01*
X168222743Y-67605739D01*
X168222736Y-67605733D01*
X168030293Y-67458067D01*
X168030292Y-67458066D01*
X168030289Y-67458064D01*
X167820212Y-67336776D01*
X167820205Y-67336773D01*
X167596104Y-67243947D01*
X167361785Y-67181161D01*
X167121289Y-67149500D01*
X167121288Y-67149500D01*
X166878712Y-67149500D01*
X166878711Y-67149500D01*
X166638214Y-67181161D01*
X166403895Y-67243947D01*
X166179794Y-67336773D01*
X166179785Y-67336777D01*
X165969706Y-67458067D01*
X165777263Y-67605733D01*
X165777256Y-67605739D01*
X165605739Y-67777256D01*
X165605733Y-67777263D01*
X165458067Y-67969706D01*
X165336777Y-68179785D01*
X165336773Y-68179794D01*
X165243947Y-68403895D01*
X165181161Y-68638214D01*
X165149500Y-68878711D01*
X96850500Y-68878711D01*
X96818838Y-68638211D01*
X96756054Y-68403900D01*
X96663224Y-68179788D01*
X96541936Y-67969711D01*
X96394265Y-67777262D01*
X96394260Y-67777256D01*
X96222743Y-67605739D01*
X96222736Y-67605733D01*
X96030293Y-67458067D01*
X96030292Y-67458066D01*
X96030289Y-67458064D01*
X95820212Y-67336776D01*
X95820205Y-67336773D01*
X95596104Y-67243947D01*
X95361785Y-67181161D01*
X95121289Y-67149500D01*
X95121288Y-67149500D01*
X94878712Y-67149500D01*
X94878711Y-67149500D01*
X94638214Y-67181161D01*
X94403895Y-67243947D01*
X94179794Y-67336773D01*
X94179785Y-67336777D01*
X93969706Y-67458067D01*
X93777263Y-67605733D01*
X93777256Y-67605739D01*
X93605739Y-67777256D01*
X93605733Y-67777263D01*
X93458067Y-67969706D01*
X93336777Y-68179785D01*
X93336773Y-68179794D01*
X93243947Y-68403895D01*
X93181161Y-68638214D01*
X93149500Y-68878711D01*
X91500500Y-68878711D01*
X91500500Y-65624500D01*
X91520185Y-65557461D01*
X91572989Y-65511706D01*
X91624500Y-65500500D01*
X170375500Y-65500500D01*
X170442539Y-65520185D01*
G37*
%TD.AperFunction*%
%TD*%
M02*
