%TF.GenerationSoftware,KiCad,Pcbnew,10.0.1*%
%TF.CreationDate,2026-05-15T18:02:36-06:00*%
%TF.ProjectId,MMS_SSTC,4d4d535f-5353-4544-932e-6b696361645f,1.0.0*%
%TF.SameCoordinates,Original*%
%TF.FileFunction,Soldermask,Top*%
%TF.FilePolarity,Negative*%
%FSLAX46Y46*%
G04 Gerber Fmt 4.6, Leading zero omitted, Abs format (unit mm)*
G04 Created by KiCad (PCBNEW 10.0.1) date 2026-05-15 18:02:36*
%MOMM*%
%LPD*%
G01*
G04 APERTURE LIST*
G04 Aperture macros list*
%AMRoundRect*
0 Rectangle with rounded corners*
0 $1 Rounding radius*
0 $2 $3 $4 $5 $6 $7 $8 $9 X,Y pos of 4 corners*
0 Add a 4 corners polygon primitive as box body*
4,1,4,$2,$3,$4,$5,$6,$7,$8,$9,$2,$3,0*
0 Add four circle primitives for the rounded corners*
1,1,$1+$1,$2,$3*
1,1,$1+$1,$4,$5*
1,1,$1+$1,$6,$7*
1,1,$1+$1,$8,$9*
0 Add four rect primitives between the rounded corners*
20,1,$1+$1,$2,$3,$4,$5,0*
20,1,$1+$1,$4,$5,$6,$7,0*
20,1,$1+$1,$6,$7,$8,$9,0*
20,1,$1+$1,$8,$9,$2,$3,0*%
G04 Aperture macros list end*
%ADD10C,1.400000*%
%ADD11C,1.600000*%
%ADD12RoundRect,0.250000X0.550000X-0.550000X0.550000X0.550000X-0.550000X0.550000X-0.550000X-0.550000X0*%
%ADD13RoundRect,0.250000X-0.550000X0.550000X-0.550000X-0.550000X0.550000X-0.550000X0.550000X0.550000X0*%
%ADD14C,2.154000*%
%ADD15R,4.500000X2.500000*%
%ADD16O,4.500000X2.500000*%
%ADD17C,3.200000*%
%ADD18R,1.800000X1.800000*%
%ADD19C,1.800000*%
%ADD20C,2.400000*%
%ADD21R,2.200000X2.200000*%
%ADD22C,2.200000*%
%ADD23RoundRect,0.250000X-0.550000X-0.550000X0.550000X-0.550000X0.550000X0.550000X-0.550000X0.550000X0*%
%ADD24R,1.905000X2.000000*%
%ADD25O,1.905000X2.000000*%
%ADD26R,1.600000X1.600000*%
%ADD27O,1.600000X1.600000*%
%ADD28RoundRect,0.250000X1.050000X1.050000X-1.050000X1.050000X-1.050000X-1.050000X1.050000X-1.050000X0*%
%ADD29C,2.600000*%
%ADD30C,2.000000*%
%ADD31RoundRect,0.250001X0.949999X-0.949999X0.949999X0.949999X-0.949999X0.949999X-0.949999X-0.949999X0*%
%ADD32RoundRect,0.250000X1.750000X-1.750000X1.750000X1.750000X-1.750000X1.750000X-1.750000X-1.750000X0*%
%ADD33C,4.000000*%
G04 APERTURE END LIST*
D10*
%TO.C,R1*%
X139390000Y-96550000D03*
X139390000Y-101630000D03*
%TD*%
D11*
%TO.C,C1*%
X130520000Y-103750000D03*
X128020000Y-103750000D03*
%TD*%
%TO.C,D1*%
X146285000Y-96490000D03*
D12*
X146285000Y-104110000D03*
%TD*%
D10*
%TO.C,R2*%
X142785000Y-96550000D03*
X142785000Y-101630000D03*
%TD*%
D11*
%TO.C,C2*%
X130785000Y-90050000D03*
X128285000Y-90050000D03*
%TD*%
%TO.C,U1*%
X135890000Y-100670000D03*
X133350000Y-100670000D03*
X130810000Y-100670000D03*
X128270000Y-100670000D03*
X128270000Y-93050000D03*
X130810000Y-93050000D03*
X133350000Y-93050000D03*
D13*
X135890000Y-93050000D03*
%TD*%
D11*
%TO.C,C9*%
X144600000Y-92800000D03*
X139600000Y-92800000D03*
%TD*%
%TO.C,C4*%
X147500000Y-71450000D03*
X147500000Y-73950000D03*
%TD*%
D14*
%TO.C,J1*%
X114000000Y-132600000D03*
X109000000Y-132600000D03*
X104000000Y-132600000D03*
%TD*%
D15*
%TO.C,Q1*%
X168200000Y-99550000D03*
D16*
X168200000Y-105000000D03*
X168200000Y-110450000D03*
%TD*%
D11*
%TO.C,C3*%
X165040000Y-83820000D03*
X165040000Y-86320000D03*
%TD*%
D17*
%TO.C,H3*%
X95000000Y-69000000D03*
%TD*%
D11*
%TO.C,C8*%
X139550000Y-74540000D03*
X142050000Y-74540000D03*
%TD*%
D14*
%TO.C,J2*%
X148000000Y-132600000D03*
X153000000Y-132600000D03*
X158000000Y-132600000D03*
%TD*%
D10*
%TO.C,R3*%
X165300000Y-94110000D03*
X165300000Y-89030000D03*
%TD*%
D11*
%TO.C,C5*%
X134500000Y-85290000D03*
X137000000Y-85290000D03*
%TD*%
D18*
%TO.C,LED1*%
X122930000Y-138200000D03*
D19*
X125470000Y-138200000D03*
%TD*%
D11*
%TO.C,C6*%
X139550000Y-85290000D03*
X142050000Y-85290000D03*
%TD*%
D20*
%TO.C,F1*%
X97500000Y-135350000D03*
X97500000Y-122650000D03*
%TD*%
D21*
%TO.C,TR1*%
X97000000Y-88000000D03*
D22*
X97000000Y-108000000D03*
X117000000Y-93000000D03*
X117000000Y-103000000D03*
%TD*%
D23*
%TO.C,U2*%
X154180000Y-86260000D03*
D11*
X154180000Y-88800000D03*
X154180000Y-91340000D03*
X154180000Y-93880000D03*
X161800000Y-93880000D03*
X161800000Y-91340000D03*
X161800000Y-88800000D03*
X161800000Y-86260000D03*
%TD*%
D24*
%TO.C,U3*%
X134510000Y-82190000D03*
D25*
X137050000Y-82190000D03*
X139590000Y-82190000D03*
%TD*%
D24*
%TO.C,U4*%
X134480000Y-71490000D03*
D25*
X137020000Y-71490000D03*
X139560000Y-71490000D03*
%TD*%
D26*
%TO.C,D2*%
X107000000Y-70190000D03*
D27*
X101920000Y-70190000D03*
X101920000Y-77810000D03*
X107000000Y-77810000D03*
%TD*%
D17*
%TO.C,H4*%
X95000000Y-141000000D03*
%TD*%
D28*
%TO.C,D3*%
X115950000Y-122500000D03*
D29*
X103250000Y-122500000D03*
%TD*%
D30*
%TO.C,C10*%
X161700000Y-99800000D03*
X161700000Y-109800000D03*
%TD*%
D20*
%TO.C,TVS1*%
X154500000Y-112100000D03*
X154500000Y-99400000D03*
%TD*%
D17*
%TO.C,H2*%
X167000000Y-69000000D03*
%TD*%
D20*
%TO.C,R5*%
X136140000Y-138000000D03*
X131060000Y-138000000D03*
%TD*%
D11*
%TO.C,C7*%
X134500000Y-74540000D03*
X137000000Y-74540000D03*
%TD*%
D31*
%TO.C,C12*%
X119800000Y-76123959D03*
D20*
X119800000Y-71123959D03*
%TD*%
%TO.C,C13*%
X152900000Y-123100000D03*
X167900000Y-123100000D03*
%TD*%
D32*
%TO.C,C14*%
X136000000Y-123057832D03*
D33*
X136000000Y-113057832D03*
%TD*%
D17*
%TO.C,H1*%
X167000000Y-141000000D03*
%TD*%
D26*
%TO.C,Y1*%
X151940000Y-71500000D03*
D11*
X151940000Y-79120000D03*
X159560000Y-79120000D03*
X159560000Y-71500000D03*
%TD*%
D10*
%TO.C,R4*%
X124000000Y-133540000D03*
X124000000Y-128460000D03*
%TD*%
M02*
